0, 0, Header, 1, 24, 480
1, 0, Start_track
1, 0, Time_signature, 4, 2, 24, 8
1, 0, Key_signature, 0, "major"
1, 0, Tempo, 340909
1, 0, Marker_t, "chu2"
1, 23040, Marker_t, "loopStart"
1, 107520, Marker_t, "loopEnd"
1, 107520, End_track
2, 0, Start_track
2, 0, MIDI_port, 0
2, 0, Title_t, "ST1"
2, 0, Control_c, 0, 0, 0
2, 0, Program_c, 0, 48
2, 0, Control_c, 0, 7, 120
2, 0, Control_c, 0, 10, 20
2, 23040, Note_on_c, 0, 77, 110
2, 23280, Note_on_c, 0, 77, 0
2, 23280, Note_on_c, 0, 76, 110
2, 23340, Note_on_c, 0, 76, 0
2, 23520, Note_on_c, 0, 77, 110
2, 23760, Note_on_c, 0, 77, 0
2, 23760, Note_on_c, 0, 76, 110
2, 23820, Note_on_c, 0, 76, 0
2, 24000, Note_on_c, 0, 74, 110
2, 24240, Note_on_c, 0, 74, 0
2, 24240, Note_on_c, 0, 72, 110
2, 24300, Note_on_c, 0, 72, 0
2, 24480, Note_on_c, 0, 74, 110
2, 24720, Note_on_c, 0, 74, 0
2, 24720, Note_on_c, 0, 72, 110
2, 24780, Note_on_c, 0, 72, 0
2, 24960, Note_on_c, 0, 77, 110
2, 25200, Note_on_c, 0, 77, 0
2, 25200, Note_on_c, 0, 76, 110
2, 25260, Note_on_c, 0, 76, 0
2, 25440, Note_on_c, 0, 77, 110
2, 25680, Note_on_c, 0, 77, 0
2, 25680, Note_on_c, 0, 76, 110
2, 25740, Note_on_c, 0, 76, 0
2, 25920, Note_on_c, 0, 74, 110
2, 26160, Note_on_c, 0, 74, 0
2, 26160, Note_on_c, 0, 72, 110
2, 26220, Note_on_c, 0, 72, 0
2, 26400, Note_on_c, 0, 74, 110
2, 26640, Note_on_c, 0, 74, 0
2, 26640, Note_on_c, 0, 72, 110
2, 26700, Note_on_c, 0, 72, 0
2, 26880, Note_on_c, 0, 77, 110
2, 27120, Note_on_c, 0, 77, 0
2, 27120, Note_on_c, 0, 76, 110
2, 27180, Note_on_c, 0, 76, 0
2, 27360, Note_on_c, 0, 77, 110
2, 27600, Note_on_c, 0, 77, 0
2, 27600, Note_on_c, 0, 76, 110
2, 27660, Note_on_c, 0, 76, 0
2, 27840, Note_on_c, 0, 74, 110
2, 28080, Note_on_c, 0, 74, 0
2, 28080, Note_on_c, 0, 72, 110
2, 28140, Note_on_c, 0, 72, 0
2, 28320, Note_on_c, 0, 74, 110
2, 28560, Note_on_c, 0, 74, 0
2, 28560, Note_on_c, 0, 72, 110
2, 28620, Note_on_c, 0, 72, 0
2, 28800, Note_on_c, 0, 77, 110
2, 29040, Note_on_c, 0, 77, 0
2, 29040, Note_on_c, 0, 76, 110
2, 29100, Note_on_c, 0, 76, 0
2, 29280, Note_on_c, 0, 77, 110
2, 29520, Note_on_c, 0, 77, 0
2, 29520, Note_on_c, 0, 76, 110
2, 29580, Note_on_c, 0, 76, 0
2, 29760, Note_on_c, 0, 74, 110
2, 30000, Note_on_c, 0, 74, 0
2, 30000, Note_on_c, 0, 72, 110
2, 30060, Note_on_c, 0, 72, 0
2, 30240, Note_on_c, 0, 74, 110
2, 30480, Note_on_c, 0, 74, 0
2, 30480, Note_on_c, 0, 72, 110
2, 30540, Note_on_c, 0, 72, 0
2, 30720, Note_on_c, 0, 77, 110
2, 30960, Note_on_c, 0, 77, 0
2, 30960, Note_on_c, 0, 76, 110
2, 31020, Note_on_c, 0, 76, 0
2, 31200, Note_on_c, 0, 77, 110
2, 31440, Note_on_c, 0, 77, 0
2, 31440, Note_on_c, 0, 76, 110
2, 31500, Note_on_c, 0, 76, 0
2, 31680, Note_on_c, 0, 74, 110
2, 31920, Note_on_c, 0, 74, 0
2, 31920, Note_on_c, 0, 72, 110
2, 31980, Note_on_c, 0, 72, 0
2, 32160, Note_on_c, 0, 74, 110
2, 32400, Note_on_c, 0, 74, 0
2, 32400, Note_on_c, 0, 72, 110
2, 32460, Note_on_c, 0, 72, 0
2, 32640, Note_on_c, 0, 77, 110
2, 32880, Note_on_c, 0, 77, 0
2, 32880, Note_on_c, 0, 76, 110
2, 32940, Note_on_c, 0, 76, 0
2, 33120, Note_on_c, 0, 77, 110
2, 33360, Note_on_c, 0, 77, 0
2, 33360, Note_on_c, 0, 76, 110
2, 33420, Note_on_c, 0, 76, 0
2, 33600, Note_on_c, 0, 74, 110
2, 33840, Note_on_c, 0, 74, 0
2, 33840, Note_on_c, 0, 72, 110
2, 33900, Note_on_c, 0, 72, 0
2, 34080, Note_on_c, 0, 74, 110
2, 34320, Note_on_c, 0, 74, 0
2, 34320, Note_on_c, 0, 72, 110
2, 34380, Note_on_c, 0, 72, 0
2, 34560, Note_on_c, 0, 77, 110
2, 34800, Note_on_c, 0, 77, 0
2, 34800, Note_on_c, 0, 76, 110
2, 34860, Note_on_c, 0, 76, 0
2, 35040, Note_on_c, 0, 77, 110
2, 35280, Note_on_c, 0, 77, 0
2, 35280, Note_on_c, 0, 76, 110
2, 35340, Note_on_c, 0, 76, 0
2, 35520, Note_on_c, 0, 81, 110
2, 35760, Note_on_c, 0, 81, 0
2, 35760, Note_on_c, 0, 79, 110
2, 35820, Note_on_c, 0, 79, 0
2, 36000, Note_on_c, 0, 81, 110
2, 36240, Note_on_c, 0, 81, 0
2, 36240, Note_on_c, 0, 79, 110
2, 36300, Note_on_c, 0, 79, 0
2, 36480, Note_on_c, 0, 77, 110
2, 36720, Note_on_c, 0, 77, 0
2, 36720, Note_on_c, 0, 76, 110
2, 36780, Note_on_c, 0, 76, 0
2, 36960, Note_on_c, 0, 77, 110
2, 37200, Note_on_c, 0, 77, 0
2, 37200, Note_on_c, 0, 76, 110
2, 37260, Note_on_c, 0, 76, 0
2, 37440, Note_on_c, 0, 74, 110
2, 37680, Note_on_c, 0, 74, 0
2, 37680, Note_on_c, 0, 72, 110
2, 37740, Note_on_c, 0, 72, 0
2, 37920, Note_on_c, 0, 74, 110
2, 38160, Note_on_c, 0, 74, 0
2, 38160, Note_on_c, 0, 72, 110
2, 38220, Note_on_c, 0, 72, 0
2, 38400, Note_on_c, 0, 72, 110
2, 38640, Note_on_c, 0, 72, 0
2, 38640, Note_on_c, 0, 70, 110
2, 38700, Note_on_c, 0, 70, 0
2, 38880, Note_on_c, 0, 72, 110
2, 39120, Note_on_c, 0, 72, 0
2, 39120, Note_on_c, 0, 70, 110
2, 39180, Note_on_c, 0, 70, 0
2, 39360, Note_on_c, 0, 68, 110
2, 39600, Note_on_c, 0, 68, 0
2, 39600, Note_on_c, 0, 67, 110
2, 39660, Note_on_c, 0, 67, 0
2, 39840, Note_on_c, 0, 68, 110
2, 40080, Note_on_c, 0, 68, 0
2, 40080, Note_on_c, 0, 67, 110
2, 40140, Note_on_c, 0, 67, 0
2, 40320, Note_on_c, 0, 72, 110
2, 40560, Note_on_c, 0, 72, 0
2, 40560, Note_on_c, 0, 70, 110
2, 40620, Note_on_c, 0, 70, 0
2, 40800, Note_on_c, 0, 72, 110
2, 41040, Note_on_c, 0, 72, 0
2, 41040, Note_on_c, 0, 70, 110
2, 41100, Note_on_c, 0, 70, 0
2, 41280, Note_on_c, 0, 68, 110
2, 41520, Note_on_c, 0, 68, 0
2, 41520, Note_on_c, 0, 67, 110
2, 41580, Note_on_c, 0, 67, 0
2, 41760, Note_on_c, 0, 68, 110
2, 42000, Note_on_c, 0, 68, 0
2, 42000, Note_on_c, 0, 67, 110
2, 42060, Note_on_c, 0, 67, 0
2, 42240, Note_on_c, 0, 72, 110
2, 42480, Note_on_c, 0, 72, 0
2, 42480, Note_on_c, 0, 70, 110
2, 42540, Note_on_c, 0, 70, 0
2, 42720, Note_on_c, 0, 72, 110
2, 42960, Note_on_c, 0, 72, 0
2, 42960, Note_on_c, 0, 70, 110
2, 43020, Note_on_c, 0, 70, 0
2, 43200, Note_on_c, 0, 68, 110
2, 43440, Note_on_c, 0, 68, 0
2, 43440, Note_on_c, 0, 67, 110
2, 43500, Note_on_c, 0, 67, 0
2, 43680, Note_on_c, 0, 68, 110
2, 43920, Note_on_c, 0, 68, 0
2, 43920, Note_on_c, 0, 67, 110
2, 43980, Note_on_c, 0, 67, 0
2, 44160, Note_on_c, 0, 72, 110
2, 44400, Note_on_c, 0, 72, 0
2, 44400, Note_on_c, 0, 70, 110
2, 44460, Note_on_c, 0, 70, 0
2, 44640, Note_on_c, 0, 72, 110
2, 44880, Note_on_c, 0, 72, 0
2, 44880, Note_on_c, 0, 70, 110
2, 44940, Note_on_c, 0, 70, 0
2, 45120, Note_on_c, 0, 68, 110
2, 45360, Note_on_c, 0, 68, 0
2, 45360, Note_on_c, 0, 67, 110
2, 45420, Note_on_c, 0, 67, 0
2, 45600, Note_on_c, 0, 68, 110
2, 45840, Note_on_c, 0, 68, 0
2, 45840, Note_on_c, 0, 67, 110
2, 45900, Note_on_c, 0, 67, 0
2, 46080, Note_on_c, 0, 75, 110
2, 46320, Note_on_c, 0, 75, 0
2, 46320, Note_on_c, 0, 74, 110
2, 46380, Note_on_c, 0, 74, 0
2, 46560, Note_on_c, 0, 75, 110
2, 46800, Note_on_c, 0, 75, 0
2, 46800, Note_on_c, 0, 74, 110
2, 46860, Note_on_c, 0, 74, 0
2, 47040, Note_on_c, 0, 72, 110
2, 47280, Note_on_c, 0, 72, 0
2, 47280, Note_on_c, 0, 70, 110
2, 47340, Note_on_c, 0, 70, 0
2, 47520, Note_on_c, 0, 72, 110
2, 47760, Note_on_c, 0, 72, 0
2, 47760, Note_on_c, 0, 70, 110
2, 47820, Note_on_c, 0, 70, 0
2, 48000, Note_on_c, 0, 75, 110
2, 48240, Note_on_c, 0, 75, 0
2, 48240, Note_on_c, 0, 74, 110
2, 48300, Note_on_c, 0, 74, 0
2, 48480, Note_on_c, 0, 75, 110
2, 48720, Note_on_c, 0, 75, 0
2, 48720, Note_on_c, 0, 74, 110
2, 48780, Note_on_c, 0, 74, 0
2, 48960, Note_on_c, 0, 72, 110
2, 49200, Note_on_c, 0, 72, 0
2, 49200, Note_on_c, 0, 70, 110
2, 49260, Note_on_c, 0, 70, 0
2, 49440, Note_on_c, 0, 72, 110
2, 49680, Note_on_c, 0, 72, 0
2, 49680, Note_on_c, 0, 70, 110
2, 49740, Note_on_c, 0, 70, 0
2, 49920, Note_on_c, 0, 75, 110
2, 50160, Note_on_c, 0, 75, 0
2, 50160, Note_on_c, 0, 74, 110
2, 50220, Note_on_c, 0, 74, 0
2, 50400, Note_on_c, 0, 75, 110
2, 50460, Note_on_c, 0, 75, 0
2, 50640, Note_on_c, 0, 79, 110
2, 50880, Note_on_c, 0, 79, 0
2, 50880, Note_on_c, 0, 77, 110
2, 50940, Note_on_c, 0, 77, 0
2, 51120, Note_on_c, 0, 79, 110
2, 51180, Note_on_c, 0, 79, 0
2, 51360, Note_on_c, 0, 82, 110
2, 51600, Note_on_c, 0, 82, 0
2, 51600, Note_on_c, 0, 80, 110
2, 51660, Note_on_c, 0, 80, 0
2, 51840, Note_on_c, 0, 82, 110
2, 51900, Note_on_c, 0, 82, 0
2, 52080, Note_on_c, 0, 79, 110
2, 52320, Note_on_c, 0, 79, 0
2, 52320, Note_on_c, 0, 77, 110
2, 52380, Note_on_c, 0, 77, 0
2, 52560, Note_on_c, 0, 79, 110
2, 52620, Note_on_c, 0, 79, 0
2, 52800, Note_on_c, 0, 75, 110
2, 53040, Note_on_c, 0, 75, 0
2, 53040, Note_on_c, 0, 74, 110
2, 53100, Note_on_c, 0, 74, 0
2, 53280, Note_on_c, 0, 75, 110
2, 53520, Note_on_c, 0, 75, 0
2, 53520, Note_on_c, 0, 74, 110
2, 53580, Note_on_c, 0, 74, 0
2, 99840, Note_on_c, 0, 76, 110
2, 100080, Note_on_c, 0, 76, 0
2, 100080, Note_on_c, 0, 74, 110
2, 100140, Note_on_c, 0, 74, 0
2, 100320, Note_on_c, 0, 76, 110
2, 100560, Note_on_c, 0, 76, 0
2, 100560, Note_on_c, 0, 74, 110
2, 100620, Note_on_c, 0, 74, 0
2, 100800, Note_on_c, 0, 72, 110
2, 101040, Note_on_c, 0, 72, 0
2, 101040, Note_on_c, 0, 70, 110
2, 101100, Note_on_c, 0, 70, 0
2, 101280, Note_on_c, 0, 72, 110
2, 101520, Note_on_c, 0, 72, 0
2, 101520, Note_on_c, 0, 70, 110
2, 101580, Note_on_c, 0, 70, 0
2, 101760, Note_on_c, 0, 76, 110
2, 102000, Note_on_c, 0, 76, 0
2, 102000, Note_on_c, 0, 74, 110
2, 102060, Note_on_c, 0, 74, 0
2, 102240, Note_on_c, 0, 76, 110
2, 102480, Note_on_c, 0, 76, 0
2, 102480, Note_on_c, 0, 74, 110
2, 102540, Note_on_c, 0, 74, 0
2, 102720, Note_on_c, 0, 72, 110
2, 102960, Note_on_c, 0, 72, 0
2, 102960, Note_on_c, 0, 70, 110
2, 103020, Note_on_c, 0, 70, 0
2, 103200, Note_on_c, 0, 72, 110
2, 103440, Note_on_c, 0, 72, 0
2, 103440, Note_on_c, 0, 70, 110
2, 103500, Note_on_c, 0, 70, 0
2, 103680, Note_on_c, 0, 76, 110
2, 103920, Note_on_c, 0, 76, 0
2, 103920, Note_on_c, 0, 74, 110
2, 103980, Note_on_c, 0, 74, 0
2, 104160, Note_on_c, 0, 76, 110
2, 104400, Note_on_c, 0, 76, 0
2, 104400, Note_on_c, 0, 74, 110
2, 104460, Note_on_c, 0, 74, 0
2, 104640, Note_on_c, 0, 72, 110
2, 104880, Note_on_c, 0, 72, 0
2, 104880, Note_on_c, 0, 70, 110
2, 104940, Note_on_c, 0, 70, 0
2, 105120, Note_on_c, 0, 72, 110
2, 105360, Note_on_c, 0, 72, 0
2, 105360, Note_on_c, 0, 70, 110
2, 105420, Note_on_c, 0, 70, 0
2, 105600, Note_on_c, 0, 76, 110
2, 105839, Note_on_c, 0, 76, 0
2, 105840, Note_on_c, 0, 74, 110
2, 105899, Note_on_c, 0, 74, 0
2, 106080, Note_on_c, 0, 76, 110
2, 106319, Note_on_c, 0, 76, 0
2, 106320, Note_on_c, 0, 74, 110
2, 106379, Note_on_c, 0, 74, 0
2, 106560, Note_on_c, 0, 72, 110
2, 106799, Note_on_c, 0, 72, 0
2, 106800, Note_on_c, 0, 70, 110
2, 106859, Note_on_c, 0, 70, 0
2, 107040, Note_on_c, 0, 72, 110
2, 107279, Note_on_c, 0, 72, 0
2, 107280, Note_on_c, 0, 70, 110
2, 107339, Note_on_c, 0, 70, 0
2, 107339, End_track
3, 0, Start_track
3, 0, MIDI_port, 0
3, 0, Title_t, "ST2"
3, 0, Control_c, 0, 0, 0
3, 0, Program_c, 0, 48
3, 0, Control_c, 0, 7, 120
3, 0, Control_c, 0, 10, 50
3, 23040, Note_on_c, 0, 74, 110
3, 23280, Note_on_c, 0, 74, 0
3, 23280, Note_on_c, 0, 72, 110
3, 23340, Note_on_c, 0, 72, 0
3, 23520, Note_on_c, 0, 74, 110
3, 23760, Note_on_c, 0, 74, 0
3, 23760, Note_on_c, 0, 72, 110
3, 23820, Note_on_c, 0, 72, 0
3, 24000, Note_on_c, 0, 69, 110
3, 24240, Note_on_c, 0, 69, 0
3, 24240, Note_on_c, 0, 69, 110
3, 24300, Note_on_c, 0, 69, 0
3, 24480, Note_on_c, 0, 69, 110
3, 24720, Note_on_c, 0, 69, 0
3, 24720, Note_on_c, 0, 69, 110
3, 24780, Note_on_c, 0, 69, 0
3, 24960, Note_on_c, 0, 74, 110
3, 25200, Note_on_c, 0, 74, 0
3, 25200, Note_on_c, 0, 72, 110
3, 25260, Note_on_c, 0, 72, 0
3, 25440, Note_on_c, 0, 74, 110
3, 25680, Note_on_c, 0, 74, 0
3, 25680, Note_on_c, 0, 72, 110
3, 25740, Note_on_c, 0, 72, 0
3, 25920, Note_on_c, 0, 69, 110
3, 26160, Note_on_c, 0, 69, 0
3, 26160, Note_on_c, 0, 69, 110
3, 26220, Note_on_c, 0, 69, 0
3, 26400, Note_on_c, 0, 69, 110
3, 26640, Note_on_c, 0, 69, 0
3, 26640, Note_on_c, 0, 69, 110
3, 26700, Note_on_c, 0, 69, 0
3, 26880, Note_on_c, 0, 74, 110
3, 27120, Note_on_c, 0, 74, 0
3, 27120, Note_on_c, 0, 72, 110
3, 27180, Note_on_c, 0, 72, 0
3, 27360, Note_on_c, 0, 74, 110
3, 27600, Note_on_c, 0, 74, 0
3, 27600, Note_on_c, 0, 72, 110
3, 27660, Note_on_c, 0, 72, 0
3, 27840, Note_on_c, 0, 69, 110
3, 28080, Note_on_c, 0, 69, 0
3, 28080, Note_on_c, 0, 69, 110
3, 28140, Note_on_c, 0, 69, 0
3, 28320, Note_on_c, 0, 69, 110
3, 28560, Note_on_c, 0, 69, 0
3, 28560, Note_on_c, 0, 69, 110
3, 28620, Note_on_c, 0, 69, 0
3, 28800, Note_on_c, 0, 74, 110
3, 29040, Note_on_c, 0, 74, 0
3, 29040, Note_on_c, 0, 72, 110
3, 29100, Note_on_c, 0, 72, 0
3, 29280, Note_on_c, 0, 74, 110
3, 29520, Note_on_c, 0, 74, 0
3, 29520, Note_on_c, 0, 72, 110
3, 29580, Note_on_c, 0, 72, 0
3, 29760, Note_on_c, 0, 69, 110
3, 30000, Note_on_c, 0, 69, 0
3, 30000, Note_on_c, 0, 69, 110
3, 30060, Note_on_c, 0, 69, 0
3, 30240, Note_on_c, 0, 69, 110
3, 30480, Note_on_c, 0, 69, 0
3, 30480, Note_on_c, 0, 69, 110
3, 30540, Note_on_c, 0, 69, 0
3, 30720, Note_on_c, 0, 74, 110
3, 30960, Note_on_c, 0, 74, 0
3, 30960, Note_on_c, 0, 72, 110
3, 31020, Note_on_c, 0, 72, 0
3, 31200, Note_on_c, 0, 74, 110
3, 31440, Note_on_c, 0, 74, 0
3, 31440, Note_on_c, 0, 72, 110
3, 31500, Note_on_c, 0, 72, 0
3, 31680, Note_on_c, 0, 69, 110
3, 31920, Note_on_c, 0, 69, 0
3, 31920, Note_on_c, 0, 69, 110
3, 31980, Note_on_c, 0, 69, 0
3, 32160, Note_on_c, 0, 69, 110
3, 32400, Note_on_c, 0, 69, 0
3, 32400, Note_on_c, 0, 69, 110
3, 32460, Note_on_c, 0, 69, 0
3, 32640, Note_on_c, 0, 74, 110
3, 32880, Note_on_c, 0, 74, 0
3, 32880, Note_on_c, 0, 72, 110
3, 32940, Note_on_c, 0, 72, 0
3, 33120, Note_on_c, 0, 74, 110
3, 33360, Note_on_c, 0, 74, 0
3, 33360, Note_on_c, 0, 72, 110
3, 33420, Note_on_c, 0, 72, 0
3, 33600, Note_on_c, 0, 69, 110
3, 33840, Note_on_c, 0, 69, 0
3, 33840, Note_on_c, 0, 69, 110
3, 33900, Note_on_c, 0, 69, 0
3, 34080, Note_on_c, 0, 69, 110
3, 34320, Note_on_c, 0, 69, 0
3, 34320, Note_on_c, 0, 69, 110
3, 34380, Note_on_c, 0, 69, 0
3, 34560, Note_on_c, 0, 74, 110
3, 34800, Note_on_c, 0, 74, 0
3, 34800, Note_on_c, 0, 72, 110
3, 34860, Note_on_c, 0, 72, 0
3, 35040, Note_on_c, 0, 74, 110
3, 35280, Note_on_c, 0, 74, 0
3, 35280, Note_on_c, 0, 72, 110
3, 35340, Note_on_c, 0, 72, 0
3, 35520, Note_on_c, 0, 77, 110
3, 35760, Note_on_c, 0, 77, 0
3, 35760, Note_on_c, 0, 76, 110
3, 35820, Note_on_c, 0, 76, 0
3, 36000, Note_on_c, 0, 77, 110
3, 36240, Note_on_c, 0, 77, 0
3, 36240, Note_on_c, 0, 76, 110
3, 36300, Note_on_c, 0, 76, 0
3, 36480, Note_on_c, 0, 74, 110
3, 36720, Note_on_c, 0, 74, 0
3, 36720, Note_on_c, 0, 72, 110
3, 36780, Note_on_c, 0, 72, 0
3, 36960, Note_on_c, 0, 74, 110
3, 37200, Note_on_c, 0, 74, 0
3, 37200, Note_on_c, 0, 72, 110
3, 37260, Note_on_c, 0, 72, 0
3, 37440, Note_on_c, 0, 69, 110
3, 37680, Note_on_c, 0, 69, 0
3, 37680, Note_on_c, 0, 69, 110
3, 37740, Note_on_c, 0, 69, 0
3, 37920, Note_on_c, 0, 69, 110
3, 38160, Note_on_c, 0, 69, 0
3, 38160, Note_on_c, 0, 69, 110
3, 38220, Note_on_c, 0, 69, 0
3, 38400, Note_on_c, 0, 68, 110
3, 38640, Note_on_c, 0, 68, 0
3, 38640, Note_on_c, 0, 67, 110
3, 38700, Note_on_c, 0, 67, 0
3, 38880, Note_on_c, 0, 68, 110
3, 39120, Note_on_c, 0, 68, 0
3, 39120, Note_on_c, 0, 67, 110
3, 39180, Note_on_c, 0, 67, 0
3, 39360, Note_on_c, 0, 65, 110
3, 39600, Note_on_c, 0, 65, 0
3, 39600, Note_on_c, 0, 65, 110
3, 39660, Note_on_c, 0, 65, 0
3, 39840, Note_on_c, 0, 65, 110
3, 40080, Note_on_c, 0, 65, 0
3, 40080, Note_on_c, 0, 65, 110
3, 40140, Note_on_c, 0, 65, 0
3, 40320, Note_on_c, 0, 68, 110
3, 40560, Note_on_c, 0, 68, 0
3, 40560, Note_on_c, 0, 67, 110
3, 40620, Note_on_c, 0, 67, 0
3, 40800, Note_on_c, 0, 68, 110
3, 41040, Note_on_c, 0, 68, 0
3, 41040, Note_on_c, 0, 67, 110
3, 41100, Note_on_c, 0, 67, 0
3, 41280, Note_on_c, 0, 65, 110
3, 41520, Note_on_c, 0, 65, 0
3, 41520, Note_on_c, 0, 65, 110
3, 41580, Note_on_c, 0, 65, 0
3, 41760, Note_on_c, 0, 65, 110
3, 42000, Note_on_c, 0, 65, 0
3, 42000, Note_on_c, 0, 65, 110
3, 42060, Note_on_c, 0, 65, 0
3, 42240, Note_on_c, 0, 68, 110
3, 42480, Note_on_c, 0, 68, 0
3, 42480, Note_on_c, 0, 67, 110
3, 42540, Note_on_c, 0, 67, 0
3, 42720, Note_on_c, 0, 68, 110
3, 42960, Note_on_c, 0, 68, 0
3, 42960, Note_on_c, 0, 67, 110
3, 43020, Note_on_c, 0, 67, 0
3, 43200, Note_on_c, 0, 65, 110
3, 43440, Note_on_c, 0, 65, 0
3, 43440, Note_on_c, 0, 65, 110
3, 43500, Note_on_c, 0, 65, 0
3, 43680, Note_on_c, 0, 65, 110
3, 43920, Note_on_c, 0, 65, 0
3, 43920, Note_on_c, 0, 65, 110
3, 43980, Note_on_c, 0, 65, 0
3, 44160, Note_on_c, 0, 68, 110
3, 44400, Note_on_c, 0, 68, 0
3, 44400, Note_on_c, 0, 67, 110
3, 44460, Note_on_c, 0, 67, 0
3, 44640, Note_on_c, 0, 68, 110
3, 44880, Note_on_c, 0, 68, 0
3, 44880, Note_on_c, 0, 67, 110
3, 44940, Note_on_c, 0, 67, 0
3, 45120, Note_on_c, 0, 65, 110
3, 45360, Note_on_c, 0, 65, 0
3, 45360, Note_on_c, 0, 65, 110
3, 45420, Note_on_c, 0, 65, 0
3, 45600, Note_on_c, 0, 65, 110
3, 45840, Note_on_c, 0, 65, 0
3, 45840, Note_on_c, 0, 65, 110
3, 45900, Note_on_c, 0, 65, 0
3, 46080, Note_on_c, 0, 72, 110
3, 46320, Note_on_c, 0, 72, 0
3, 46320, Note_on_c, 0, 70, 110
3, 46380, Note_on_c, 0, 70, 0
3, 46560, Note_on_c, 0, 72, 110
3, 46800, Note_on_c, 0, 72, 0
3, 46800, Note_on_c, 0, 70, 110
3, 46860, Note_on_c, 0, 70, 0
3, 47040, Note_on_c, 0, 67, 110
3, 47280, Note_on_c, 0, 67, 0
3, 47280, Note_on_c, 0, 67, 110
3, 47340, Note_on_c, 0, 67, 0
3, 47520, Note_on_c, 0, 67, 110
3, 47760, Note_on_c, 0, 67, 0
3, 47760, Note_on_c, 0, 67, 110
3, 47820, Note_on_c, 0, 67, 0
3, 48000, Note_on_c, 0, 72, 110
3, 48240, Note_on_c, 0, 72, 0
3, 48240, Note_on_c, 0, 70, 110
3, 48300, Note_on_c, 0, 70, 0
3, 48480, Note_on_c, 0, 72, 110
3, 48720, Note_on_c, 0, 72, 0
3, 48720, Note_on_c, 0, 70, 110
3, 48780, Note_on_c, 0, 70, 0
3, 48960, Note_on_c, 0, 67, 110
3, 49200, Note_on_c, 0, 67, 0
3, 49200, Note_on_c, 0, 67, 110
3, 49260, Note_on_c, 0, 67, 0
3, 49440, Note_on_c, 0, 67, 110
3, 49680, Note_on_c, 0, 67, 0
3, 49680, Note_on_c, 0, 67, 110
3, 49740, Note_on_c, 0, 67, 0
3, 49920, Note_on_c, 0, 72, 110
3, 50160, Note_on_c, 0, 72, 0
3, 50160, Note_on_c, 0, 70, 110
3, 50220, Note_on_c, 0, 70, 0
3, 50400, Note_on_c, 0, 72, 110
3, 50460, Note_on_c, 0, 72, 0
3, 50640, Note_on_c, 0, 75, 110
3, 50880, Note_on_c, 0, 75, 0
3, 50880, Note_on_c, 0, 74, 110
3, 50940, Note_on_c, 0, 74, 0
3, 51120, Note_on_c, 0, 75, 110
3, 51180, Note_on_c, 0, 75, 0
3, 51360, Note_on_c, 0, 79, 110
3, 51600, Note_on_c, 0, 79, 0
3, 51600, Note_on_c, 0, 77, 110
3, 51660, Note_on_c, 0, 77, 0
3, 51840, Note_on_c, 0, 79, 110
3, 51900, Note_on_c, 0, 79, 0
3, 52080, Note_on_c, 0, 75, 110
3, 52320, Note_on_c, 0, 75, 0
3, 52320, Note_on_c, 0, 74, 110
3, 52380, Note_on_c, 0, 74, 0
3, 52560, Note_on_c, 0, 75, 110
3, 52620, Note_on_c, 0, 75, 0
3, 52800, Note_on_c, 0, 72, 110
3, 53040, Note_on_c, 0, 72, 0
3, 53040, Note_on_c, 0, 70, 110
3, 53100, Note_on_c, 0, 70, 0
3, 53280, Note_on_c, 0, 72, 110
3, 53520, Note_on_c, 0, 72, 0
3, 53520, Note_on_c, 0, 70, 110
3, 53580, Note_on_c, 0, 70, 0
3, 99840, Note_on_c, 0, 72, 110
3, 100080, Note_on_c, 0, 72, 0
3, 100080, Note_on_c, 0, 70, 110
3, 100140, Note_on_c, 0, 70, 0
3, 100320, Note_on_c, 0, 72, 110
3, 100560, Note_on_c, 0, 72, 0
3, 100560, Note_on_c, 0, 70, 110
3, 100620, Note_on_c, 0, 70, 0
3, 100800, Note_on_c, 0, 67, 110
3, 101040, Note_on_c, 0, 67, 0
3, 101040, Note_on_c, 0, 67, 110
3, 101100, Note_on_c, 0, 67, 0
3, 101280, Note_on_c, 0, 67, 110
3, 101520, Note_on_c, 0, 67, 0
3, 101520, Note_on_c, 0, 67, 110
3, 101580, Note_on_c, 0, 67, 0
3, 101760, Note_on_c, 0, 72, 110
3, 102000, Note_on_c, 0, 72, 0
3, 102000, Note_on_c, 0, 70, 110
3, 102060, Note_on_c, 0, 70, 0
3, 102240, Note_on_c, 0, 72, 110
3, 102480, Note_on_c, 0, 72, 0
3, 102480, Note_on_c, 0, 70, 110
3, 102540, Note_on_c, 0, 70, 0
3, 102720, Note_on_c, 0, 67, 110
3, 102960, Note_on_c, 0, 67, 0
3, 102960, Note_on_c, 0, 67, 110
3, 103020, Note_on_c, 0, 67, 0
3, 103200, Note_on_c, 0, 67, 110
3, 103440, Note_on_c, 0, 67, 0
3, 103440, Note_on_c, 0, 67, 110
3, 103500, Note_on_c, 0, 67, 0
3, 103680, Note_on_c, 0, 72, 110
3, 103920, Note_on_c, 0, 72, 0
3, 103920, Note_on_c, 0, 70, 110
3, 103980, Note_on_c, 0, 70, 0
3, 104160, Note_on_c, 0, 72, 110
3, 104400, Note_on_c, 0, 72, 0
3, 104400, Note_on_c, 0, 70, 110
3, 104460, Note_on_c, 0, 70, 0
3, 104640, Note_on_c, 0, 67, 110
3, 104880, Note_on_c, 0, 67, 0
3, 104880, Note_on_c, 0, 67, 110
3, 104940, Note_on_c, 0, 67, 0
3, 105120, Note_on_c, 0, 67, 110
3, 105360, Note_on_c, 0, 67, 0
3, 105360, Note_on_c, 0, 67, 110
3, 105420, Note_on_c, 0, 67, 0
3, 105600, Note_on_c, 0, 72, 110
3, 105839, Note_on_c, 0, 72, 0
3, 105840, Note_on_c, 0, 70, 110
3, 105899, Note_on_c, 0, 70, 0
3, 106080, Note_on_c, 0, 72, 110
3, 106319, Note_on_c, 0, 72, 0
3, 106320, Note_on_c, 0, 70, 110
3, 106379, Note_on_c, 0, 70, 0
3, 106560, Note_on_c, 0, 67, 110
3, 106799, Note_on_c, 0, 67, 0
3, 106800, Note_on_c, 0, 67, 110
3, 106859, Note_on_c, 0, 67, 0
3, 107040, Note_on_c, 0, 67, 110
3, 107279, Note_on_c, 0, 67, 0
3, 107280, Note_on_c, 0, 67, 110
3, 107339, Note_on_c, 0, 67, 0
3, 107339, End_track
4, 0, Start_track
4, 0, MIDI_port, 0
4, 0, Title_t, "PET2,TROMB"
4, 0, Control_c, 1, 0, 0
4, 0, Program_c, 1, 57
4, 0, Control_c, 1, 7, 100
4, 0, Control_c, 1, 10, 104
4, 57120, Note_on_c, 1, 57, 80
4, 57240, Note_on_c, 1, 57, 0
4, 57240, Note_on_c, 1, 59, 80
4, 57360, Note_on_c, 1, 59, 0
4, 57360, Note_on_c, 1, 60, 80
4, 57480, Note_on_c, 1, 60, 0
4, 57480, Note_on_c, 1, 62, 80
4, 57600, Note_on_c, 1, 62, 0
4, 57600, Note_on_c, 1, 64, 80
4, 61440, Note_on_c, 1, 64, 0
4, 64800, Note_on_c, 1, 52, 80
4, 64920, Note_on_c, 1, 52, 0
4, 64920, Note_on_c, 1, 54, 80
4, 65040, Note_on_c, 1, 54, 0
4, 65040, Note_on_c, 1, 55, 80
4, 65160, Note_on_c, 1, 55, 0
4, 65160, Note_on_c, 1, 57, 80
4, 65280, Note_on_c, 1, 57, 0
4, 65280, Note_on_c, 1, 59, 80
4, 69120, Note_on_c, 1, 59, 0
4, 72480, Note_on_c, 1, 55, 80
4, 72600, Note_on_c, 1, 55, 0
4, 72600, Note_on_c, 1, 57, 80
4, 72720, Note_on_c, 1, 57, 0
4, 72720, Note_on_c, 1, 58, 80
4, 72840, Note_on_c, 1, 58, 0
4, 72840, Note_on_c, 1, 60, 80
4, 72960, Note_on_c, 1, 60, 0
4, 72960, Note_on_c, 1, 62, 80
4, 76800, Note_on_c, 1, 62, 0
4, 80160, Note_on_c, 1, 50, 80
4, 80280, Note_on_c, 1, 50, 0
4, 80280, Note_on_c, 1, 52, 80
4, 80400, Note_on_c, 1, 52, 0
4, 80400, Note_on_c, 1, 53, 80
4, 80520, Note_on_c, 1, 53, 0
4, 80520, Note_on_c, 1, 55, 80
4, 80640, Note_on_c, 1, 55, 0
4, 80640, Note_on_c, 1, 57, 80
4, 83520, Note_on_c, 1, 57, 0
4, 84480, Note_on_c, 1, 41, 80
4, 84600, Note_on_c, 1, 41, 0
4, 84720, Note_on_c, 1, 41, 80
4, 84840, Note_on_c, 1, 41, 0
4, 85200, Note_on_c, 1, 41, 80
4, 85320, Note_on_c, 1, 41, 0
4, 85440, Note_on_c, 1, 41, 80
4, 85560, Note_on_c, 1, 41, 0
4, 85920, Note_on_c, 1, 41, 80
4, 86040, Note_on_c, 1, 41, 0
4, 86160, Note_on_c, 1, 41, 80
4, 86280, Note_on_c, 1, 41, 0
4, 86640, Note_on_c, 1, 41, 80
4, 86760, Note_on_c, 1, 41, 0
4, 86880, Note_on_c, 1, 41, 80
4, 87000, Note_on_c, 1, 41, 0
4, 87360, Note_on_c, 1, 41, 80
4, 87480, Note_on_c, 1, 41, 0
4, 87600, Note_on_c, 1, 41, 80
4, 87720, Note_on_c, 1, 41, 0
4, 88080, Note_on_c, 1, 41, 80
4, 88200, Note_on_c, 1, 41, 0
4, 88320, Note_on_c, 1, 41, 80
4, 88440, Note_on_c, 1, 41, 0
4, 88560, Note_on_c, 1, 41, 80
4, 88680, Note_on_c, 1, 41, 0
4, 89040, Note_on_c, 1, 41, 80
4, 89160, Note_on_c, 1, 41, 0
4, 89280, Note_on_c, 1, 41, 80
4, 89400, Note_on_c, 1, 41, 0
4, 89760, Note_on_c, 1, 41, 80
4, 89880, Note_on_c, 1, 41, 0
4, 90000, Note_on_c, 1, 41, 80
4, 90120, Note_on_c, 1, 41, 0
4, 90480, Note_on_c, 1, 41, 80
4, 90600, Note_on_c, 1, 41, 0
4, 90720, Note_on_c, 1, 41, 80
4, 90840, Note_on_c, 1, 41, 0
4, 91200, Note_on_c, 1, 41, 80
4, 91320, Note_on_c, 1, 41, 0
4, 91440, Note_on_c, 1, 41, 80
4, 91560, Note_on_c, 1, 41, 0
4, 91920, Note_on_c, 1, 41, 80
4, 92040, Note_on_c, 1, 41, 0
4, 92160, Note_on_c, 1, 41, 80
4, 92280, Note_on_c, 1, 41, 0
4, 92400, Note_on_c, 1, 41, 80
4, 92520, Note_on_c, 1, 41, 0
4, 92880, Note_on_c, 1, 41, 80
4, 93000, Note_on_c, 1, 41, 0
4, 93120, Note_on_c, 1, 41, 80
4, 93240, Note_on_c, 1, 41, 0
4, 93600, Note_on_c, 1, 41, 80
4, 93720, Note_on_c, 1, 41, 0
4, 93840, Note_on_c, 1, 41, 80
4, 93960, Note_on_c, 1, 41, 0
4, 94320, Note_on_c, 1, 41, 80
4, 94440, Note_on_c, 1, 41, 0
4, 94560, Note_on_c, 1, 41, 80
4, 94680, Note_on_c, 1, 41, 0
4, 95040, Note_on_c, 1, 41, 80
4, 95160, Note_on_c, 1, 41, 0
4, 95280, Note_on_c, 1, 41, 80
4, 95400, Note_on_c, 1, 41, 0
4, 95760, Note_on_c, 1, 41, 80
4, 95880, Note_on_c, 1, 41, 0
4, 96000, Note_on_c, 1, 41, 80
4, 96120, Note_on_c, 1, 41, 0
4, 96240, Note_on_c, 1, 41, 80
4, 96360, Note_on_c, 1, 41, 0
4, 96720, Note_on_c, 1, 41, 80
4, 96840, Note_on_c, 1, 41, 0
4, 96960, Note_on_c, 1, 41, 80
4, 97080, Note_on_c, 1, 41, 0
4, 97440, Note_on_c, 1, 41, 80
4, 97560, Note_on_c, 1, 41, 0
4, 97680, Note_on_c, 1, 41, 80
4, 97800, Note_on_c, 1, 41, 0
4, 98160, Note_on_c, 1, 41, 80
4, 98280, Note_on_c, 1, 41, 0
4, 98400, Note_on_c, 1, 41, 80
4, 98520, Note_on_c, 1, 41, 0
4, 98880, Note_on_c, 1, 41, 80
4, 99000, Note_on_c, 1, 41, 0
4, 99120, Note_on_c, 1, 41, 80
4, 99240, Note_on_c, 1, 41, 0
4, 99600, Note_on_c, 1, 41, 80
4, 99720, Note_on_c, 1, 41, 0
4, 99720, End_track
5, 0, Start_track
5, 0, MIDI_port, 0
5, 0, Title_t, "PET3,TUBA"
5, 0, Control_c, 2, 0, 0
5, 0, Program_c, 2, 58
5, 0, Control_c, 2, 7, 100
5, 0, Control_c, 2, 10, 114
5, 57120, Note_on_c, 2, 33, 60
5, 57240, Note_on_c, 2, 33, 0
5, 57240, Note_on_c, 2, 35, 60
5, 57360, Note_on_c, 2, 35, 0
5, 57360, Note_on_c, 2, 36, 60
5, 57480, Note_on_c, 2, 36, 0
5, 57480, Note_on_c, 2, 38, 60
5, 57600, Note_on_c, 2, 38, 0
5, 57600, Note_on_c, 2, 40, 60
5, 61440, Note_on_c, 2, 40, 0
5, 64800, Note_on_c, 2, 28, 60
5, 64920, Note_on_c, 2, 28, 0
5, 64920, Note_on_c, 2, 30, 60
5, 65040, Note_on_c, 2, 30, 0
5, 65040, Note_on_c, 2, 31, 60
5, 65160, Note_on_c, 2, 31, 0
5, 65160, Note_on_c, 2, 33, 60
5, 65280, Note_on_c, 2, 33, 0
5, 65280, Note_on_c, 2, 35, 60
5, 69120, Note_on_c, 2, 35, 0
5, 72480, Note_on_c, 2, 31, 60
5, 72600, Note_on_c, 2, 31, 0
5, 72600, Note_on_c, 2, 33, 60
5, 72720, Note_on_c, 2, 33, 0
5, 72720, Note_on_c, 2, 34, 60
5, 72840, Note_on_c, 2, 34, 0
5, 72840, Note_on_c, 2, 36, 60
5, 72960, Note_on_c, 2, 36, 0
5, 72960, Note_on_c, 2, 38, 60
5, 76800, Note_on_c, 2, 38, 0
5, 80160, Note_on_c, 2, 26, 60
5, 80280, Note_on_c, 2, 26, 0
5, 80280, Note_on_c, 2, 28, 60
5, 80400, Note_on_c, 2, 28, 0
5, 80400, Note_on_c, 2, 29, 60
5, 80520, Note_on_c, 2, 29, 0
5, 80520, Note_on_c, 2, 31, 60
5, 80640, Note_on_c, 2, 31, 0
5, 80640, Note_on_c, 2, 33, 60
5, 83520, Note_on_c, 2, 33, 0
5, 84480, Note_on_c, 2, 29, 100
5, 84600, Note_on_c, 2, 29, 0
5, 84720, Note_on_c, 2, 29, 100
5, 84840, Note_on_c, 2, 29, 0
5, 85200, Note_on_c, 2, 29, 100
5, 85320, Note_on_c, 2, 29, 0
5, 85440, Note_on_c, 2, 29, 100
5, 85560, Note_on_c, 2, 29, 0
5, 85920, Note_on_c, 2, 29, 100
5, 86040, Note_on_c, 2, 29, 0
5, 86160, Note_on_c, 2, 29, 100
5, 86280, Note_on_c, 2, 29, 0
5, 86640, Note_on_c, 2, 29, 100
5, 86760, Note_on_c, 2, 29, 0
5, 86880, Note_on_c, 2, 29, 100
5, 87000, Note_on_c, 2, 29, 0
5, 87360, Note_on_c, 2, 29, 100
5, 87480, Note_on_c, 2, 29, 0
5, 87600, Note_on_c, 2, 29, 100
5, 87720, Note_on_c, 2, 29, 0
5, 88080, Note_on_c, 2, 29, 100
5, 88200, Note_on_c, 2, 29, 0
5, 88320, Note_on_c, 2, 29, 100
5, 88440, Note_on_c, 2, 29, 0
5, 88560, Note_on_c, 2, 29, 100
5, 88680, Note_on_c, 2, 29, 0
5, 89040, Note_on_c, 2, 29, 100
5, 89160, Note_on_c, 2, 29, 0
5, 89280, Note_on_c, 2, 29, 100
5, 89400, Note_on_c, 2, 29, 0
5, 89760, Note_on_c, 2, 29, 100
5, 89880, Note_on_c, 2, 29, 0
5, 90000, Note_on_c, 2, 29, 100
5, 90120, Note_on_c, 2, 29, 0
5, 90480, Note_on_c, 2, 29, 100
5, 90600, Note_on_c, 2, 29, 0
5, 90720, Note_on_c, 2, 29, 100
5, 90840, Note_on_c, 2, 29, 0
5, 91200, Note_on_c, 2, 29, 100
5, 91320, Note_on_c, 2, 29, 0
5, 91440, Note_on_c, 2, 29, 100
5, 91560, Note_on_c, 2, 29, 0
5, 91920, Note_on_c, 2, 29, 100
5, 92040, Note_on_c, 2, 29, 0
5, 92160, Note_on_c, 2, 29, 100
5, 92280, Note_on_c, 2, 29, 0
5, 92400, Note_on_c, 2, 29, 100
5, 92520, Note_on_c, 2, 29, 0
5, 92880, Note_on_c, 2, 29, 100
5, 93000, Note_on_c, 2, 29, 0
5, 93120, Note_on_c, 2, 29, 100
5, 93240, Note_on_c, 2, 29, 0
5, 93600, Note_on_c, 2, 29, 100
5, 93720, Note_on_c, 2, 29, 0
5, 93840, Note_on_c, 2, 29, 100
5, 93960, Note_on_c, 2, 29, 0
5, 94320, Note_on_c, 2, 29, 100
5, 94440, Note_on_c, 2, 29, 0
5, 94560, Note_on_c, 2, 29, 100
5, 94680, Note_on_c, 2, 29, 0
5, 95040, Note_on_c, 2, 29, 100
5, 95160, Note_on_c, 2, 29, 0
5, 95280, Note_on_c, 2, 29, 100
5, 95400, Note_on_c, 2, 29, 0
5, 95760, Note_on_c, 2, 29, 100
5, 95880, Note_on_c, 2, 29, 0
5, 96000, Note_on_c, 2, 29, 100
5, 96120, Note_on_c, 2, 29, 0
5, 96240, Note_on_c, 2, 29, 100
5, 96360, Note_on_c, 2, 29, 0
5, 96720, Note_on_c, 2, 29, 100
5, 96840, Note_on_c, 2, 29, 0
5, 96960, Note_on_c, 2, 29, 100
5, 97080, Note_on_c, 2, 29, 0
5, 97440, Note_on_c, 2, 29, 100
5, 97560, Note_on_c, 2, 29, 0
5, 97680, Note_on_c, 2, 29, 100
5, 97800, Note_on_c, 2, 29, 0
5, 98160, Note_on_c, 2, 29, 100
5, 98280, Note_on_c, 2, 29, 0
5, 98400, Note_on_c, 2, 29, 100
5, 98520, Note_on_c, 2, 29, 0
5, 98880, Note_on_c, 2, 29, 100
5, 99000, Note_on_c, 2, 29, 0
5, 99120, Note_on_c, 2, 29, 100
5, 99240, Note_on_c, 2, 29, 0
5, 99600, Note_on_c, 2, 29, 100
5, 99720, Note_on_c, 2, 29, 0
5, 99720, End_track
6, 0, Start_track
6, 0, MIDI_port, 0
6, 0, Title_t, "SYNTH1,HORN1"
6, 0, Control_c, 3, 0, 0
6, 0, Program_c, 3, 79
6, 0, Control_c, 3, 7, 70
6, 0, Control_c, 3, 10, 110
6, 0, Note_on_c, 3, 94, 80
6, 240, Note_on_c, 3, 94, 0
6, 240, Note_on_c, 3, 93, 80
6, 480, Note_on_c, 3, 93, 0
6, 480, Note_on_c, 3, 89, 80
6, 720, Note_on_c, 3, 89, 0
6, 720, Note_on_c, 3, 86, 80
6, 960, Note_on_c, 3, 86, 0
6, 960, Note_on_c, 3, 82, 80
6, 1200, Note_on_c, 3, 82, 0
6, 1200, Note_on_c, 3, 81, 80
6, 1440, Note_on_c, 3, 81, 0
6, 1440, Note_on_c, 3, 77, 80
6, 1680, Note_on_c, 3, 77, 0
6, 1680, Note_on_c, 3, 74, 80
6, 1920, Note_on_c, 3, 74, 0
6, 1920, Note_on_c, 3, 94, 80
6, 2160, Note_on_c, 3, 94, 0
6, 2160, Note_on_c, 3, 93, 80
6, 2400, Note_on_c, 3, 93, 0
6, 2400, Note_on_c, 3, 89, 80
6, 2640, Note_on_c, 3, 89, 0
6, 2640, Note_on_c, 3, 86, 80
6, 2880, Note_on_c, 3, 86, 0
6, 2880, Note_on_c, 3, 82, 80
6, 3120, Note_on_c, 3, 82, 0
6, 3120, Note_on_c, 3, 81, 80
6, 3360, Note_on_c, 3, 81, 0
6, 3360, Note_on_c, 3, 77, 80
6, 3600, Note_on_c, 3, 77, 0
6, 3600, Note_on_c, 3, 74, 80
6, 3840, Note_on_c, 3, 74, 0
6, 3840, Note_on_c, 3, 94, 80
6, 4080, Note_on_c, 3, 94, 0
6, 4080, Note_on_c, 3, 93, 80
6, 4320, Note_on_c, 3, 93, 0
6, 4320, Note_on_c, 3, 89, 80
6, 4560, Note_on_c, 3, 89, 0
6, 4560, Note_on_c, 3, 86, 80
6, 4800, Note_on_c, 3, 86, 0
6, 4800, Note_on_c, 3, 82, 80
6, 5040, Note_on_c, 3, 82, 0
6, 5040, Note_on_c, 3, 81, 80
6, 5280, Note_on_c, 3, 81, 0
6, 5280, Note_on_c, 3, 77, 80
6, 5520, Note_on_c, 3, 77, 0
6, 5520, Note_on_c, 3, 74, 80
6, 5760, Note_on_c, 3, 74, 0
6, 5760, Note_on_c, 3, 94, 80
6, 6000, Note_on_c, 3, 94, 0
6, 6000, Note_on_c, 3, 93, 80
6, 6240, Note_on_c, 3, 93, 0
6, 6240, Note_on_c, 3, 89, 80
6, 6480, Note_on_c, 3, 89, 0
6, 6480, Note_on_c, 3, 86, 80
6, 6720, Note_on_c, 3, 86, 0
6, 6720, Note_on_c, 3, 82, 80
6, 6960, Note_on_c, 3, 82, 0
6, 6960, Note_on_c, 3, 81, 80
6, 7200, Note_on_c, 3, 81, 0
6, 7200, Note_on_c, 3, 77, 80
6, 7440, Note_on_c, 3, 77, 0
6, 7440, Note_on_c, 3, 74, 80
6, 7680, Note_on_c, 3, 74, 0
6, 7680, Note_on_c, 3, 94, 80
6, 7920, Note_on_c, 3, 94, 0
6, 7920, Note_on_c, 3, 93, 80
6, 8160, Note_on_c, 3, 93, 0
6, 8160, Note_on_c, 3, 89, 80
6, 8400, Note_on_c, 3, 89, 0
6, 8400, Note_on_c, 3, 86, 80
6, 8640, Note_on_c, 3, 86, 0
6, 8640, Note_on_c, 3, 82, 80
6, 8880, Note_on_c, 3, 82, 0
6, 8880, Note_on_c, 3, 81, 80
6, 9120, Note_on_c, 3, 81, 0
6, 9120, Note_on_c, 3, 77, 80
6, 9360, Note_on_c, 3, 77, 0
6, 9360, Note_on_c, 3, 74, 80
6, 9600, Note_on_c, 3, 74, 0
6, 9600, Note_on_c, 3, 94, 80
6, 9840, Note_on_c, 3, 94, 0
6, 9840, Note_on_c, 3, 93, 80
6, 10080, Note_on_c, 3, 93, 0
6, 10080, Note_on_c, 3, 89, 80
6, 10320, Note_on_c, 3, 89, 0
6, 10320, Note_on_c, 3, 86, 80
6, 10560, Note_on_c, 3, 86, 0
6, 10560, Note_on_c, 3, 82, 80
6, 10800, Note_on_c, 3, 82, 0
6, 10800, Note_on_c, 3, 81, 80
6, 11040, Note_on_c, 3, 81, 0
6, 11040, Note_on_c, 3, 77, 80
6, 11280, Note_on_c, 3, 77, 0
6, 11280, Note_on_c, 3, 74, 80
6, 11520, Note_on_c, 3, 74, 0
6, 11520, Note_on_c, 3, 94, 80
6, 11760, Note_on_c, 3, 94, 0
6, 11760, Note_on_c, 3, 93, 80
6, 12000, Note_on_c, 3, 93, 0
6, 12000, Note_on_c, 3, 89, 80
6, 12240, Note_on_c, 3, 89, 0
6, 12240, Note_on_c, 3, 86, 80
6, 12480, Note_on_c, 3, 86, 0
6, 12480, Note_on_c, 3, 82, 80
6, 12720, Note_on_c, 3, 82, 0
6, 12720, Note_on_c, 3, 81, 80
6, 12960, Note_on_c, 3, 81, 0
6, 12960, Note_on_c, 3, 77, 80
6, 13200, Note_on_c, 3, 77, 0
6, 13200, Note_on_c, 3, 74, 80
6, 13440, Note_on_c, 3, 74, 0
6, 13440, Note_on_c, 3, 94, 80
6, 13680, Note_on_c, 3, 94, 0
6, 13680, Note_on_c, 3, 93, 80
6, 13920, Note_on_c, 3, 93, 0
6, 13920, Note_on_c, 3, 89, 80
6, 14160, Note_on_c, 3, 89, 0
6, 14160, Note_on_c, 3, 86, 80
6, 14400, Note_on_c, 3, 86, 0
6, 14400, Note_on_c, 3, 82, 80
6, 14640, Note_on_c, 3, 82, 0
6, 14640, Note_on_c, 3, 81, 80
6, 14880, Note_on_c, 3, 81, 0
6, 14880, Note_on_c, 3, 77, 80
6, 15120, Note_on_c, 3, 77, 0
6, 15120, Note_on_c, 3, 74, 80
6, 15360, Note_on_c, 3, 74, 0
6, 15360, Note_on_c, 3, 94, 80
6, 15600, Note_on_c, 3, 94, 0
6, 15600, Note_on_c, 3, 93, 80
6, 15840, Note_on_c, 3, 93, 0
6, 15840, Note_on_c, 3, 89, 80
6, 16080, Note_on_c, 3, 89, 0
6, 16080, Note_on_c, 3, 86, 80
6, 16320, Note_on_c, 3, 86, 0
6, 16320, Note_on_c, 3, 82, 80
6, 16560, Note_on_c, 3, 82, 0
6, 16560, Note_on_c, 3, 81, 80
6, 16800, Note_on_c, 3, 81, 0
6, 16800, Note_on_c, 3, 77, 80
6, 17040, Note_on_c, 3, 77, 0
6, 17040, Note_on_c, 3, 74, 80
6, 17280, Note_on_c, 3, 74, 0
6, 17280, Note_on_c, 3, 94, 80
6, 17520, Note_on_c, 3, 94, 0
6, 17520, Note_on_c, 3, 93, 80
6, 17760, Note_on_c, 3, 93, 0
6, 17760, Note_on_c, 3, 89, 80
6, 18000, Note_on_c, 3, 89, 0
6, 18000, Note_on_c, 3, 86, 80
6, 18240, Note_on_c, 3, 86, 0
6, 18240, Note_on_c, 3, 82, 80
6, 18480, Note_on_c, 3, 82, 0
6, 18480, Note_on_c, 3, 81, 80
6, 18720, Note_on_c, 3, 81, 0
6, 18720, Note_on_c, 3, 77, 80
6, 18960, Note_on_c, 3, 77, 0
6, 18960, Note_on_c, 3, 74, 80
6, 19200, Note_on_c, 3, 74, 0
6, 19200, Note_on_c, 3, 94, 80
6, 19440, Note_on_c, 3, 94, 0
6, 19440, Note_on_c, 3, 93, 80
6, 19680, Note_on_c, 3, 93, 0
6, 19680, Note_on_c, 3, 89, 80
6, 19920, Note_on_c, 3, 89, 0
6, 19920, Note_on_c, 3, 86, 80
6, 20160, Note_on_c, 3, 86, 0
6, 20160, Note_on_c, 3, 82, 80
6, 20400, Note_on_c, 3, 82, 0
6, 20400, Note_on_c, 3, 81, 80
6, 20640, Note_on_c, 3, 81, 0
6, 20640, Note_on_c, 3, 77, 80
6, 20880, Note_on_c, 3, 77, 0
6, 20880, Note_on_c, 3, 74, 80
6, 21120, Note_on_c, 3, 74, 0
6, 21120, Note_on_c, 3, 94, 80
6, 21360, Note_on_c, 3, 94, 0
6, 21360, Note_on_c, 3, 93, 80
6, 21600, Note_on_c, 3, 93, 0
6, 21600, Note_on_c, 3, 89, 80
6, 21840, Note_on_c, 3, 89, 0
6, 21840, Note_on_c, 3, 86, 80
6, 22080, Note_on_c, 3, 86, 0
6, 22080, Note_on_c, 3, 82, 80
6, 22320, Note_on_c, 3, 82, 0
6, 22320, Note_on_c, 3, 81, 80
6, 22560, Note_on_c, 3, 81, 0
6, 22560, Note_on_c, 3, 77, 80
6, 22800, Note_on_c, 3, 77, 0
6, 22800, Note_on_c, 3, 74, 80
6, 23040, Note_on_c, 3, 74, 0
6, 23040, Note_on_c, 3, 94, 80
6, 23280, Note_on_c, 3, 94, 0
6, 23280, Note_on_c, 3, 93, 80
6, 23520, Note_on_c, 3, 93, 0
6, 23520, Note_on_c, 3, 89, 80
6, 23760, Note_on_c, 3, 89, 0
6, 23760, Note_on_c, 3, 86, 80
6, 24000, Note_on_c, 3, 86, 0
6, 24000, Note_on_c, 3, 82, 80
6, 24240, Note_on_c, 3, 82, 0
6, 24240, Note_on_c, 3, 81, 80
6, 24480, Note_on_c, 3, 81, 0
6, 24480, Note_on_c, 3, 77, 80
6, 24720, Note_on_c, 3, 77, 0
6, 24720, Note_on_c, 3, 74, 80
6, 24960, Note_on_c, 3, 74, 0
6, 24960, Note_on_c, 3, 94, 80
6, 25200, Note_on_c, 3, 94, 0
6, 25200, Note_on_c, 3, 93, 80
6, 25440, Note_on_c, 3, 93, 0
6, 25440, Note_on_c, 3, 89, 80
6, 25680, Note_on_c, 3, 89, 0
6, 25680, Note_on_c, 3, 86, 80
6, 25920, Note_on_c, 3, 86, 0
6, 25920, Note_on_c, 3, 82, 80
6, 26160, Note_on_c, 3, 82, 0
6, 26160, Note_on_c, 3, 81, 80
6, 26400, Note_on_c, 3, 81, 0
6, 26400, Note_on_c, 3, 77, 80
6, 26640, Note_on_c, 3, 77, 0
6, 26640, Note_on_c, 3, 74, 80
6, 26880, Note_on_c, 3, 74, 0
6, 26880, Note_on_c, 3, 94, 80
6, 27120, Note_on_c, 3, 94, 0
6, 27120, Note_on_c, 3, 93, 80
6, 27360, Note_on_c, 3, 93, 0
6, 27360, Note_on_c, 3, 89, 80
6, 27600, Note_on_c, 3, 89, 0
6, 27600, Note_on_c, 3, 86, 80
6, 27840, Note_on_c, 3, 86, 0
6, 27840, Note_on_c, 3, 82, 80
6, 28080, Note_on_c, 3, 82, 0
6, 28080, Note_on_c, 3, 81, 80
6, 28320, Note_on_c, 3, 81, 0
6, 28320, Note_on_c, 3, 77, 80
6, 28560, Note_on_c, 3, 77, 0
6, 28560, Note_on_c, 3, 74, 80
6, 28800, Note_on_c, 3, 74, 0
6, 28800, Note_on_c, 3, 94, 80
6, 29040, Note_on_c, 3, 94, 0
6, 29040, Note_on_c, 3, 93, 80
6, 29280, Note_on_c, 3, 93, 0
6, 29280, Note_on_c, 3, 89, 80
6, 29520, Note_on_c, 3, 89, 0
6, 29520, Note_on_c, 3, 86, 80
6, 29760, Note_on_c, 3, 86, 0
6, 29760, Note_on_c, 3, 82, 80
6, 30000, Note_on_c, 3, 82, 0
6, 30000, Note_on_c, 3, 81, 80
6, 30240, Note_on_c, 3, 81, 0
6, 30240, Note_on_c, 3, 77, 80
6, 30480, Note_on_c, 3, 77, 0
6, 30480, Note_on_c, 3, 74, 80
6, 30720, Note_on_c, 3, 74, 0
6, 30720, Note_on_c, 3, 94, 80
6, 30960, Note_on_c, 3, 94, 0
6, 30960, Note_on_c, 3, 93, 80
6, 31200, Note_on_c, 3, 93, 0
6, 31200, Note_on_c, 3, 89, 80
6, 31440, Note_on_c, 3, 89, 0
6, 31440, Note_on_c, 3, 86, 80
6, 31680, Note_on_c, 3, 86, 0
6, 31680, Note_on_c, 3, 82, 80
6, 31920, Note_on_c, 3, 82, 0
6, 31920, Note_on_c, 3, 81, 80
6, 32160, Note_on_c, 3, 81, 0
6, 32160, Note_on_c, 3, 77, 80
6, 32400, Note_on_c, 3, 77, 0
6, 32400, Note_on_c, 3, 74, 80
6, 32640, Note_on_c, 3, 74, 0
6, 32640, Note_on_c, 3, 94, 80
6, 32880, Note_on_c, 3, 94, 0
6, 32880, Note_on_c, 3, 93, 80
6, 33120, Note_on_c, 3, 93, 0
6, 33120, Note_on_c, 3, 89, 80
6, 33360, Note_on_c, 3, 89, 0
6, 33360, Note_on_c, 3, 86, 80
6, 33600, Note_on_c, 3, 86, 0
6, 33600, Note_on_c, 3, 82, 80
6, 33840, Note_on_c, 3, 82, 0
6, 33840, Note_on_c, 3, 81, 80
6, 34080, Note_on_c, 3, 81, 0
6, 34080, Note_on_c, 3, 77, 80
6, 34320, Note_on_c, 3, 77, 0
6, 34320, Note_on_c, 3, 74, 80
6, 34560, Note_on_c, 3, 74, 0
6, 34560, Note_on_c, 3, 94, 80
6, 34800, Note_on_c, 3, 94, 0
6, 34800, Note_on_c, 3, 93, 80
6, 35040, Note_on_c, 3, 93, 0
6, 35040, Note_on_c, 3, 89, 80
6, 35280, Note_on_c, 3, 89, 0
6, 35280, Note_on_c, 3, 86, 80
6, 35520, Note_on_c, 3, 86, 0
6, 35520, Note_on_c, 3, 82, 80
6, 35760, Note_on_c, 3, 82, 0
6, 35760, Note_on_c, 3, 81, 80
6, 36000, Note_on_c, 3, 81, 0
6, 36000, Note_on_c, 3, 77, 80
6, 36240, Note_on_c, 3, 77, 0
6, 36240, Note_on_c, 3, 74, 80
6, 36480, Note_on_c, 3, 74, 0
6, 36480, Note_on_c, 3, 94, 80
6, 36720, Note_on_c, 3, 94, 0
6, 36720, Note_on_c, 3, 93, 80
6, 36960, Note_on_c, 3, 93, 0
6, 36960, Note_on_c, 3, 89, 80
6, 37200, Note_on_c, 3, 89, 0
6, 37200, Note_on_c, 3, 86, 80
6, 37440, Note_on_c, 3, 86, 0
6, 37440, Note_on_c, 3, 82, 80
6, 37680, Note_on_c, 3, 82, 0
6, 37680, Note_on_c, 3, 81, 80
6, 37920, Note_on_c, 3, 81, 0
6, 37920, Note_on_c, 3, 77, 80
6, 38160, Note_on_c, 3, 77, 0
6, 38160, Note_on_c, 3, 74, 80
6, 38400, Note_on_c, 3, 74, 0
6, 38400, Note_on_c, 3, 92, 80
6, 38640, Note_on_c, 3, 92, 0
6, 38640, Note_on_c, 3, 89, 80
6, 38880, Note_on_c, 3, 89, 0
6, 38880, Note_on_c, 3, 85, 80
6, 39120, Note_on_c, 3, 85, 0
6, 39120, Note_on_c, 3, 84, 80
6, 39360, Note_on_c, 3, 84, 0
6, 39360, Note_on_c, 3, 80, 80
6, 39600, Note_on_c, 3, 80, 0
6, 39600, Note_on_c, 3, 77, 80
6, 39840, Note_on_c, 3, 77, 0
6, 39840, Note_on_c, 3, 73, 80
6, 40080, Note_on_c, 3, 73, 0
6, 40080, Note_on_c, 3, 72, 80
6, 40320, Note_on_c, 3, 72, 0
6, 40320, Note_on_c, 3, 92, 80
6, 40560, Note_on_c, 3, 92, 0
6, 40560, Note_on_c, 3, 89, 80
6, 40800, Note_on_c, 3, 89, 0
6, 40800, Note_on_c, 3, 85, 80
6, 41040, Note_on_c, 3, 85, 0
6, 41040, Note_on_c, 3, 84, 80
6, 41280, Note_on_c, 3, 84, 0
6, 41280, Note_on_c, 3, 80, 80
6, 41520, Note_on_c, 3, 80, 0
6, 41520, Note_on_c, 3, 77, 80
6, 41760, Note_on_c, 3, 77, 0
6, 41760, Note_on_c, 3, 73, 80
6, 42000, Note_on_c, 3, 73, 0
6, 42000, Note_on_c, 3, 72, 80
6, 42240, Note_on_c, 3, 72, 0
6, 42240, Note_on_c, 3, 92, 80
6, 42480, Note_on_c, 3, 92, 0
6, 42480, Note_on_c, 3, 89, 80
6, 42720, Note_on_c, 3, 89, 0
6, 42720, Note_on_c, 3, 85, 80
6, 42960, Note_on_c, 3, 85, 0
6, 42960, Note_on_c, 3, 84, 80
6, 43200, Note_on_c, 3, 84, 0
6, 43200, Note_on_c, 3, 80, 80
6, 43440, Note_on_c, 3, 80, 0
6, 43440, Note_on_c, 3, 77, 80
6, 43680, Note_on_c, 3, 77, 0
6, 43680, Note_on_c, 3, 73, 80
6, 43920, Note_on_c, 3, 73, 0
6, 43920, Note_on_c, 3, 72, 80
6, 44160, Note_on_c, 3, 72, 0
6, 44160, Note_on_c, 3, 92, 80
6, 44400, Note_on_c, 3, 92, 0
6, 44400, Note_on_c, 3, 89, 80
6, 44640, Note_on_c, 3, 89, 0
6, 44640, Note_on_c, 3, 85, 80
6, 44880, Note_on_c, 3, 85, 0
6, 44880, Note_on_c, 3, 84, 80
6, 45120, Note_on_c, 3, 84, 0
6, 45120, Note_on_c, 3, 80, 80
6, 45360, Note_on_c, 3, 80, 0
6, 45360, Note_on_c, 3, 77, 80
6, 45600, Note_on_c, 3, 77, 0
6, 45600, Note_on_c, 3, 73, 80
6, 45840, Note_on_c, 3, 73, 0
6, 45840, Note_on_c, 3, 72, 80
6, 46080, Note_on_c, 3, 72, 0
6, 46080, Note_on_c, 3, 92, 80
6, 46320, Note_on_c, 3, 92, 0
6, 46320, Note_on_c, 3, 91, 80
6, 46560, Note_on_c, 3, 91, 0
6, 46560, Note_on_c, 3, 87, 80
6, 46800, Note_on_c, 3, 87, 0
6, 46800, Note_on_c, 3, 84, 80
6, 47040, Note_on_c, 3, 84, 0
6, 47040, Note_on_c, 3, 80, 80
6, 47280, Note_on_c, 3, 80, 0
6, 47280, Note_on_c, 3, 79, 80
6, 47520, Note_on_c, 3, 79, 0
6, 47520, Note_on_c, 3, 75, 80
6, 47760, Note_on_c, 3, 75, 0
6, 47760, Note_on_c, 3, 72, 80
6, 48000, Note_on_c, 3, 72, 0
6, 48000, Note_on_c, 3, 92, 80
6, 48240, Note_on_c, 3, 92, 0
6, 48240, Note_on_c, 3, 91, 80
6, 48480, Note_on_c, 3, 91, 0
6, 48480, Note_on_c, 3, 87, 80
6, 48720, Note_on_c, 3, 87, 0
6, 48720, Note_on_c, 3, 84, 80
6, 48960, Note_on_c, 3, 84, 0
6, 48960, Note_on_c, 3, 80, 80
6, 49200, Note_on_c, 3, 80, 0
6, 49200, Note_on_c, 3, 79, 80
6, 49440, Note_on_c, 3, 79, 0
6, 49440, Note_on_c, 3, 75, 80
6, 49680, Note_on_c, 3, 75, 0
6, 49680, Note_on_c, 3, 72, 80
6, 49920, Note_on_c, 3, 72, 0
6, 49920, Note_on_c, 3, 92, 80
6, 50160, Note_on_c, 3, 92, 0
6, 50160, Note_on_c, 3, 91, 80
6, 50400, Note_on_c, 3, 91, 0
6, 50400, Note_on_c, 3, 87, 80
6, 50640, Note_on_c, 3, 87, 0
6, 50640, Note_on_c, 3, 84, 80
6, 50880, Note_on_c, 3, 84, 0
6, 50880, Note_on_c, 3, 80, 80
6, 51120, Note_on_c, 3, 80, 0
6, 51120, Note_on_c, 3, 79, 80
6, 51360, Note_on_c, 3, 79, 0
6, 51360, Note_on_c, 3, 75, 80
6, 51600, Note_on_c, 3, 75, 0
6, 51600, Note_on_c, 3, 72, 80
6, 51840, Note_on_c, 3, 72, 0
6, 51840, Note_on_c, 3, 92, 80
6, 52080, Note_on_c, 3, 92, 0
6, 52080, Note_on_c, 3, 91, 80
6, 52320, Note_on_c, 3, 91, 0
6, 52320, Note_on_c, 3, 87, 80
6, 52560, Note_on_c, 3, 87, 0
6, 52560, Note_on_c, 3, 84, 80
6, 52800, Note_on_c, 3, 84, 0
6, 52800, Note_on_c, 3, 80, 80
6, 53040, Note_on_c, 3, 80, 0
6, 53040, Note_on_c, 3, 79, 80
6, 53280, Note_on_c, 3, 79, 0
6, 53280, Note_on_c, 3, 75, 80
6, 53520, Note_on_c, 3, 75, 0
6, 53520, Note_on_c, 3, 72, 80
6, 53760, Note_on_c, 3, 72, 0
6, 99840, Note_on_c, 3, 92, 80
6, 100080, Note_on_c, 3, 92, 0
6, 100080, Note_on_c, 3, 91, 80
6, 100320, Note_on_c, 3, 91, 0
6, 100320, Note_on_c, 3, 88, 80
6, 100560, Note_on_c, 3, 88, 0
6, 100560, Note_on_c, 3, 84, 80
6, 100800, Note_on_c, 3, 84, 0
6, 100800, Note_on_c, 3, 80, 80
6, 101040, Note_on_c, 3, 80, 0
6, 101040, Note_on_c, 3, 79, 80
6, 101280, Note_on_c, 3, 79, 0
6, 101280, Note_on_c, 3, 76, 80
6, 101520, Note_on_c, 3, 76, 0
6, 101520, Note_on_c, 3, 72, 80
6, 101760, Note_on_c, 3, 72, 0
6, 101760, Note_on_c, 3, 92, 80
6, 102000, Note_on_c, 3, 92, 0
6, 102000, Note_on_c, 3, 91, 80
6, 102240, Note_on_c, 3, 91, 0
6, 102240, Note_on_c, 3, 88, 80
6, 102480, Note_on_c, 3, 88, 0
6, 102480, Note_on_c, 3, 84, 80
6, 102720, Note_on_c, 3, 84, 0
6, 102720, Note_on_c, 3, 80, 80
6, 102960, Note_on_c, 3, 80, 0
6, 102960, Note_on_c, 3, 79, 80
6, 103200, Note_on_c, 3, 79, 0
6, 103200, Note_on_c, 3, 76, 80
6, 103440, Note_on_c, 3, 76, 0
6, 103440, Note_on_c, 3, 72, 80
6, 103680, Note_on_c, 3, 72, 0
6, 103680, Note_on_c, 3, 92, 80
6, 103920, Note_on_c, 3, 92, 0
6, 103920, Note_on_c, 3, 91, 80
6, 104160, Note_on_c, 3, 91, 0
6, 104160, Note_on_c, 3, 88, 80
6, 104400, Note_on_c, 3, 88, 0
6, 104400, Note_on_c, 3, 84, 80
6, 104640, Note_on_c, 3, 84, 0
6, 104640, Note_on_c, 3, 80, 80
6, 104880, Note_on_c, 3, 80, 0
6, 104880, Note_on_c, 3, 79, 80
6, 105120, Note_on_c, 3, 79, 0
6, 105120, Note_on_c, 3, 76, 80
6, 105360, Note_on_c, 3, 76, 0
6, 105360, Note_on_c, 3, 72, 80
6, 105600, Note_on_c, 3, 72, 0
6, 105600, Note_on_c, 3, 92, 80
6, 105839, Note_on_c, 3, 92, 0
6, 105840, Note_on_c, 3, 91, 80
6, 106079, Note_on_c, 3, 91, 0
6, 106080, Note_on_c, 3, 88, 80
6, 106319, Note_on_c, 3, 88, 0
6, 106320, Note_on_c, 3, 84, 80
6, 106559, Note_on_c, 3, 84, 0
6, 106560, Note_on_c, 3, 80, 80
6, 106799, Note_on_c, 3, 80, 0
6, 106800, Note_on_c, 3, 79, 80
6, 107039, Note_on_c, 3, 79, 0
6, 107040, Note_on_c, 3, 76, 80
6, 107279, Note_on_c, 3, 76, 0
6, 107280, Note_on_c, 3, 72, 80
6, 107519, Note_on_c, 3, 72, 0
6, 107519, End_track
7, 0, Start_track
7, 0, MIDI_port, 0
7, 0, Title_t, "SYNTH2,HORN2"
7, 0, Control_c, 4, 0, 0
7, 0, Program_c, 4, 79
7, 0, Control_c, 4, 7, 70
7, 0, Control_c, 4, 10, 64
7, 480, Note_on_c, 4, 94, 60
7, 720, Note_on_c, 4, 94, 0
7, 720, Note_on_c, 4, 93, 60
7, 960, Note_on_c, 4, 93, 0
7, 960, Note_on_c, 4, 89, 60
7, 1200, Note_on_c, 4, 89, 0
7, 1200, Note_on_c, 4, 86, 60
7, 1440, Note_on_c, 4, 86, 0
7, 1440, Note_on_c, 4, 82, 60
7, 1680, Note_on_c, 4, 82, 0
7, 1680, Note_on_c, 4, 81, 60
7, 1920, Note_on_c, 4, 81, 0
7, 1920, Note_on_c, 4, 77, 60
7, 2160, Note_on_c, 4, 77, 0
7, 2160, Note_on_c, 4, 74, 60
7, 2400, Note_on_c, 4, 74, 0
7, 2400, Note_on_c, 4, 94, 60
7, 2640, Note_on_c, 4, 94, 0
7, 2640, Note_on_c, 4, 93, 60
7, 2880, Note_on_c, 4, 93, 0
7, 2880, Note_on_c, 4, 89, 60
7, 3120, Note_on_c, 4, 89, 0
7, 3120, Note_on_c, 4, 86, 60
7, 3360, Note_on_c, 4, 86, 0
7, 3360, Note_on_c, 4, 82, 60
7, 3600, Note_on_c, 4, 82, 0
7, 3600, Note_on_c, 4, 81, 60
7, 3840, Note_on_c, 4, 81, 0
7, 3840, Note_on_c, 4, 77, 60
7, 4080, Note_on_c, 4, 77, 0
7, 4080, Note_on_c, 4, 74, 60
7, 4320, Note_on_c, 4, 74, 0
7, 4320, Note_on_c, 4, 94, 60
7, 4560, Note_on_c, 4, 94, 0
7, 4560, Note_on_c, 4, 93, 60
7, 4800, Note_on_c, 4, 93, 0
7, 4800, Note_on_c, 4, 89, 60
7, 5040, Note_on_c, 4, 89, 0
7, 5040, Note_on_c, 4, 86, 60
7, 5280, Note_on_c, 4, 86, 0
7, 5280, Note_on_c, 4, 82, 60
7, 5520, Note_on_c, 4, 82, 0
7, 5520, Note_on_c, 4, 81, 60
7, 5760, Note_on_c, 4, 81, 0
7, 5760, Note_on_c, 4, 77, 60
7, 6000, Note_on_c, 4, 77, 0
7, 6000, Note_on_c, 4, 74, 60
7, 6240, Note_on_c, 4, 74, 0
7, 6240, Note_on_c, 4, 94, 60
7, 6480, Note_on_c, 4, 94, 0
7, 6480, Note_on_c, 4, 93, 60
7, 6720, Note_on_c, 4, 93, 0
7, 6720, Note_on_c, 4, 89, 60
7, 6960, Note_on_c, 4, 89, 0
7, 6960, Note_on_c, 4, 86, 60
7, 7200, Note_on_c, 4, 86, 0
7, 7200, Note_on_c, 4, 82, 60
7, 7440, Note_on_c, 4, 82, 0
7, 7440, Note_on_c, 4, 81, 60
7, 7680, Note_on_c, 4, 81, 0
7, 7680, Note_on_c, 4, 77, 60
7, 7920, Note_on_c, 4, 77, 0
7, 7920, Note_on_c, 4, 74, 60
7, 8160, Note_on_c, 4, 74, 0
7, 8160, Note_on_c, 4, 94, 60
7, 8400, Note_on_c, 4, 94, 0
7, 8400, Note_on_c, 4, 93, 60
7, 8640, Note_on_c, 4, 93, 0
7, 8640, Note_on_c, 4, 89, 60
7, 8880, Note_on_c, 4, 89, 0
7, 8880, Note_on_c, 4, 86, 60
7, 9120, Note_on_c, 4, 86, 0
7, 9120, Note_on_c, 4, 82, 60
7, 9360, Note_on_c, 4, 82, 0
7, 9360, Note_on_c, 4, 81, 60
7, 9600, Note_on_c, 4, 81, 0
7, 9600, Note_on_c, 4, 77, 60
7, 9840, Note_on_c, 4, 77, 0
7, 9840, Note_on_c, 4, 74, 60
7, 10080, Note_on_c, 4, 74, 0
7, 10080, Note_on_c, 4, 94, 60
7, 10320, Note_on_c, 4, 94, 0
7, 10320, Note_on_c, 4, 93, 60
7, 10560, Note_on_c, 4, 93, 0
7, 10560, Note_on_c, 4, 89, 60
7, 10800, Note_on_c, 4, 89, 0
7, 10800, Note_on_c, 4, 86, 60
7, 11040, Note_on_c, 4, 86, 0
7, 11040, Note_on_c, 4, 82, 60
7, 11280, Note_on_c, 4, 82, 0
7, 11280, Note_on_c, 4, 81, 60
7, 11520, Note_on_c, 4, 81, 0
7, 11520, Note_on_c, 4, 77, 60
7, 11760, Note_on_c, 4, 77, 0
7, 11760, Note_on_c, 4, 74, 60
7, 12000, Note_on_c, 4, 74, 0
7, 12000, Note_on_c, 4, 94, 60
7, 12240, Note_on_c, 4, 94, 0
7, 12240, Note_on_c, 4, 93, 60
7, 12480, Note_on_c, 4, 93, 0
7, 12480, Note_on_c, 4, 89, 60
7, 12720, Note_on_c, 4, 89, 0
7, 12720, Note_on_c, 4, 86, 60
7, 12960, Note_on_c, 4, 86, 0
7, 12960, Note_on_c, 4, 82, 60
7, 13200, Note_on_c, 4, 82, 0
7, 13200, Note_on_c, 4, 81, 60
7, 13440, Note_on_c, 4, 81, 0
7, 13440, Note_on_c, 4, 77, 60
7, 13680, Note_on_c, 4, 77, 0
7, 13680, Note_on_c, 4, 74, 60
7, 13920, Note_on_c, 4, 74, 0
7, 13920, Note_on_c, 4, 94, 60
7, 14160, Note_on_c, 4, 94, 0
7, 14160, Note_on_c, 4, 93, 60
7, 14400, Note_on_c, 4, 93, 0
7, 14400, Note_on_c, 4, 89, 60
7, 14640, Note_on_c, 4, 89, 0
7, 14640, Note_on_c, 4, 86, 60
7, 14880, Note_on_c, 4, 86, 0
7, 14880, Note_on_c, 4, 82, 60
7, 15120, Note_on_c, 4, 82, 0
7, 15120, Note_on_c, 4, 81, 60
7, 15360, Note_on_c, 4, 81, 0
7, 15360, Note_on_c, 4, 77, 60
7, 15600, Note_on_c, 4, 77, 0
7, 15600, Note_on_c, 4, 74, 60
7, 15840, Note_on_c, 4, 74, 0
7, 15840, Note_on_c, 4, 94, 60
7, 16080, Note_on_c, 4, 94, 0
7, 16080, Note_on_c, 4, 93, 60
7, 16320, Note_on_c, 4, 93, 0
7, 16320, Note_on_c, 4, 89, 60
7, 16560, Note_on_c, 4, 89, 0
7, 16560, Note_on_c, 4, 86, 60
7, 16800, Note_on_c, 4, 86, 0
7, 16800, Note_on_c, 4, 82, 60
7, 17040, Note_on_c, 4, 82, 0
7, 17040, Note_on_c, 4, 81, 60
7, 17280, Note_on_c, 4, 81, 0
7, 17280, Note_on_c, 4, 77, 60
7, 17520, Note_on_c, 4, 77, 0
7, 17520, Note_on_c, 4, 74, 60
7, 17760, Note_on_c, 4, 74, 0
7, 17760, Note_on_c, 4, 94, 60
7, 18000, Note_on_c, 4, 94, 0
7, 18000, Note_on_c, 4, 93, 60
7, 18240, Note_on_c, 4, 93, 0
7, 18240, Note_on_c, 4, 89, 60
7, 18480, Note_on_c, 4, 89, 0
7, 18480, Note_on_c, 4, 86, 60
7, 18720, Note_on_c, 4, 86, 0
7, 18720, Note_on_c, 4, 82, 60
7, 18960, Note_on_c, 4, 82, 0
7, 18960, Note_on_c, 4, 81, 60
7, 19200, Note_on_c, 4, 81, 0
7, 19200, Note_on_c, 4, 77, 60
7, 19440, Note_on_c, 4, 77, 0
7, 19440, Note_on_c, 4, 74, 60
7, 19680, Note_on_c, 4, 74, 0
7, 19680, Note_on_c, 4, 94, 60
7, 19920, Note_on_c, 4, 94, 0
7, 19920, Note_on_c, 4, 93, 60
7, 20160, Note_on_c, 4, 93, 0
7, 20160, Note_on_c, 4, 89, 60
7, 20400, Note_on_c, 4, 89, 0
7, 20400, Note_on_c, 4, 86, 60
7, 20640, Note_on_c, 4, 86, 0
7, 20640, Note_on_c, 4, 82, 60
7, 20880, Note_on_c, 4, 82, 0
7, 20880, Note_on_c, 4, 81, 60
7, 21120, Note_on_c, 4, 81, 0
7, 21120, Note_on_c, 4, 77, 60
7, 21360, Note_on_c, 4, 77, 0
7, 21360, Note_on_c, 4, 74, 60
7, 21600, Note_on_c, 4, 74, 0
7, 21600, Note_on_c, 4, 94, 60
7, 21840, Note_on_c, 4, 94, 0
7, 21840, Note_on_c, 4, 93, 60
7, 22080, Note_on_c, 4, 93, 0
7, 22080, Note_on_c, 4, 89, 60
7, 22320, Note_on_c, 4, 89, 0
7, 22320, Note_on_c, 4, 86, 60
7, 22560, Note_on_c, 4, 86, 0
7, 22560, Note_on_c, 4, 82, 60
7, 22800, Note_on_c, 4, 82, 0
7, 22800, Note_on_c, 4, 81, 60
7, 23040, Note_on_c, 4, 81, 0
7, 23040, Note_on_c, 4, 77, 60
7, 23280, Note_on_c, 4, 77, 0
7, 23280, Note_on_c, 4, 74, 60
7, 23520, Note_on_c, 4, 74, 0
7, 23520, Note_on_c, 4, 94, 60
7, 23760, Note_on_c, 4, 94, 0
7, 23760, Note_on_c, 4, 93, 60
7, 24000, Note_on_c, 4, 93, 0
7, 24000, Note_on_c, 4, 89, 60
7, 24240, Note_on_c, 4, 89, 0
7, 24240, Note_on_c, 4, 86, 60
7, 24480, Note_on_c, 4, 86, 0
7, 24480, Note_on_c, 4, 82, 60
7, 24720, Note_on_c, 4, 82, 0
7, 24720, Note_on_c, 4, 81, 60
7, 24960, Note_on_c, 4, 81, 0
7, 24960, Note_on_c, 4, 77, 60
7, 25200, Note_on_c, 4, 77, 0
7, 25200, Note_on_c, 4, 74, 60
7, 25440, Note_on_c, 4, 74, 0
7, 25440, Note_on_c, 4, 94, 60
7, 25680, Note_on_c, 4, 94, 0
7, 25680, Note_on_c, 4, 93, 60
7, 25920, Note_on_c, 4, 93, 0
7, 25920, Note_on_c, 4, 89, 60
7, 26160, Note_on_c, 4, 89, 0
7, 26160, Note_on_c, 4, 86, 60
7, 26400, Note_on_c, 4, 86, 0
7, 26400, Note_on_c, 4, 82, 60
7, 26640, Note_on_c, 4, 82, 0
7, 26640, Note_on_c, 4, 81, 60
7, 26880, Note_on_c, 4, 81, 0
7, 26880, Note_on_c, 4, 77, 60
7, 27120, Note_on_c, 4, 77, 0
7, 27120, Note_on_c, 4, 74, 60
7, 27360, Note_on_c, 4, 74, 0
7, 27360, Note_on_c, 4, 94, 60
7, 27600, Note_on_c, 4, 94, 0
7, 27600, Note_on_c, 4, 93, 60
7, 27840, Note_on_c, 4, 93, 0
7, 27840, Note_on_c, 4, 89, 60
7, 28080, Note_on_c, 4, 89, 0
7, 28080, Note_on_c, 4, 86, 60
7, 28320, Note_on_c, 4, 86, 0
7, 28320, Note_on_c, 4, 82, 60
7, 28560, Note_on_c, 4, 82, 0
7, 28560, Note_on_c, 4, 81, 60
7, 28800, Note_on_c, 4, 81, 0
7, 28800, Note_on_c, 4, 77, 60
7, 29040, Note_on_c, 4, 77, 0
7, 29040, Note_on_c, 4, 74, 60
7, 29280, Note_on_c, 4, 74, 0
7, 29280, Note_on_c, 4, 94, 60
7, 29520, Note_on_c, 4, 94, 0
7, 29520, Note_on_c, 4, 93, 60
7, 29760, Note_on_c, 4, 93, 0
7, 29760, Note_on_c, 4, 89, 60
7, 30000, Note_on_c, 4, 89, 0
7, 30000, Note_on_c, 4, 86, 60
7, 30240, Note_on_c, 4, 86, 0
7, 30240, Note_on_c, 4, 82, 60
7, 30480, Note_on_c, 4, 82, 0
7, 30480, Note_on_c, 4, 81, 60
7, 30720, Note_on_c, 4, 81, 0
7, 30720, Note_on_c, 4, 77, 60
7, 30960, Note_on_c, 4, 77, 0
7, 30960, Note_on_c, 4, 74, 60
7, 31200, Note_on_c, 4, 74, 0
7, 31200, Note_on_c, 4, 94, 60
7, 31440, Note_on_c, 4, 94, 0
7, 31440, Note_on_c, 4, 93, 60
7, 31680, Note_on_c, 4, 93, 0
7, 31680, Note_on_c, 4, 89, 60
7, 31920, Note_on_c, 4, 89, 0
7, 31920, Note_on_c, 4, 86, 60
7, 32160, Note_on_c, 4, 86, 0
7, 32160, Note_on_c, 4, 82, 60
7, 32400, Note_on_c, 4, 82, 0
7, 32400, Note_on_c, 4, 81, 60
7, 32640, Note_on_c, 4, 81, 0
7, 32640, Note_on_c, 4, 77, 60
7, 32880, Note_on_c, 4, 77, 0
7, 32880, Note_on_c, 4, 74, 60
7, 33120, Note_on_c, 4, 74, 0
7, 33120, Note_on_c, 4, 94, 60
7, 33360, Note_on_c, 4, 94, 0
7, 33360, Note_on_c, 4, 93, 60
7, 33600, Note_on_c, 4, 93, 0
7, 33600, Note_on_c, 4, 89, 60
7, 33840, Note_on_c, 4, 89, 0
7, 33840, Note_on_c, 4, 86, 60
7, 34080, Note_on_c, 4, 86, 0
7, 34080, Note_on_c, 4, 82, 60
7, 34320, Note_on_c, 4, 82, 0
7, 34320, Note_on_c, 4, 81, 60
7, 34560, Note_on_c, 4, 81, 0
7, 34560, Note_on_c, 4, 77, 60
7, 34800, Note_on_c, 4, 77, 0
7, 34800, Note_on_c, 4, 74, 60
7, 35040, Note_on_c, 4, 74, 0
7, 35040, Note_on_c, 4, 94, 60
7, 35280, Note_on_c, 4, 94, 0
7, 35280, Note_on_c, 4, 93, 60
7, 35520, Note_on_c, 4, 93, 0
7, 35520, Note_on_c, 4, 89, 60
7, 35760, Note_on_c, 4, 89, 0
7, 35760, Note_on_c, 4, 86, 60
7, 36000, Note_on_c, 4, 86, 0
7, 36000, Note_on_c, 4, 82, 60
7, 36240, Note_on_c, 4, 82, 0
7, 36240, Note_on_c, 4, 81, 60
7, 36480, Note_on_c, 4, 81, 0
7, 36480, Note_on_c, 4, 77, 60
7, 36720, Note_on_c, 4, 77, 0
7, 36720, Note_on_c, 4, 74, 60
7, 36960, Note_on_c, 4, 74, 0
7, 36960, Note_on_c, 4, 94, 60
7, 37200, Note_on_c, 4, 94, 0
7, 37200, Note_on_c, 4, 93, 60
7, 37440, Note_on_c, 4, 93, 0
7, 37440, Note_on_c, 4, 89, 60
7, 37680, Note_on_c, 4, 89, 0
7, 37680, Note_on_c, 4, 86, 60
7, 37920, Note_on_c, 4, 86, 0
7, 37920, Note_on_c, 4, 82, 60
7, 38160, Note_on_c, 4, 82, 0
7, 38160, Note_on_c, 4, 81, 60
7, 38400, Note_on_c, 4, 81, 0
7, 38400, Note_on_c, 4, 77, 60
7, 38640, Note_on_c, 4, 77, 0
7, 38640, Note_on_c, 4, 74, 60
7, 38880, Note_on_c, 4, 74, 0
7, 38880, Note_on_c, 4, 92, 60
7, 39120, Note_on_c, 4, 92, 0
7, 39120, Note_on_c, 4, 89, 60
7, 39360, Note_on_c, 4, 89, 0
7, 39360, Note_on_c, 4, 85, 60
7, 39600, Note_on_c, 4, 85, 0
7, 39600, Note_on_c, 4, 84, 60
7, 39840, Note_on_c, 4, 84, 0
7, 39840, Note_on_c, 4, 80, 60
7, 40080, Note_on_c, 4, 80, 0
7, 40080, Note_on_c, 4, 77, 60
7, 40320, Note_on_c, 4, 77, 0
7, 40320, Note_on_c, 4, 73, 60
7, 40560, Note_on_c, 4, 73, 0
7, 40560, Note_on_c, 4, 72, 60
7, 40800, Note_on_c, 4, 72, 0
7, 40800, Note_on_c, 4, 92, 60
7, 41040, Note_on_c, 4, 92, 0
7, 41040, Note_on_c, 4, 89, 60
7, 41280, Note_on_c, 4, 89, 0
7, 41280, Note_on_c, 4, 85, 60
7, 41520, Note_on_c, 4, 85, 0
7, 41520, Note_on_c, 4, 84, 60
7, 41760, Note_on_c, 4, 84, 0
7, 41760, Note_on_c, 4, 80, 60
7, 42000, Note_on_c, 4, 80, 0
7, 42000, Note_on_c, 4, 77, 60
7, 42240, Note_on_c, 4, 77, 0
7, 42240, Note_on_c, 4, 73, 60
7, 42480, Note_on_c, 4, 73, 0
7, 42480, Note_on_c, 4, 72, 60
7, 42720, Note_on_c, 4, 72, 0
7, 42720, Note_on_c, 4, 92, 60
7, 42960, Note_on_c, 4, 92, 0
7, 42960, Note_on_c, 4, 89, 60
7, 43200, Note_on_c, 4, 89, 0
7, 43200, Note_on_c, 4, 85, 60
7, 43440, Note_on_c, 4, 85, 0
7, 43440, Note_on_c, 4, 84, 60
7, 43680, Note_on_c, 4, 84, 0
7, 43680, Note_on_c, 4, 80, 60
7, 43920, Note_on_c, 4, 80, 0
7, 43920, Note_on_c, 4, 77, 60
7, 44160, Note_on_c, 4, 77, 0
7, 44160, Note_on_c, 4, 73, 60
7, 44400, Note_on_c, 4, 73, 0
7, 44400, Note_on_c, 4, 72, 60
7, 44640, Note_on_c, 4, 72, 0
7, 44640, Note_on_c, 4, 92, 60
7, 44880, Note_on_c, 4, 92, 0
7, 44880, Note_on_c, 4, 89, 60
7, 45120, Note_on_c, 4, 89, 0
7, 45120, Note_on_c, 4, 85, 60
7, 45360, Note_on_c, 4, 85, 0
7, 45360, Note_on_c, 4, 84, 60
7, 45600, Note_on_c, 4, 84, 0
7, 45600, Note_on_c, 4, 80, 60
7, 45840, Note_on_c, 4, 80, 0
7, 45840, Note_on_c, 4, 77, 60
7, 46080, Note_on_c, 4, 77, 0
7, 46080, Note_on_c, 4, 73, 60
7, 46320, Note_on_c, 4, 73, 0
7, 46320, Note_on_c, 4, 72, 60
7, 46560, Note_on_c, 4, 72, 0
7, 46560, Note_on_c, 4, 92, 60
7, 46800, Note_on_c, 4, 92, 0
7, 46800, Note_on_c, 4, 91, 60
7, 47040, Note_on_c, 4, 91, 0
7, 47040, Note_on_c, 4, 87, 60
7, 47280, Note_on_c, 4, 87, 0
7, 47280, Note_on_c, 4, 84, 60
7, 47520, Note_on_c, 4, 84, 0
7, 47520, Note_on_c, 4, 80, 60
7, 47760, Note_on_c, 4, 80, 0
7, 47760, Note_on_c, 4, 79, 60
7, 48000, Note_on_c, 4, 79, 0
7, 48000, Note_on_c, 4, 75, 60
7, 48240, Note_on_c, 4, 75, 0
7, 48240, Note_on_c, 4, 72, 60
7, 48480, Note_on_c, 4, 72, 0
7, 48480, Note_on_c, 4, 92, 60
7, 48720, Note_on_c, 4, 92, 0
7, 48720, Note_on_c, 4, 91, 60
7, 48960, Note_on_c, 4, 91, 0
7, 48960, Note_on_c, 4, 87, 60
7, 49200, Note_on_c, 4, 87, 0
7, 49200, Note_on_c, 4, 84, 60
7, 49440, Note_on_c, 4, 84, 0
7, 49440, Note_on_c, 4, 80, 60
7, 49680, Note_on_c, 4, 80, 0
7, 49680, Note_on_c, 4, 79, 60
7, 49920, Note_on_c, 4, 79, 0
7, 49920, Note_on_c, 4, 75, 60
7, 50160, Note_on_c, 4, 75, 0
7, 50160, Note_on_c, 4, 72, 60
7, 50400, Note_on_c, 4, 72, 0
7, 50400, Note_on_c, 4, 92, 60
7, 50640, Note_on_c, 4, 92, 0
7, 50640, Note_on_c, 4, 91, 60
7, 50880, Note_on_c, 4, 91, 0
7, 50880, Note_on_c, 4, 87, 60
7, 51120, Note_on_c, 4, 87, 0
7, 51120, Note_on_c, 4, 84, 60
7, 51360, Note_on_c, 4, 84, 0
7, 51360, Note_on_c, 4, 80, 60
7, 51600, Note_on_c, 4, 80, 0
7, 51600, Note_on_c, 4, 79, 60
7, 51840, Note_on_c, 4, 79, 0
7, 51840, Note_on_c, 4, 75, 60
7, 52080, Note_on_c, 4, 75, 0
7, 52080, Note_on_c, 4, 72, 60
7, 52320, Note_on_c, 4, 72, 0
7, 52320, Note_on_c, 4, 92, 60
7, 52560, Note_on_c, 4, 92, 0
7, 52560, Note_on_c, 4, 91, 60
7, 52800, Note_on_c, 4, 91, 0
7, 52800, Note_on_c, 4, 87, 60
7, 53040, Note_on_c, 4, 87, 0
7, 53040, Note_on_c, 4, 84, 60
7, 53280, Note_on_c, 4, 84, 0
7, 53280, Note_on_c, 4, 80, 60
7, 53520, Note_on_c, 4, 80, 0
7, 53520, Note_on_c, 4, 79, 60
7, 53760, Note_on_c, 4, 79, 0
7, 100320, Note_on_c, 4, 92, 60
7, 100560, Note_on_c, 4, 92, 0
7, 100560, Note_on_c, 4, 91, 60
7, 100800, Note_on_c, 4, 91, 0
7, 100800, Note_on_c, 4, 88, 60
7, 101040, Note_on_c, 4, 88, 0
7, 101040, Note_on_c, 4, 84, 60
7, 101280, Note_on_c, 4, 84, 0
7, 101280, Note_on_c, 4, 80, 60
7, 101520, Note_on_c, 4, 80, 0
7, 101520, Note_on_c, 4, 79, 60
7, 101760, Note_on_c, 4, 79, 0
7, 101760, Note_on_c, 4, 76, 60
7, 102000, Note_on_c, 4, 76, 0
7, 102000, Note_on_c, 4, 72, 60
7, 102240, Note_on_c, 4, 72, 0
7, 102240, Note_on_c, 4, 92, 60
7, 102480, Note_on_c, 4, 92, 0
7, 102480, Note_on_c, 4, 91, 60
7, 102720, Note_on_c, 4, 91, 0
7, 102720, Note_on_c, 4, 88, 60
7, 102960, Note_on_c, 4, 88, 0
7, 102960, Note_on_c, 4, 84, 60
7, 103200, Note_on_c, 4, 84, 0
7, 103200, Note_on_c, 4, 80, 60
7, 103440, Note_on_c, 4, 80, 0
7, 103440, Note_on_c, 4, 79, 60
7, 103680, Note_on_c, 4, 79, 0
7, 103680, Note_on_c, 4, 76, 60
7, 103920, Note_on_c, 4, 76, 0
7, 103920, Note_on_c, 4, 72, 60
7, 104160, Note_on_c, 4, 72, 0
7, 104160, Note_on_c, 4, 92, 60
7, 104400, Note_on_c, 4, 92, 0
7, 104400, Note_on_c, 4, 91, 60
7, 104640, Note_on_c, 4, 91, 0
7, 104640, Note_on_c, 4, 88, 60
7, 104880, Note_on_c, 4, 88, 0
7, 104880, Note_on_c, 4, 84, 60
7, 105120, Note_on_c, 4, 84, 0
7, 105120, Note_on_c, 4, 80, 60
7, 105360, Note_on_c, 4, 80, 0
7, 105360, Note_on_c, 4, 79, 60
7, 105600, Note_on_c, 4, 79, 0
7, 105600, Note_on_c, 4, 76, 60
7, 105839, Note_on_c, 4, 76, 0
7, 105840, Note_on_c, 4, 72, 60
7, 106079, Note_on_c, 4, 72, 0
7, 106080, Note_on_c, 4, 92, 60
7, 106319, Note_on_c, 4, 92, 0
7, 106320, Note_on_c, 4, 91, 60
7, 106559, Note_on_c, 4, 91, 0
7, 106560, Note_on_c, 4, 88, 60
7, 106799, Note_on_c, 4, 88, 0
7, 106800, Note_on_c, 4, 84, 60
7, 107039, Note_on_c, 4, 84, 0
7, 107040, Note_on_c, 4, 80, 60
7, 107279, Note_on_c, 4, 80, 0
7, 107280, Note_on_c, 4, 79, 60
7, 107519, Note_on_c, 4, 79, 0
7, 107519, End_track
8, 0, Start_track
8, 0, MIDI_port, 0
8, 0, Title_t, "SYNTH3"
8, 0, Control_c, 5, 0, 0
8, 0, Program_c, 5, 79
8, 0, Control_c, 5, 7, 70
8, 0, Control_c, 5, 10, 10
8, 960, Note_on_c, 5, 94, 40
8, 1200, Note_on_c, 5, 94, 0
8, 1200, Note_on_c, 5, 93, 40
8, 1440, Note_on_c, 5, 93, 0
8, 1440, Note_on_c, 5, 89, 40
8, 1680, Note_on_c, 5, 89, 0
8, 1680, Note_on_c, 5, 86, 40
8, 1920, Note_on_c, 5, 86, 0
8, 1920, Note_on_c, 5, 82, 40
8, 2160, Note_on_c, 5, 82, 0
8, 2160, Note_on_c, 5, 81, 40
8, 2400, Note_on_c, 5, 81, 0
8, 2400, Note_on_c, 5, 77, 40
8, 2640, Note_on_c, 5, 77, 0
8, 2640, Note_on_c, 5, 74, 40
8, 2880, Note_on_c, 5, 74, 0
8, 2880, Note_on_c, 5, 94, 40
8, 3120, Note_on_c, 5, 94, 0
8, 3120, Note_on_c, 5, 93, 40
8, 3360, Note_on_c, 5, 93, 0
8, 3360, Note_on_c, 5, 89, 40
8, 3600, Note_on_c, 5, 89, 0
8, 3600, Note_on_c, 5, 86, 40
8, 3840, Note_on_c, 5, 86, 0
8, 3840, Note_on_c, 5, 82, 40
8, 4080, Note_on_c, 5, 82, 0
8, 4080, Note_on_c, 5, 81, 40
8, 4320, Note_on_c, 5, 81, 0
8, 4320, Note_on_c, 5, 77, 40
8, 4560, Note_on_c, 5, 77, 0
8, 4560, Note_on_c, 5, 74, 40
8, 4800, Note_on_c, 5, 74, 0
8, 4800, Note_on_c, 5, 94, 40
8, 5040, Note_on_c, 5, 94, 0
8, 5040, Note_on_c, 5, 93, 40
8, 5280, Note_on_c, 5, 93, 0
8, 5280, Note_on_c, 5, 89, 40
8, 5520, Note_on_c, 5, 89, 0
8, 5520, Note_on_c, 5, 86, 40
8, 5760, Note_on_c, 5, 86, 0
8, 5760, Note_on_c, 5, 82, 40
8, 6000, Note_on_c, 5, 82, 0
8, 6000, Note_on_c, 5, 81, 40
8, 6240, Note_on_c, 5, 81, 0
8, 6240, Note_on_c, 5, 77, 40
8, 6480, Note_on_c, 5, 77, 0
8, 6480, Note_on_c, 5, 74, 40
8, 6720, Note_on_c, 5, 74, 0
8, 6720, Note_on_c, 5, 94, 40
8, 6960, Note_on_c, 5, 94, 0
8, 6960, Note_on_c, 5, 93, 40
8, 7200, Note_on_c, 5, 93, 0
8, 7200, Note_on_c, 5, 89, 40
8, 7440, Note_on_c, 5, 89, 0
8, 7440, Note_on_c, 5, 86, 40
8, 7680, Note_on_c, 5, 86, 0
8, 7680, Note_on_c, 5, 82, 40
8, 7920, Note_on_c, 5, 82, 0
8, 7920, Note_on_c, 5, 81, 40
8, 8160, Note_on_c, 5, 81, 0
8, 8160, Note_on_c, 5, 77, 40
8, 8400, Note_on_c, 5, 77, 0
8, 8400, Note_on_c, 5, 74, 40
8, 8640, Note_on_c, 5, 74, 0
8, 8640, Note_on_c, 5, 94, 40
8, 8880, Note_on_c, 5, 94, 0
8, 8880, Note_on_c, 5, 93, 40
8, 9120, Note_on_c, 5, 93, 0
8, 9120, Note_on_c, 5, 89, 40
8, 9360, Note_on_c, 5, 89, 0
8, 9360, Note_on_c, 5, 86, 40
8, 9600, Note_on_c, 5, 86, 0
8, 9600, Note_on_c, 5, 82, 40
8, 9840, Note_on_c, 5, 82, 0
8, 9840, Note_on_c, 5, 81, 40
8, 10080, Note_on_c, 5, 81, 0
8, 10080, Note_on_c, 5, 77, 40
8, 10320, Note_on_c, 5, 77, 0
8, 10320, Note_on_c, 5, 74, 40
8, 10560, Note_on_c, 5, 74, 0
8, 10560, Note_on_c, 5, 94, 40
8, 10800, Note_on_c, 5, 94, 0
8, 10800, Note_on_c, 5, 93, 40
8, 11040, Note_on_c, 5, 93, 0
8, 11040, Note_on_c, 5, 89, 40
8, 11280, Note_on_c, 5, 89, 0
8, 11280, Note_on_c, 5, 86, 40
8, 11520, Note_on_c, 5, 86, 0
8, 11520, Note_on_c, 5, 82, 40
8, 11760, Note_on_c, 5, 82, 0
8, 11760, Note_on_c, 5, 81, 40
8, 12000, Note_on_c, 5, 81, 0
8, 12000, Note_on_c, 5, 77, 40
8, 12240, Note_on_c, 5, 77, 0
8, 12240, Note_on_c, 5, 74, 40
8, 12480, Note_on_c, 5, 74, 0
8, 12480, Note_on_c, 5, 94, 40
8, 12720, Note_on_c, 5, 94, 0
8, 12720, Note_on_c, 5, 93, 40
8, 12960, Note_on_c, 5, 93, 0
8, 12960, Note_on_c, 5, 89, 40
8, 13200, Note_on_c, 5, 89, 0
8, 13200, Note_on_c, 5, 86, 40
8, 13440, Note_on_c, 5, 86, 0
8, 13440, Note_on_c, 5, 82, 40
8, 13680, Note_on_c, 5, 82, 0
8, 13680, Note_on_c, 5, 81, 40
8, 13920, Note_on_c, 5, 81, 0
8, 13920, Note_on_c, 5, 77, 40
8, 14160, Note_on_c, 5, 77, 0
8, 14160, Note_on_c, 5, 74, 40
8, 14400, Note_on_c, 5, 74, 0
8, 14400, Note_on_c, 5, 94, 40
8, 14640, Note_on_c, 5, 94, 0
8, 14640, Note_on_c, 5, 93, 40
8, 14880, Note_on_c, 5, 93, 0
8, 14880, Note_on_c, 5, 89, 40
8, 15120, Note_on_c, 5, 89, 0
8, 15120, Note_on_c, 5, 86, 40
8, 15360, Note_on_c, 5, 86, 0
8, 15360, Note_on_c, 5, 82, 40
8, 15600, Note_on_c, 5, 82, 0
8, 15600, Note_on_c, 5, 81, 40
8, 15840, Note_on_c, 5, 81, 0
8, 15840, Note_on_c, 5, 77, 40
8, 16080, Note_on_c, 5, 77, 0
8, 16080, Note_on_c, 5, 74, 40
8, 16320, Note_on_c, 5, 74, 0
8, 16320, Note_on_c, 5, 94, 40
8, 16560, Note_on_c, 5, 94, 0
8, 16560, Note_on_c, 5, 93, 40
8, 16800, Note_on_c, 5, 93, 0
8, 16800, Note_on_c, 5, 89, 40
8, 17040, Note_on_c, 5, 89, 0
8, 17040, Note_on_c, 5, 86, 40
8, 17280, Note_on_c, 5, 86, 0
8, 17280, Note_on_c, 5, 82, 40
8, 17520, Note_on_c, 5, 82, 0
8, 17520, Note_on_c, 5, 81, 40
8, 17760, Note_on_c, 5, 81, 0
8, 17760, Note_on_c, 5, 77, 40
8, 18000, Note_on_c, 5, 77, 0
8, 18000, Note_on_c, 5, 74, 40
8, 18240, Note_on_c, 5, 74, 0
8, 18240, Note_on_c, 5, 94, 40
8, 18480, Note_on_c, 5, 94, 0
8, 18480, Note_on_c, 5, 93, 40
8, 18720, Note_on_c, 5, 93, 0
8, 18720, Note_on_c, 5, 89, 40
8, 18960, Note_on_c, 5, 89, 0
8, 18960, Note_on_c, 5, 86, 40
8, 19200, Note_on_c, 5, 86, 0
8, 19200, Note_on_c, 5, 82, 40
8, 19440, Note_on_c, 5, 82, 0
8, 19440, Note_on_c, 5, 81, 40
8, 19680, Note_on_c, 5, 81, 0
8, 19680, Note_on_c, 5, 77, 40
8, 19920, Note_on_c, 5, 77, 0
8, 19920, Note_on_c, 5, 74, 40
8, 20160, Note_on_c, 5, 74, 0
8, 20160, Note_on_c, 5, 94, 40
8, 20400, Note_on_c, 5, 94, 0
8, 20400, Note_on_c, 5, 93, 40
8, 20640, Note_on_c, 5, 93, 0
8, 20640, Note_on_c, 5, 89, 40
8, 20880, Note_on_c, 5, 89, 0
8, 20880, Note_on_c, 5, 86, 40
8, 21120, Note_on_c, 5, 86, 0
8, 21120, Note_on_c, 5, 82, 40
8, 21360, Note_on_c, 5, 82, 0
8, 21360, Note_on_c, 5, 81, 40
8, 21600, Note_on_c, 5, 81, 0
8, 21600, Note_on_c, 5, 77, 40
8, 21840, Note_on_c, 5, 77, 0
8, 21840, Note_on_c, 5, 74, 40
8, 22080, Note_on_c, 5, 74, 0
8, 22080, Note_on_c, 5, 94, 40
8, 22320, Note_on_c, 5, 94, 0
8, 22320, Note_on_c, 5, 93, 40
8, 22560, Note_on_c, 5, 93, 0
8, 22560, Note_on_c, 5, 89, 40
8, 22800, Note_on_c, 5, 89, 0
8, 22800, Note_on_c, 5, 86, 40
8, 23040, Note_on_c, 5, 86, 0
8, 23040, Note_on_c, 5, 82, 40
8, 23280, Note_on_c, 5, 82, 0
8, 23280, Note_on_c, 5, 81, 40
8, 23520, Note_on_c, 5, 81, 0
8, 23520, Note_on_c, 5, 77, 40
8, 23760, Note_on_c, 5, 77, 0
8, 23760, Note_on_c, 5, 74, 40
8, 24000, Note_on_c, 5, 74, 0
8, 24000, Note_on_c, 5, 94, 40
8, 24240, Note_on_c, 5, 94, 0
8, 24240, Note_on_c, 5, 93, 40
8, 24480, Note_on_c, 5, 93, 0
8, 24480, Note_on_c, 5, 89, 40
8, 24720, Note_on_c, 5, 89, 0
8, 24720, Note_on_c, 5, 86, 40
8, 24960, Note_on_c, 5, 86, 0
8, 24960, Note_on_c, 5, 82, 40
8, 25200, Note_on_c, 5, 82, 0
8, 25200, Note_on_c, 5, 81, 40
8, 25440, Note_on_c, 5, 81, 0
8, 25440, Note_on_c, 5, 77, 40
8, 25680, Note_on_c, 5, 77, 0
8, 25680, Note_on_c, 5, 74, 40
8, 25920, Note_on_c, 5, 74, 0
8, 25920, Note_on_c, 5, 94, 40
8, 26160, Note_on_c, 5, 94, 0
8, 26160, Note_on_c, 5, 93, 40
8, 26400, Note_on_c, 5, 93, 0
8, 26400, Note_on_c, 5, 89, 40
8, 26640, Note_on_c, 5, 89, 0
8, 26640, Note_on_c, 5, 86, 40
8, 26880, Note_on_c, 5, 86, 0
8, 26880, Note_on_c, 5, 82, 40
8, 27120, Note_on_c, 5, 82, 0
8, 27120, Note_on_c, 5, 81, 40
8, 27360, Note_on_c, 5, 81, 0
8, 27360, Note_on_c, 5, 77, 40
8, 27600, Note_on_c, 5, 77, 0
8, 27600, Note_on_c, 5, 74, 40
8, 27840, Note_on_c, 5, 74, 0
8, 27840, Note_on_c, 5, 94, 40
8, 28080, Note_on_c, 5, 94, 0
8, 28080, Note_on_c, 5, 93, 40
8, 28320, Note_on_c, 5, 93, 0
8, 28320, Note_on_c, 5, 89, 40
8, 28560, Note_on_c, 5, 89, 0
8, 28560, Note_on_c, 5, 86, 40
8, 28800, Note_on_c, 5, 86, 0
8, 28800, Note_on_c, 5, 82, 40
8, 29040, Note_on_c, 5, 82, 0
8, 29040, Note_on_c, 5, 81, 40
8, 29280, Note_on_c, 5, 81, 0
8, 29280, Note_on_c, 5, 77, 40
8, 29520, Note_on_c, 5, 77, 0
8, 29520, Note_on_c, 5, 74, 40
8, 29760, Note_on_c, 5, 74, 0
8, 29760, Note_on_c, 5, 94, 40
8, 30000, Note_on_c, 5, 94, 0
8, 30000, Note_on_c, 5, 93, 40
8, 30240, Note_on_c, 5, 93, 0
8, 30240, Note_on_c, 5, 89, 40
8, 30480, Note_on_c, 5, 89, 0
8, 30480, Note_on_c, 5, 86, 40
8, 30720, Note_on_c, 5, 86, 0
8, 30720, Note_on_c, 5, 82, 40
8, 30960, Note_on_c, 5, 82, 0
8, 30960, Note_on_c, 5, 81, 40
8, 31200, Note_on_c, 5, 81, 0
8, 31200, Note_on_c, 5, 77, 40
8, 31440, Note_on_c, 5, 77, 0
8, 31440, Note_on_c, 5, 74, 40
8, 31680, Note_on_c, 5, 74, 0
8, 31680, Note_on_c, 5, 94, 40
8, 31920, Note_on_c, 5, 94, 0
8, 31920, Note_on_c, 5, 93, 40
8, 32160, Note_on_c, 5, 93, 0
8, 32160, Note_on_c, 5, 89, 40
8, 32400, Note_on_c, 5, 89, 0
8, 32400, Note_on_c, 5, 86, 40
8, 32640, Note_on_c, 5, 86, 0
8, 32640, Note_on_c, 5, 82, 40
8, 32880, Note_on_c, 5, 82, 0
8, 32880, Note_on_c, 5, 81, 40
8, 33120, Note_on_c, 5, 81, 0
8, 33120, Note_on_c, 5, 77, 40
8, 33360, Note_on_c, 5, 77, 0
8, 33360, Note_on_c, 5, 74, 40
8, 33600, Note_on_c, 5, 74, 0
8, 33600, Note_on_c, 5, 94, 40
8, 33840, Note_on_c, 5, 94, 0
8, 33840, Note_on_c, 5, 93, 40
8, 34080, Note_on_c, 5, 93, 0
8, 34080, Note_on_c, 5, 89, 40
8, 34320, Note_on_c, 5, 89, 0
8, 34320, Note_on_c, 5, 86, 40
8, 34560, Note_on_c, 5, 86, 0
8, 34560, Note_on_c, 5, 82, 40
8, 34800, Note_on_c, 5, 82, 0
8, 34800, Note_on_c, 5, 81, 40
8, 35040, Note_on_c, 5, 81, 0
8, 35040, Note_on_c, 5, 77, 40
8, 35280, Note_on_c, 5, 77, 0
8, 35280, Note_on_c, 5, 74, 40
8, 35520, Note_on_c, 5, 74, 0
8, 35520, Note_on_c, 5, 94, 40
8, 35760, Note_on_c, 5, 94, 0
8, 35760, Note_on_c, 5, 93, 40
8, 36000, Note_on_c, 5, 93, 0
8, 36000, Note_on_c, 5, 89, 40
8, 36240, Note_on_c, 5, 89, 0
8, 36240, Note_on_c, 5, 86, 40
8, 36480, Note_on_c, 5, 86, 0
8, 36480, Note_on_c, 5, 82, 40
8, 36720, Note_on_c, 5, 82, 0
8, 36720, Note_on_c, 5, 81, 40
8, 36960, Note_on_c, 5, 81, 0
8, 36960, Note_on_c, 5, 77, 40
8, 37200, Note_on_c, 5, 77, 0
8, 37200, Note_on_c, 5, 74, 40
8, 37440, Note_on_c, 5, 74, 0
8, 37440, Note_on_c, 5, 94, 40
8, 37680, Note_on_c, 5, 94, 0
8, 37680, Note_on_c, 5, 93, 40
8, 37920, Note_on_c, 5, 93, 0
8, 37920, Note_on_c, 5, 89, 40
8, 38160, Note_on_c, 5, 89, 0
8, 38160, Note_on_c, 5, 86, 40
8, 38400, Note_on_c, 5, 86, 0
8, 38400, Note_on_c, 5, 82, 40
8, 38640, Note_on_c, 5, 82, 0
8, 38640, Note_on_c, 5, 81, 40
8, 38880, Note_on_c, 5, 81, 0
8, 38880, Note_on_c, 5, 77, 40
8, 39120, Note_on_c, 5, 77, 0
8, 39120, Note_on_c, 5, 74, 40
8, 39360, Note_on_c, 5, 74, 0
8, 39360, Note_on_c, 5, 92, 40
8, 39600, Note_on_c, 5, 92, 0
8, 39600, Note_on_c, 5, 89, 40
8, 39840, Note_on_c, 5, 89, 0
8, 39840, Note_on_c, 5, 85, 40
8, 40080, Note_on_c, 5, 85, 0
8, 40080, Note_on_c, 5, 84, 40
8, 40320, Note_on_c, 5, 84, 0
8, 40320, Note_on_c, 5, 80, 40
8, 40560, Note_on_c, 5, 80, 0
8, 40560, Note_on_c, 5, 77, 40
8, 40800, Note_on_c, 5, 77, 0
8, 40800, Note_on_c, 5, 73, 40
8, 41040, Note_on_c, 5, 73, 0
8, 41040, Note_on_c, 5, 72, 40
8, 41280, Note_on_c, 5, 72, 0
8, 41280, Note_on_c, 5, 92, 40
8, 41520, Note_on_c, 5, 92, 0
8, 41520, Note_on_c, 5, 89, 40
8, 41760, Note_on_c, 5, 89, 0
8, 41760, Note_on_c, 5, 85, 40
8, 42000, Note_on_c, 5, 85, 0
8, 42000, Note_on_c, 5, 84, 40
8, 42240, Note_on_c, 5, 84, 0
8, 42240, Note_on_c, 5, 80, 40
8, 42480, Note_on_c, 5, 80, 0
8, 42480, Note_on_c, 5, 77, 40
8, 42720, Note_on_c, 5, 77, 0
8, 42720, Note_on_c, 5, 73, 40
8, 42960, Note_on_c, 5, 73, 0
8, 42960, Note_on_c, 5, 72, 40
8, 43200, Note_on_c, 5, 72, 0
8, 43200, Note_on_c, 5, 92, 40
8, 43440, Note_on_c, 5, 92, 0
8, 43440, Note_on_c, 5, 89, 40
8, 43680, Note_on_c, 5, 89, 0
8, 43680, Note_on_c, 5, 85, 40
8, 43920, Note_on_c, 5, 85, 0
8, 43920, Note_on_c, 5, 84, 40
8, 44160, Note_on_c, 5, 84, 0
8, 44160, Note_on_c, 5, 80, 40
8, 44400, Note_on_c, 5, 80, 0
8, 44400, Note_on_c, 5, 77, 40
8, 44640, Note_on_c, 5, 77, 0
8, 44640, Note_on_c, 5, 73, 40
8, 44880, Note_on_c, 5, 73, 0
8, 44880, Note_on_c, 5, 72, 40
8, 45120, Note_on_c, 5, 72, 0
8, 45120, Note_on_c, 5, 92, 40
8, 45360, Note_on_c, 5, 92, 0
8, 45360, Note_on_c, 5, 89, 40
8, 45600, Note_on_c, 5, 89, 0
8, 45600, Note_on_c, 5, 85, 40
8, 45840, Note_on_c, 5, 85, 0
8, 45840, Note_on_c, 5, 84, 40
8, 46080, Note_on_c, 5, 84, 0
8, 46080, Note_on_c, 5, 80, 40
8, 46320, Note_on_c, 5, 80, 0
8, 46320, Note_on_c, 5, 77, 40
8, 46560, Note_on_c, 5, 77, 0
8, 46560, Note_on_c, 5, 73, 40
8, 46800, Note_on_c, 5, 73, 0
8, 46800, Note_on_c, 5, 72, 40
8, 47040, Note_on_c, 5, 72, 0
8, 47040, Note_on_c, 5, 92, 40
8, 47280, Note_on_c, 5, 92, 0
8, 47280, Note_on_c, 5, 91, 40
8, 47520, Note_on_c, 5, 91, 0
8, 47520, Note_on_c, 5, 87, 40
8, 47760, Note_on_c, 5, 87, 0
8, 47760, Note_on_c, 5, 84, 40
8, 48000, Note_on_c, 5, 84, 0
8, 48000, Note_on_c, 5, 80, 40
8, 48240, Note_on_c, 5, 80, 0
8, 48240, Note_on_c, 5, 79, 40
8, 48480, Note_on_c, 5, 79, 0
8, 48480, Note_on_c, 5, 75, 40
8, 48720, Note_on_c, 5, 75, 0
8, 48720, Note_on_c, 5, 72, 40
8, 48960, Note_on_c, 5, 72, 0
8, 48960, Note_on_c, 5, 92, 40
8, 49200, Note_on_c, 5, 92, 0
8, 49200, Note_on_c, 5, 91, 40
8, 49440, Note_on_c, 5, 91, 0
8, 49440, Note_on_c, 5, 87, 40
8, 49680, Note_on_c, 5, 87, 0
8, 49680, Note_on_c, 5, 84, 40
8, 49920, Note_on_c, 5, 84, 0
8, 49920, Note_on_c, 5, 80, 40
8, 50160, Note_on_c, 5, 80, 0
8, 50160, Note_on_c, 5, 79, 40
8, 50400, Note_on_c, 5, 79, 0
8, 50400, Note_on_c, 5, 75, 40
8, 50640, Note_on_c, 5, 75, 0
8, 50640, Note_on_c, 5, 72, 40
8, 50880, Note_on_c, 5, 72, 0
8, 50880, Note_on_c, 5, 92, 40
8, 51120, Note_on_c, 5, 92, 0
8, 51120, Note_on_c, 5, 91, 40
8, 51360, Note_on_c, 5, 91, 0
8, 51360, Note_on_c, 5, 87, 40
8, 51600, Note_on_c, 5, 87, 0
8, 51600, Note_on_c, 5, 84, 40
8, 51840, Note_on_c, 5, 84, 0
8, 51840, Note_on_c, 5, 80, 40
8, 52080, Note_on_c, 5, 80, 0
8, 52080, Note_on_c, 5, 79, 40
8, 52320, Note_on_c, 5, 79, 0
8, 52320, Note_on_c, 5, 75, 40
8, 52560, Note_on_c, 5, 75, 0
8, 52560, Note_on_c, 5, 72, 40
8, 52800, Note_on_c, 5, 72, 0
8, 52800, Note_on_c, 5, 92, 40
8, 53040, Note_on_c, 5, 92, 0
8, 53040, Note_on_c, 5, 91, 40
8, 53280, Note_on_c, 5, 91, 0
8, 53280, Note_on_c, 5, 87, 40
8, 53520, Note_on_c, 5, 87, 0
8, 53520, Note_on_c, 5, 84, 40
8, 53760, Note_on_c, 5, 84, 0
8, 100800, Note_on_c, 5, 92, 40
8, 101040, Note_on_c, 5, 92, 0
8, 101040, Note_on_c, 5, 91, 40
8, 101280, Note_on_c, 5, 91, 0
8, 101280, Note_on_c, 5, 88, 40
8, 101520, Note_on_c, 5, 88, 0
8, 101520, Note_on_c, 5, 84, 40
8, 101760, Note_on_c, 5, 84, 0
8, 101760, Note_on_c, 5, 80, 40
8, 102000, Note_on_c, 5, 80, 0
8, 102000, Note_on_c, 5, 79, 40
8, 102240, Note_on_c, 5, 79, 0
8, 102240, Note_on_c, 5, 76, 40
8, 102480, Note_on_c, 5, 76, 0
8, 102480, Note_on_c, 5, 72, 40
8, 102720, Note_on_c, 5, 72, 0
8, 102720, Note_on_c, 5, 92, 40
8, 102960, Note_on_c, 5, 92, 0
8, 102960, Note_on_c, 5, 91, 40
8, 103200, Note_on_c, 5, 91, 0
8, 103200, Note_on_c, 5, 88, 40
8, 103440, Note_on_c, 5, 88, 0
8, 103440, Note_on_c, 5, 84, 40
8, 103680, Note_on_c, 5, 84, 0
8, 103680, Note_on_c, 5, 80, 40
8, 103920, Note_on_c, 5, 80, 0
8, 103920, Note_on_c, 5, 79, 40
8, 104160, Note_on_c, 5, 79, 0
8, 104160, Note_on_c, 5, 76, 40
8, 104400, Note_on_c, 5, 76, 0
8, 104400, Note_on_c, 5, 72, 40
8, 104640, Note_on_c, 5, 72, 0
8, 104640, Note_on_c, 5, 92, 40
8, 104880, Note_on_c, 5, 92, 0
8, 104880, Note_on_c, 5, 91, 40
8, 105120, Note_on_c, 5, 91, 0
8, 105120, Note_on_c, 5, 88, 40
8, 105360, Note_on_c, 5, 88, 0
8, 105360, Note_on_c, 5, 84, 40
8, 105600, Note_on_c, 5, 84, 0
8, 105600, Note_on_c, 5, 80, 40
8, 105839, Note_on_c, 5, 80, 0
8, 105840, Note_on_c, 5, 79, 40
8, 106079, Note_on_c, 5, 79, 0
8, 106080, Note_on_c, 5, 76, 40
8, 106319, Note_on_c, 5, 76, 0
8, 106320, Note_on_c, 5, 72, 40
8, 106559, Note_on_c, 5, 72, 0
8, 106560, Note_on_c, 5, 92, 40
8, 106799, Note_on_c, 5, 92, 0
8, 106800, Note_on_c, 5, 91, 40
8, 107039, Note_on_c, 5, 91, 0
8, 107040, Note_on_c, 5, 88, 40
8, 107279, Note_on_c, 5, 88, 0
8, 107280, Note_on_c, 5, 84, 40
8, 107519, Note_on_c, 5, 84, 0
8, 107519, End_track
9, 0, Start_track
9, 0, MIDI_port, 0
9, 0, Title_t, "LPIANO"
9, 0, Control_c, 6, 0, 0
9, 0, Program_c, 6, 1
9, 0, Control_c, 6, 7, 80
9, 0, Control_c, 6, 10, 10
9, 7680, Note_on_c, 6, 38, 80
9, 7920, Note_on_c, 6, 38, 0
9, 7920, Note_on_c, 6, 41, 80
9, 8160, Note_on_c, 6, 41, 0
9, 8160, Note_on_c, 6, 38, 80
9, 8400, Note_on_c, 6, 38, 0
9, 8400, Note_on_c, 6, 41, 80
9, 8640, Note_on_c, 6, 41, 0
9, 8640, Note_on_c, 6, 46, 80
9, 8880, Note_on_c, 6, 46, 0
9, 8880, Note_on_c, 6, 45, 80
9, 9120, Note_on_c, 6, 45, 0
9, 9120, Note_on_c, 6, 41, 80
9, 9360, Note_on_c, 6, 41, 0
9, 9360, Note_on_c, 6, 38, 80
9, 9600, Note_on_c, 6, 38, 0
9, 9600, Note_on_c, 6, 41, 80
9, 9840, Note_on_c, 6, 41, 0
9, 9840, Note_on_c, 6, 45, 80
9, 10080, Note_on_c, 6, 45, 0
9, 10080, Note_on_c, 6, 46, 80
9, 10320, Note_on_c, 6, 46, 0
9, 10320, Note_on_c, 6, 45, 80
9, 10560, Note_on_c, 6, 45, 0
9, 10560, Note_on_c, 6, 41, 80
9, 10800, Note_on_c, 6, 41, 0
9, 10800, Note_on_c, 6, 38, 80
9, 11040, Note_on_c, 6, 38, 0
9, 11040, Note_on_c, 6, 34, 80
9, 11280, Note_on_c, 6, 34, 0
9, 11280, Note_on_c, 6, 33, 80
9, 11520, Note_on_c, 6, 33, 0
9, 11520, Note_on_c, 6, 38, 80
9, 11760, Note_on_c, 6, 38, 0
9, 11760, Note_on_c, 6, 41, 80
9, 12000, Note_on_c, 6, 41, 0
9, 12000, Note_on_c, 6, 38, 80
9, 12240, Note_on_c, 6, 38, 0
9, 12240, Note_on_c, 6, 41, 80
9, 12480, Note_on_c, 6, 41, 0
9, 12480, Note_on_c, 6, 46, 80
9, 12720, Note_on_c, 6, 46, 0
9, 12720, Note_on_c, 6, 45, 80
9, 12960, Note_on_c, 6, 45, 0
9, 12960, Note_on_c, 6, 41, 80
9, 13200, Note_on_c, 6, 41, 0
9, 13200, Note_on_c, 6, 38, 80
9, 13440, Note_on_c, 6, 38, 0
9, 13440, Note_on_c, 6, 41, 80
9, 13680, Note_on_c, 6, 41, 0
9, 13680, Note_on_c, 6, 45, 80
9, 13920, Note_on_c, 6, 45, 0
9, 13920, Note_on_c, 6, 46, 80
9, 14160, Note_on_c, 6, 46, 0
9, 14160, Note_on_c, 6, 45, 80
9, 14400, Note_on_c, 6, 45, 0
9, 14400, Note_on_c, 6, 41, 80
9, 14640, Note_on_c, 6, 41, 0
9, 14640, Note_on_c, 6, 38, 80
9, 14880, Note_on_c, 6, 38, 0
9, 14880, Note_on_c, 6, 34, 80
9, 15120, Note_on_c, 6, 34, 0
9, 15120, Note_on_c, 6, 33, 80
9, 15360, Note_on_c, 6, 33, 0
9, 15360, Note_on_c, 6, 38, 80
9, 15600, Note_on_c, 6, 38, 0
9, 15600, Note_on_c, 6, 41, 80
9, 15840, Note_on_c, 6, 41, 0
9, 15840, Note_on_c, 6, 38, 80
9, 16080, Note_on_c, 6, 38, 0
9, 16080, Note_on_c, 6, 41, 80
9, 16320, Note_on_c, 6, 41, 0
9, 16320, Note_on_c, 6, 46, 80
9, 16560, Note_on_c, 6, 46, 0
9, 16560, Note_on_c, 6, 45, 80
9, 16800, Note_on_c, 6, 45, 0
9, 16800, Note_on_c, 6, 41, 80
9, 17040, Note_on_c, 6, 41, 0
9, 17040, Note_on_c, 6, 38, 80
9, 17280, Note_on_c, 6, 38, 0
9, 17280, Note_on_c, 6, 41, 80
9, 17520, Note_on_c, 6, 41, 0
9, 17520, Note_on_c, 6, 45, 80
9, 17760, Note_on_c, 6, 45, 0
9, 17760, Note_on_c, 6, 46, 80
9, 18000, Note_on_c, 6, 46, 0
9, 18000, Note_on_c, 6, 45, 80
9, 18240, Note_on_c, 6, 45, 0
9, 18240, Note_on_c, 6, 41, 80
9, 18480, Note_on_c, 6, 41, 0
9, 18480, Note_on_c, 6, 38, 80
9, 18720, Note_on_c, 6, 38, 0
9, 18720, Note_on_c, 6, 34, 80
9, 18960, Note_on_c, 6, 34, 0
9, 18960, Note_on_c, 6, 33, 80
9, 19200, Note_on_c, 6, 33, 0
9, 19200, Note_on_c, 6, 38, 80
9, 19440, Note_on_c, 6, 38, 0
9, 19440, Note_on_c, 6, 41, 80
9, 19680, Note_on_c, 6, 41, 0
9, 19680, Note_on_c, 6, 38, 80
9, 19920, Note_on_c, 6, 38, 0
9, 19920, Note_on_c, 6, 41, 80
9, 20160, Note_on_c, 6, 41, 0
9, 20160, Note_on_c, 6, 46, 80
9, 20400, Note_on_c, 6, 46, 0
9, 20400, Note_on_c, 6, 45, 80
9, 20640, Note_on_c, 6, 45, 0
9, 20640, Note_on_c, 6, 41, 80
9, 20880, Note_on_c, 6, 41, 0
9, 20880, Note_on_c, 6, 38, 80
9, 21120, Note_on_c, 6, 38, 0
9, 21120, Note_on_c, 6, 41, 80
9, 21360, Note_on_c, 6, 41, 0
9, 21360, Note_on_c, 6, 45, 80
9, 21600, Note_on_c, 6, 45, 0
9, 21600, Note_on_c, 6, 46, 80
9, 21840, Note_on_c, 6, 46, 0
9, 21840, Note_on_c, 6, 45, 80
9, 22080, Note_on_c, 6, 45, 0
9, 22080, Note_on_c, 6, 41, 80
9, 22320, Note_on_c, 6, 41, 0
9, 22320, Note_on_c, 6, 38, 80
9, 22560, Note_on_c, 6, 38, 0
9, 22560, Note_on_c, 6, 34, 80
9, 22800, Note_on_c, 6, 34, 0
9, 22800, Note_on_c, 6, 33, 80
9, 23040, Note_on_c, 6, 33, 0
9, 23040, Note_on_c, 6, 38, 80
9, 23280, Note_on_c, 6, 38, 0
9, 23280, Note_on_c, 6, 41, 80
9, 23520, Note_on_c, 6, 41, 0
9, 23520, Note_on_c, 6, 38, 80
9, 23760, Note_on_c, 6, 38, 0
9, 23760, Note_on_c, 6, 41, 80
9, 24000, Note_on_c, 6, 41, 0
9, 24000, Note_on_c, 6, 46, 80
9, 24240, Note_on_c, 6, 46, 0
9, 24240, Note_on_c, 6, 45, 80
9, 24480, Note_on_c, 6, 45, 0
9, 24480, Note_on_c, 6, 41, 80
9, 24720, Note_on_c, 6, 41, 0
9, 24720, Note_on_c, 6, 38, 80
9, 24960, Note_on_c, 6, 38, 0
9, 24960, Note_on_c, 6, 41, 80
9, 25200, Note_on_c, 6, 41, 0
9, 25200, Note_on_c, 6, 45, 80
9, 25440, Note_on_c, 6, 45, 0
9, 25440, Note_on_c, 6, 46, 80
9, 25680, Note_on_c, 6, 46, 0
9, 25680, Note_on_c, 6, 45, 80
9, 25920, Note_on_c, 6, 45, 0
9, 25920, Note_on_c, 6, 41, 80
9, 26160, Note_on_c, 6, 41, 0
9, 26160, Note_on_c, 6, 38, 80
9, 26400, Note_on_c, 6, 38, 0
9, 26400, Note_on_c, 6, 34, 80
9, 26640, Note_on_c, 6, 34, 0
9, 26640, Note_on_c, 6, 33, 80
9, 26880, Note_on_c, 6, 33, 0
9, 26880, Note_on_c, 6, 38, 80
9, 27120, Note_on_c, 6, 38, 0
9, 27120, Note_on_c, 6, 41, 80
9, 27360, Note_on_c, 6, 41, 0
9, 27360, Note_on_c, 6, 38, 80
9, 27600, Note_on_c, 6, 38, 0
9, 27600, Note_on_c, 6, 41, 80
9, 27840, Note_on_c, 6, 41, 0
9, 27840, Note_on_c, 6, 46, 80
9, 28080, Note_on_c, 6, 46, 0
9, 28080, Note_on_c, 6, 45, 80
9, 28320, Note_on_c, 6, 45, 0
9, 28320, Note_on_c, 6, 41, 80
9, 28560, Note_on_c, 6, 41, 0
9, 28560, Note_on_c, 6, 38, 80
9, 28800, Note_on_c, 6, 38, 0
9, 28800, Note_on_c, 6, 41, 80
9, 29040, Note_on_c, 6, 41, 0
9, 29040, Note_on_c, 6, 45, 80
9, 29280, Note_on_c, 6, 45, 0
9, 29280, Note_on_c, 6, 46, 80
9, 29520, Note_on_c, 6, 46, 0
9, 29520, Note_on_c, 6, 45, 80
9, 29760, Note_on_c, 6, 45, 0
9, 29760, Note_on_c, 6, 41, 80
9, 30000, Note_on_c, 6, 41, 0
9, 30000, Note_on_c, 6, 38, 80
9, 30240, Note_on_c, 6, 38, 0
9, 30240, Note_on_c, 6, 34, 80
9, 30480, Note_on_c, 6, 34, 0
9, 30480, Note_on_c, 6, 33, 80
9, 30720, Note_on_c, 6, 33, 0
9, 30720, Note_on_c, 6, 38, 80
9, 30960, Note_on_c, 6, 38, 0
9, 30960, Note_on_c, 6, 41, 80
9, 31200, Note_on_c, 6, 41, 0
9, 31200, Note_on_c, 6, 38, 80
9, 31440, Note_on_c, 6, 38, 0
9, 31440, Note_on_c, 6, 41, 80
9, 31680, Note_on_c, 6, 41, 0
9, 31680, Note_on_c, 6, 46, 80
9, 31920, Note_on_c, 6, 46, 0
9, 31920, Note_on_c, 6, 45, 80
9, 32160, Note_on_c, 6, 45, 0
9, 32160, Note_on_c, 6, 41, 80
9, 32400, Note_on_c, 6, 41, 0
9, 32400, Note_on_c, 6, 38, 80
9, 32640, Note_on_c, 6, 38, 0
9, 32640, Note_on_c, 6, 41, 80
9, 32880, Note_on_c, 6, 41, 0
9, 32880, Note_on_c, 6, 45, 80
9, 33120, Note_on_c, 6, 45, 0
9, 33120, Note_on_c, 6, 46, 80
9, 33360, Note_on_c, 6, 46, 0
9, 33360, Note_on_c, 6, 45, 80
9, 33600, Note_on_c, 6, 45, 0
9, 33600, Note_on_c, 6, 41, 80
9, 33840, Note_on_c, 6, 41, 0
9, 33840, Note_on_c, 6, 38, 80
9, 34080, Note_on_c, 6, 38, 0
9, 34080, Note_on_c, 6, 34, 80
9, 34320, Note_on_c, 6, 34, 0
9, 34320, Note_on_c, 6, 33, 80
9, 34560, Note_on_c, 6, 33, 0
9, 34560, Note_on_c, 6, 38, 80
9, 34800, Note_on_c, 6, 38, 0
9, 34800, Note_on_c, 6, 41, 80
9, 35040, Note_on_c, 6, 41, 0
9, 35040, Note_on_c, 6, 38, 80
9, 35280, Note_on_c, 6, 38, 0
9, 35280, Note_on_c, 6, 41, 80
9, 35520, Note_on_c, 6, 41, 0
9, 35520, Note_on_c, 6, 46, 80
9, 35760, Note_on_c, 6, 46, 0
9, 35760, Note_on_c, 6, 45, 80
9, 36000, Note_on_c, 6, 45, 0
9, 36000, Note_on_c, 6, 41, 80
9, 36240, Note_on_c, 6, 41, 0
9, 36240, Note_on_c, 6, 38, 80
9, 36480, Note_on_c, 6, 38, 0
9, 36480, Note_on_c, 6, 41, 80
9, 36720, Note_on_c, 6, 41, 0
9, 36720, Note_on_c, 6, 45, 80
9, 36960, Note_on_c, 6, 45, 0
9, 36960, Note_on_c, 6, 46, 80
9, 37200, Note_on_c, 6, 46, 0
9, 37200, Note_on_c, 6, 45, 80
9, 37440, Note_on_c, 6, 45, 0
9, 37440, Note_on_c, 6, 41, 80
9, 37680, Note_on_c, 6, 41, 0
9, 37680, Note_on_c, 6, 38, 80
9, 37920, Note_on_c, 6, 38, 0
9, 37920, Note_on_c, 6, 34, 80
9, 38160, Note_on_c, 6, 34, 0
9, 38160, Note_on_c, 6, 33, 80
9, 38400, Note_on_c, 6, 33, 0
9, 38400, Note_on_c, 6, 41, 80
9, 38640, Note_on_c, 6, 41, 0
9, 38640, Note_on_c, 6, 44, 80
9, 38880, Note_on_c, 6, 44, 0
9, 38880, Note_on_c, 6, 41, 80
9, 39120, Note_on_c, 6, 41, 0
9, 39120, Note_on_c, 6, 44, 80
9, 39360, Note_on_c, 6, 44, 0
9, 39360, Note_on_c, 6, 49, 80
9, 39600, Note_on_c, 6, 49, 0
9, 39600, Note_on_c, 6, 48, 80
9, 39840, Note_on_c, 6, 48, 0
9, 39840, Note_on_c, 6, 44, 80
9, 40080, Note_on_c, 6, 44, 0
9, 40080, Note_on_c, 6, 41, 80
9, 40320, Note_on_c, 6, 41, 0
9, 40320, Note_on_c, 6, 44, 80
9, 40560, Note_on_c, 6, 44, 0
9, 40560, Note_on_c, 6, 48, 80
9, 40800, Note_on_c, 6, 48, 0
9, 40800, Note_on_c, 6, 49, 80
9, 41040, Note_on_c, 6, 49, 0
9, 41040, Note_on_c, 6, 48, 80
9, 41280, Note_on_c, 6, 48, 0
9, 41280, Note_on_c, 6, 44, 80
9, 41520, Note_on_c, 6, 44, 0
9, 41520, Note_on_c, 6, 41, 80
9, 41760, Note_on_c, 6, 41, 0
9, 41760, Note_on_c, 6, 37, 80
9, 42000, Note_on_c, 6, 37, 0
9, 42000, Note_on_c, 6, 36, 80
9, 42240, Note_on_c, 6, 36, 0
9, 42240, Note_on_c, 6, 41, 80
9, 42480, Note_on_c, 6, 41, 0
9, 42480, Note_on_c, 6, 44, 80
9, 42720, Note_on_c, 6, 44, 0
9, 42720, Note_on_c, 6, 41, 80
9, 42960, Note_on_c, 6, 41, 0
9, 42960, Note_on_c, 6, 44, 80
9, 43200, Note_on_c, 6, 44, 0
9, 43200, Note_on_c, 6, 49, 80
9, 43440, Note_on_c, 6, 49, 0
9, 43440, Note_on_c, 6, 48, 80
9, 43680, Note_on_c, 6, 48, 0
9, 43680, Note_on_c, 6, 44, 80
9, 43920, Note_on_c, 6, 44, 0
9, 43920, Note_on_c, 6, 41, 80
9, 44160, Note_on_c, 6, 41, 0
9, 44160, Note_on_c, 6, 44, 80
9, 44400, Note_on_c, 6, 44, 0
9, 44400, Note_on_c, 6, 48, 80
9, 44640, Note_on_c, 6, 48, 0
9, 44640, Note_on_c, 6, 49, 80
9, 44880, Note_on_c, 6, 49, 0
9, 44880, Note_on_c, 6, 48, 80
9, 45120, Note_on_c, 6, 48, 0
9, 45120, Note_on_c, 6, 44, 80
9, 45360, Note_on_c, 6, 44, 0
9, 45360, Note_on_c, 6, 41, 80
9, 45600, Note_on_c, 6, 41, 0
9, 45600, Note_on_c, 6, 37, 80
9, 45840, Note_on_c, 6, 37, 0
9, 45840, Note_on_c, 6, 36, 80
9, 46080, Note_on_c, 6, 36, 0
9, 46080, Note_on_c, 6, 36, 80
9, 46320, Note_on_c, 6, 36, 0
9, 46320, Note_on_c, 6, 39, 80
9, 46560, Note_on_c, 6, 39, 0
9, 46560, Note_on_c, 6, 36, 80
9, 46800, Note_on_c, 6, 36, 0
9, 46800, Note_on_c, 6, 39, 80
9, 47040, Note_on_c, 6, 39, 0
9, 47040, Note_on_c, 6, 44, 80
9, 47280, Note_on_c, 6, 44, 0
9, 47280, Note_on_c, 6, 43, 80
9, 47520, Note_on_c, 6, 43, 0
9, 47520, Note_on_c, 6, 39, 80
9, 47760, Note_on_c, 6, 39, 0
9, 47760, Note_on_c, 6, 36, 80
9, 48000, Note_on_c, 6, 36, 0
9, 48000, Note_on_c, 6, 39, 80
9, 48240, Note_on_c, 6, 39, 0
9, 48240, Note_on_c, 6, 43, 80
9, 48480, Note_on_c, 6, 43, 0
9, 48480, Note_on_c, 6, 44, 80
9, 48720, Note_on_c, 6, 44, 0
9, 48720, Note_on_c, 6, 43, 80
9, 48960, Note_on_c, 6, 43, 0
9, 48960, Note_on_c, 6, 39, 80
9, 49200, Note_on_c, 6, 39, 0
9, 49200, Note_on_c, 6, 36, 80
9, 49440, Note_on_c, 6, 36, 0
9, 49440, Note_on_c, 6, 32, 80
9, 49680, Note_on_c, 6, 32, 0
9, 49680, Note_on_c, 6, 31, 80
9, 49920, Note_on_c, 6, 31, 0
9, 49920, Note_on_c, 6, 36, 80
9, 50160, Note_on_c, 6, 36, 0
9, 50160, Note_on_c, 6, 39, 80
9, 50400, Note_on_c, 6, 39, 0
9, 50400, Note_on_c, 6, 36, 80
9, 50640, Note_on_c, 6, 36, 0
9, 50640, Note_on_c, 6, 39, 80
9, 50880, Note_on_c, 6, 39, 0
9, 50880, Note_on_c, 6, 44, 80
9, 51120, Note_on_c, 6, 44, 0
9, 51120, Note_on_c, 6, 43, 80
9, 51360, Note_on_c, 6, 43, 0
9, 51360, Note_on_c, 6, 39, 80
9, 51600, Note_on_c, 6, 39, 0
9, 51600, Note_on_c, 6, 36, 80
9, 51840, Note_on_c, 6, 36, 0
9, 51840, Note_on_c, 6, 39, 80
9, 52080, Note_on_c, 6, 39, 0
9, 52080, Note_on_c, 6, 43, 80
9, 52320, Note_on_c, 6, 43, 0
9, 52320, Note_on_c, 6, 44, 80
9, 52560, Note_on_c, 6, 44, 0
9, 52560, Note_on_c, 6, 43, 80
9, 52800, Note_on_c, 6, 43, 0
9, 52800, Note_on_c, 6, 39, 80
9, 53040, Note_on_c, 6, 39, 0
9, 53040, Note_on_c, 6, 36, 80
9, 53280, Note_on_c, 6, 36, 0
9, 53280, Note_on_c, 6, 32, 80
9, 53520, Note_on_c, 6, 32, 0
9, 53520, Note_on_c, 6, 31, 80
9, 53760, Note_on_c, 6, 31, 0
9, 53760, Note_on_c, 6, 33, 80
9, 54000, Note_on_c, 6, 33, 0
9, 54000, Note_on_c, 6, 36, 80
9, 54240, Note_on_c, 6, 36, 0
9, 54240, Note_on_c, 6, 33, 80
9, 54480, Note_on_c, 6, 33, 0
9, 54480, Note_on_c, 6, 36, 80
9, 54720, Note_on_c, 6, 36, 0
9, 54720, Note_on_c, 6, 41, 80
9, 54960, Note_on_c, 6, 41, 0
9, 54960, Note_on_c, 6, 40, 80
9, 55200, Note_on_c, 6, 40, 0
9, 55200, Note_on_c, 6, 36, 80
9, 55440, Note_on_c, 6, 36, 0
9, 55440, Note_on_c, 6, 33, 80
9, 55680, Note_on_c, 6, 33, 0
9, 55680, Note_on_c, 6, 36, 80
9, 55920, Note_on_c, 6, 36, 0
9, 55920, Note_on_c, 6, 40, 80
9, 56160, Note_on_c, 6, 40, 0
9, 56160, Note_on_c, 6, 41, 80
9, 56400, Note_on_c, 6, 41, 0
9, 56400, Note_on_c, 6, 40, 80
9, 56640, Note_on_c, 6, 40, 0
9, 56640, Note_on_c, 6, 36, 80
9, 56880, Note_on_c, 6, 36, 0
9, 56880, Note_on_c, 6, 33, 80
9, 57120, Note_on_c, 6, 33, 0
9, 57120, Note_on_c, 6, 29, 80
9, 57360, Note_on_c, 6, 29, 0
9, 57360, Note_on_c, 6, 28, 80
9, 57600, Note_on_c, 6, 28, 0
9, 57600, Note_on_c, 6, 33, 80
9, 57840, Note_on_c, 6, 33, 0
9, 57840, Note_on_c, 6, 36, 80
9, 58080, Note_on_c, 6, 36, 0
9, 58080, Note_on_c, 6, 33, 80
9, 58320, Note_on_c, 6, 33, 0
9, 58320, Note_on_c, 6, 36, 80
9, 58560, Note_on_c, 6, 36, 0
9, 58560, Note_on_c, 6, 41, 80
9, 58800, Note_on_c, 6, 41, 0
9, 58800, Note_on_c, 6, 40, 80
9, 59040, Note_on_c, 6, 40, 0
9, 59040, Note_on_c, 6, 36, 80
9, 59280, Note_on_c, 6, 36, 0
9, 59280, Note_on_c, 6, 33, 80
9, 59520, Note_on_c, 6, 33, 0
9, 59520, Note_on_c, 6, 36, 80
9, 59760, Note_on_c, 6, 36, 0
9, 59760, Note_on_c, 6, 40, 80
9, 60000, Note_on_c, 6, 40, 0
9, 60000, Note_on_c, 6, 41, 80
9, 60240, Note_on_c, 6, 41, 0
9, 60240, Note_on_c, 6, 40, 80
9, 60480, Note_on_c, 6, 40, 0
9, 60480, Note_on_c, 6, 36, 80
9, 60720, Note_on_c, 6, 36, 0
9, 60720, Note_on_c, 6, 33, 80
9, 60960, Note_on_c, 6, 33, 0
9, 60960, Note_on_c, 6, 29, 80
9, 61200, Note_on_c, 6, 29, 0
9, 61200, Note_on_c, 6, 28, 80
9, 61440, Note_on_c, 6, 28, 0
9, 61440, Note_on_c, 6, 40, 80
9, 61680, Note_on_c, 6, 40, 0
9, 61680, Note_on_c, 6, 43, 80
9, 61920, Note_on_c, 6, 43, 0
9, 61920, Note_on_c, 6, 40, 80
9, 62160, Note_on_c, 6, 40, 0
9, 62160, Note_on_c, 6, 43, 80
9, 62400, Note_on_c, 6, 43, 0
9, 62400, Note_on_c, 6, 48, 80
9, 62640, Note_on_c, 6, 48, 0
9, 62640, Note_on_c, 6, 47, 80
9, 62880, Note_on_c, 6, 47, 0
9, 62880, Note_on_c, 6, 43, 80
9, 63120, Note_on_c, 6, 43, 0
9, 63120, Note_on_c, 6, 40, 80
9, 63360, Note_on_c, 6, 40, 0
9, 63360, Note_on_c, 6, 43, 80
9, 63600, Note_on_c, 6, 43, 0
9, 63600, Note_on_c, 6, 47, 80
9, 63840, Note_on_c, 6, 47, 0
9, 63840, Note_on_c, 6, 48, 80
9, 64080, Note_on_c, 6, 48, 0
9, 64080, Note_on_c, 6, 47, 80
9, 64320, Note_on_c, 6, 47, 0
9, 64320, Note_on_c, 6, 43, 80
9, 64560, Note_on_c, 6, 43, 0
9, 64560, Note_on_c, 6, 40, 80
9, 64800, Note_on_c, 6, 40, 0
9, 64800, Note_on_c, 6, 36, 80
9, 65040, Note_on_c, 6, 36, 0
9, 65040, Note_on_c, 6, 35, 80
9, 65280, Note_on_c, 6, 35, 0
9, 65280, Note_on_c, 6, 40, 80
9, 65520, Note_on_c, 6, 40, 0
9, 65520, Note_on_c, 6, 43, 80
9, 65760, Note_on_c, 6, 43, 0
9, 65760, Note_on_c, 6, 40, 80
9, 66000, Note_on_c, 6, 40, 0
9, 66000, Note_on_c, 6, 43, 80
9, 66240, Note_on_c, 6, 43, 0
9, 66240, Note_on_c, 6, 48, 80
9, 66480, Note_on_c, 6, 48, 0
9, 66480, Note_on_c, 6, 47, 80
9, 66720, Note_on_c, 6, 47, 0
9, 66720, Note_on_c, 6, 43, 80
9, 66960, Note_on_c, 6, 43, 0
9, 66960, Note_on_c, 6, 40, 80
9, 67200, Note_on_c, 6, 40, 0
9, 67200, Note_on_c, 6, 43, 80
9, 67440, Note_on_c, 6, 43, 0
9, 67440, Note_on_c, 6, 47, 80
9, 67680, Note_on_c, 6, 47, 0
9, 67680, Note_on_c, 6, 48, 80
9, 67920, Note_on_c, 6, 48, 0
9, 67920, Note_on_c, 6, 47, 80
9, 68160, Note_on_c, 6, 47, 0
9, 68160, Note_on_c, 6, 43, 80
9, 68400, Note_on_c, 6, 43, 0
9, 68400, Note_on_c, 6, 40, 80
9, 68640, Note_on_c, 6, 40, 0
9, 68640, Note_on_c, 6, 36, 80
9, 68880, Note_on_c, 6, 36, 0
9, 68880, Note_on_c, 6, 35, 80
9, 69120, Note_on_c, 6, 35, 0
9, 69120, Note_on_c, 6, 43, 80
9, 69360, Note_on_c, 6, 43, 0
9, 69360, Note_on_c, 6, 46, 80
9, 69600, Note_on_c, 6, 46, 0
9, 69600, Note_on_c, 6, 43, 80
9, 69840, Note_on_c, 6, 43, 0
9, 69840, Note_on_c, 6, 46, 80
9, 70080, Note_on_c, 6, 46, 0
9, 70080, Note_on_c, 6, 51, 80
9, 70320, Note_on_c, 6, 51, 0
9, 70320, Note_on_c, 6, 50, 80
9, 70560, Note_on_c, 6, 50, 0
9, 70560, Note_on_c, 6, 46, 80
9, 70800, Note_on_c, 6, 46, 0
9, 70800, Note_on_c, 6, 43, 80
9, 71040, Note_on_c, 6, 43, 0
9, 71040, Note_on_c, 6, 46, 80
9, 71280, Note_on_c, 6, 46, 0
9, 71280, Note_on_c, 6, 50, 80
9, 71520, Note_on_c, 6, 50, 0
9, 71520, Note_on_c, 6, 51, 80
9, 71760, Note_on_c, 6, 51, 0
9, 71760, Note_on_c, 6, 50, 80
9, 72000, Note_on_c, 6, 50, 0
9, 72000, Note_on_c, 6, 46, 80
9, 72240, Note_on_c, 6, 46, 0
9, 72240, Note_on_c, 6, 43, 80
9, 72480, Note_on_c, 6, 43, 0
9, 72480, Note_on_c, 6, 39, 80
9, 72720, Note_on_c, 6, 39, 0
9, 72720, Note_on_c, 6, 38, 80
9, 72960, Note_on_c, 6, 38, 0
9, 72960, Note_on_c, 6, 43, 80
9, 73200, Note_on_c, 6, 43, 0
9, 73200, Note_on_c, 6, 46, 80
9, 73440, Note_on_c, 6, 46, 0
9, 73440, Note_on_c, 6, 43, 80
9, 73680, Note_on_c, 6, 43, 0
9, 73680, Note_on_c, 6, 46, 80
9, 73920, Note_on_c, 6, 46, 0
9, 73920, Note_on_c, 6, 51, 80
9, 74160, Note_on_c, 6, 51, 0
9, 74160, Note_on_c, 6, 50, 80
9, 74400, Note_on_c, 6, 50, 0
9, 74400, Note_on_c, 6, 46, 80
9, 74640, Note_on_c, 6, 46, 0
9, 74640, Note_on_c, 6, 43, 80
9, 74880, Note_on_c, 6, 43, 0
9, 74880, Note_on_c, 6, 46, 80
9, 75120, Note_on_c, 6, 46, 0
9, 75120, Note_on_c, 6, 50, 80
9, 75360, Note_on_c, 6, 50, 0
9, 75360, Note_on_c, 6, 51, 80
9, 75600, Note_on_c, 6, 51, 0
9, 75600, Note_on_c, 6, 50, 80
9, 75840, Note_on_c, 6, 50, 0
9, 75840, Note_on_c, 6, 46, 80
9, 76080, Note_on_c, 6, 46, 0
9, 76080, Note_on_c, 6, 43, 80
9, 76320, Note_on_c, 6, 43, 0
9, 76320, Note_on_c, 6, 39, 80
9, 76560, Note_on_c, 6, 39, 0
9, 76560, Note_on_c, 6, 38, 80
9, 76800, Note_on_c, 6, 38, 0
9, 76800, Note_on_c, 6, 38, 80
9, 77040, Note_on_c, 6, 38, 0
9, 77040, Note_on_c, 6, 41, 80
9, 77280, Note_on_c, 6, 41, 0
9, 77280, Note_on_c, 6, 38, 80
9, 77520, Note_on_c, 6, 38, 0
9, 77520, Note_on_c, 6, 41, 80
9, 77760, Note_on_c, 6, 41, 0
9, 77760, Note_on_c, 6, 46, 80
9, 78000, Note_on_c, 6, 46, 0
9, 78000, Note_on_c, 6, 45, 80
9, 78240, Note_on_c, 6, 45, 0
9, 78240, Note_on_c, 6, 41, 80
9, 78480, Note_on_c, 6, 41, 0
9, 78480, Note_on_c, 6, 38, 80
9, 78720, Note_on_c, 6, 38, 0
9, 78720, Note_on_c, 6, 41, 80
9, 78960, Note_on_c, 6, 41, 0
9, 78960, Note_on_c, 6, 45, 80
9, 79200, Note_on_c, 6, 45, 0
9, 79200, Note_on_c, 6, 46, 80
9, 79440, Note_on_c, 6, 46, 0
9, 79440, Note_on_c, 6, 45, 80
9, 79680, Note_on_c, 6, 45, 0
9, 79680, Note_on_c, 6, 41, 80
9, 79920, Note_on_c, 6, 41, 0
9, 79920, Note_on_c, 6, 38, 80
9, 80160, Note_on_c, 6, 38, 0
9, 80160, Note_on_c, 6, 34, 80
9, 80400, Note_on_c, 6, 34, 0
9, 80400, Note_on_c, 6, 33, 80
9, 80640, Note_on_c, 6, 33, 0
9, 80640, Note_on_c, 6, 38, 80
9, 80880, Note_on_c, 6, 38, 0
9, 80880, Note_on_c, 6, 41, 80
9, 81120, Note_on_c, 6, 41, 0
9, 81120, Note_on_c, 6, 38, 80
9, 81360, Note_on_c, 6, 38, 0
9, 81360, Note_on_c, 6, 41, 80
9, 81600, Note_on_c, 6, 41, 0
9, 81600, Note_on_c, 6, 46, 80
9, 81840, Note_on_c, 6, 46, 0
9, 81840, Note_on_c, 6, 45, 80
9, 82080, Note_on_c, 6, 45, 0
9, 82080, Note_on_c, 6, 41, 80
9, 82320, Note_on_c, 6, 41, 0
9, 82320, Note_on_c, 6, 38, 80
9, 82560, Note_on_c, 6, 38, 0
9, 82560, Note_on_c, 6, 41, 80
9, 82800, Note_on_c, 6, 41, 0
9, 82800, Note_on_c, 6, 45, 80
9, 83040, Note_on_c, 6, 45, 0
9, 83040, Note_on_c, 6, 46, 80
9, 83280, Note_on_c, 6, 46, 0
9, 83280, Note_on_c, 6, 45, 80
9, 83520, Note_on_c, 6, 45, 0
9, 83520, Note_on_c, 6, 41, 80
9, 83760, Note_on_c, 6, 41, 0
9, 83760, Note_on_c, 6, 38, 80
9, 84000, Note_on_c, 6, 38, 0
9, 84000, Note_on_c, 6, 34, 80
9, 84240, Note_on_c, 6, 34, 0
9, 84240, Note_on_c, 6, 33, 80
9, 84480, Note_on_c, 6, 33, 0
9, 84480, Note_on_c, 6, 41, 80
9, 84720, Note_on_c, 6, 41, 0
9, 84720, Note_on_c, 6, 41, 80
9, 84960, Note_on_c, 6, 41, 0
9, 84960, Note_on_c, 6, 41, 60
9, 85200, Note_on_c, 6, 41, 0
9, 85200, Note_on_c, 6, 41, 80
9, 85440, Note_on_c, 6, 41, 0
9, 85440, Note_on_c, 6, 41, 80
9, 85680, Note_on_c, 6, 41, 0
9, 85680, Note_on_c, 6, 41, 60
9, 85920, Note_on_c, 6, 41, 0
9, 85920, Note_on_c, 6, 41, 80
9, 86160, Note_on_c, 6, 41, 0
9, 86160, Note_on_c, 6, 41, 80
9, 86400, Note_on_c, 6, 41, 0
9, 86400, Note_on_c, 6, 41, 60
9, 86640, Note_on_c, 6, 41, 0
9, 86640, Note_on_c, 6, 41, 80
9, 86880, Note_on_c, 6, 41, 0
9, 86880, Note_on_c, 6, 41, 80
9, 87120, Note_on_c, 6, 41, 0
9, 87120, Note_on_c, 6, 41, 60
9, 87360, Note_on_c, 6, 41, 0
9, 87360, Note_on_c, 6, 41, 80
9, 87600, Note_on_c, 6, 41, 0
9, 87600, Note_on_c, 6, 41, 80
9, 87840, Note_on_c, 6, 41, 0
9, 87840, Note_on_c, 6, 41, 60
9, 88080, Note_on_c, 6, 41, 0
9, 88080, Note_on_c, 6, 41, 80
9, 88320, Note_on_c, 6, 41, 0
9, 88320, Note_on_c, 6, 41, 80
9, 88560, Note_on_c, 6, 41, 0
9, 88560, Note_on_c, 6, 41, 80
9, 88800, Note_on_c, 6, 41, 0
9, 88800, Note_on_c, 6, 41, 60
9, 89040, Note_on_c, 6, 41, 0
9, 89040, Note_on_c, 6, 41, 80
9, 89280, Note_on_c, 6, 41, 0
9, 89280, Note_on_c, 6, 41, 80
9, 89520, Note_on_c, 6, 41, 0
9, 89520, Note_on_c, 6, 41, 60
9, 89760, Note_on_c, 6, 41, 0
9, 89760, Note_on_c, 6, 41, 80
9, 90000, Note_on_c, 6, 41, 0
9, 90000, Note_on_c, 6, 41, 80
9, 90240, Note_on_c, 6, 41, 0
9, 90240, Note_on_c, 6, 41, 60
9, 90480, Note_on_c, 6, 41, 0
9, 90480, Note_on_c, 6, 41, 80
9, 90720, Note_on_c, 6, 41, 0
9, 90720, Note_on_c, 6, 41, 80
9, 90960, Note_on_c, 6, 41, 0
9, 90960, Note_on_c, 6, 41, 60
9, 91200, Note_on_c, 6, 41, 0
9, 91200, Note_on_c, 6, 41, 80
9, 91440, Note_on_c, 6, 41, 0
9, 91440, Note_on_c, 6, 41, 80
9, 91680, Note_on_c, 6, 41, 0
9, 91680, Note_on_c, 6, 41, 60
9, 91920, Note_on_c, 6, 41, 0
9, 91920, Note_on_c, 6, 41, 80
9, 92160, Note_on_c, 6, 41, 0
9, 92160, Note_on_c, 6, 41, 80
9, 92400, Note_on_c, 6, 41, 0
9, 92400, Note_on_c, 6, 41, 80
9, 92640, Note_on_c, 6, 41, 0
9, 92640, Note_on_c, 6, 41, 60
9, 92880, Note_on_c, 6, 41, 0
9, 92880, Note_on_c, 6, 41, 80
9, 93120, Note_on_c, 6, 41, 0
9, 93120, Note_on_c, 6, 41, 80
9, 93360, Note_on_c, 6, 41, 0
9, 93360, Note_on_c, 6, 41, 60
9, 93600, Note_on_c, 6, 41, 0
9, 93600, Note_on_c, 6, 41, 80
9, 93840, Note_on_c, 6, 41, 0
9, 93840, Note_on_c, 6, 41, 80
9, 94080, Note_on_c, 6, 41, 0
9, 94080, Note_on_c, 6, 41, 60
9, 94320, Note_on_c, 6, 41, 0
9, 94320, Note_on_c, 6, 41, 80
9, 94560, Note_on_c, 6, 41, 0
9, 94560, Note_on_c, 6, 41, 80
9, 94800, Note_on_c, 6, 41, 0
9, 94800, Note_on_c, 6, 41, 60
9, 95040, Note_on_c, 6, 41, 0
9, 95040, Note_on_c, 6, 41, 80
9, 95280, Note_on_c, 6, 41, 0
9, 95280, Note_on_c, 6, 41, 80
9, 95520, Note_on_c, 6, 41, 0
9, 95520, Note_on_c, 6, 41, 60
9, 95760, Note_on_c, 6, 41, 0
9, 95760, Note_on_c, 6, 41, 80
9, 96000, Note_on_c, 6, 41, 0
9, 96000, Note_on_c, 6, 41, 80
9, 96240, Note_on_c, 6, 41, 0
9, 96240, Note_on_c, 6, 41, 80
9, 96480, Note_on_c, 6, 41, 0
9, 96480, Note_on_c, 6, 41, 60
9, 96720, Note_on_c, 6, 41, 0
9, 96720, Note_on_c, 6, 41, 80
9, 96960, Note_on_c, 6, 41, 0
9, 96960, Note_on_c, 6, 41, 80
9, 97200, Note_on_c, 6, 41, 0
9, 97200, Note_on_c, 6, 41, 60
9, 97440, Note_on_c, 6, 41, 0
9, 97440, Note_on_c, 6, 41, 80
9, 97680, Note_on_c, 6, 41, 0
9, 97680, Note_on_c, 6, 41, 80
9, 97920, Note_on_c, 6, 41, 0
9, 97920, Note_on_c, 6, 41, 60
9, 98160, Note_on_c, 6, 41, 0
9, 98160, Note_on_c, 6, 41, 80
9, 98400, Note_on_c, 6, 41, 0
9, 98400, Note_on_c, 6, 41, 80
9, 98640, Note_on_c, 6, 41, 0
9, 98640, Note_on_c, 6, 41, 60
9, 98880, Note_on_c, 6, 41, 0
9, 98880, Note_on_c, 6, 41, 80
9, 99120, Note_on_c, 6, 41, 0
9, 99120, Note_on_c, 6, 41, 80
9, 99360, Note_on_c, 6, 41, 0
9, 99360, Note_on_c, 6, 41, 60
9, 99600, Note_on_c, 6, 41, 0
9, 99600, Note_on_c, 6, 41, 80
9, 99840, Note_on_c, 6, 41, 0
9, 99840, Note_on_c, 6, 36, 80
9, 100080, Note_on_c, 6, 36, 0
9, 100080, Note_on_c, 6, 40, 80
9, 100320, Note_on_c, 6, 40, 0
9, 100320, Note_on_c, 6, 36, 80
9, 100560, Note_on_c, 6, 36, 0
9, 100560, Note_on_c, 6, 40, 80
9, 100800, Note_on_c, 6, 40, 0
9, 100800, Note_on_c, 6, 44, 80
9, 101040, Note_on_c, 6, 44, 0
9, 101040, Note_on_c, 6, 43, 80
9, 101280, Note_on_c, 6, 43, 0
9, 101280, Note_on_c, 6, 40, 80
9, 101520, Note_on_c, 6, 40, 0
9, 101520, Note_on_c, 6, 36, 80
9, 101760, Note_on_c, 6, 36, 0
9, 101760, Note_on_c, 6, 40, 80
9, 102000, Note_on_c, 6, 40, 0
9, 102000, Note_on_c, 6, 43, 80
9, 102240, Note_on_c, 6, 43, 0
9, 102240, Note_on_c, 6, 44, 80
9, 102480, Note_on_c, 6, 44, 0
9, 102480, Note_on_c, 6, 43, 80
9, 102720, Note_on_c, 6, 43, 0
9, 102720, Note_on_c, 6, 40, 80
9, 102960, Note_on_c, 6, 40, 0
9, 102960, Note_on_c, 6, 36, 80
9, 103200, Note_on_c, 6, 36, 0
9, 103200, Note_on_c, 6, 32, 80
9, 103440, Note_on_c, 6, 32, 0
9, 103440, Note_on_c, 6, 31, 80
9, 103680, Note_on_c, 6, 31, 0
9, 103680, Note_on_c, 6, 36, 80
9, 103920, Note_on_c, 6, 36, 0
9, 103920, Note_on_c, 6, 40, 80
9, 104160, Note_on_c, 6, 40, 0
9, 104160, Note_on_c, 6, 36, 80
9, 104400, Note_on_c, 6, 36, 0
9, 104400, Note_on_c, 6, 40, 80
9, 104640, Note_on_c, 6, 40, 0
9, 104640, Note_on_c, 6, 44, 80
9, 104880, Note_on_c, 6, 44, 0
9, 104880, Note_on_c, 6, 43, 80
9, 105120, Note_on_c, 6, 43, 0
9, 105120, Note_on_c, 6, 40, 80
9, 105360, Note_on_c, 6, 40, 0
9, 105360, Note_on_c, 6, 36, 80
9, 105600, Note_on_c, 6, 36, 0
9, 105600, Note_on_c, 6, 40, 80
9, 105839, Note_on_c, 6, 40, 0
9, 105840, Note_on_c, 6, 43, 80
9, 106079, Note_on_c, 6, 43, 0
9, 106080, Note_on_c, 6, 44, 80
9, 106319, Note_on_c, 6, 44, 0
9, 106320, Note_on_c, 6, 43, 80
9, 106559, Note_on_c, 6, 43, 0
9, 106560, Note_on_c, 6, 40, 80
9, 106799, Note_on_c, 6, 40, 0
9, 106800, Note_on_c, 6, 36, 80
9, 107039, Note_on_c, 6, 36, 0
9, 107040, Note_on_c, 6, 32, 80
9, 107279, Note_on_c, 6, 32, 0
9, 107280, Note_on_c, 6, 31, 80
9, 107519, Note_on_c, 6, 31, 0
9, 107519, End_track
10, 0, Start_track
10, 0, MIDI_port, 0
10, 0, Title_t, "BASS"
10, 0, Control_c, 7, 0, 0
10, 0, Program_c, 7, 38
10, 0, Control_c, 7, 7, 90
10, 0, Control_c, 7, 10, 120
10, 7680, Note_on_c, 7, 38, 90
10, 7920, Note_on_c, 7, 38, 0
10, 7920, Note_on_c, 7, 41, 90
10, 8160, Note_on_c, 7, 41, 0
10, 8160, Note_on_c, 7, 38, 90
10, 8400, Note_on_c, 7, 38, 0
10, 8400, Note_on_c, 7, 41, 90
10, 8640, Note_on_c, 7, 41, 0
10, 8640, Note_on_c, 7, 46, 90
10, 8880, Note_on_c, 7, 46, 0
10, 8880, Note_on_c, 7, 45, 90
10, 9120, Note_on_c, 7, 45, 0
10, 9120, Note_on_c, 7, 41, 90
10, 9360, Note_on_c, 7, 41, 0
10, 9360, Note_on_c, 7, 38, 90
10, 9600, Note_on_c, 7, 38, 0
10, 9600, Note_on_c, 7, 41, 90
10, 9840, Note_on_c, 7, 41, 0
10, 9840, Note_on_c, 7, 45, 90
10, 10080, Note_on_c, 7, 45, 0
10, 10080, Note_on_c, 7, 46, 90
10, 10320, Note_on_c, 7, 46, 0
10, 10320, Note_on_c, 7, 45, 90
10, 10560, Note_on_c, 7, 45, 0
10, 10560, Note_on_c, 7, 41, 90
10, 10800, Note_on_c, 7, 41, 0
10, 10800, Note_on_c, 7, 38, 90
10, 11040, Note_on_c, 7, 38, 0
10, 11040, Note_on_c, 7, 34, 90
10, 11280, Note_on_c, 7, 34, 0
10, 11280, Note_on_c, 7, 33, 90
10, 11520, Note_on_c, 7, 33, 0
10, 11520, Note_on_c, 7, 38, 90
10, 11760, Note_on_c, 7, 38, 0
10, 11760, Note_on_c, 7, 41, 90
10, 12000, Note_on_c, 7, 41, 0
10, 12000, Note_on_c, 7, 38, 90
10, 12240, Note_on_c, 7, 38, 0
10, 12240, Note_on_c, 7, 41, 90
10, 12480, Note_on_c, 7, 41, 0
10, 12480, Note_on_c, 7, 46, 90
10, 12720, Note_on_c, 7, 46, 0
10, 12720, Note_on_c, 7, 45, 90
10, 12960, Note_on_c, 7, 45, 0
10, 12960, Note_on_c, 7, 41, 90
10, 13200, Note_on_c, 7, 41, 0
10, 13200, Note_on_c, 7, 38, 90
10, 13440, Note_on_c, 7, 38, 0
10, 13440, Note_on_c, 7, 41, 90
10, 13680, Note_on_c, 7, 41, 0
10, 13680, Note_on_c, 7, 45, 90
10, 13920, Note_on_c, 7, 45, 0
10, 13920, Note_on_c, 7, 46, 90
10, 14160, Note_on_c, 7, 46, 0
10, 14160, Note_on_c, 7, 45, 90
10, 14400, Note_on_c, 7, 45, 0
10, 14400, Note_on_c, 7, 41, 90
10, 14640, Note_on_c, 7, 41, 0
10, 14640, Note_on_c, 7, 38, 90
10, 14880, Note_on_c, 7, 38, 0
10, 14880, Note_on_c, 7, 34, 90
10, 15120, Note_on_c, 7, 34, 0
10, 15120, Note_on_c, 7, 33, 90
10, 15360, Note_on_c, 7, 33, 0
10, 15360, Note_on_c, 7, 38, 90
10, 15600, Note_on_c, 7, 38, 0
10, 15600, Note_on_c, 7, 41, 90
10, 15840, Note_on_c, 7, 41, 0
10, 15840, Note_on_c, 7, 38, 90
10, 16080, Note_on_c, 7, 38, 0
10, 16080, Note_on_c, 7, 41, 90
10, 16320, Note_on_c, 7, 41, 0
10, 16320, Note_on_c, 7, 46, 90
10, 16560, Note_on_c, 7, 46, 0
10, 16560, Note_on_c, 7, 45, 90
10, 16800, Note_on_c, 7, 45, 0
10, 16800, Note_on_c, 7, 41, 90
10, 17040, Note_on_c, 7, 41, 0
10, 17040, Note_on_c, 7, 38, 90
10, 17280, Note_on_c, 7, 38, 0
10, 17280, Note_on_c, 7, 41, 90
10, 17520, Note_on_c, 7, 41, 0
10, 17520, Note_on_c, 7, 45, 90
10, 17760, Note_on_c, 7, 45, 0
10, 17760, Note_on_c, 7, 46, 90
10, 18000, Note_on_c, 7, 46, 0
10, 18000, Note_on_c, 7, 45, 90
10, 18240, Note_on_c, 7, 45, 0
10, 18240, Note_on_c, 7, 41, 90
10, 18480, Note_on_c, 7, 41, 0
10, 18480, Note_on_c, 7, 38, 90
10, 18720, Note_on_c, 7, 38, 0
10, 18720, Note_on_c, 7, 34, 90
10, 18960, Note_on_c, 7, 34, 0
10, 18960, Note_on_c, 7, 33, 90
10, 19200, Note_on_c, 7, 33, 0
10, 19200, Note_on_c, 7, 38, 90
10, 19440, Note_on_c, 7, 38, 0
10, 19440, Note_on_c, 7, 41, 90
10, 19680, Note_on_c, 7, 41, 0
10, 19680, Note_on_c, 7, 38, 90
10, 19920, Note_on_c, 7, 38, 0
10, 19920, Note_on_c, 7, 41, 90
10, 20160, Note_on_c, 7, 41, 0
10, 20160, Note_on_c, 7, 46, 90
10, 20400, Note_on_c, 7, 46, 0
10, 20400, Note_on_c, 7, 45, 90
10, 20640, Note_on_c, 7, 45, 0
10, 20640, Note_on_c, 7, 41, 90
10, 20880, Note_on_c, 7, 41, 0
10, 20880, Note_on_c, 7, 38, 90
10, 21120, Note_on_c, 7, 38, 0
10, 21120, Note_on_c, 7, 41, 90
10, 21360, Note_on_c, 7, 41, 0
10, 21360, Note_on_c, 7, 45, 90
10, 21600, Note_on_c, 7, 45, 0
10, 21600, Note_on_c, 7, 46, 90
10, 21840, Note_on_c, 7, 46, 0
10, 21840, Note_on_c, 7, 45, 90
10, 22080, Note_on_c, 7, 45, 0
10, 22080, Note_on_c, 7, 41, 90
10, 22320, Note_on_c, 7, 41, 0
10, 22320, Note_on_c, 7, 38, 90
10, 22560, Note_on_c, 7, 38, 0
10, 22560, Note_on_c, 7, 34, 90
10, 22800, Note_on_c, 7, 34, 0
10, 22800, Note_on_c, 7, 33, 90
10, 23040, Note_on_c, 7, 33, 0
10, 23040, Note_on_c, 7, 38, 90
10, 23280, Note_on_c, 7, 38, 0
10, 23280, Note_on_c, 7, 41, 90
10, 23520, Note_on_c, 7, 41, 0
10, 23520, Note_on_c, 7, 38, 90
10, 23760, Note_on_c, 7, 38, 0
10, 23760, Note_on_c, 7, 41, 90
10, 24000, Note_on_c, 7, 41, 0
10, 24000, Note_on_c, 7, 46, 90
10, 24240, Note_on_c, 7, 46, 0
10, 24240, Note_on_c, 7, 45, 90
10, 24480, Note_on_c, 7, 45, 0
10, 24480, Note_on_c, 7, 41, 90
10, 24720, Note_on_c, 7, 41, 0
10, 24720, Note_on_c, 7, 38, 90
10, 24960, Note_on_c, 7, 38, 0
10, 24960, Note_on_c, 7, 41, 90
10, 25200, Note_on_c, 7, 41, 0
10, 25200, Note_on_c, 7, 45, 90
10, 25440, Note_on_c, 7, 45, 0
10, 25440, Note_on_c, 7, 46, 90
10, 25680, Note_on_c, 7, 46, 0
10, 25680, Note_on_c, 7, 45, 90
10, 25920, Note_on_c, 7, 45, 0
10, 25920, Note_on_c, 7, 41, 90
10, 26160, Note_on_c, 7, 41, 0
10, 26160, Note_on_c, 7, 38, 90
10, 26400, Note_on_c, 7, 38, 0
10, 26400, Note_on_c, 7, 34, 90
10, 26640, Note_on_c, 7, 34, 0
10, 26640, Note_on_c, 7, 33, 90
10, 26880, Note_on_c, 7, 33, 0
10, 26880, Note_on_c, 7, 38, 90
10, 27120, Note_on_c, 7, 38, 0
10, 27120, Note_on_c, 7, 41, 90
10, 27360, Note_on_c, 7, 41, 0
10, 27360, Note_on_c, 7, 38, 90
10, 27600, Note_on_c, 7, 38, 0
10, 27600, Note_on_c, 7, 41, 90
10, 27840, Note_on_c, 7, 41, 0
10, 27840, Note_on_c, 7, 46, 90
10, 28080, Note_on_c, 7, 46, 0
10, 28080, Note_on_c, 7, 45, 90
10, 28320, Note_on_c, 7, 45, 0
10, 28320, Note_on_c, 7, 41, 90
10, 28560, Note_on_c, 7, 41, 0
10, 28560, Note_on_c, 7, 38, 90
10, 28800, Note_on_c, 7, 38, 0
10, 28800, Note_on_c, 7, 41, 90
10, 29040, Note_on_c, 7, 41, 0
10, 29040, Note_on_c, 7, 45, 90
10, 29280, Note_on_c, 7, 45, 0
10, 29280, Note_on_c, 7, 46, 90
10, 29520, Note_on_c, 7, 46, 0
10, 29520, Note_on_c, 7, 45, 90
10, 29760, Note_on_c, 7, 45, 0
10, 29760, Note_on_c, 7, 41, 90
10, 30000, Note_on_c, 7, 41, 0
10, 30000, Note_on_c, 7, 38, 90
10, 30240, Note_on_c, 7, 38, 0
10, 30240, Note_on_c, 7, 34, 90
10, 30480, Note_on_c, 7, 34, 0
10, 30480, Note_on_c, 7, 33, 90
10, 30720, Note_on_c, 7, 33, 0
10, 30720, Note_on_c, 7, 38, 90
10, 30960, Note_on_c, 7, 38, 0
10, 30960, Note_on_c, 7, 41, 90
10, 31200, Note_on_c, 7, 41, 0
10, 31200, Note_on_c, 7, 38, 90
10, 31440, Note_on_c, 7, 38, 0
10, 31440, Note_on_c, 7, 41, 90
10, 31680, Note_on_c, 7, 41, 0
10, 31680, Note_on_c, 7, 46, 90
10, 31920, Note_on_c, 7, 46, 0
10, 31920, Note_on_c, 7, 45, 90
10, 32160, Note_on_c, 7, 45, 0
10, 32160, Note_on_c, 7, 41, 90
10, 32400, Note_on_c, 7, 41, 0
10, 32400, Note_on_c, 7, 38, 90
10, 32640, Note_on_c, 7, 38, 0
10, 32640, Note_on_c, 7, 41, 90
10, 32880, Note_on_c, 7, 41, 0
10, 32880, Note_on_c, 7, 45, 90
10, 33120, Note_on_c, 7, 45, 0
10, 33120, Note_on_c, 7, 46, 90
10, 33360, Note_on_c, 7, 46, 0
10, 33360, Note_on_c, 7, 45, 90
10, 33600, Note_on_c, 7, 45, 0
10, 33600, Note_on_c, 7, 41, 90
10, 33840, Note_on_c, 7, 41, 0
10, 33840, Note_on_c, 7, 38, 90
10, 34080, Note_on_c, 7, 38, 0
10, 34080, Note_on_c, 7, 34, 90
10, 34320, Note_on_c, 7, 34, 0
10, 34320, Note_on_c, 7, 33, 90
10, 34560, Note_on_c, 7, 33, 0
10, 34560, Note_on_c, 7, 38, 90
10, 34800, Note_on_c, 7, 38, 0
10, 34800, Note_on_c, 7, 41, 90
10, 35040, Note_on_c, 7, 41, 0
10, 35040, Note_on_c, 7, 38, 90
10, 35280, Note_on_c, 7, 38, 0
10, 35280, Note_on_c, 7, 41, 90
10, 35520, Note_on_c, 7, 41, 0
10, 35520, Note_on_c, 7, 46, 90
10, 35760, Note_on_c, 7, 46, 0
10, 35760, Note_on_c, 7, 45, 90
10, 36000, Note_on_c, 7, 45, 0
10, 36000, Note_on_c, 7, 41, 90
10, 36240, Note_on_c, 7, 41, 0
10, 36240, Note_on_c, 7, 38, 90
10, 36480, Note_on_c, 7, 38, 0
10, 36480, Note_on_c, 7, 41, 90
10, 36720, Note_on_c, 7, 41, 0
10, 36720, Note_on_c, 7, 45, 90
10, 36960, Note_on_c, 7, 45, 0
10, 36960, Note_on_c, 7, 46, 90
10, 37200, Note_on_c, 7, 46, 0
10, 37200, Note_on_c, 7, 45, 90
10, 37440, Note_on_c, 7, 45, 0
10, 37440, Note_on_c, 7, 41, 90
10, 37680, Note_on_c, 7, 41, 0
10, 37680, Note_on_c, 7, 38, 90
10, 37920, Note_on_c, 7, 38, 0
10, 37920, Note_on_c, 7, 34, 90
10, 38160, Note_on_c, 7, 34, 0
10, 38160, Note_on_c, 7, 33, 90
10, 38400, Note_on_c, 7, 33, 0
10, 38400, Note_on_c, 7, 41, 90
10, 38640, Note_on_c, 7, 41, 0
10, 38640, Note_on_c, 7, 44, 90
10, 38880, Note_on_c, 7, 44, 0
10, 38880, Note_on_c, 7, 41, 90
10, 39120, Note_on_c, 7, 41, 0
10, 39120, Note_on_c, 7, 44, 90
10, 39360, Note_on_c, 7, 44, 0
10, 39360, Note_on_c, 7, 49, 90
10, 39600, Note_on_c, 7, 49, 0
10, 39600, Note_on_c, 7, 48, 90
10, 39840, Note_on_c, 7, 48, 0
10, 39840, Note_on_c, 7, 44, 90
10, 40080, Note_on_c, 7, 44, 0
10, 40080, Note_on_c, 7, 41, 90
10, 40320, Note_on_c, 7, 41, 0
10, 40320, Note_on_c, 7, 44, 90
10, 40560, Note_on_c, 7, 44, 0
10, 40560, Note_on_c, 7, 48, 90
10, 40800, Note_on_c, 7, 48, 0
10, 40800, Note_on_c, 7, 49, 90
10, 41040, Note_on_c, 7, 49, 0
10, 41040, Note_on_c, 7, 48, 90
10, 41280, Note_on_c, 7, 48, 0
10, 41280, Note_on_c, 7, 44, 90
10, 41520, Note_on_c, 7, 44, 0
10, 41520, Note_on_c, 7, 41, 90
10, 41760, Note_on_c, 7, 41, 0
10, 41760, Note_on_c, 7, 37, 90
10, 42000, Note_on_c, 7, 37, 0
10, 42000, Note_on_c, 7, 36, 90
10, 42240, Note_on_c, 7, 36, 0
10, 42240, Note_on_c, 7, 41, 90
10, 42480, Note_on_c, 7, 41, 0
10, 42480, Note_on_c, 7, 44, 90
10, 42720, Note_on_c, 7, 44, 0
10, 42720, Note_on_c, 7, 41, 90
10, 42960, Note_on_c, 7, 41, 0
10, 42960, Note_on_c, 7, 44, 90
10, 43200, Note_on_c, 7, 44, 0
10, 43200, Note_on_c, 7, 49, 90
10, 43440, Note_on_c, 7, 49, 0
10, 43440, Note_on_c, 7, 48, 90
10, 43680, Note_on_c, 7, 48, 0
10, 43680, Note_on_c, 7, 44, 90
10, 43920, Note_on_c, 7, 44, 0
10, 43920, Note_on_c, 7, 41, 90
10, 44160, Note_on_c, 7, 41, 0
10, 44160, Note_on_c, 7, 44, 90
10, 44400, Note_on_c, 7, 44, 0
10, 44400, Note_on_c, 7, 48, 90
10, 44640, Note_on_c, 7, 48, 0
10, 44640, Note_on_c, 7, 49, 90
10, 44880, Note_on_c, 7, 49, 0
10, 44880, Note_on_c, 7, 48, 90
10, 45120, Note_on_c, 7, 48, 0
10, 45120, Note_on_c, 7, 44, 90
10, 45360, Note_on_c, 7, 44, 0
10, 45360, Note_on_c, 7, 41, 90
10, 45600, Note_on_c, 7, 41, 0
10, 45600, Note_on_c, 7, 37, 90
10, 45840, Note_on_c, 7, 37, 0
10, 45840, Note_on_c, 7, 36, 90
10, 46080, Note_on_c, 7, 36, 0
10, 46080, Note_on_c, 7, 36, 90
10, 46320, Note_on_c, 7, 36, 0
10, 46320, Note_on_c, 7, 39, 90
10, 46560, Note_on_c, 7, 39, 0
10, 46560, Note_on_c, 7, 36, 90
10, 46800, Note_on_c, 7, 36, 0
10, 46800, Note_on_c, 7, 39, 90
10, 47040, Note_on_c, 7, 39, 0
10, 47040, Note_on_c, 7, 44, 90
10, 47280, Note_on_c, 7, 44, 0
10, 47280, Note_on_c, 7, 43, 90
10, 47520, Note_on_c, 7, 43, 0
10, 47520, Note_on_c, 7, 39, 90
10, 47760, Note_on_c, 7, 39, 0
10, 47760, Note_on_c, 7, 36, 90
10, 48000, Note_on_c, 7, 36, 0
10, 48000, Note_on_c, 7, 39, 90
10, 48240, Note_on_c, 7, 39, 0
10, 48240, Note_on_c, 7, 43, 90
10, 48480, Note_on_c, 7, 43, 0
10, 48480, Note_on_c, 7, 44, 90
10, 48720, Note_on_c, 7, 44, 0
10, 48720, Note_on_c, 7, 43, 90
10, 48960, Note_on_c, 7, 43, 0
10, 48960, Note_on_c, 7, 39, 90
10, 49200, Note_on_c, 7, 39, 0
10, 49200, Note_on_c, 7, 36, 90
10, 49440, Note_on_c, 7, 36, 0
10, 49440, Note_on_c, 7, 32, 90
10, 49680, Note_on_c, 7, 32, 0
10, 49680, Note_on_c, 7, 31, 90
10, 49920, Note_on_c, 7, 31, 0
10, 49920, Note_on_c, 7, 36, 90
10, 50160, Note_on_c, 7, 36, 0
10, 50160, Note_on_c, 7, 39, 90
10, 50400, Note_on_c, 7, 39, 0
10, 50400, Note_on_c, 7, 36, 90
10, 50640, Note_on_c, 7, 36, 0
10, 50640, Note_on_c, 7, 39, 90
10, 50880, Note_on_c, 7, 39, 0
10, 50880, Note_on_c, 7, 44, 90
10, 51120, Note_on_c, 7, 44, 0
10, 51120, Note_on_c, 7, 43, 90
10, 51360, Note_on_c, 7, 43, 0
10, 51360, Note_on_c, 7, 39, 90
10, 51600, Note_on_c, 7, 39, 0
10, 51600, Note_on_c, 7, 36, 90
10, 51840, Note_on_c, 7, 36, 0
10, 51840, Note_on_c, 7, 39, 90
10, 52080, Note_on_c, 7, 39, 0
10, 52080, Note_on_c, 7, 43, 90
10, 52320, Note_on_c, 7, 43, 0
10, 52320, Note_on_c, 7, 44, 90
10, 52560, Note_on_c, 7, 44, 0
10, 52560, Note_on_c, 7, 43, 90
10, 52800, Note_on_c, 7, 43, 0
10, 52800, Note_on_c, 7, 39, 90
10, 53040, Note_on_c, 7, 39, 0
10, 53040, Note_on_c, 7, 36, 90
10, 53280, Note_on_c, 7, 36, 0
10, 53280, Note_on_c, 7, 32, 90
10, 53520, Note_on_c, 7, 32, 0
10, 53520, Note_on_c, 7, 31, 90
10, 53760, Note_on_c, 7, 31, 0
10, 53760, Note_on_c, 7, 33, 90
10, 54000, Note_on_c, 7, 33, 0
10, 54000, Note_on_c, 7, 36, 90
10, 54240, Note_on_c, 7, 36, 0
10, 54240, Note_on_c, 7, 33, 90
10, 54480, Note_on_c, 7, 33, 0
10, 54480, Note_on_c, 7, 36, 90
10, 54720, Note_on_c, 7, 36, 0
10, 54720, Note_on_c, 7, 41, 90
10, 54960, Note_on_c, 7, 41, 0
10, 54960, Note_on_c, 7, 40, 90
10, 55200, Note_on_c, 7, 40, 0
10, 55200, Note_on_c, 7, 36, 90
10, 55440, Note_on_c, 7, 36, 0
10, 55440, Note_on_c, 7, 33, 90
10, 55680, Note_on_c, 7, 33, 0
10, 55680, Note_on_c, 7, 36, 90
10, 55920, Note_on_c, 7, 36, 0
10, 55920, Note_on_c, 7, 40, 90
10, 56160, Note_on_c, 7, 40, 0
10, 56160, Note_on_c, 7, 41, 90
10, 56400, Note_on_c, 7, 41, 0
10, 56400, Note_on_c, 7, 40, 90
10, 56640, Note_on_c, 7, 40, 0
10, 56640, Note_on_c, 7, 36, 90
10, 56880, Note_on_c, 7, 36, 0
10, 56880, Note_on_c, 7, 33, 90
10, 57120, Note_on_c, 7, 33, 0
10, 57120, Note_on_c, 7, 29, 90
10, 57360, Note_on_c, 7, 29, 0
10, 57360, Note_on_c, 7, 28, 90
10, 57600, Note_on_c, 7, 28, 0
10, 57600, Note_on_c, 7, 33, 90
10, 57840, Note_on_c, 7, 33, 0
10, 57840, Note_on_c, 7, 36, 90
10, 58080, Note_on_c, 7, 36, 0
10, 58080, Note_on_c, 7, 33, 90
10, 58320, Note_on_c, 7, 33, 0
10, 58320, Note_on_c, 7, 36, 90
10, 58560, Note_on_c, 7, 36, 0
10, 58560, Note_on_c, 7, 41, 90
10, 58800, Note_on_c, 7, 41, 0
10, 58800, Note_on_c, 7, 40, 90
10, 59040, Note_on_c, 7, 40, 0
10, 59040, Note_on_c, 7, 36, 90
10, 59280, Note_on_c, 7, 36, 0
10, 59280, Note_on_c, 7, 33, 90
10, 59520, Note_on_c, 7, 33, 0
10, 59520, Note_on_c, 7, 36, 90
10, 59760, Note_on_c, 7, 36, 0
10, 59760, Note_on_c, 7, 40, 90
10, 60000, Note_on_c, 7, 40, 0
10, 60000, Note_on_c, 7, 41, 90
10, 60240, Note_on_c, 7, 41, 0
10, 60240, Note_on_c, 7, 40, 90
10, 60480, Note_on_c, 7, 40, 0
10, 60480, Note_on_c, 7, 36, 90
10, 60720, Note_on_c, 7, 36, 0
10, 60720, Note_on_c, 7, 33, 90
10, 60960, Note_on_c, 7, 33, 0
10, 60960, Note_on_c, 7, 29, 90
10, 61200, Note_on_c, 7, 29, 0
10, 61200, Note_on_c, 7, 28, 90
10, 61440, Note_on_c, 7, 28, 0
10, 61440, Note_on_c, 7, 40, 90
10, 61680, Note_on_c, 7, 40, 0
10, 61680, Note_on_c, 7, 43, 90
10, 61920, Note_on_c, 7, 43, 0
10, 61920, Note_on_c, 7, 40, 90
10, 62160, Note_on_c, 7, 40, 0
10, 62160, Note_on_c, 7, 43, 90
10, 62400, Note_on_c, 7, 43, 0
10, 62400, Note_on_c, 7, 48, 90
10, 62640, Note_on_c, 7, 48, 0
10, 62640, Note_on_c, 7, 47, 90
10, 62880, Note_on_c, 7, 47, 0
10, 62880, Note_on_c, 7, 43, 90
10, 63120, Note_on_c, 7, 43, 0
10, 63120, Note_on_c, 7, 40, 90
10, 63360, Note_on_c, 7, 40, 0
10, 63360, Note_on_c, 7, 43, 90
10, 63600, Note_on_c, 7, 43, 0
10, 63600, Note_on_c, 7, 47, 90
10, 63840, Note_on_c, 7, 47, 0
10, 63840, Note_on_c, 7, 48, 90
10, 64080, Note_on_c, 7, 48, 0
10, 64080, Note_on_c, 7, 47, 90
10, 64320, Note_on_c, 7, 47, 0
10, 64320, Note_on_c, 7, 43, 90
10, 64560, Note_on_c, 7, 43, 0
10, 64560, Note_on_c, 7, 40, 90
10, 64800, Note_on_c, 7, 40, 0
10, 64800, Note_on_c, 7, 36, 90
10, 65040, Note_on_c, 7, 36, 0
10, 65040, Note_on_c, 7, 35, 90
10, 65280, Note_on_c, 7, 35, 0
10, 65280, Note_on_c, 7, 40, 90
10, 65520, Note_on_c, 7, 40, 0
10, 65520, Note_on_c, 7, 43, 90
10, 65760, Note_on_c, 7, 43, 0
10, 65760, Note_on_c, 7, 40, 90
10, 66000, Note_on_c, 7, 40, 0
10, 66000, Note_on_c, 7, 43, 90
10, 66240, Note_on_c, 7, 43, 0
10, 66240, Note_on_c, 7, 48, 90
10, 66480, Note_on_c, 7, 48, 0
10, 66480, Note_on_c, 7, 47, 90
10, 66720, Note_on_c, 7, 47, 0
10, 66720, Note_on_c, 7, 43, 90
10, 66960, Note_on_c, 7, 43, 0
10, 66960, Note_on_c, 7, 40, 90
10, 67200, Note_on_c, 7, 40, 0
10, 67200, Note_on_c, 7, 43, 90
10, 67440, Note_on_c, 7, 43, 0
10, 67440, Note_on_c, 7, 47, 90
10, 67680, Note_on_c, 7, 47, 0
10, 67680, Note_on_c, 7, 48, 90
10, 67920, Note_on_c, 7, 48, 0
10, 67920, Note_on_c, 7, 47, 90
10, 68160, Note_on_c, 7, 47, 0
10, 68160, Note_on_c, 7, 43, 90
10, 68400, Note_on_c, 7, 43, 0
10, 68400, Note_on_c, 7, 40, 90
10, 68640, Note_on_c, 7, 40, 0
10, 68640, Note_on_c, 7, 36, 90
10, 68880, Note_on_c, 7, 36, 0
10, 68880, Note_on_c, 7, 35, 90
10, 69120, Note_on_c, 7, 35, 0
10, 69120, Note_on_c, 7, 43, 90
10, 69360, Note_on_c, 7, 43, 0
10, 69360, Note_on_c, 7, 46, 90
10, 69600, Note_on_c, 7, 46, 0
10, 69600, Note_on_c, 7, 43, 90
10, 69840, Note_on_c, 7, 43, 0
10, 69840, Note_on_c, 7, 46, 90
10, 70080, Note_on_c, 7, 46, 0
10, 70080, Note_on_c, 7, 51, 90
10, 70320, Note_on_c, 7, 51, 0
10, 70320, Note_on_c, 7, 50, 90
10, 70560, Note_on_c, 7, 50, 0
10, 70560, Note_on_c, 7, 46, 90
10, 70800, Note_on_c, 7, 46, 0
10, 70800, Note_on_c, 7, 43, 90
10, 71040, Note_on_c, 7, 43, 0
10, 71040, Note_on_c, 7, 46, 90
10, 71280, Note_on_c, 7, 46, 0
10, 71280, Note_on_c, 7, 50, 90
10, 71520, Note_on_c, 7, 50, 0
10, 71520, Note_on_c, 7, 51, 90
10, 71760, Note_on_c, 7, 51, 0
10, 71760, Note_on_c, 7, 50, 90
10, 72000, Note_on_c, 7, 50, 0
10, 72000, Note_on_c, 7, 46, 90
10, 72240, Note_on_c, 7, 46, 0
10, 72240, Note_on_c, 7, 43, 90
10, 72480, Note_on_c, 7, 43, 0
10, 72480, Note_on_c, 7, 39, 90
10, 72720, Note_on_c, 7, 39, 0
10, 72720, Note_on_c, 7, 38, 90
10, 72960, Note_on_c, 7, 38, 0
10, 72960, Note_on_c, 7, 43, 90
10, 73200, Note_on_c, 7, 43, 0
10, 73200, Note_on_c, 7, 46, 90
10, 73440, Note_on_c, 7, 46, 0
10, 73440, Note_on_c, 7, 43, 90
10, 73680, Note_on_c, 7, 43, 0
10, 73680, Note_on_c, 7, 46, 90
10, 73920, Note_on_c, 7, 46, 0
10, 73920, Note_on_c, 7, 51, 90
10, 74160, Note_on_c, 7, 51, 0
10, 74160, Note_on_c, 7, 50, 90
10, 74400, Note_on_c, 7, 50, 0
10, 74400, Note_on_c, 7, 46, 90
10, 74640, Note_on_c, 7, 46, 0
10, 74640, Note_on_c, 7, 43, 90
10, 74880, Note_on_c, 7, 43, 0
10, 74880, Note_on_c, 7, 46, 90
10, 75120, Note_on_c, 7, 46, 0
10, 75120, Note_on_c, 7, 50, 90
10, 75360, Note_on_c, 7, 50, 0
10, 75360, Note_on_c, 7, 51, 90
10, 75600, Note_on_c, 7, 51, 0
10, 75600, Note_on_c, 7, 50, 90
10, 75840, Note_on_c, 7, 50, 0
10, 75840, Note_on_c, 7, 46, 90
10, 76080, Note_on_c, 7, 46, 0
10, 76080, Note_on_c, 7, 43, 90
10, 76320, Note_on_c, 7, 43, 0
10, 76320, Note_on_c, 7, 39, 90
10, 76560, Note_on_c, 7, 39, 0
10, 76560, Note_on_c, 7, 38, 90
10, 76800, Note_on_c, 7, 38, 0
10, 76800, Note_on_c, 7, 38, 90
10, 77040, Note_on_c, 7, 38, 0
10, 77040, Note_on_c, 7, 41, 90
10, 77280, Note_on_c, 7, 41, 0
10, 77280, Note_on_c, 7, 38, 90
10, 77520, Note_on_c, 7, 38, 0
10, 77520, Note_on_c, 7, 41, 90
10, 77760, Note_on_c, 7, 41, 0
10, 77760, Note_on_c, 7, 46, 90
10, 78000, Note_on_c, 7, 46, 0
10, 78000, Note_on_c, 7, 45, 90
10, 78240, Note_on_c, 7, 45, 0
10, 78240, Note_on_c, 7, 41, 90
10, 78480, Note_on_c, 7, 41, 0
10, 78480, Note_on_c, 7, 38, 90
10, 78720, Note_on_c, 7, 38, 0
10, 78720, Note_on_c, 7, 41, 90
10, 78960, Note_on_c, 7, 41, 0
10, 78960, Note_on_c, 7, 45, 90
10, 79200, Note_on_c, 7, 45, 0
10, 79200, Note_on_c, 7, 46, 90
10, 79440, Note_on_c, 7, 46, 0
10, 79440, Note_on_c, 7, 45, 90
10, 79680, Note_on_c, 7, 45, 0
10, 79680, Note_on_c, 7, 41, 90
10, 79920, Note_on_c, 7, 41, 0
10, 79920, Note_on_c, 7, 38, 90
10, 80160, Note_on_c, 7, 38, 0
10, 80160, Note_on_c, 7, 34, 90
10, 80400, Note_on_c, 7, 34, 0
10, 80400, Note_on_c, 7, 33, 90
10, 80640, Note_on_c, 7, 33, 0
10, 80640, Note_on_c, 7, 38, 90
10, 80880, Note_on_c, 7, 38, 0
10, 80880, Note_on_c, 7, 41, 90
10, 81120, Note_on_c, 7, 41, 0
10, 81120, Note_on_c, 7, 38, 90
10, 81360, Note_on_c, 7, 38, 0
10, 81360, Note_on_c, 7, 41, 90
10, 81600, Note_on_c, 7, 41, 0
10, 81600, Note_on_c, 7, 46, 90
10, 81840, Note_on_c, 7, 46, 0
10, 81840, Note_on_c, 7, 45, 90
10, 82080, Note_on_c, 7, 45, 0
10, 82080, Note_on_c, 7, 41, 90
10, 82320, Note_on_c, 7, 41, 0
10, 82320, Note_on_c, 7, 38, 90
10, 82560, Note_on_c, 7, 38, 0
10, 82560, Note_on_c, 7, 41, 90
10, 82800, Note_on_c, 7, 41, 0
10, 82800, Note_on_c, 7, 45, 90
10, 83040, Note_on_c, 7, 45, 0
10, 83040, Note_on_c, 7, 46, 90
10, 83280, Note_on_c, 7, 46, 0
10, 83280, Note_on_c, 7, 45, 90
10, 83520, Note_on_c, 7, 45, 0
10, 83520, Note_on_c, 7, 41, 90
10, 83760, Note_on_c, 7, 41, 0
10, 83760, Note_on_c, 7, 38, 90
10, 84000, Note_on_c, 7, 38, 0
10, 84000, Note_on_c, 7, 34, 90
10, 84240, Note_on_c, 7, 34, 0
10, 84240, Note_on_c, 7, 33, 90
10, 84480, Note_on_c, 7, 33, 0
10, 84480, Note_on_c, 7, 41, 90
10, 84720, Note_on_c, 7, 41, 0
10, 84720, Note_on_c, 7, 41, 90
10, 84960, Note_on_c, 7, 41, 0
10, 84960, Note_on_c, 7, 41, 70
10, 85200, Note_on_c, 7, 41, 0
10, 85200, Note_on_c, 7, 41, 90
10, 85440, Note_on_c, 7, 41, 0
10, 85440, Note_on_c, 7, 41, 90
10, 85680, Note_on_c, 7, 41, 0
10, 85680, Note_on_c, 7, 41, 70
10, 85920, Note_on_c, 7, 41, 0
10, 85920, Note_on_c, 7, 41, 90
10, 86160, Note_on_c, 7, 41, 0
10, 86160, Note_on_c, 7, 41, 90
10, 86400, Note_on_c, 7, 41, 0
10, 86400, Note_on_c, 7, 41, 70
10, 86640, Note_on_c, 7, 41, 0
10, 86640, Note_on_c, 7, 41, 90
10, 86880, Note_on_c, 7, 41, 0
10, 86880, Note_on_c, 7, 41, 90
10, 87120, Note_on_c, 7, 41, 0
10, 87120, Note_on_c, 7, 41, 70
10, 87360, Note_on_c, 7, 41, 0
10, 87360, Note_on_c, 7, 41, 90
10, 87600, Note_on_c, 7, 41, 0
10, 87600, Note_on_c, 7, 41, 90
10, 87840, Note_on_c, 7, 41, 0
10, 87840, Note_on_c, 7, 41, 70
10, 88080, Note_on_c, 7, 41, 0
10, 88080, Note_on_c, 7, 41, 90
10, 88320, Note_on_c, 7, 41, 0
10, 88320, Note_on_c, 7, 41, 90
10, 88560, Note_on_c, 7, 41, 0
10, 88560, Note_on_c, 7, 41, 90
10, 88800, Note_on_c, 7, 41, 0
10, 88800, Note_on_c, 7, 41, 70
10, 89040, Note_on_c, 7, 41, 0
10, 89040, Note_on_c, 7, 41, 90
10, 89280, Note_on_c, 7, 41, 0
10, 89280, Note_on_c, 7, 41, 90
10, 89520, Note_on_c, 7, 41, 0
10, 89520, Note_on_c, 7, 41, 70
10, 89760, Note_on_c, 7, 41, 0
10, 89760, Note_on_c, 7, 41, 90
10, 90000, Note_on_c, 7, 41, 0
10, 90000, Note_on_c, 7, 41, 90
10, 90240, Note_on_c, 7, 41, 0
10, 90240, Note_on_c, 7, 41, 70
10, 90480, Note_on_c, 7, 41, 0
10, 90480, Note_on_c, 7, 41, 90
10, 90720, Note_on_c, 7, 41, 0
10, 90720, Note_on_c, 7, 41, 90
10, 90960, Note_on_c, 7, 41, 0
10, 90960, Note_on_c, 7, 41, 70
10, 91200, Note_on_c, 7, 41, 0
10, 91200, Note_on_c, 7, 41, 90
10, 91440, Note_on_c, 7, 41, 0
10, 91440, Note_on_c, 7, 41, 90
10, 91680, Note_on_c, 7, 41, 0
10, 91680, Note_on_c, 7, 41, 70
10, 91920, Note_on_c, 7, 41, 0
10, 91920, Note_on_c, 7, 41, 90
10, 92160, Note_on_c, 7, 41, 0
10, 92160, Note_on_c, 7, 41, 90
10, 92400, Note_on_c, 7, 41, 0
10, 92400, Note_on_c, 7, 41, 90
10, 92640, Note_on_c, 7, 41, 0
10, 92640, Note_on_c, 7, 41, 70
10, 92880, Note_on_c, 7, 41, 0
10, 92880, Note_on_c, 7, 41, 90
10, 93120, Note_on_c, 7, 41, 0
10, 93120, Note_on_c, 7, 41, 90
10, 93360, Note_on_c, 7, 41, 0
10, 93360, Note_on_c, 7, 41, 70
10, 93600, Note_on_c, 7, 41, 0
10, 93600, Note_on_c, 7, 41, 90
10, 93840, Note_on_c, 7, 41, 0
10, 93840, Note_on_c, 7, 41, 90
10, 94080, Note_on_c, 7, 41, 0
10, 94080, Note_on_c, 7, 41, 70
10, 94320, Note_on_c, 7, 41, 0
10, 94320, Note_on_c, 7, 41, 90
10, 94560, Note_on_c, 7, 41, 0
10, 94560, Note_on_c, 7, 41, 90
10, 94800, Note_on_c, 7, 41, 0
10, 94800, Note_on_c, 7, 41, 70
10, 95040, Note_on_c, 7, 41, 0
10, 95040, Note_on_c, 7, 41, 90
10, 95280, Note_on_c, 7, 41, 0
10, 95280, Note_on_c, 7, 41, 90
10, 95520, Note_on_c, 7, 41, 0
10, 95520, Note_on_c, 7, 41, 70
10, 95760, Note_on_c, 7, 41, 0
10, 95760, Note_on_c, 7, 41, 90
10, 96000, Note_on_c, 7, 41, 0
10, 96000, Note_on_c, 7, 41, 90
10, 96240, Note_on_c, 7, 41, 0
10, 96240, Note_on_c, 7, 41, 90
10, 96480, Note_on_c, 7, 41, 0
10, 96480, Note_on_c, 7, 41, 70
10, 96720, Note_on_c, 7, 41, 0
10, 96720, Note_on_c, 7, 41, 90
10, 96960, Note_on_c, 7, 41, 0
10, 96960, Note_on_c, 7, 41, 90
10, 97200, Note_on_c, 7, 41, 0
10, 97200, Note_on_c, 7, 41, 70
10, 97440, Note_on_c, 7, 41, 0
10, 97440, Note_on_c, 7, 41, 90
10, 97680, Note_on_c, 7, 41, 0
10, 97680, Note_on_c, 7, 41, 90
10, 97920, Note_on_c, 7, 41, 0
10, 97920, Note_on_c, 7, 41, 70
10, 98160, Note_on_c, 7, 41, 0
10, 98160, Note_on_c, 7, 41, 90
10, 98400, Note_on_c, 7, 41, 0
10, 98400, Note_on_c, 7, 41, 90
10, 98640, Note_on_c, 7, 41, 0
10, 98640, Note_on_c, 7, 41, 70
10, 98880, Note_on_c, 7, 41, 0
10, 98880, Note_on_c, 7, 41, 90
10, 99120, Note_on_c, 7, 41, 0
10, 99120, Note_on_c, 7, 41, 90
10, 99360, Note_on_c, 7, 41, 0
10, 99360, Note_on_c, 7, 41, 70
10, 99600, Note_on_c, 7, 41, 0
10, 99600, Note_on_c, 7, 41, 90
10, 99840, Note_on_c, 7, 41, 0
10, 99840, Note_on_c, 7, 36, 90
10, 100080, Note_on_c, 7, 36, 0
10, 100080, Note_on_c, 7, 40, 90
10, 100320, Note_on_c, 7, 40, 0
10, 100320, Note_on_c, 7, 36, 90
10, 100560, Note_on_c, 7, 36, 0
10, 100560, Note_on_c, 7, 40, 90
10, 100800, Note_on_c, 7, 40, 0
10, 100800, Note_on_c, 7, 44, 90
10, 101040, Note_on_c, 7, 44, 0
10, 101040, Note_on_c, 7, 43, 90
10, 101280, Note_on_c, 7, 43, 0
10, 101280, Note_on_c, 7, 40, 90
10, 101520, Note_on_c, 7, 40, 0
10, 101520, Note_on_c, 7, 36, 90
10, 101760, Note_on_c, 7, 36, 0
10, 101760, Note_on_c, 7, 40, 90
10, 102000, Note_on_c, 7, 40, 0
10, 102000, Note_on_c, 7, 43, 90
10, 102240, Note_on_c, 7, 43, 0
10, 102240, Note_on_c, 7, 44, 90
10, 102480, Note_on_c, 7, 44, 0
10, 102480, Note_on_c, 7, 43, 90
10, 102720, Note_on_c, 7, 43, 0
10, 102720, Note_on_c, 7, 40, 90
10, 102960, Note_on_c, 7, 40, 0
10, 102960, Note_on_c, 7, 36, 90
10, 103200, Note_on_c, 7, 36, 0
10, 103200, Note_on_c, 7, 32, 90
10, 103440, Note_on_c, 7, 32, 0
10, 103440, Note_on_c, 7, 31, 90
10, 103680, Note_on_c, 7, 31, 0
10, 103680, Note_on_c, 7, 36, 90
10, 103920, Note_on_c, 7, 36, 0
10, 103920, Note_on_c, 7, 40, 90
10, 104160, Note_on_c, 7, 40, 0
10, 104160, Note_on_c, 7, 36, 90
10, 104400, Note_on_c, 7, 36, 0
10, 104400, Note_on_c, 7, 40, 90
10, 104640, Note_on_c, 7, 40, 0
10, 104640, Note_on_c, 7, 44, 90
10, 104880, Note_on_c, 7, 44, 0
10, 104880, Note_on_c, 7, 43, 90
10, 105120, Note_on_c, 7, 43, 0
10, 105120, Note_on_c, 7, 40, 90
10, 105360, Note_on_c, 7, 40, 0
10, 105360, Note_on_c, 7, 36, 90
10, 105600, Note_on_c, 7, 36, 0
10, 105600, Note_on_c, 7, 40, 90
10, 105839, Note_on_c, 7, 40, 0
10, 105840, Note_on_c, 7, 43, 90
10, 106079, Note_on_c, 7, 43, 0
10, 106080, Note_on_c, 7, 44, 90
10, 106319, Note_on_c, 7, 44, 0
10, 106320, Note_on_c, 7, 43, 90
10, 106559, Note_on_c, 7, 43, 0
10, 106560, Note_on_c, 7, 40, 90
10, 106799, Note_on_c, 7, 40, 0
10, 106800, Note_on_c, 7, 36, 90
10, 107039, Note_on_c, 7, 36, 0
10, 107040, Note_on_c, 7, 32, 90
10, 107279, Note_on_c, 7, 32, 0
10, 107280, Note_on_c, 7, 31, 90
10, 107519, Note_on_c, 7, 31, 0
10, 107519, End_track
11, 0, Start_track
11, 0, MIDI_port, 0
11, 0, Title_t, "CYMBAL"
11, 0, Control_c, 9, 0, 0
11, 0, Program_c, 9, 0
11, 0, Control_c, 9, 7, 110
11, 0, Control_c, 9, 10, 63
11, 23040, Note_on_c, 9, 57, 80
11, 24960, Note_on_c, 9, 57, 0
11, 38400, Note_on_c, 9, 57, 80
11, 40320, Note_on_c, 9, 57, 0
11, 84480, Note_on_c, 9, 57, 80
11, 86400, Note_on_c, 9, 57, 0
11, 99840, Note_on_c, 9, 57, 80
11, 101760, Note_on_c, 9, 57, 0
11, 101760, End_track
12, 0, Start_track
12, 0, MIDI_port, 0
12, 0, Title_t, "HIHAT"
12, 0, Control_c, 9, 0, 0
12, 0, Program_c, 9, 0
12, 0, Control_c, 9, 7, 110
12, 0, Control_c, 9, 10, 63
12, 0, Note_on_c, 9, 46, 100
12, 240, Note_on_c, 9, 46, 0
12, 240, Note_on_c, 9, 42, 100
12, 360, Note_on_c, 9, 42, 0
12, 360, Note_on_c, 9, 42, 100
12, 480, Note_on_c, 9, 42, 0
12, 480, Note_on_c, 9, 46, 100
12, 720, Note_on_c, 9, 46, 0
12, 720, Note_on_c, 9, 42, 100
12, 840, Note_on_c, 9, 42, 0
12, 840, Note_on_c, 9, 42, 100
12, 960, Note_on_c, 9, 42, 0
12, 960, Note_on_c, 9, 46, 100
12, 1200, Note_on_c, 9, 46, 0
12, 1200, Note_on_c, 9, 42, 100
12, 1320, Note_on_c, 9, 42, 0
12, 1320, Note_on_c, 9, 42, 100
12, 1440, Note_on_c, 9, 42, 0
12, 1440, Note_on_c, 9, 46, 100
12, 1680, Note_on_c, 9, 46, 0
12, 1680, Note_on_c, 9, 42, 100
12, 1800, Note_on_c, 9, 42, 0
12, 1800, Note_on_c, 9, 42, 100
12, 1920, Note_on_c, 9, 42, 0
12, 1920, Note_on_c, 9, 46, 100
12, 2160, Note_on_c, 9, 46, 0
12, 2160, Note_on_c, 9, 42, 100
12, 2280, Note_on_c, 9, 42, 0
12, 2280, Note_on_c, 9, 42, 100
12, 2400, Note_on_c, 9, 42, 0
12, 2400, Note_on_c, 9, 46, 100
12, 2640, Note_on_c, 9, 46, 0
12, 2640, Note_on_c, 9, 42, 100
12, 2760, Note_on_c, 9, 42, 0
12, 2760, Note_on_c, 9, 42, 100
12, 2880, Note_on_c, 9, 42, 0
12, 2880, Note_on_c, 9, 46, 100
12, 3120, Note_on_c, 9, 46, 0
12, 3120, Note_on_c, 9, 42, 100
12, 3240, Note_on_c, 9, 42, 0
12, 3240, Note_on_c, 9, 42, 100
12, 3360, Note_on_c, 9, 42, 0
12, 3360, Note_on_c, 9, 46, 100
12, 3600, Note_on_c, 9, 46, 0
12, 3600, Note_on_c, 9, 42, 100
12, 3720, Note_on_c, 9, 42, 0
12, 3720, Note_on_c, 9, 42, 100
12, 3840, Note_on_c, 9, 42, 0
12, 3840, Note_on_c, 9, 46, 100
12, 4080, Note_on_c, 9, 46, 0
12, 4080, Note_on_c, 9, 42, 100
12, 4200, Note_on_c, 9, 42, 0
12, 4200, Note_on_c, 9, 42, 100
12, 4320, Note_on_c, 9, 42, 0
12, 4320, Note_on_c, 9, 46, 100
12, 4560, Note_on_c, 9, 46, 0
12, 4560, Note_on_c, 9, 42, 100
12, 4680, Note_on_c, 9, 42, 0
12, 4680, Note_on_c, 9, 42, 100
12, 4800, Note_on_c, 9, 42, 0
12, 4800, Note_on_c, 9, 46, 100
12, 5040, Note_on_c, 9, 46, 0
12, 5040, Note_on_c, 9, 42, 100
12, 5160, Note_on_c, 9, 42, 0
12, 5160, Note_on_c, 9, 42, 100
12, 5280, Note_on_c, 9, 42, 0
12, 5280, Note_on_c, 9, 46, 100
12, 5520, Note_on_c, 9, 46, 0
12, 5520, Note_on_c, 9, 42, 100
12, 5640, Note_on_c, 9, 42, 0
12, 5640, Note_on_c, 9, 42, 100
12, 5760, Note_on_c, 9, 42, 0
12, 5760, Note_on_c, 9, 46, 100
12, 6000, Note_on_c, 9, 46, 0
12, 6000, Note_on_c, 9, 42, 100
12, 6120, Note_on_c, 9, 42, 0
12, 6120, Note_on_c, 9, 42, 100
12, 6240, Note_on_c, 9, 42, 0
12, 6240, Note_on_c, 9, 46, 100
12, 6480, Note_on_c, 9, 46, 0
12, 6480, Note_on_c, 9, 42, 100
12, 6600, Note_on_c, 9, 42, 0
12, 6600, Note_on_c, 9, 42, 100
12, 6720, Note_on_c, 9, 42, 0
12, 6720, Note_on_c, 9, 46, 100
12, 6960, Note_on_c, 9, 46, 0
12, 6960, Note_on_c, 9, 42, 100
12, 7080, Note_on_c, 9, 42, 0
12, 7080, Note_on_c, 9, 42, 100
12, 7200, Note_on_c, 9, 42, 0
12, 7200, Note_on_c, 9, 46, 100
12, 7440, Note_on_c, 9, 46, 0
12, 7440, Note_on_c, 9, 42, 100
12, 7560, Note_on_c, 9, 42, 0
12, 7560, Note_on_c, 9, 42, 100
12, 7680, Note_on_c, 9, 42, 0
12, 7680, Note_on_c, 9, 46, 100
12, 7920, Note_on_c, 9, 46, 0
12, 7920, Note_on_c, 9, 42, 100
12, 8040, Note_on_c, 9, 42, 0
12, 8040, Note_on_c, 9, 42, 100
12, 8160, Note_on_c, 9, 42, 0
12, 8160, Note_on_c, 9, 46, 100
12, 8400, Note_on_c, 9, 46, 0
12, 8400, Note_on_c, 9, 42, 100
12, 8520, Note_on_c, 9, 42, 0
12, 8520, Note_on_c, 9, 42, 100
12, 8640, Note_on_c, 9, 42, 0
12, 8640, Note_on_c, 9, 46, 100
12, 8880, Note_on_c, 9, 46, 0
12, 8880, Note_on_c, 9, 42, 100
12, 9000, Note_on_c, 9, 42, 0
12, 9000, Note_on_c, 9, 42, 100
12, 9120, Note_on_c, 9, 42, 0
12, 9120, Note_on_c, 9, 46, 100
12, 9360, Note_on_c, 9, 46, 0
12, 9360, Note_on_c, 9, 42, 100
12, 9480, Note_on_c, 9, 42, 0
12, 9480, Note_on_c, 9, 42, 100
12, 9600, Note_on_c, 9, 42, 0
12, 9600, Note_on_c, 9, 46, 100
12, 9840, Note_on_c, 9, 46, 0
12, 9840, Note_on_c, 9, 42, 100
12, 9960, Note_on_c, 9, 42, 0
12, 9960, Note_on_c, 9, 42, 100
12, 10080, Note_on_c, 9, 42, 0
12, 10080, Note_on_c, 9, 46, 100
12, 10320, Note_on_c, 9, 46, 0
12, 10320, Note_on_c, 9, 42, 100
12, 10440, Note_on_c, 9, 42, 0
12, 10440, Note_on_c, 9, 42, 100
12, 10560, Note_on_c, 9, 42, 0
12, 10560, Note_on_c, 9, 46, 100
12, 10800, Note_on_c, 9, 46, 0
12, 10800, Note_on_c, 9, 42, 100
12, 10920, Note_on_c, 9, 42, 0
12, 10920, Note_on_c, 9, 42, 100
12, 11040, Note_on_c, 9, 42, 0
12, 11040, Note_on_c, 9, 46, 100
12, 11280, Note_on_c, 9, 46, 0
12, 11280, Note_on_c, 9, 42, 100
12, 11400, Note_on_c, 9, 42, 0
12, 11400, Note_on_c, 9, 42, 100
12, 11520, Note_on_c, 9, 42, 0
12, 11520, Note_on_c, 9, 46, 100
12, 11760, Note_on_c, 9, 46, 0
12, 11760, Note_on_c, 9, 42, 100
12, 11880, Note_on_c, 9, 42, 0
12, 11880, Note_on_c, 9, 42, 100
12, 12000, Note_on_c, 9, 42, 0
12, 12000, Note_on_c, 9, 46, 100
12, 12240, Note_on_c, 9, 46, 0
12, 12240, Note_on_c, 9, 42, 100
12, 12360, Note_on_c, 9, 42, 0
12, 12360, Note_on_c, 9, 42, 100
12, 12480, Note_on_c, 9, 42, 0
12, 12480, Note_on_c, 9, 46, 100
12, 12720, Note_on_c, 9, 46, 0
12, 12720, Note_on_c, 9, 42, 100
12, 12840, Note_on_c, 9, 42, 0
12, 12840, Note_on_c, 9, 42, 100
12, 12960, Note_on_c, 9, 42, 0
12, 12960, Note_on_c, 9, 46, 100
12, 13200, Note_on_c, 9, 46, 0
12, 13200, Note_on_c, 9, 42, 100
12, 13320, Note_on_c, 9, 42, 0
12, 13320, Note_on_c, 9, 42, 100
12, 13440, Note_on_c, 9, 42, 0
12, 13440, Note_on_c, 9, 46, 100
12, 13680, Note_on_c, 9, 46, 0
12, 13680, Note_on_c, 9, 42, 100
12, 13800, Note_on_c, 9, 42, 0
12, 13800, Note_on_c, 9, 42, 100
12, 13920, Note_on_c, 9, 42, 0
12, 13920, Note_on_c, 9, 46, 100
12, 14160, Note_on_c, 9, 46, 0
12, 14160, Note_on_c, 9, 42, 100
12, 14280, Note_on_c, 9, 42, 0
12, 14280, Note_on_c, 9, 42, 100
12, 14400, Note_on_c, 9, 42, 0
12, 14400, Note_on_c, 9, 46, 100
12, 14640, Note_on_c, 9, 46, 0
12, 14640, Note_on_c, 9, 42, 100
12, 14760, Note_on_c, 9, 42, 0
12, 14760, Note_on_c, 9, 42, 100
12, 14880, Note_on_c, 9, 42, 0
12, 14880, Note_on_c, 9, 46, 100
12, 15120, Note_on_c, 9, 46, 0
12, 15120, Note_on_c, 9, 42, 100
12, 15240, Note_on_c, 9, 42, 0
12, 15240, Note_on_c, 9, 42, 100
12, 15360, Note_on_c, 9, 42, 0
12, 15360, Note_on_c, 9, 46, 100
12, 15600, Note_on_c, 9, 46, 0
12, 15600, Note_on_c, 9, 42, 100
12, 15720, Note_on_c, 9, 42, 0
12, 15720, Note_on_c, 9, 42, 100
12, 15840, Note_on_c, 9, 42, 0
12, 15840, Note_on_c, 9, 46, 100
12, 16080, Note_on_c, 9, 46, 0
12, 16080, Note_on_c, 9, 42, 100
12, 16200, Note_on_c, 9, 42, 0
12, 16200, Note_on_c, 9, 42, 100
12, 16320, Note_on_c, 9, 42, 0
12, 16320, Note_on_c, 9, 46, 100
12, 16560, Note_on_c, 9, 46, 0
12, 16560, Note_on_c, 9, 42, 100
12, 16680, Note_on_c, 9, 42, 0
12, 16680, Note_on_c, 9, 42, 100
12, 16800, Note_on_c, 9, 42, 0
12, 16800, Note_on_c, 9, 46, 100
12, 17040, Note_on_c, 9, 46, 0
12, 17040, Note_on_c, 9, 42, 100
12, 17160, Note_on_c, 9, 42, 0
12, 17160, Note_on_c, 9, 42, 100
12, 17280, Note_on_c, 9, 42, 0
12, 17280, Note_on_c, 9, 46, 100
12, 17520, Note_on_c, 9, 46, 0
12, 17520, Note_on_c, 9, 42, 100
12, 17640, Note_on_c, 9, 42, 0
12, 17640, Note_on_c, 9, 42, 100
12, 17760, Note_on_c, 9, 42, 0
12, 17760, Note_on_c, 9, 46, 100
12, 18000, Note_on_c, 9, 46, 0
12, 18000, Note_on_c, 9, 42, 100
12, 18120, Note_on_c, 9, 42, 0
12, 18120, Note_on_c, 9, 42, 100
12, 18240, Note_on_c, 9, 42, 0
12, 18240, Note_on_c, 9, 46, 100
12, 18480, Note_on_c, 9, 46, 0
12, 18480, Note_on_c, 9, 42, 100
12, 18600, Note_on_c, 9, 42, 0
12, 18600, Note_on_c, 9, 42, 100
12, 18720, Note_on_c, 9, 42, 0
12, 18720, Note_on_c, 9, 46, 100
12, 18960, Note_on_c, 9, 46, 0
12, 18960, Note_on_c, 9, 42, 100
12, 19080, Note_on_c, 9, 42, 0
12, 19080, Note_on_c, 9, 42, 100
12, 19200, Note_on_c, 9, 42, 0
12, 19200, Note_on_c, 9, 46, 100
12, 19440, Note_on_c, 9, 46, 0
12, 19440, Note_on_c, 9, 42, 100
12, 19560, Note_on_c, 9, 42, 0
12, 19560, Note_on_c, 9, 42, 100
12, 19680, Note_on_c, 9, 42, 0
12, 19680, Note_on_c, 9, 46, 100
12, 19920, Note_on_c, 9, 46, 0
12, 19920, Note_on_c, 9, 42, 100
12, 20040, Note_on_c, 9, 42, 0
12, 20040, Note_on_c, 9, 42, 100
12, 20160, Note_on_c, 9, 42, 0
12, 20160, Note_on_c, 9, 46, 100
12, 20400, Note_on_c, 9, 46, 0
12, 20400, Note_on_c, 9, 42, 100
12, 20520, Note_on_c, 9, 42, 0
12, 20520, Note_on_c, 9, 42, 100
12, 20640, Note_on_c, 9, 42, 0
12, 20640, Note_on_c, 9, 46, 100
12, 20880, Note_on_c, 9, 46, 0
12, 20880, Note_on_c, 9, 42, 100
12, 21000, Note_on_c, 9, 42, 0
12, 21000, Note_on_c, 9, 42, 100
12, 21120, Note_on_c, 9, 42, 0
12, 21120, Note_on_c, 9, 46, 100
12, 21360, Note_on_c, 9, 46, 0
12, 21360, Note_on_c, 9, 42, 100
12, 21480, Note_on_c, 9, 42, 0
12, 21480, Note_on_c, 9, 42, 100
12, 21600, Note_on_c, 9, 42, 0
12, 21600, Note_on_c, 9, 46, 100
12, 21840, Note_on_c, 9, 46, 0
12, 21840, Note_on_c, 9, 42, 100
12, 21960, Note_on_c, 9, 42, 0
12, 21960, Note_on_c, 9, 42, 100
12, 22080, Note_on_c, 9, 42, 0
12, 22080, Note_on_c, 9, 46, 100
12, 22320, Note_on_c, 9, 46, 0
12, 22320, Note_on_c, 9, 42, 100
12, 22440, Note_on_c, 9, 42, 0
12, 22440, Note_on_c, 9, 42, 100
12, 22560, Note_on_c, 9, 42, 0
12, 22560, Note_on_c, 9, 46, 100
12, 22800, Note_on_c, 9, 46, 0
12, 22800, Note_on_c, 9, 42, 100
12, 22920, Note_on_c, 9, 42, 0
12, 22920, Note_on_c, 9, 42, 100
12, 23040, Note_on_c, 9, 42, 0
12, 23040, Note_on_c, 9, 46, 100
12, 23280, Note_on_c, 9, 46, 0
12, 23280, Note_on_c, 9, 42, 100
12, 23400, Note_on_c, 9, 42, 0
12, 23400, Note_on_c, 9, 42, 100
12, 23520, Note_on_c, 9, 42, 0
12, 23520, Note_on_c, 9, 46, 100
12, 23760, Note_on_c, 9, 46, 0
12, 23760, Note_on_c, 9, 42, 100
12, 23880, Note_on_c, 9, 42, 0
12, 23880, Note_on_c, 9, 42, 100
12, 24000, Note_on_c, 9, 42, 0
12, 24000, Note_on_c, 9, 46, 100
12, 24240, Note_on_c, 9, 46, 0
12, 24240, Note_on_c, 9, 42, 100
12, 24360, Note_on_c, 9, 42, 0
12, 24360, Note_on_c, 9, 42, 100
12, 24480, Note_on_c, 9, 42, 0
12, 24480, Note_on_c, 9, 46, 100
12, 24720, Note_on_c, 9, 46, 0
12, 24720, Note_on_c, 9, 42, 100
12, 24840, Note_on_c, 9, 42, 0
12, 24840, Note_on_c, 9, 42, 100
12, 24960, Note_on_c, 9, 42, 0
12, 24960, Note_on_c, 9, 46, 100
12, 25200, Note_on_c, 9, 46, 0
12, 25200, Note_on_c, 9, 42, 100
12, 25320, Note_on_c, 9, 42, 0
12, 25320, Note_on_c, 9, 42, 100
12, 25440, Note_on_c, 9, 42, 0
12, 25440, Note_on_c, 9, 46, 100
12, 25680, Note_on_c, 9, 46, 0
12, 25680, Note_on_c, 9, 42, 100
12, 25800, Note_on_c, 9, 42, 0
12, 25800, Note_on_c, 9, 42, 100
12, 25920, Note_on_c, 9, 42, 0
12, 25920, Note_on_c, 9, 46, 100
12, 26160, Note_on_c, 9, 46, 0
12, 26160, Note_on_c, 9, 42, 100
12, 26280, Note_on_c, 9, 42, 0
12, 26280, Note_on_c, 9, 42, 100
12, 26400, Note_on_c, 9, 42, 0
12, 26400, Note_on_c, 9, 46, 100
12, 26640, Note_on_c, 9, 46, 0
12, 26640, Note_on_c, 9, 42, 100
12, 26760, Note_on_c, 9, 42, 0
12, 26760, Note_on_c, 9, 42, 100
12, 26880, Note_on_c, 9, 42, 0
12, 26880, Note_on_c, 9, 46, 100
12, 27120, Note_on_c, 9, 46, 0
12, 27120, Note_on_c, 9, 42, 100
12, 27240, Note_on_c, 9, 42, 0
12, 27240, Note_on_c, 9, 42, 100
12, 27360, Note_on_c, 9, 42, 0
12, 27360, Note_on_c, 9, 46, 100
12, 27600, Note_on_c, 9, 46, 0
12, 27600, Note_on_c, 9, 42, 100
12, 27720, Note_on_c, 9, 42, 0
12, 27720, Note_on_c, 9, 42, 100
12, 27840, Note_on_c, 9, 42, 0
12, 27840, Note_on_c, 9, 46, 100
12, 28080, Note_on_c, 9, 46, 0
12, 28080, Note_on_c, 9, 42, 100
12, 28200, Note_on_c, 9, 42, 0
12, 28200, Note_on_c, 9, 42, 100
12, 28320, Note_on_c, 9, 42, 0
12, 28320, Note_on_c, 9, 46, 100
12, 28560, Note_on_c, 9, 46, 0
12, 28560, Note_on_c, 9, 42, 100
12, 28680, Note_on_c, 9, 42, 0
12, 28680, Note_on_c, 9, 42, 100
12, 28800, Note_on_c, 9, 42, 0
12, 28800, Note_on_c, 9, 46, 100
12, 29040, Note_on_c, 9, 46, 0
12, 29040, Note_on_c, 9, 42, 100
12, 29160, Note_on_c, 9, 42, 0
12, 29160, Note_on_c, 9, 42, 100
12, 29280, Note_on_c, 9, 42, 0
12, 29280, Note_on_c, 9, 46, 100
12, 29520, Note_on_c, 9, 46, 0
12, 29520, Note_on_c, 9, 42, 100
12, 29640, Note_on_c, 9, 42, 0
12, 29640, Note_on_c, 9, 42, 100
12, 29760, Note_on_c, 9, 42, 0
12, 29760, Note_on_c, 9, 46, 100
12, 30000, Note_on_c, 9, 46, 0
12, 30000, Note_on_c, 9, 42, 100
12, 30120, Note_on_c, 9, 42, 0
12, 30120, Note_on_c, 9, 42, 100
12, 30240, Note_on_c, 9, 42, 0
12, 30240, Note_on_c, 9, 46, 100
12, 30480, Note_on_c, 9, 46, 0
12, 30480, Note_on_c, 9, 42, 100
12, 30600, Note_on_c, 9, 42, 0
12, 30600, Note_on_c, 9, 42, 100
12, 30720, Note_on_c, 9, 42, 0
12, 30720, Note_on_c, 9, 46, 100
12, 30960, Note_on_c, 9, 46, 0
12, 30960, Note_on_c, 9, 42, 100
12, 31080, Note_on_c, 9, 42, 0
12, 31080, Note_on_c, 9, 42, 100
12, 31200, Note_on_c, 9, 42, 0
12, 31200, Note_on_c, 9, 46, 100
12, 31440, Note_on_c, 9, 46, 0
12, 31440, Note_on_c, 9, 42, 100
12, 31560, Note_on_c, 9, 42, 0
12, 31560, Note_on_c, 9, 42, 100
12, 31680, Note_on_c, 9, 42, 0
12, 31680, Note_on_c, 9, 46, 100
12, 31920, Note_on_c, 9, 46, 0
12, 31920, Note_on_c, 9, 42, 100
12, 32040, Note_on_c, 9, 42, 0
12, 32040, Note_on_c, 9, 42, 100
12, 32160, Note_on_c, 9, 42, 0
12, 32160, Note_on_c, 9, 46, 100
12, 32400, Note_on_c, 9, 46, 0
12, 32400, Note_on_c, 9, 42, 100
12, 32520, Note_on_c, 9, 42, 0
12, 32520, Note_on_c, 9, 42, 100
12, 32640, Note_on_c, 9, 42, 0
12, 32640, Note_on_c, 9, 46, 100
12, 32880, Note_on_c, 9, 46, 0
12, 32880, Note_on_c, 9, 42, 100
12, 33000, Note_on_c, 9, 42, 0
12, 33000, Note_on_c, 9, 42, 100
12, 33120, Note_on_c, 9, 42, 0
12, 33120, Note_on_c, 9, 46, 100
12, 33360, Note_on_c, 9, 46, 0
12, 33360, Note_on_c, 9, 42, 100
12, 33480, Note_on_c, 9, 42, 0
12, 33480, Note_on_c, 9, 42, 100
12, 33600, Note_on_c, 9, 42, 0
12, 33600, Note_on_c, 9, 46, 100
12, 33840, Note_on_c, 9, 46, 0
12, 33840, Note_on_c, 9, 42, 100
12, 33960, Note_on_c, 9, 42, 0
12, 33960, Note_on_c, 9, 42, 100
12, 34080, Note_on_c, 9, 42, 0
12, 34080, Note_on_c, 9, 46, 100
12, 34320, Note_on_c, 9, 46, 0
12, 34320, Note_on_c, 9, 42, 100
12, 34440, Note_on_c, 9, 42, 0
12, 34440, Note_on_c, 9, 42, 100
12, 34560, Note_on_c, 9, 42, 0
12, 34560, Note_on_c, 9, 46, 100
12, 34800, Note_on_c, 9, 46, 0
12, 34800, Note_on_c, 9, 42, 100
12, 34920, Note_on_c, 9, 42, 0
12, 34920, Note_on_c, 9, 42, 100
12, 35040, Note_on_c, 9, 42, 0
12, 35040, Note_on_c, 9, 46, 100
12, 35280, Note_on_c, 9, 46, 0
12, 35280, Note_on_c, 9, 42, 100
12, 35400, Note_on_c, 9, 42, 0
12, 35400, Note_on_c, 9, 42, 100
12, 35520, Note_on_c, 9, 42, 0
12, 35520, Note_on_c, 9, 46, 100
12, 35760, Note_on_c, 9, 46, 0
12, 35760, Note_on_c, 9, 42, 100
12, 35880, Note_on_c, 9, 42, 0
12, 35880, Note_on_c, 9, 42, 100
12, 36000, Note_on_c, 9, 42, 0
12, 36000, Note_on_c, 9, 46, 100
12, 36240, Note_on_c, 9, 46, 0
12, 36240, Note_on_c, 9, 42, 100
12, 36360, Note_on_c, 9, 42, 0
12, 36360, Note_on_c, 9, 42, 100
12, 36480, Note_on_c, 9, 42, 0
12, 36480, Note_on_c, 9, 46, 100
12, 36720, Note_on_c, 9, 46, 0
12, 36720, Note_on_c, 9, 42, 100
12, 36840, Note_on_c, 9, 42, 0
12, 36840, Note_on_c, 9, 42, 100
12, 36960, Note_on_c, 9, 42, 0
12, 36960, Note_on_c, 9, 46, 100
12, 37200, Note_on_c, 9, 46, 0
12, 37200, Note_on_c, 9, 42, 100
12, 37320, Note_on_c, 9, 42, 0
12, 37320, Note_on_c, 9, 42, 100
12, 37440, Note_on_c, 9, 42, 0
12, 37440, Note_on_c, 9, 46, 100
12, 37680, Note_on_c, 9, 46, 0
12, 37680, Note_on_c, 9, 42, 100
12, 37800, Note_on_c, 9, 42, 0
12, 37800, Note_on_c, 9, 42, 100
12, 37920, Note_on_c, 9, 42, 0
12, 37920, Note_on_c, 9, 46, 100
12, 38160, Note_on_c, 9, 46, 0
12, 38160, Note_on_c, 9, 42, 100
12, 38280, Note_on_c, 9, 42, 0
12, 38280, Note_on_c, 9, 42, 100
12, 38400, Note_on_c, 9, 42, 0
12, 38400, Note_on_c, 9, 46, 100
12, 38640, Note_on_c, 9, 46, 0
12, 38640, Note_on_c, 9, 42, 100
12, 38760, Note_on_c, 9, 42, 0
12, 38760, Note_on_c, 9, 42, 100
12, 38880, Note_on_c, 9, 42, 0
12, 38880, Note_on_c, 9, 46, 100
12, 39120, Note_on_c, 9, 46, 0
12, 39120, Note_on_c, 9, 42, 100
12, 39240, Note_on_c, 9, 42, 0
12, 39240, Note_on_c, 9, 42, 100
12, 39360, Note_on_c, 9, 42, 0
12, 39360, Note_on_c, 9, 46, 100
12, 39600, Note_on_c, 9, 46, 0
12, 39600, Note_on_c, 9, 42, 100
12, 39720, Note_on_c, 9, 42, 0
12, 39720, Note_on_c, 9, 42, 100
12, 39840, Note_on_c, 9, 42, 0
12, 39840, Note_on_c, 9, 46, 100
12, 40080, Note_on_c, 9, 46, 0
12, 40080, Note_on_c, 9, 42, 100
12, 40200, Note_on_c, 9, 42, 0
12, 40200, Note_on_c, 9, 42, 100
12, 40320, Note_on_c, 9, 42, 0
12, 40320, Note_on_c, 9, 46, 100
12, 40560, Note_on_c, 9, 46, 0
12, 40560, Note_on_c, 9, 42, 100
12, 40680, Note_on_c, 9, 42, 0
12, 40680, Note_on_c, 9, 42, 100
12, 40800, Note_on_c, 9, 42, 0
12, 40800, Note_on_c, 9, 46, 100
12, 41040, Note_on_c, 9, 46, 0
12, 41040, Note_on_c, 9, 42, 100
12, 41160, Note_on_c, 9, 42, 0
12, 41160, Note_on_c, 9, 42, 100
12, 41280, Note_on_c, 9, 42, 0
12, 41280, Note_on_c, 9, 46, 100
12, 41520, Note_on_c, 9, 46, 0
12, 41520, Note_on_c, 9, 42, 100
12, 41640, Note_on_c, 9, 42, 0
12, 41640, Note_on_c, 9, 42, 100
12, 41760, Note_on_c, 9, 42, 0
12, 41760, Note_on_c, 9, 46, 100
12, 42000, Note_on_c, 9, 46, 0
12, 42000, Note_on_c, 9, 42, 100
12, 42120, Note_on_c, 9, 42, 0
12, 42120, Note_on_c, 9, 42, 100
12, 42240, Note_on_c, 9, 42, 0
12, 42240, Note_on_c, 9, 46, 100
12, 42480, Note_on_c, 9, 46, 0
12, 42480, Note_on_c, 9, 42, 100
12, 42600, Note_on_c, 9, 42, 0
12, 42600, Note_on_c, 9, 42, 100
12, 42720, Note_on_c, 9, 42, 0
12, 42720, Note_on_c, 9, 46, 100
12, 42960, Note_on_c, 9, 46, 0
12, 42960, Note_on_c, 9, 42, 100
12, 43080, Note_on_c, 9, 42, 0
12, 43080, Note_on_c, 9, 42, 100
12, 43200, Note_on_c, 9, 42, 0
12, 43200, Note_on_c, 9, 46, 100
12, 43440, Note_on_c, 9, 46, 0
12, 43440, Note_on_c, 9, 42, 100
12, 43560, Note_on_c, 9, 42, 0
12, 43560, Note_on_c, 9, 42, 100
12, 43680, Note_on_c, 9, 42, 0
12, 43680, Note_on_c, 9, 46, 100
12, 43920, Note_on_c, 9, 46, 0
12, 43920, Note_on_c, 9, 42, 100
12, 44040, Note_on_c, 9, 42, 0
12, 44040, Note_on_c, 9, 42, 100
12, 44160, Note_on_c, 9, 42, 0
12, 44160, Note_on_c, 9, 46, 100
12, 44400, Note_on_c, 9, 46, 0
12, 44400, Note_on_c, 9, 42, 100
12, 44520, Note_on_c, 9, 42, 0
12, 44520, Note_on_c, 9, 42, 100
12, 44640, Note_on_c, 9, 42, 0
12, 44640, Note_on_c, 9, 46, 100
12, 44880, Note_on_c, 9, 46, 0
12, 44880, Note_on_c, 9, 42, 100
12, 45000, Note_on_c, 9, 42, 0
12, 45000, Note_on_c, 9, 42, 100
12, 45120, Note_on_c, 9, 42, 0
12, 45120, Note_on_c, 9, 46, 100
12, 45360, Note_on_c, 9, 46, 0
12, 45360, Note_on_c, 9, 42, 100
12, 45480, Note_on_c, 9, 42, 0
12, 45480, Note_on_c, 9, 42, 100
12, 45600, Note_on_c, 9, 42, 0
12, 45600, Note_on_c, 9, 46, 100
12, 45840, Note_on_c, 9, 46, 0
12, 45840, Note_on_c, 9, 42, 100
12, 45960, Note_on_c, 9, 42, 0
12, 45960, Note_on_c, 9, 42, 100
12, 46080, Note_on_c, 9, 42, 0
12, 46080, Note_on_c, 9, 46, 100
12, 46320, Note_on_c, 9, 46, 0
12, 46320, Note_on_c, 9, 42, 100
12, 46440, Note_on_c, 9, 42, 0
12, 46440, Note_on_c, 9, 42, 100
12, 46560, Note_on_c, 9, 42, 0
12, 46560, Note_on_c, 9, 46, 100
12, 46800, Note_on_c, 9, 46, 0
12, 46800, Note_on_c, 9, 42, 100
12, 46920, Note_on_c, 9, 42, 0
12, 46920, Note_on_c, 9, 42, 100
12, 47040, Note_on_c, 9, 42, 0
12, 47040, Note_on_c, 9, 46, 100
12, 47280, Note_on_c, 9, 46, 0
12, 47280, Note_on_c, 9, 42, 100
12, 47400, Note_on_c, 9, 42, 0
12, 47400, Note_on_c, 9, 42, 100
12, 47520, Note_on_c, 9, 42, 0
12, 47520, Note_on_c, 9, 46, 100
12, 47760, Note_on_c, 9, 46, 0
12, 47760, Note_on_c, 9, 42, 100
12, 47880, Note_on_c, 9, 42, 0
12, 47880, Note_on_c, 9, 42, 100
12, 48000, Note_on_c, 9, 42, 0
12, 48000, Note_on_c, 9, 46, 100
12, 48240, Note_on_c, 9, 46, 0
12, 48240, Note_on_c, 9, 42, 100
12, 48360, Note_on_c, 9, 42, 0
12, 48360, Note_on_c, 9, 42, 100
12, 48480, Note_on_c, 9, 42, 0
12, 48480, Note_on_c, 9, 46, 100
12, 48720, Note_on_c, 9, 46, 0
12, 48720, Note_on_c, 9, 42, 100
12, 48840, Note_on_c, 9, 42, 0
12, 48840, Note_on_c, 9, 42, 100
12, 48960, Note_on_c, 9, 42, 0
12, 48960, Note_on_c, 9, 46, 100
12, 49200, Note_on_c, 9, 46, 0
12, 49200, Note_on_c, 9, 42, 100
12, 49320, Note_on_c, 9, 42, 0
12, 49320, Note_on_c, 9, 42, 100
12, 49440, Note_on_c, 9, 42, 0
12, 49440, Note_on_c, 9, 46, 100
12, 49680, Note_on_c, 9, 46, 0
12, 49680, Note_on_c, 9, 42, 100
12, 49800, Note_on_c, 9, 42, 0
12, 49800, Note_on_c, 9, 42, 100
12, 49920, Note_on_c, 9, 42, 0
12, 49920, Note_on_c, 9, 46, 100
12, 50160, Note_on_c, 9, 46, 0
12, 50160, Note_on_c, 9, 42, 100
12, 50280, Note_on_c, 9, 42, 0
12, 50280, Note_on_c, 9, 42, 100
12, 50400, Note_on_c, 9, 42, 0
12, 50400, Note_on_c, 9, 46, 100
12, 50640, Note_on_c, 9, 46, 0
12, 50640, Note_on_c, 9, 42, 100
12, 50760, Note_on_c, 9, 42, 0
12, 50760, Note_on_c, 9, 42, 100
12, 50880, Note_on_c, 9, 42, 0
12, 50880, Note_on_c, 9, 46, 100
12, 51120, Note_on_c, 9, 46, 0
12, 51120, Note_on_c, 9, 42, 100
12, 51240, Note_on_c, 9, 42, 0
12, 51240, Note_on_c, 9, 42, 100
12, 51360, Note_on_c, 9, 42, 0
12, 51360, Note_on_c, 9, 46, 100
12, 51600, Note_on_c, 9, 46, 0
12, 51600, Note_on_c, 9, 42, 100
12, 51720, Note_on_c, 9, 42, 0
12, 51720, Note_on_c, 9, 42, 100
12, 51840, Note_on_c, 9, 42, 0
12, 51840, Note_on_c, 9, 46, 100
12, 52080, Note_on_c, 9, 46, 0
12, 52080, Note_on_c, 9, 42, 100
12, 52200, Note_on_c, 9, 42, 0
12, 52200, Note_on_c, 9, 42, 100
12, 52320, Note_on_c, 9, 42, 0
12, 52320, Note_on_c, 9, 46, 100
12, 52560, Note_on_c, 9, 46, 0
12, 52560, Note_on_c, 9, 42, 100
12, 52680, Note_on_c, 9, 42, 0
12, 52680, Note_on_c, 9, 42, 100
12, 52800, Note_on_c, 9, 42, 0
12, 52800, Note_on_c, 9, 46, 100
12, 53040, Note_on_c, 9, 46, 0
12, 53040, Note_on_c, 9, 42, 100
12, 53160, Note_on_c, 9, 42, 0
12, 53160, Note_on_c, 9, 42, 100
12, 53280, Note_on_c, 9, 42, 0
12, 53280, Note_on_c, 9, 46, 100
12, 53520, Note_on_c, 9, 46, 0
12, 53520, Note_on_c, 9, 42, 100
12, 53640, Note_on_c, 9, 42, 0
12, 53640, Note_on_c, 9, 42, 100
12, 53760, Note_on_c, 9, 42, 0
12, 53760, Note_on_c, 9, 46, 100
12, 54000, Note_on_c, 9, 46, 0
12, 54000, Note_on_c, 9, 42, 100
12, 54120, Note_on_c, 9, 42, 0
12, 54120, Note_on_c, 9, 42, 100
12, 54240, Note_on_c, 9, 42, 0
12, 54240, Note_on_c, 9, 46, 100
12, 54480, Note_on_c, 9, 46, 0
12, 54480, Note_on_c, 9, 42, 100
12, 54600, Note_on_c, 9, 42, 0
12, 54600, Note_on_c, 9, 42, 100
12, 54720, Note_on_c, 9, 42, 0
12, 54720, Note_on_c, 9, 46, 100
12, 54960, Note_on_c, 9, 46, 0
12, 54960, Note_on_c, 9, 42, 100
12, 55080, Note_on_c, 9, 42, 0
12, 55080, Note_on_c, 9, 42, 100
12, 55200, Note_on_c, 9, 42, 0
12, 55200, Note_on_c, 9, 46, 100
12, 55440, Note_on_c, 9, 46, 0
12, 55440, Note_on_c, 9, 42, 100
12, 55560, Note_on_c, 9, 42, 0
12, 55560, Note_on_c, 9, 42, 100
12, 55680, Note_on_c, 9, 42, 0
12, 55680, Note_on_c, 9, 46, 100
12, 55920, Note_on_c, 9, 46, 0
12, 55920, Note_on_c, 9, 42, 100
12, 56040, Note_on_c, 9, 42, 0
12, 56040, Note_on_c, 9, 42, 100
12, 56160, Note_on_c, 9, 42, 0
12, 56160, Note_on_c, 9, 46, 100
12, 56400, Note_on_c, 9, 46, 0
12, 56400, Note_on_c, 9, 42, 100
12, 56520, Note_on_c, 9, 42, 0
12, 56520, Note_on_c, 9, 42, 100
12, 56640, Note_on_c, 9, 42, 0
12, 56640, Note_on_c, 9, 46, 100
12, 56880, Note_on_c, 9, 46, 0
12, 56880, Note_on_c, 9, 42, 100
12, 57000, Note_on_c, 9, 42, 0
12, 57000, Note_on_c, 9, 42, 100
12, 57120, Note_on_c, 9, 42, 0
12, 57120, Note_on_c, 9, 46, 100
12, 57360, Note_on_c, 9, 46, 0
12, 57360, Note_on_c, 9, 42, 100
12, 57480, Note_on_c, 9, 42, 0
12, 57480, Note_on_c, 9, 42, 100
12, 57600, Note_on_c, 9, 42, 0
12, 57600, Note_on_c, 9, 46, 100
12, 57840, Note_on_c, 9, 46, 0
12, 57840, Note_on_c, 9, 42, 100
12, 57960, Note_on_c, 9, 42, 0
12, 57960, Note_on_c, 9, 42, 100
12, 58080, Note_on_c, 9, 42, 0
12, 58080, Note_on_c, 9, 46, 100
12, 58320, Note_on_c, 9, 46, 0
12, 58320, Note_on_c, 9, 42, 100
12, 58440, Note_on_c, 9, 42, 0
12, 58440, Note_on_c, 9, 42, 100
12, 58560, Note_on_c, 9, 42, 0
12, 58560, Note_on_c, 9, 46, 100
12, 58800, Note_on_c, 9, 46, 0
12, 58800, Note_on_c, 9, 42, 100
12, 58920, Note_on_c, 9, 42, 0
12, 58920, Note_on_c, 9, 42, 100
12, 59040, Note_on_c, 9, 42, 0
12, 59040, Note_on_c, 9, 46, 100
12, 59280, Note_on_c, 9, 46, 0
12, 59280, Note_on_c, 9, 42, 100
12, 59400, Note_on_c, 9, 42, 0
12, 59400, Note_on_c, 9, 42, 100
12, 59520, Note_on_c, 9, 42, 0
12, 59520, Note_on_c, 9, 46, 100
12, 59760, Note_on_c, 9, 46, 0
12, 59760, Note_on_c, 9, 42, 100
12, 59880, Note_on_c, 9, 42, 0
12, 59880, Note_on_c, 9, 42, 100
12, 60000, Note_on_c, 9, 42, 0
12, 60000, Note_on_c, 9, 46, 100
12, 60240, Note_on_c, 9, 46, 0
12, 60240, Note_on_c, 9, 42, 100
12, 60360, Note_on_c, 9, 42, 0
12, 60360, Note_on_c, 9, 42, 100
12, 60480, Note_on_c, 9, 42, 0
12, 60480, Note_on_c, 9, 46, 100
12, 60720, Note_on_c, 9, 46, 0
12, 60720, Note_on_c, 9, 42, 100
12, 60840, Note_on_c, 9, 42, 0
12, 60840, Note_on_c, 9, 42, 100
12, 60960, Note_on_c, 9, 42, 0
12, 60960, Note_on_c, 9, 46, 100
12, 61200, Note_on_c, 9, 46, 0
12, 61200, Note_on_c, 9, 42, 100
12, 61320, Note_on_c, 9, 42, 0
12, 61320, Note_on_c, 9, 42, 100
12, 61440, Note_on_c, 9, 42, 0
12, 61440, Note_on_c, 9, 46, 100
12, 61680, Note_on_c, 9, 46, 0
12, 61680, Note_on_c, 9, 42, 100
12, 61800, Note_on_c, 9, 42, 0
12, 61800, Note_on_c, 9, 42, 100
12, 61920, Note_on_c, 9, 42, 0
12, 61920, Note_on_c, 9, 46, 100
12, 62160, Note_on_c, 9, 46, 0
12, 62160, Note_on_c, 9, 42, 100
12, 62280, Note_on_c, 9, 42, 0
12, 62280, Note_on_c, 9, 42, 100
12, 62400, Note_on_c, 9, 42, 0
12, 62400, Note_on_c, 9, 46, 100
12, 62640, Note_on_c, 9, 46, 0
12, 62640, Note_on_c, 9, 42, 100
12, 62760, Note_on_c, 9, 42, 0
12, 62760, Note_on_c, 9, 42, 100
12, 62880, Note_on_c, 9, 42, 0
12, 62880, Note_on_c, 9, 46, 100
12, 63120, Note_on_c, 9, 46, 0
12, 63120, Note_on_c, 9, 42, 100
12, 63240, Note_on_c, 9, 42, 0
12, 63240, Note_on_c, 9, 42, 100
12, 63360, Note_on_c, 9, 42, 0
12, 63360, Note_on_c, 9, 46, 100
12, 63600, Note_on_c, 9, 46, 0
12, 63600, Note_on_c, 9, 42, 100
12, 63720, Note_on_c, 9, 42, 0
12, 63720, Note_on_c, 9, 42, 100
12, 63840, Note_on_c, 9, 42, 0
12, 63840, Note_on_c, 9, 46, 100
12, 64080, Note_on_c, 9, 46, 0
12, 64080, Note_on_c, 9, 42, 100
12, 64200, Note_on_c, 9, 42, 0
12, 64200, Note_on_c, 9, 42, 100
12, 64320, Note_on_c, 9, 42, 0
12, 64320, Note_on_c, 9, 46, 100
12, 64560, Note_on_c, 9, 46, 0
12, 64560, Note_on_c, 9, 42, 100
12, 64680, Note_on_c, 9, 42, 0
12, 64680, Note_on_c, 9, 42, 100
12, 64800, Note_on_c, 9, 42, 0
12, 64800, Note_on_c, 9, 46, 100
12, 65040, Note_on_c, 9, 46, 0
12, 65040, Note_on_c, 9, 42, 100
12, 65160, Note_on_c, 9, 42, 0
12, 65160, Note_on_c, 9, 42, 100
12, 65280, Note_on_c, 9, 42, 0
12, 65280, Note_on_c, 9, 46, 100
12, 65520, Note_on_c, 9, 46, 0
12, 65520, Note_on_c, 9, 42, 100
12, 65640, Note_on_c, 9, 42, 0
12, 65640, Note_on_c, 9, 42, 100
12, 65760, Note_on_c, 9, 42, 0
12, 65760, Note_on_c, 9, 46, 100
12, 66000, Note_on_c, 9, 46, 0
12, 66000, Note_on_c, 9, 42, 100
12, 66120, Note_on_c, 9, 42, 0
12, 66120, Note_on_c, 9, 42, 100
12, 66240, Note_on_c, 9, 42, 0
12, 66240, Note_on_c, 9, 46, 100
12, 66480, Note_on_c, 9, 46, 0
12, 66480, Note_on_c, 9, 42, 100
12, 66600, Note_on_c, 9, 42, 0
12, 66600, Note_on_c, 9, 42, 100
12, 66720, Note_on_c, 9, 42, 0
12, 66720, Note_on_c, 9, 46, 100
12, 66960, Note_on_c, 9, 46, 0
12, 66960, Note_on_c, 9, 42, 100
12, 67080, Note_on_c, 9, 42, 0
12, 67080, Note_on_c, 9, 42, 100
12, 67200, Note_on_c, 9, 42, 0
12, 67200, Note_on_c, 9, 46, 100
12, 67440, Note_on_c, 9, 46, 0
12, 67440, Note_on_c, 9, 42, 100
12, 67560, Note_on_c, 9, 42, 0
12, 67560, Note_on_c, 9, 42, 100
12, 67680, Note_on_c, 9, 42, 0
12, 67680, Note_on_c, 9, 46, 100
12, 67920, Note_on_c, 9, 46, 0
12, 67920, Note_on_c, 9, 42, 100
12, 68040, Note_on_c, 9, 42, 0
12, 68040, Note_on_c, 9, 42, 100
12, 68160, Note_on_c, 9, 42, 0
12, 68160, Note_on_c, 9, 46, 100
12, 68400, Note_on_c, 9, 46, 0
12, 68400, Note_on_c, 9, 42, 100
12, 68520, Note_on_c, 9, 42, 0
12, 68520, Note_on_c, 9, 42, 100
12, 68640, Note_on_c, 9, 42, 0
12, 68640, Note_on_c, 9, 46, 100
12, 68880, Note_on_c, 9, 46, 0
12, 68880, Note_on_c, 9, 42, 100
12, 69000, Note_on_c, 9, 42, 0
12, 69000, Note_on_c, 9, 42, 100
12, 69120, Note_on_c, 9, 42, 0
12, 69120, Note_on_c, 9, 46, 100
12, 69360, Note_on_c, 9, 46, 0
12, 69360, Note_on_c, 9, 42, 100
12, 69480, Note_on_c, 9, 42, 0
12, 69480, Note_on_c, 9, 42, 100
12, 69600, Note_on_c, 9, 42, 0
12, 69600, Note_on_c, 9, 46, 100
12, 69840, Note_on_c, 9, 46, 0
12, 69840, Note_on_c, 9, 42, 100
12, 69960, Note_on_c, 9, 42, 0
12, 69960, Note_on_c, 9, 42, 100
12, 70080, Note_on_c, 9, 42, 0
12, 70080, Note_on_c, 9, 46, 100
12, 70320, Note_on_c, 9, 46, 0
12, 70320, Note_on_c, 9, 42, 100
12, 70440, Note_on_c, 9, 42, 0
12, 70440, Note_on_c, 9, 42, 100
12, 70560, Note_on_c, 9, 42, 0
12, 70560, Note_on_c, 9, 46, 100
12, 70800, Note_on_c, 9, 46, 0
12, 70800, Note_on_c, 9, 42, 100
12, 70920, Note_on_c, 9, 42, 0
12, 70920, Note_on_c, 9, 42, 100
12, 71040, Note_on_c, 9, 42, 0
12, 71040, Note_on_c, 9, 46, 100
12, 71280, Note_on_c, 9, 46, 0
12, 71280, Note_on_c, 9, 42, 100
12, 71400, Note_on_c, 9, 42, 0
12, 71400, Note_on_c, 9, 42, 100
12, 71520, Note_on_c, 9, 42, 0
12, 71520, Note_on_c, 9, 46, 100
12, 71760, Note_on_c, 9, 46, 0
12, 71760, Note_on_c, 9, 42, 100
12, 71880, Note_on_c, 9, 42, 0
12, 71880, Note_on_c, 9, 42, 100
12, 72000, Note_on_c, 9, 42, 0
12, 72000, Note_on_c, 9, 46, 100
12, 72240, Note_on_c, 9, 46, 0
12, 72240, Note_on_c, 9, 42, 100
12, 72360, Note_on_c, 9, 42, 0
12, 72360, Note_on_c, 9, 42, 100
12, 72480, Note_on_c, 9, 42, 0
12, 72480, Note_on_c, 9, 46, 100
12, 72720, Note_on_c, 9, 46, 0
12, 72720, Note_on_c, 9, 42, 100
12, 72840, Note_on_c, 9, 42, 0
12, 72840, Note_on_c, 9, 42, 100
12, 72960, Note_on_c, 9, 42, 0
12, 72960, Note_on_c, 9, 46, 100
12, 73200, Note_on_c, 9, 46, 0
12, 73200, Note_on_c, 9, 42, 100
12, 73320, Note_on_c, 9, 42, 0
12, 73320, Note_on_c, 9, 42, 100
12, 73440, Note_on_c, 9, 42, 0
12, 73440, Note_on_c, 9, 46, 100
12, 73680, Note_on_c, 9, 46, 0
12, 73680, Note_on_c, 9, 42, 100
12, 73800, Note_on_c, 9, 42, 0
12, 73800, Note_on_c, 9, 42, 100
12, 73920, Note_on_c, 9, 42, 0
12, 73920, Note_on_c, 9, 46, 100
12, 74160, Note_on_c, 9, 46, 0
12, 74160, Note_on_c, 9, 42, 100
12, 74280, Note_on_c, 9, 42, 0
12, 74280, Note_on_c, 9, 42, 100
12, 74400, Note_on_c, 9, 42, 0
12, 74400, Note_on_c, 9, 46, 100
12, 74640, Note_on_c, 9, 46, 0
12, 74640, Note_on_c, 9, 42, 100
12, 74760, Note_on_c, 9, 42, 0
12, 74760, Note_on_c, 9, 42, 100
12, 74880, Note_on_c, 9, 42, 0
12, 74880, Note_on_c, 9, 46, 100
12, 75120, Note_on_c, 9, 46, 0
12, 75120, Note_on_c, 9, 42, 100
12, 75240, Note_on_c, 9, 42, 0
12, 75240, Note_on_c, 9, 42, 100
12, 75360, Note_on_c, 9, 42, 0
12, 75360, Note_on_c, 9, 46, 100
12, 75600, Note_on_c, 9, 46, 0
12, 75600, Note_on_c, 9, 42, 100
12, 75720, Note_on_c, 9, 42, 0
12, 75720, Note_on_c, 9, 42, 100
12, 75840, Note_on_c, 9, 42, 0
12, 75840, Note_on_c, 9, 46, 100
12, 76080, Note_on_c, 9, 46, 0
12, 76080, Note_on_c, 9, 42, 100
12, 76200, Note_on_c, 9, 42, 0
12, 76200, Note_on_c, 9, 42, 100
12, 76320, Note_on_c, 9, 42, 0
12, 76320, Note_on_c, 9, 46, 100
12, 76560, Note_on_c, 9, 46, 0
12, 76560, Note_on_c, 9, 42, 100
12, 76680, Note_on_c, 9, 42, 0
12, 76680, Note_on_c, 9, 42, 100
12, 76800, Note_on_c, 9, 42, 0
12, 76800, Note_on_c, 9, 46, 100
12, 77040, Note_on_c, 9, 46, 0
12, 77040, Note_on_c, 9, 42, 100
12, 77160, Note_on_c, 9, 42, 0
12, 77160, Note_on_c, 9, 42, 100
12, 77280, Note_on_c, 9, 42, 0
12, 77280, Note_on_c, 9, 46, 100
12, 77520, Note_on_c, 9, 46, 0
12, 77520, Note_on_c, 9, 42, 100
12, 77640, Note_on_c, 9, 42, 0
12, 77640, Note_on_c, 9, 42, 100
12, 77760, Note_on_c, 9, 42, 0
12, 77760, Note_on_c, 9, 46, 100
12, 78000, Note_on_c, 9, 46, 0
12, 78000, Note_on_c, 9, 42, 100
12, 78120, Note_on_c, 9, 42, 0
12, 78120, Note_on_c, 9, 42, 100
12, 78240, Note_on_c, 9, 42, 0
12, 78240, Note_on_c, 9, 46, 100
12, 78480, Note_on_c, 9, 46, 0
12, 78480, Note_on_c, 9, 42, 100
12, 78600, Note_on_c, 9, 42, 0
12, 78600, Note_on_c, 9, 42, 100
12, 78720, Note_on_c, 9, 42, 0
12, 78720, Note_on_c, 9, 46, 100
12, 78960, Note_on_c, 9, 46, 0
12, 78960, Note_on_c, 9, 42, 100
12, 79080, Note_on_c, 9, 42, 0
12, 79080, Note_on_c, 9, 42, 100
12, 79200, Note_on_c, 9, 42, 0
12, 79200, Note_on_c, 9, 46, 100
12, 79440, Note_on_c, 9, 46, 0
12, 79440, Note_on_c, 9, 42, 100
12, 79560, Note_on_c, 9, 42, 0
12, 79560, Note_on_c, 9, 42, 100
12, 79680, Note_on_c, 9, 42, 0
12, 79680, Note_on_c, 9, 46, 100
12, 79920, Note_on_c, 9, 46, 0
12, 79920, Note_on_c, 9, 42, 100
12, 80040, Note_on_c, 9, 42, 0
12, 80040, Note_on_c, 9, 42, 100
12, 80160, Note_on_c, 9, 42, 0
12, 80160, Note_on_c, 9, 46, 100
12, 80400, Note_on_c, 9, 46, 0
12, 80400, Note_on_c, 9, 42, 100
12, 80520, Note_on_c, 9, 42, 0
12, 80520, Note_on_c, 9, 42, 100
12, 80640, Note_on_c, 9, 42, 0
12, 80640, Note_on_c, 9, 46, 100
12, 80880, Note_on_c, 9, 46, 0
12, 80880, Note_on_c, 9, 42, 100
12, 81000, Note_on_c, 9, 42, 0
12, 81000, Note_on_c, 9, 42, 100
12, 81120, Note_on_c, 9, 42, 0
12, 81120, Note_on_c, 9, 46, 100
12, 81360, Note_on_c, 9, 46, 0
12, 81360, Note_on_c, 9, 42, 100
12, 81480, Note_on_c, 9, 42, 0
12, 81480, Note_on_c, 9, 42, 100
12, 81600, Note_on_c, 9, 42, 0
12, 81600, Note_on_c, 9, 46, 100
12, 81840, Note_on_c, 9, 46, 0
12, 81840, Note_on_c, 9, 42, 100
12, 81960, Note_on_c, 9, 42, 0
12, 81960, Note_on_c, 9, 42, 100
12, 82080, Note_on_c, 9, 42, 0
12, 82080, Note_on_c, 9, 46, 100
12, 82320, Note_on_c, 9, 46, 0
12, 82320, Note_on_c, 9, 42, 100
12, 82440, Note_on_c, 9, 42, 0
12, 82440, Note_on_c, 9, 42, 100
12, 82560, Note_on_c, 9, 42, 0
12, 82560, Note_on_c, 9, 46, 100
12, 82800, Note_on_c, 9, 46, 0
12, 82800, Note_on_c, 9, 42, 100
12, 82920, Note_on_c, 9, 42, 0
12, 82920, Note_on_c, 9, 42, 100
12, 83040, Note_on_c, 9, 42, 0
12, 83040, Note_on_c, 9, 46, 100
12, 83280, Note_on_c, 9, 46, 0
12, 83280, Note_on_c, 9, 42, 100
12, 83400, Note_on_c, 9, 42, 0
12, 83400, Note_on_c, 9, 42, 100
12, 83520, Note_on_c, 9, 42, 0
12, 83520, Note_on_c, 9, 46, 100
12, 83760, Note_on_c, 9, 46, 0
12, 83760, Note_on_c, 9, 42, 100
12, 83880, Note_on_c, 9, 42, 0
12, 83880, Note_on_c, 9, 42, 100
12, 84000, Note_on_c, 9, 42, 0
12, 84000, Note_on_c, 9, 46, 100
12, 84240, Note_on_c, 9, 46, 0
12, 84240, Note_on_c, 9, 42, 100
12, 84360, Note_on_c, 9, 42, 0
12, 84360, Note_on_c, 9, 42, 100
12, 84480, Note_on_c, 9, 42, 0
12, 84480, Note_on_c, 9, 42, 100
12, 84720, Note_on_c, 9, 42, 0
12, 84720, Note_on_c, 9, 46, 100
12, 84960, Note_on_c, 9, 46, 0
12, 84960, Note_on_c, 9, 42, 100
12, 85200, Note_on_c, 9, 42, 0
12, 85200, Note_on_c, 9, 42, 100
12, 85440, Note_on_c, 9, 42, 0
12, 85440, Note_on_c, 9, 46, 100
12, 85680, Note_on_c, 9, 46, 0
12, 85680, Note_on_c, 9, 42, 100
12, 85920, Note_on_c, 9, 42, 0
12, 85920, Note_on_c, 9, 42, 100
12, 86160, Note_on_c, 9, 42, 0
12, 86160, Note_on_c, 9, 46, 100
12, 86400, Note_on_c, 9, 46, 0
12, 86400, Note_on_c, 9, 42, 100
12, 86640, Note_on_c, 9, 42, 0
12, 86640, Note_on_c, 9, 42, 100
12, 86880, Note_on_c, 9, 42, 0
12, 86880, Note_on_c, 9, 46, 100
12, 87120, Note_on_c, 9, 46, 0
12, 87120, Note_on_c, 9, 42, 100
12, 87360, Note_on_c, 9, 42, 0
12, 87360, Note_on_c, 9, 42, 100
12, 87600, Note_on_c, 9, 42, 0
12, 87600, Note_on_c, 9, 46, 100
12, 87840, Note_on_c, 9, 46, 0
12, 87840, Note_on_c, 9, 42, 100
12, 88080, Note_on_c, 9, 42, 0
12, 88080, Note_on_c, 9, 42, 100
12, 88320, Note_on_c, 9, 42, 0
12, 88320, Note_on_c, 9, 42, 100
12, 88560, Note_on_c, 9, 42, 0
12, 88560, Note_on_c, 9, 46, 100
12, 88800, Note_on_c, 9, 46, 0
12, 88800, Note_on_c, 9, 42, 100
12, 89040, Note_on_c, 9, 42, 0
12, 89040, Note_on_c, 9, 42, 100
12, 89280, Note_on_c, 9, 42, 0
12, 89280, Note_on_c, 9, 46, 100
12, 89520, Note_on_c, 9, 46, 0
12, 89520, Note_on_c, 9, 42, 100
12, 89760, Note_on_c, 9, 42, 0
12, 89760, Note_on_c, 9, 42, 100
12, 90000, Note_on_c, 9, 42, 0
12, 90000, Note_on_c, 9, 46, 100
12, 90240, Note_on_c, 9, 46, 0
12, 90240, Note_on_c, 9, 42, 100
12, 90480, Note_on_c, 9, 42, 0
12, 90480, Note_on_c, 9, 42, 100
12, 90720, Note_on_c, 9, 42, 0
12, 90720, Note_on_c, 9, 46, 100
12, 90960, Note_on_c, 9, 46, 0
12, 90960, Note_on_c, 9, 42, 100
12, 91200, Note_on_c, 9, 42, 0
12, 91200, Note_on_c, 9, 42, 100
12, 91440, Note_on_c, 9, 42, 0
12, 91440, Note_on_c, 9, 46, 100
12, 91680, Note_on_c, 9, 46, 0
12, 91680, Note_on_c, 9, 42, 100
12, 91920, Note_on_c, 9, 42, 0
12, 91920, Note_on_c, 9, 42, 100
12, 92160, Note_on_c, 9, 42, 0
12, 92160, Note_on_c, 9, 42, 100
12, 92400, Note_on_c, 9, 42, 0
12, 92400, Note_on_c, 9, 46, 100
12, 92640, Note_on_c, 9, 46, 0
12, 92640, Note_on_c, 9, 42, 100
12, 92880, Note_on_c, 9, 42, 0
12, 92880, Note_on_c, 9, 42, 100
12, 93120, Note_on_c, 9, 42, 0
12, 93120, Note_on_c, 9, 46, 100
12, 93360, Note_on_c, 9, 46, 0
12, 93360, Note_on_c, 9, 42, 100
12, 93600, Note_on_c, 9, 42, 0
12, 93600, Note_on_c, 9, 42, 100
12, 93840, Note_on_c, 9, 42, 0
12, 93840, Note_on_c, 9, 46, 100
12, 94080, Note_on_c, 9, 46, 0
12, 94080, Note_on_c, 9, 42, 100
12, 94320, Note_on_c, 9, 42, 0
12, 94320, Note_on_c, 9, 42, 100
12, 94560, Note_on_c, 9, 42, 0
12, 94560, Note_on_c, 9, 46, 100
12, 94800, Note_on_c, 9, 46, 0
12, 94800, Note_on_c, 9, 42, 100
12, 95040, Note_on_c, 9, 42, 0
12, 95040, Note_on_c, 9, 42, 100
12, 95280, Note_on_c, 9, 42, 0
12, 95280, Note_on_c, 9, 46, 100
12, 95520, Note_on_c, 9, 46, 0
12, 95520, Note_on_c, 9, 42, 100
12, 95760, Note_on_c, 9, 42, 0
12, 95760, Note_on_c, 9, 42, 100
12, 96000, Note_on_c, 9, 42, 0
12, 96000, Note_on_c, 9, 42, 100
12, 96240, Note_on_c, 9, 42, 0
12, 96240, Note_on_c, 9, 46, 100
12, 96480, Note_on_c, 9, 46, 0
12, 96480, Note_on_c, 9, 42, 100
12, 96720, Note_on_c, 9, 42, 0
12, 96720, Note_on_c, 9, 42, 100
12, 96960, Note_on_c, 9, 42, 0
12, 96960, Note_on_c, 9, 46, 100
12, 97200, Note_on_c, 9, 46, 0
12, 97200, Note_on_c, 9, 42, 100
12, 97440, Note_on_c, 9, 42, 0
12, 97440, Note_on_c, 9, 42, 100
12, 97680, Note_on_c, 9, 42, 0
12, 97680, Note_on_c, 9, 46, 100
12, 97920, Note_on_c, 9, 46, 0
12, 97920, Note_on_c, 9, 42, 100
12, 98160, Note_on_c, 9, 42, 0
12, 98160, Note_on_c, 9, 42, 100
12, 98400, Note_on_c, 9, 42, 0
12, 98400, Note_on_c, 9, 46, 100
12, 98640, Note_on_c, 9, 46, 0
12, 98640, Note_on_c, 9, 42, 100
12, 98880, Note_on_c, 9, 42, 0
12, 98880, Note_on_c, 9, 42, 100
12, 99120, Note_on_c, 9, 42, 0
12, 99120, Note_on_c, 9, 46, 100
12, 99360, Note_on_c, 9, 46, 0
12, 99360, Note_on_c, 9, 42, 100
12, 99600, Note_on_c, 9, 42, 0
12, 99600, Note_on_c, 9, 42, 100
12, 99840, Note_on_c, 9, 42, 0
12, 99840, Note_on_c, 9, 46, 100
12, 100080, Note_on_c, 9, 46, 0
12, 100080, Note_on_c, 9, 42, 100
12, 100200, Note_on_c, 9, 42, 0
12, 100200, Note_on_c, 9, 42, 100
12, 100320, Note_on_c, 9, 42, 0
12, 100320, Note_on_c, 9, 46, 100
12, 100560, Note_on_c, 9, 46, 0
12, 100560, Note_on_c, 9, 42, 100
12, 100680, Note_on_c, 9, 42, 0
12, 100680, Note_on_c, 9, 42, 100
12, 100800, Note_on_c, 9, 42, 0
12, 100800, Note_on_c, 9, 46, 100
12, 101040, Note_on_c, 9, 46, 0
12, 101040, Note_on_c, 9, 42, 100
12, 101160, Note_on_c, 9, 42, 0
12, 101160, Note_on_c, 9, 42, 100
12, 101280, Note_on_c, 9, 42, 0
12, 101280, Note_on_c, 9, 46, 100
12, 101520, Note_on_c, 9, 46, 0
12, 101520, Note_on_c, 9, 42, 100
12, 101640, Note_on_c, 9, 42, 0
12, 101640, Note_on_c, 9, 42, 100
12, 101760, Note_on_c, 9, 42, 0
12, 101760, Note_on_c, 9, 46, 100
12, 102000, Note_on_c, 9, 46, 0
12, 102000, Note_on_c, 9, 42, 100
12, 102120, Note_on_c, 9, 42, 0
12, 102120, Note_on_c, 9, 42, 100
12, 102240, Note_on_c, 9, 42, 0
12, 102240, Note_on_c, 9, 46, 100
12, 102480, Note_on_c, 9, 46, 0
12, 102480, Note_on_c, 9, 42, 100
12, 102600, Note_on_c, 9, 42, 0
12, 102600, Note_on_c, 9, 42, 100
12, 102720, Note_on_c, 9, 42, 0
12, 102720, Note_on_c, 9, 46, 100
12, 102960, Note_on_c, 9, 46, 0
12, 102960, Note_on_c, 9, 42, 100
12, 103080, Note_on_c, 9, 42, 0
12, 103080, Note_on_c, 9, 42, 100
12, 103200, Note_on_c, 9, 42, 0
12, 103200, Note_on_c, 9, 46, 100
12, 103440, Note_on_c, 9, 46, 0
12, 103440, Note_on_c, 9, 42, 100
12, 103560, Note_on_c, 9, 42, 0
12, 103560, Note_on_c, 9, 42, 100
12, 103680, Note_on_c, 9, 42, 0
12, 103680, Note_on_c, 9, 46, 100
12, 103920, Note_on_c, 9, 46, 0
12, 103920, Note_on_c, 9, 42, 100
12, 104040, Note_on_c, 9, 42, 0
12, 104040, Note_on_c, 9, 42, 100
12, 104160, Note_on_c, 9, 42, 0
12, 104160, Note_on_c, 9, 46, 100
12, 104400, Note_on_c, 9, 46, 0
12, 104400, Note_on_c, 9, 42, 100
12, 104520, Note_on_c, 9, 42, 0
12, 104520, Note_on_c, 9, 42, 100
12, 104640, Note_on_c, 9, 42, 0
12, 104640, Note_on_c, 9, 46, 100
12, 104880, Note_on_c, 9, 46, 0
12, 104880, Note_on_c, 9, 42, 100
12, 105000, Note_on_c, 9, 42, 0
12, 105000, Note_on_c, 9, 42, 100
12, 105120, Note_on_c, 9, 42, 0
12, 105120, Note_on_c, 9, 46, 100
12, 105360, Note_on_c, 9, 46, 0
12, 105360, Note_on_c, 9, 42, 100
12, 105480, Note_on_c, 9, 42, 0
12, 105480, Note_on_c, 9, 42, 100
12, 105600, Note_on_c, 9, 42, 0
12, 105600, Note_on_c, 9, 46, 100
12, 105839, Note_on_c, 9, 46, 0
12, 105840, Note_on_c, 9, 42, 100
12, 105959, Note_on_c, 9, 42, 0
12, 105960, Note_on_c, 9, 42, 100
12, 106079, Note_on_c, 9, 42, 0
12, 106080, Note_on_c, 9, 46, 100
12, 106319, Note_on_c, 9, 46, 0
12, 106320, Note_on_c, 9, 42, 100
12, 106439, Note_on_c, 9, 42, 0
12, 106440, Note_on_c, 9, 42, 100
12, 106559, Note_on_c, 9, 42, 0
12, 106560, Note_on_c, 9, 46, 100
12, 106799, Note_on_c, 9, 46, 0
12, 106800, Note_on_c, 9, 42, 100
12, 106919, Note_on_c, 9, 42, 0
12, 106920, Note_on_c, 9, 42, 100
12, 107039, Note_on_c, 9, 42, 0
12, 107040, Note_on_c, 9, 46, 100
12, 107279, Note_on_c, 9, 46, 0
12, 107280, Note_on_c, 9, 42, 100
12, 107399, Note_on_c, 9, 42, 0
12, 107400, Note_on_c, 9, 42, 100
12, 107519, Note_on_c, 9, 42, 0
12, 107519, End_track
13, 0, Start_track
13, 0, MIDI_port, 0
13, 0, Title_t, "SNARE"
13, 0, Control_c, 9, 0, 0
13, 0, Program_c, 9, 0
13, 0, Control_c, 9, 7, 110
13, 0, Control_c, 9, 10, 63
13, 11520, Note_on_c, 9, 40, 80
13, 11580, Note_on_c, 9, 40, 0
13, 11640, Note_on_c, 9, 40, 80
13, 11700, Note_on_c, 9, 40, 0
13, 11760, Note_on_c, 9, 40, 80
13, 11820, Note_on_c, 9, 40, 0
13, 11880, Note_on_c, 9, 40, 80
13, 11940, Note_on_c, 9, 40, 0
13, 12000, Note_on_c, 9, 40, 80
13, 12120, Note_on_c, 9, 40, 0
13, 19200, Note_on_c, 9, 40, 80
13, 19260, Note_on_c, 9, 40, 0
13, 19320, Note_on_c, 9, 40, 80
13, 19380, Note_on_c, 9, 40, 0
13, 19440, Note_on_c, 9, 40, 80
13, 19500, Note_on_c, 9, 40, 0
13, 19560, Note_on_c, 9, 40, 80
13, 19620, Note_on_c, 9, 40, 0
13, 19680, Note_on_c, 9, 40, 80
13, 19800, Note_on_c, 9, 40, 0
13, 20400, Note_on_c, 9, 40, 80
13, 20460, Note_on_c, 9, 40, 0
13, 20520, Note_on_c, 9, 40, 80
13, 20580, Note_on_c, 9, 40, 0
13, 20640, Note_on_c, 9, 40, 80
13, 20700, Note_on_c, 9, 40, 0
13, 20760, Note_on_c, 9, 40, 80
13, 20820, Note_on_c, 9, 40, 0
13, 20880, Note_on_c, 9, 40, 80
13, 21000, Note_on_c, 9, 40, 0
13, 21360, Note_on_c, 9, 40, 80
13, 21420, Note_on_c, 9, 40, 0
13, 21480, Note_on_c, 9, 40, 80
13, 21540, Note_on_c, 9, 40, 0
13, 21600, Note_on_c, 9, 40, 80
13, 21660, Note_on_c, 9, 40, 0
13, 21720, Note_on_c, 9, 40, 80
13, 21780, Note_on_c, 9, 40, 0
13, 21840, Note_on_c, 9, 40, 80
13, 21960, Note_on_c, 9, 40, 0
13, 22080, Note_on_c, 9, 40, 80
13, 22140, Note_on_c, 9, 40, 0
13, 22200, Note_on_c, 9, 40, 80
13, 22260, Note_on_c, 9, 40, 0
13, 22320, Note_on_c, 9, 40, 80
13, 22380, Note_on_c, 9, 40, 0
13, 22440, Note_on_c, 9, 40, 80
13, 22500, Note_on_c, 9, 40, 0
13, 22560, Note_on_c, 9, 40, 80
13, 22680, Note_on_c, 9, 40, 0
13, 30720, Note_on_c, 9, 40, 100
13, 30840, Note_on_c, 9, 40, 0
13, 30840, Note_on_c, 9, 40, 100
13, 30960, Note_on_c, 9, 40, 0
13, 30960, Note_on_c, 9, 40, 100
13, 31080, Note_on_c, 9, 40, 0
13, 31440, Note_on_c, 9, 40, 100
13, 31560, Note_on_c, 9, 40, 0
13, 31560, Note_on_c, 9, 40, 100
13, 31680, Note_on_c, 9, 40, 0
13, 31680, Note_on_c, 9, 40, 100
13, 31800, Note_on_c, 9, 40, 0
13, 32880, Note_on_c, 9, 40, 100
13, 33000, Note_on_c, 9, 40, 0
13, 33000, Note_on_c, 9, 40, 100
13, 33120, Note_on_c, 9, 40, 0
13, 33120, Note_on_c, 9, 40, 100
13, 33240, Note_on_c, 9, 40, 0
13, 33240, Note_on_c, 9, 40, 100
13, 33360, Note_on_c, 9, 40, 0
13, 33360, Note_on_c, 9, 40, 100
13, 33480, Note_on_c, 9, 40, 0
13, 33600, Note_on_c, 9, 40, 100
13, 33720, Note_on_c, 9, 40, 0
13, 33720, Note_on_c, 9, 40, 100
13, 33840, Note_on_c, 9, 40, 0
13, 33840, Note_on_c, 9, 40, 100
13, 33960, Note_on_c, 9, 40, 0
13, 33960, Note_on_c, 9, 40, 100
13, 34080, Note_on_c, 9, 40, 0
13, 34080, Note_on_c, 9, 40, 100
13, 34200, Note_on_c, 9, 40, 0
13, 46080, Note_on_c, 9, 40, 100
13, 46200, Note_on_c, 9, 40, 0
13, 46200, Note_on_c, 9, 40, 100
13, 46320, Note_on_c, 9, 40, 0
13, 46320, Note_on_c, 9, 40, 100
13, 46440, Note_on_c, 9, 40, 0
13, 46800, Note_on_c, 9, 40, 100
13, 46920, Note_on_c, 9, 40, 0
13, 46920, Note_on_c, 9, 40, 100
13, 47040, Note_on_c, 9, 40, 0
13, 47040, Note_on_c, 9, 40, 100
13, 47160, Note_on_c, 9, 40, 0
13, 48240, Note_on_c, 9, 40, 100
13, 48360, Note_on_c, 9, 40, 0
13, 48360, Note_on_c, 9, 40, 100
13, 48480, Note_on_c, 9, 40, 0
13, 48480, Note_on_c, 9, 40, 100
13, 48600, Note_on_c, 9, 40, 0
13, 48600, Note_on_c, 9, 40, 100
13, 48720, Note_on_c, 9, 40, 0
13, 48720, Note_on_c, 9, 40, 100
13, 48840, Note_on_c, 9, 40, 0
13, 48960, Note_on_c, 9, 40, 100
13, 49080, Note_on_c, 9, 40, 0
13, 49080, Note_on_c, 9, 40, 100
13, 49200, Note_on_c, 9, 40, 0
13, 49200, Note_on_c, 9, 40, 100
13, 49320, Note_on_c, 9, 40, 0
13, 49320, Note_on_c, 9, 40, 100
13, 49440, Note_on_c, 9, 40, 0
13, 49440, Note_on_c, 9, 40, 100
13, 49560, Note_on_c, 9, 40, 0
13, 57120, Note_on_c, 9, 40, 100
13, 57240, Note_on_c, 9, 40, 0
13, 57240, Note_on_c, 9, 40, 100
13, 57360, Note_on_c, 9, 40, 0
13, 57360, Note_on_c, 9, 40, 100
13, 57480, Note_on_c, 9, 40, 0
13, 57480, Note_on_c, 9, 40, 100
13, 57600, Note_on_c, 9, 40, 0
13, 57600, Note_on_c, 9, 40, 100
13, 58080, Note_on_c, 9, 40, 0
13, 64800, Note_on_c, 9, 40, 100
13, 64920, Note_on_c, 9, 40, 0
13, 64920, Note_on_c, 9, 40, 100
13, 65040, Note_on_c, 9, 40, 0
13, 65040, Note_on_c, 9, 40, 100
13, 65160, Note_on_c, 9, 40, 0
13, 65160, Note_on_c, 9, 40, 100
13, 65280, Note_on_c, 9, 40, 0
13, 65280, Note_on_c, 9, 40, 100
13, 65760, Note_on_c, 9, 40, 0
13, 72480, Note_on_c, 9, 40, 100
13, 72600, Note_on_c, 9, 40, 0
13, 72600, Note_on_c, 9, 40, 100
13, 72720, Note_on_c, 9, 40, 0
13, 72720, Note_on_c, 9, 40, 100
13, 72840, Note_on_c, 9, 40, 0
13, 72840, Note_on_c, 9, 40, 100
13, 72960, Note_on_c, 9, 40, 0
13, 72960, Note_on_c, 9, 40, 100
13, 73440, Note_on_c, 9, 40, 0
13, 80160, Note_on_c, 9, 40, 100
13, 80280, Note_on_c, 9, 40, 0
13, 80280, Note_on_c, 9, 40, 100
13, 80400, Note_on_c, 9, 40, 0
13, 80400, Note_on_c, 9, 40, 100
13, 80520, Note_on_c, 9, 40, 0
13, 80520, Note_on_c, 9, 40, 100
13, 80640, Note_on_c, 9, 40, 0
13, 80640, Note_on_c, 9, 40, 100
13, 81120, Note_on_c, 9, 40, 0
13, 84480, Note_on_c, 9, 40, 50
13, 84720, Note_on_c, 9, 40, 0
13, 84720, Note_on_c, 9, 40, 50
13, 84960, Note_on_c, 9, 40, 0
13, 84960, Note_on_c, 9, 40, 100
13, 85200, Note_on_c, 9, 40, 0
13, 85200, Note_on_c, 9, 40, 50
13, 85440, Note_on_c, 9, 40, 0
13, 85440, Note_on_c, 9, 40, 50
13, 85680, Note_on_c, 9, 40, 0
13, 85680, Note_on_c, 9, 40, 100
13, 85920, Note_on_c, 9, 40, 0
13, 85920, Note_on_c, 9, 40, 50
13, 86160, Note_on_c, 9, 40, 0
13, 86160, Note_on_c, 9, 40, 50
13, 86400, Note_on_c, 9, 40, 0
13, 86400, Note_on_c, 9, 40, 100
13, 86640, Note_on_c, 9, 40, 0
13, 86640, Note_on_c, 9, 40, 50
13, 86880, Note_on_c, 9, 40, 0
13, 86880, Note_on_c, 9, 40, 50
13, 87120, Note_on_c, 9, 40, 0
13, 87120, Note_on_c, 9, 40, 100
13, 87360, Note_on_c, 9, 40, 0
13, 87360, Note_on_c, 9, 40, 50
13, 87600, Note_on_c, 9, 40, 0
13, 87600, Note_on_c, 9, 40, 50
13, 87840, Note_on_c, 9, 40, 0
13, 87840, Note_on_c, 9, 40, 100
13, 88080, Note_on_c, 9, 40, 0
13, 88080, Note_on_c, 9, 40, 50
13, 88320, Note_on_c, 9, 40, 0
13, 88320, Note_on_c, 9, 40, 50
13, 88560, Note_on_c, 9, 40, 0
13, 88560, Note_on_c, 9, 40, 50
13, 88800, Note_on_c, 9, 40, 0
13, 88800, Note_on_c, 9, 40, 100
13, 89040, Note_on_c, 9, 40, 0
13, 89040, Note_on_c, 9, 40, 50
13, 89280, Note_on_c, 9, 40, 0
13, 89280, Note_on_c, 9, 40, 50
13, 89520, Note_on_c, 9, 40, 0
13, 89520, Note_on_c, 9, 40, 100
13, 89760, Note_on_c, 9, 40, 0
13, 89760, Note_on_c, 9, 40, 50
13, 90000, Note_on_c, 9, 40, 0
13, 90000, Note_on_c, 9, 40, 50
13, 90240, Note_on_c, 9, 40, 0
13, 90240, Note_on_c, 9, 40, 100
13, 90480, Note_on_c, 9, 40, 0
13, 90480, Note_on_c, 9, 40, 50
13, 90720, Note_on_c, 9, 40, 0
13, 90720, Note_on_c, 9, 40, 50
13, 90960, Note_on_c, 9, 40, 0
13, 90960, Note_on_c, 9, 40, 100
13, 91200, Note_on_c, 9, 40, 0
13, 91200, Note_on_c, 9, 40, 50
13, 91440, Note_on_c, 9, 40, 0
13, 91440, Note_on_c, 9, 40, 50
13, 91680, Note_on_c, 9, 40, 0
13, 91680, Note_on_c, 9, 40, 100
13, 91920, Note_on_c, 9, 40, 0
13, 91920, Note_on_c, 9, 40, 50
13, 92160, Note_on_c, 9, 40, 0
13, 92160, Note_on_c, 9, 40, 50
13, 92400, Note_on_c, 9, 40, 0
13, 92400, Note_on_c, 9, 40, 50
13, 92640, Note_on_c, 9, 40, 0
13, 92640, Note_on_c, 9, 40, 100
13, 92880, Note_on_c, 9, 40, 0
13, 92880, Note_on_c, 9, 40, 50
13, 93120, Note_on_c, 9, 40, 0
13, 93120, Note_on_c, 9, 40, 50
13, 93360, Note_on_c, 9, 40, 0
13, 93360, Note_on_c, 9, 40, 100
13, 93600, Note_on_c, 9, 40, 0
13, 93600, Note_on_c, 9, 40, 50
13, 93840, Note_on_c, 9, 40, 0
13, 93840, Note_on_c, 9, 40, 50
13, 94080, Note_on_c, 9, 40, 0
13, 94080, Note_on_c, 9, 40, 100
13, 94320, Note_on_c, 9, 40, 0
13, 94320, Note_on_c, 9, 40, 50
13, 94560, Note_on_c, 9, 40, 0
13, 94560, Note_on_c, 9, 40, 50
13, 94800, Note_on_c, 9, 40, 0
13, 94800, Note_on_c, 9, 40, 100
13, 95040, Note_on_c, 9, 40, 0
13, 95040, Note_on_c, 9, 40, 50
13, 95280, Note_on_c, 9, 40, 0
13, 95280, Note_on_c, 9, 40, 50
13, 95520, Note_on_c, 9, 40, 0
13, 95520, Note_on_c, 9, 40, 100
13, 95760, Note_on_c, 9, 40, 0
13, 95760, Note_on_c, 9, 40, 50
13, 96000, Note_on_c, 9, 40, 0
13, 96000, Note_on_c, 9, 40, 50
13, 96240, Note_on_c, 9, 40, 0
13, 96240, Note_on_c, 9, 40, 50
13, 96480, Note_on_c, 9, 40, 0
13, 96480, Note_on_c, 9, 40, 100
13, 96720, Note_on_c, 9, 40, 0
13, 96720, Note_on_c, 9, 40, 50
13, 96960, Note_on_c, 9, 40, 0
13, 96960, Note_on_c, 9, 40, 50
13, 97200, Note_on_c, 9, 40, 0
13, 97200, Note_on_c, 9, 40, 100
13, 97440, Note_on_c, 9, 40, 0
13, 97440, Note_on_c, 9, 40, 50
13, 97680, Note_on_c, 9, 40, 0
13, 97680, Note_on_c, 9, 40, 50
13, 97920, Note_on_c, 9, 40, 0
13, 97920, Note_on_c, 9, 40, 100
13, 98160, Note_on_c, 9, 40, 0
13, 98160, Note_on_c, 9, 40, 50
13, 98400, Note_on_c, 9, 40, 0
13, 98400, Note_on_c, 9, 40, 50
13, 98640, Note_on_c, 9, 40, 0
13, 98640, Note_on_c, 9, 40, 100
13, 98880, Note_on_c, 9, 40, 0
13, 98880, Note_on_c, 9, 40, 50
13, 99120, Note_on_c, 9, 40, 0
13, 99120, Note_on_c, 9, 40, 50
13, 99360, Note_on_c, 9, 40, 0
13, 99360, Note_on_c, 9, 40, 100
13, 99600, Note_on_c, 9, 40, 0
13, 99600, Note_on_c, 9, 40, 50
13, 99840, Note_on_c, 9, 40, 0
13, 99840, End_track
14, 0, Start_track
14, 0, MIDI_port, 0
14, 0, Title_t, "KICK"
14, 0, Control_c, 9, 0, 0
14, 0, Program_c, 9, 0
14, 0, Control_c, 9, 7, 110
14, 0, Control_c, 9, 10, 63
14, 0, Note_on_c, 9, 36, 100
14, 480, Note_on_c, 9, 36, 0
14, 480, Note_on_c, 9, 36, 100
14, 960, Note_on_c, 9, 36, 0
14, 960, Note_on_c, 9, 36, 100
14, 1440, Note_on_c, 9, 36, 0
14, 1440, Note_on_c, 9, 36, 100
14, 1920, Note_on_c, 9, 36, 0
14, 1920, Note_on_c, 9, 36, 100
14, 2400, Note_on_c, 9, 36, 0
14, 2400, Note_on_c, 9, 36, 100
14, 2880, Note_on_c, 9, 36, 0
14, 2880, Note_on_c, 9, 36, 100
14, 3360, Note_on_c, 9, 36, 0
14, 3360, Note_on_c, 9, 36, 100
14, 3840, Note_on_c, 9, 36, 0
14, 3840, Note_on_c, 9, 36, 100
14, 4320, Note_on_c, 9, 36, 0
14, 4320, Note_on_c, 9, 36, 100
14, 4800, Note_on_c, 9, 36, 0
14, 4800, Note_on_c, 9, 36, 100
14, 5280, Note_on_c, 9, 36, 0
14, 5280, Note_on_c, 9, 36, 100
14, 5760, Note_on_c, 9, 36, 0
14, 5760, Note_on_c, 9, 36, 100
14, 6240, Note_on_c, 9, 36, 0
14, 6240, Note_on_c, 9, 36, 100
14, 6720, Note_on_c, 9, 36, 0
14, 6720, Note_on_c, 9, 36, 100
14, 7200, Note_on_c, 9, 36, 0
14, 7200, Note_on_c, 9, 36, 100
14, 7680, Note_on_c, 9, 36, 0
14, 7680, Note_on_c, 9, 36, 100
14, 8160, Note_on_c, 9, 36, 0
14, 8160, Note_on_c, 9, 36, 100
14, 8640, Note_on_c, 9, 36, 0
14, 8640, Note_on_c, 9, 36, 100
14, 9120, Note_on_c, 9, 36, 0
14, 9120, Note_on_c, 9, 36, 100
14, 9600, Note_on_c, 9, 36, 0
14, 9600, Note_on_c, 9, 36, 100
14, 10080, Note_on_c, 9, 36, 0
14, 10080, Note_on_c, 9, 36, 100
14, 10560, Note_on_c, 9, 36, 0
14, 10560, Note_on_c, 9, 36, 100
14, 11040, Note_on_c, 9, 36, 0
14, 11040, Note_on_c, 9, 36, 100
14, 11520, Note_on_c, 9, 36, 0
14, 11520, Note_on_c, 9, 36, 100
14, 12000, Note_on_c, 9, 36, 0
14, 12000, Note_on_c, 9, 36, 100
14, 12480, Note_on_c, 9, 36, 0
14, 12480, Note_on_c, 9, 36, 100
14, 12960, Note_on_c, 9, 36, 0
14, 12960, Note_on_c, 9, 36, 100
14, 13440, Note_on_c, 9, 36, 0
14, 13440, Note_on_c, 9, 36, 100
14, 13920, Note_on_c, 9, 36, 0
14, 13920, Note_on_c, 9, 36, 100
14, 14400, Note_on_c, 9, 36, 0
14, 14400, Note_on_c, 9, 36, 100
14, 14880, Note_on_c, 9, 36, 0
14, 14880, Note_on_c, 9, 36, 100
14, 15360, Note_on_c, 9, 36, 0
14, 15360, Note_on_c, 9, 36, 100
14, 15840, Note_on_c, 9, 36, 0
14, 15840, Note_on_c, 9, 36, 100
14, 16320, Note_on_c, 9, 36, 0
14, 16320, Note_on_c, 9, 36, 100
14, 16800, Note_on_c, 9, 36, 0
14, 16800, Note_on_c, 9, 36, 100
14, 17280, Note_on_c, 9, 36, 0
14, 17280, Note_on_c, 9, 36, 100
14, 17760, Note_on_c, 9, 36, 0
14, 17760, Note_on_c, 9, 36, 100
14, 18240, Note_on_c, 9, 36, 0
14, 18240, Note_on_c, 9, 36, 100
14, 18720, Note_on_c, 9, 36, 0
14, 18720, Note_on_c, 9, 36, 100
14, 19200, Note_on_c, 9, 36, 0
14, 19200, Note_on_c, 9, 36, 100
14, 19680, Note_on_c, 9, 36, 0
14, 19680, Note_on_c, 9, 36, 100
14, 20160, Note_on_c, 9, 36, 0
14, 20160, Note_on_c, 9, 36, 100
14, 20640, Note_on_c, 9, 36, 0
14, 20640, Note_on_c, 9, 36, 100
14, 21120, Note_on_c, 9, 36, 0
14, 21120, Note_on_c, 9, 36, 100
14, 21600, Note_on_c, 9, 36, 0
14, 21600, Note_on_c, 9, 36, 100
14, 22080, Note_on_c, 9, 36, 0
14, 22080, Note_on_c, 9, 36, 100
14, 22560, Note_on_c, 9, 36, 0
14, 22560, Note_on_c, 9, 36, 100
14, 23040, Note_on_c, 9, 36, 0
14, 23040, Note_on_c, 9, 36, 100
14, 23520, Note_on_c, 9, 36, 0
14, 23520, Note_on_c, 9, 36, 100
14, 24000, Note_on_c, 9, 36, 0
14, 24000, Note_on_c, 9, 36, 100
14, 24480, Note_on_c, 9, 36, 0
14, 24480, Note_on_c, 9, 36, 100
14, 24960, Note_on_c, 9, 36, 0
14, 24960, Note_on_c, 9, 36, 100
14, 25440, Note_on_c, 9, 36, 0
14, 25440, Note_on_c, 9, 36, 100
14, 25920, Note_on_c, 9, 36, 0
14, 25920, Note_on_c, 9, 36, 100
14, 26400, Note_on_c, 9, 36, 0
14, 26400, Note_on_c, 9, 36, 100
14, 26880, Note_on_c, 9, 36, 0
14, 26880, Note_on_c, 9, 36, 100
14, 27360, Note_on_c, 9, 36, 0
14, 27360, Note_on_c, 9, 36, 100
14, 27840, Note_on_c, 9, 36, 0
14, 27840, Note_on_c, 9, 36, 100
14, 28320, Note_on_c, 9, 36, 0
14, 28320, Note_on_c, 9, 36, 100
14, 28800, Note_on_c, 9, 36, 0
14, 28800, Note_on_c, 9, 36, 100
14, 29280, Note_on_c, 9, 36, 0
14, 29280, Note_on_c, 9, 36, 100
14, 29760, Note_on_c, 9, 36, 0
14, 29760, Note_on_c, 9, 36, 100
14, 30240, Note_on_c, 9, 36, 0
14, 30240, Note_on_c, 9, 36, 100
14, 30720, Note_on_c, 9, 36, 0
14, 30720, Note_on_c, 9, 36, 100
14, 31200, Note_on_c, 9, 36, 0
14, 31200, Note_on_c, 9, 36, 100
14, 31680, Note_on_c, 9, 36, 0
14, 31680, Note_on_c, 9, 36, 100
14, 32160, Note_on_c, 9, 36, 0
14, 32160, Note_on_c, 9, 36, 100
14, 32640, Note_on_c, 9, 36, 0
14, 32640, Note_on_c, 9, 36, 100
14, 33120, Note_on_c, 9, 36, 0
14, 33120, Note_on_c, 9, 36, 100
14, 33600, Note_on_c, 9, 36, 0
14, 33600, Note_on_c, 9, 36, 100
14, 34080, Note_on_c, 9, 36, 0
14, 34080, Note_on_c, 9, 36, 100
14, 34560, Note_on_c, 9, 36, 0
14, 34560, Note_on_c, 9, 36, 100
14, 35040, Note_on_c, 9, 36, 0
14, 35040, Note_on_c, 9, 36, 100
14, 35520, Note_on_c, 9, 36, 0
14, 35520, Note_on_c, 9, 36, 100
14, 36000, Note_on_c, 9, 36, 0
14, 36000, Note_on_c, 9, 36, 100
14, 36480, Note_on_c, 9, 36, 0
14, 36480, Note_on_c, 9, 36, 100
14, 36960, Note_on_c, 9, 36, 0
14, 36960, Note_on_c, 9, 36, 100
14, 37440, Note_on_c, 9, 36, 0
14, 37440, Note_on_c, 9, 36, 100
14, 37920, Note_on_c, 9, 36, 0
14, 37920, Note_on_c, 9, 36, 100
14, 38400, Note_on_c, 9, 36, 0
14, 38400, Note_on_c, 9, 36, 100
14, 38880, Note_on_c, 9, 36, 0
14, 38880, Note_on_c, 9, 36, 100
14, 39360, Note_on_c, 9, 36, 0
14, 39360, Note_on_c, 9, 36, 100
14, 39840, Note_on_c, 9, 36, 0
14, 39840, Note_on_c, 9, 36, 100
14, 40320, Note_on_c, 9, 36, 0
14, 40320, Note_on_c, 9, 36, 100
14, 40800, Note_on_c, 9, 36, 0
14, 40800, Note_on_c, 9, 36, 100
14, 41280, Note_on_c, 9, 36, 0
14, 41280, Note_on_c, 9, 36, 100
14, 41760, Note_on_c, 9, 36, 0
14, 41760, Note_on_c, 9, 36, 100
14, 42240, Note_on_c, 9, 36, 0
14, 42240, Note_on_c, 9, 36, 100
14, 42720, Note_on_c, 9, 36, 0
14, 42720, Note_on_c, 9, 36, 100
14, 43200, Note_on_c, 9, 36, 0
14, 43200, Note_on_c, 9, 36, 100
14, 43680, Note_on_c, 9, 36, 0
14, 43680, Note_on_c, 9, 36, 100
14, 44160, Note_on_c, 9, 36, 0
14, 44160, Note_on_c, 9, 36, 100
14, 44640, Note_on_c, 9, 36, 0
14, 44640, Note_on_c, 9, 36, 100
14, 45120, Note_on_c, 9, 36, 0
14, 45120, Note_on_c, 9, 36, 100
14, 45600, Note_on_c, 9, 36, 0
14, 45600, Note_on_c, 9, 36, 100
14, 46080, Note_on_c, 9, 36, 0
14, 46080, Note_on_c, 9, 36, 100
14, 46560, Note_on_c, 9, 36, 0
14, 46560, Note_on_c, 9, 36, 100
14, 47040, Note_on_c, 9, 36, 0
14, 47040, Note_on_c, 9, 36, 100
14, 47520, Note_on_c, 9, 36, 0
14, 47520, Note_on_c, 9, 36, 100
14, 48000, Note_on_c, 9, 36, 0
14, 48000, Note_on_c, 9, 36, 100
14, 48480, Note_on_c, 9, 36, 0
14, 48480, Note_on_c, 9, 36, 100
14, 48960, Note_on_c, 9, 36, 0
14, 48960, Note_on_c, 9, 36, 100
14, 49440, Note_on_c, 9, 36, 0
14, 49440, Note_on_c, 9, 36, 100
14, 49920, Note_on_c, 9, 36, 0
14, 49920, Note_on_c, 9, 36, 100
14, 50400, Note_on_c, 9, 36, 0
14, 50400, Note_on_c, 9, 36, 100
14, 50880, Note_on_c, 9, 36, 0
14, 50880, Note_on_c, 9, 36, 100
14, 51360, Note_on_c, 9, 36, 0
14, 51360, Note_on_c, 9, 36, 100
14, 51840, Note_on_c, 9, 36, 0
14, 51840, Note_on_c, 9, 36, 100
14, 52320, Note_on_c, 9, 36, 0
14, 52320, Note_on_c, 9, 36, 100
14, 52800, Note_on_c, 9, 36, 0
14, 52800, Note_on_c, 9, 36, 100
14, 53280, Note_on_c, 9, 36, 0
14, 53280, Note_on_c, 9, 36, 100
14, 53760, Note_on_c, 9, 36, 0
14, 53760, Note_on_c, 9, 36, 100
14, 54240, Note_on_c, 9, 36, 0
14, 54240, Note_on_c, 9, 36, 100
14, 54720, Note_on_c, 9, 36, 0
14, 54720, Note_on_c, 9, 36, 100
14, 55200, Note_on_c, 9, 36, 0
14, 55200, Note_on_c, 9, 36, 100
14, 55680, Note_on_c, 9, 36, 0
14, 55680, Note_on_c, 9, 36, 100
14, 56160, Note_on_c, 9, 36, 0
14, 56160, Note_on_c, 9, 36, 100
14, 56640, Note_on_c, 9, 36, 0
14, 56640, Note_on_c, 9, 36, 100
14, 57120, Note_on_c, 9, 36, 0
14, 57120, Note_on_c, 9, 36, 100
14, 57600, Note_on_c, 9, 36, 0
14, 57600, Note_on_c, 9, 36, 100
14, 58080, Note_on_c, 9, 36, 0
14, 58080, Note_on_c, 9, 36, 100
14, 58560, Note_on_c, 9, 36, 0
14, 58560, Note_on_c, 9, 36, 100
14, 59040, Note_on_c, 9, 36, 0
14, 59040, Note_on_c, 9, 36, 100
14, 59520, Note_on_c, 9, 36, 0
14, 59520, Note_on_c, 9, 36, 100
14, 60000, Note_on_c, 9, 36, 0
14, 60000, Note_on_c, 9, 36, 100
14, 60480, Note_on_c, 9, 36, 0
14, 60480, Note_on_c, 9, 36, 100
14, 60960, Note_on_c, 9, 36, 0
14, 60960, Note_on_c, 9, 36, 100
14, 61440, Note_on_c, 9, 36, 0
14, 61440, Note_on_c, 9, 36, 100
14, 61920, Note_on_c, 9, 36, 0
14, 61920, Note_on_c, 9, 36, 100
14, 62400, Note_on_c, 9, 36, 0
14, 62400, Note_on_c, 9, 36, 100
14, 62880, Note_on_c, 9, 36, 0
14, 62880, Note_on_c, 9, 36, 100
14, 63360, Note_on_c, 9, 36, 0
14, 63360, Note_on_c, 9, 36, 100
14, 63840, Note_on_c, 9, 36, 0
14, 63840, Note_on_c, 9, 36, 100
14, 64320, Note_on_c, 9, 36, 0
14, 64320, Note_on_c, 9, 36, 100
14, 64800, Note_on_c, 9, 36, 0
14, 64800, Note_on_c, 9, 36, 100
14, 65280, Note_on_c, 9, 36, 0
14, 65280, Note_on_c, 9, 36, 100
14, 65760, Note_on_c, 9, 36, 0
14, 65760, Note_on_c, 9, 36, 100
14, 66240, Note_on_c, 9, 36, 0
14, 66240, Note_on_c, 9, 36, 100
14, 66720, Note_on_c, 9, 36, 0
14, 66720, Note_on_c, 9, 36, 100
14, 67200, Note_on_c, 9, 36, 0
14, 67200, Note_on_c, 9, 36, 100
14, 67680, Note_on_c, 9, 36, 0
14, 67680, Note_on_c, 9, 36, 100
14, 68160, Note_on_c, 9, 36, 0
14, 68160, Note_on_c, 9, 36, 100
14, 68640, Note_on_c, 9, 36, 0
14, 68640, Note_on_c, 9, 36, 100
14, 69120, Note_on_c, 9, 36, 0
14, 69120, Note_on_c, 9, 36, 100
14, 69600, Note_on_c, 9, 36, 0
14, 69600, Note_on_c, 9, 36, 100
14, 70080, Note_on_c, 9, 36, 0
14, 70080, Note_on_c, 9, 36, 100
14, 70560, Note_on_c, 9, 36, 0
14, 70560, Note_on_c, 9, 36, 100
14, 71040, Note_on_c, 9, 36, 0
14, 71040, Note_on_c, 9, 36, 100
14, 71520, Note_on_c, 9, 36, 0
14, 71520, Note_on_c, 9, 36, 100
14, 72000, Note_on_c, 9, 36, 0
14, 72000, Note_on_c, 9, 36, 100
14, 72480, Note_on_c, 9, 36, 0
14, 72480, Note_on_c, 9, 36, 100
14, 72960, Note_on_c, 9, 36, 0
14, 72960, Note_on_c, 9, 36, 100
14, 73440, Note_on_c, 9, 36, 0
14, 73440, Note_on_c, 9, 36, 100
14, 73920, Note_on_c, 9, 36, 0
14, 73920, Note_on_c, 9, 36, 100
14, 74400, Note_on_c, 9, 36, 0
14, 74400, Note_on_c, 9, 36, 100
14, 74880, Note_on_c, 9, 36, 0
14, 74880, Note_on_c, 9, 36, 100
14, 75360, Note_on_c, 9, 36, 0
14, 75360, Note_on_c, 9, 36, 100
14, 75840, Note_on_c, 9, 36, 0
14, 75840, Note_on_c, 9, 36, 100
14, 76320, Note_on_c, 9, 36, 0
14, 76320, Note_on_c, 9, 36, 100
14, 76800, Note_on_c, 9, 36, 0
14, 76800, Note_on_c, 9, 36, 100
14, 77280, Note_on_c, 9, 36, 0
14, 77280, Note_on_c, 9, 36, 100
14, 77760, Note_on_c, 9, 36, 0
14, 77760, Note_on_c, 9, 36, 100
14, 78240, Note_on_c, 9, 36, 0
14, 78240, Note_on_c, 9, 36, 100
14, 78720, Note_on_c, 9, 36, 0
14, 78720, Note_on_c, 9, 36, 100
14, 79200, Note_on_c, 9, 36, 0
14, 79200, Note_on_c, 9, 36, 100
14, 79680, Note_on_c, 9, 36, 0
14, 79680, Note_on_c, 9, 36, 100
14, 80160, Note_on_c, 9, 36, 0
14, 80160, Note_on_c, 9, 36, 100
14, 80640, Note_on_c, 9, 36, 0
14, 80640, Note_on_c, 9, 36, 100
14, 81120, Note_on_c, 9, 36, 0
14, 81120, Note_on_c, 9, 36, 100
14, 81600, Note_on_c, 9, 36, 0
14, 81600, Note_on_c, 9, 36, 100
14, 82080, Note_on_c, 9, 36, 0
14, 82080, Note_on_c, 9, 36, 100
14, 82560, Note_on_c, 9, 36, 0
14, 82560, Note_on_c, 9, 36, 100
14, 83040, Note_on_c, 9, 36, 0
14, 83040, Note_on_c, 9, 36, 100
14, 83520, Note_on_c, 9, 36, 0
14, 83520, Note_on_c, 9, 36, 100
14, 84000, Note_on_c, 9, 36, 0
14, 84000, Note_on_c, 9, 36, 100
14, 84480, Note_on_c, 9, 36, 0
14, 84480, Note_on_c, 9, 36, 100
14, 84960, Note_on_c, 9, 36, 0
14, 84960, Note_on_c, 9, 36, 100
14, 85440, Note_on_c, 9, 36, 0
14, 85440, Note_on_c, 9, 36, 100
14, 85920, Note_on_c, 9, 36, 0
14, 85920, Note_on_c, 9, 36, 100
14, 86400, Note_on_c, 9, 36, 0
14, 86400, Note_on_c, 9, 36, 100
14, 86880, Note_on_c, 9, 36, 0
14, 86880, Note_on_c, 9, 36, 100
14, 87360, Note_on_c, 9, 36, 0
14, 87360, Note_on_c, 9, 36, 100
14, 87840, Note_on_c, 9, 36, 0
14, 87840, Note_on_c, 9, 36, 100
14, 88320, Note_on_c, 9, 36, 0
14, 88320, Note_on_c, 9, 36, 100
14, 88800, Note_on_c, 9, 36, 0
14, 88800, Note_on_c, 9, 36, 100
14, 89280, Note_on_c, 9, 36, 0
14, 89280, Note_on_c, 9, 36, 100
14, 89760, Note_on_c, 9, 36, 0
14, 89760, Note_on_c, 9, 36, 100
14, 90240, Note_on_c, 9, 36, 0
14, 90240, Note_on_c, 9, 36, 100
14, 90720, Note_on_c, 9, 36, 0
14, 90720, Note_on_c, 9, 36, 100
14, 91200, Note_on_c, 9, 36, 0
14, 91200, Note_on_c, 9, 36, 100
14, 91680, Note_on_c, 9, 36, 0
14, 91680, Note_on_c, 9, 36, 100
14, 92160, Note_on_c, 9, 36, 0
14, 92160, Note_on_c, 9, 36, 100
14, 92640, Note_on_c, 9, 36, 0
14, 92640, Note_on_c, 9, 36, 100
14, 93120, Note_on_c, 9, 36, 0
14, 93120, Note_on_c, 9, 36, 100
14, 93600, Note_on_c, 9, 36, 0
14, 93600, Note_on_c, 9, 36, 100
14, 94080, Note_on_c, 9, 36, 0
14, 94080, Note_on_c, 9, 36, 100
14, 94560, Note_on_c, 9, 36, 0
14, 94560, Note_on_c, 9, 36, 100
14, 95040, Note_on_c, 9, 36, 0
14, 95040, Note_on_c, 9, 36, 100
14, 95520, Note_on_c, 9, 36, 0
14, 95520, Note_on_c, 9, 36, 100
14, 96000, Note_on_c, 9, 36, 0
14, 96000, Note_on_c, 9, 36, 100
14, 96480, Note_on_c, 9, 36, 0
14, 96480, Note_on_c, 9, 36, 100
14, 96960, Note_on_c, 9, 36, 0
14, 96960, Note_on_c, 9, 36, 100
14, 97440, Note_on_c, 9, 36, 0
14, 97440, Note_on_c, 9, 36, 100
14, 97920, Note_on_c, 9, 36, 0
14, 97920, Note_on_c, 9, 36, 100
14, 98400, Note_on_c, 9, 36, 0
14, 98400, Note_on_c, 9, 36, 100
14, 98880, Note_on_c, 9, 36, 0
14, 98880, Note_on_c, 9, 36, 100
14, 99360, Note_on_c, 9, 36, 0
14, 99360, Note_on_c, 9, 36, 100
14, 99840, Note_on_c, 9, 36, 0
14, 99840, Note_on_c, 9, 36, 100
14, 100320, Note_on_c, 9, 36, 0
14, 100320, Note_on_c, 9, 36, 100
14, 100800, Note_on_c, 9, 36, 0
14, 100800, Note_on_c, 9, 36, 100
14, 101280, Note_on_c, 9, 36, 0
14, 101280, Note_on_c, 9, 36, 100
14, 101760, Note_on_c, 9, 36, 0
14, 101760, Note_on_c, 9, 36, 100
14, 102240, Note_on_c, 9, 36, 0
14, 102240, Note_on_c, 9, 36, 100
14, 102720, Note_on_c, 9, 36, 0
14, 102720, Note_on_c, 9, 36, 100
14, 103200, Note_on_c, 9, 36, 0
14, 103200, Note_on_c, 9, 36, 100
14, 103680, Note_on_c, 9, 36, 0
14, 103680, Note_on_c, 9, 36, 100
14, 104160, Note_on_c, 9, 36, 0
14, 104160, Note_on_c, 9, 36, 100
14, 104640, Note_on_c, 9, 36, 0
14, 104640, Note_on_c, 9, 36, 100
14, 105120, Note_on_c, 9, 36, 0
14, 105120, Note_on_c, 9, 36, 100
14, 105600, Note_on_c, 9, 36, 0
14, 105600, Note_on_c, 9, 36, 100
14, 106079, Note_on_c, 9, 36, 0
14, 106080, Note_on_c, 9, 36, 100
14, 106559, Note_on_c, 9, 36, 0
14, 106560, Note_on_c, 9, 36, 100
14, 107039, Note_on_c, 9, 36, 0
14, 107040, Note_on_c, 9, 36, 100
14, 107519, Note_on_c, 9, 36, 0
14, 107519, End_track
15, 0, Start_track
15, 0, MIDI_port, 0
15, 0, Title_t, "TIMPANI"
15, 0, Control_c, 8, 0, 0
15, 0, Program_c, 8, 47
15, 0, Control_c, 8, 7, 100
15, 0, Control_c, 8, 10, 60
15, 12960, Note_on_c, 8, 53, 127
15, 13200, Note_on_c, 8, 53, 0
15, 13200, Note_on_c, 8, 50, 127
15, 13680, Note_on_c, 8, 50, 0
15, 13680, Note_on_c, 8, 50, 127
15, 13920, Note_on_c, 8, 50, 0
15, 13920, Note_on_c, 8, 45, 127
15, 14400, Note_on_c, 8, 45, 0
15, 14400, Note_on_c, 8, 53, 127
15, 14880, Note_on_c, 8, 53, 0
15, 14880, Note_on_c, 8, 50, 127
15, 15360, Note_on_c, 8, 50, 0
15, 34800, Note_on_c, 8, 50, 70
15, 35040, Note_on_c, 8, 50, 0
15, 35040, Note_on_c, 8, 50, 80
15, 35280, Note_on_c, 8, 50, 0
15, 35280, Note_on_c, 8, 50, 90
15, 35520, Note_on_c, 8, 50, 0
15, 35520, Note_on_c, 8, 50, 100
15, 35760, Note_on_c, 8, 50, 0
15, 35760, Note_on_c, 8, 50, 110
15, 36000, Note_on_c, 8, 50, 0
15, 36000, Note_on_c, 8, 50, 120
15, 36240, Note_on_c, 8, 50, 0
15, 36240, Note_on_c, 8, 50, 127
15, 36480, Note_on_c, 8, 50, 0
15, 36480, Note_on_c, 8, 50, 127
15, 36960, Note_on_c, 8, 50, 0
15, 36960, Note_on_c, 8, 45, 127
15, 37440, Note_on_c, 8, 45, 0
15, 37440, Note_on_c, 8, 50, 127
15, 37920, Note_on_c, 8, 50, 0
15, 37920, Note_on_c, 8, 45, 127
15, 38400, Note_on_c, 8, 45, 0
15, 49920, Note_on_c, 8, 48, 127
15, 50400, Note_on_c, 8, 48, 0
15, 50400, Note_on_c, 8, 48, 127
15, 50640, Note_on_c, 8, 48, 0
15, 50640, Note_on_c, 8, 43, 127
15, 51120, Note_on_c, 8, 43, 0
15, 51120, Note_on_c, 8, 43, 127
15, 51360, Note_on_c, 8, 43, 0
15, 51360, Note_on_c, 8, 48, 127
15, 52080, Note_on_c, 8, 48, 0
15, 52080, Note_on_c, 8, 48, 127
15, 52560, Note_on_c, 8, 48, 0
15, 52560, Note_on_c, 8, 48, 127
15, 52800, Note_on_c, 8, 48, 0
15, 52800, Note_on_c, 8, 43, 127
15, 53280, Note_on_c, 8, 43, 0
15, 53280, Note_on_c, 8, 48, 127
15, 53760, Note_on_c, 8, 48, 0
15, 59520, Note_on_c, 8, 52, 127
15, 60480, Note_on_c, 8, 52, 0
15, 60480, Note_on_c, 8, 45, 127
15, 61440, Note_on_c, 8, 45, 0
15, 61440, Note_on_c, 8, 52, 127
15, 63360, Note_on_c, 8, 52, 0
15, 67440, Note_on_c, 8, 43, 70
15, 67680, Note_on_c, 8, 43, 0
15, 67680, Note_on_c, 8, 43, 80
15, 67920, Note_on_c, 8, 43, 0
15, 67920, Note_on_c, 8, 43, 90
15, 68160, Note_on_c, 8, 43, 0
15, 68160, Note_on_c, 8, 43, 100
15, 68400, Note_on_c, 8, 43, 0
15, 68400, Note_on_c, 8, 43, 110
15, 68640, Note_on_c, 8, 43, 0
15, 68640, Note_on_c, 8, 43, 120
15, 68880, Note_on_c, 8, 43, 0
15, 68880, Note_on_c, 8, 43, 127
15, 69120, Note_on_c, 8, 43, 0
15, 69120, Note_on_c, 8, 43, 127
15, 71040, Note_on_c, 8, 43, 0
15, 74880, Note_on_c, 8, 50, 127
15, 75840, Note_on_c, 8, 50, 0
15, 75840, Note_on_c, 8, 43, 127
15, 76800, Note_on_c, 8, 43, 0
15, 76800, Note_on_c, 8, 50, 127
15, 78720, Note_on_c, 8, 50, 0
15, 82800, Note_on_c, 8, 50, 70
15, 83040, Note_on_c, 8, 50, 0
15, 83040, Note_on_c, 8, 50, 80
15, 83280, Note_on_c, 8, 50, 0
15, 83280, Note_on_c, 8, 50, 90
15, 83520, Note_on_c, 8, 50, 0
15, 83520, Note_on_c, 8, 50, 100
15, 83760, Note_on_c, 8, 50, 0
15, 83760, Note_on_c, 8, 50, 110
15, 84000, Note_on_c, 8, 50, 0
15, 84000, Note_on_c, 8, 50, 120
15, 84240, Note_on_c, 8, 50, 0
15, 84240, Note_on_c, 8, 50, 127
15, 84480, Note_on_c, 8, 50, 0
15, 84480, Note_on_c, 8, 53, 127
15, 86400, Note_on_c, 8, 53, 0
15, 91680, Note_on_c, 8, 53, 100
15, 91800, Note_on_c, 8, 53, 0
15, 91800, Note_on_c, 8, 53, 110
15, 91920, Note_on_c, 8, 53, 0
15, 91920, Note_on_c, 8, 53, 120
15, 92040, Note_on_c, 8, 53, 0
15, 92040, Note_on_c, 8, 53, 127
15, 92160, Note_on_c, 8, 53, 0
15, 92160, Note_on_c, 8, 53, 127
15, 94080, Note_on_c, 8, 53, 0
15, 99360, Note_on_c, 8, 48, 100
15, 99480, Note_on_c, 8, 48, 0
15, 99480, Note_on_c, 8, 48, 110
15, 99600, Note_on_c, 8, 48, 0
15, 99600, Note_on_c, 8, 48, 120
15, 99720, Note_on_c, 8, 48, 0
15, 99720, Note_on_c, 8, 48, 127
15, 99840, Note_on_c, 8, 48, 0
15, 99840, Note_on_c, 8, 48, 127
15, 101760, Note_on_c, 8, 48, 0
15, 101760, End_track
16, 0, Start_track
16, 0, MIDI_port, 0
16, 0, Title_t, "PET"
16, 0, Control_c, 10, 0, 0
16, 0, Program_c, 10, 56
16, 0, Control_c, 10, 7, 110
16, 0, Control_c, 10, 10, 94
16, 11520, Note_on_c, 10, 69, 110
16, 11520, Note_on_c, 10, 65, 110
16, 11520, Note_on_c, 10, 64, 110
16, 11520, Note_on_c, 10, 57, 110
16, 11580, Note_on_c, 10, 57, 0
16, 11580, Note_on_c, 10, 69, 0
16, 11580, Note_on_c, 10, 65, 0
16, 11580, Note_on_c, 10, 64, 0
16, 11640, Note_on_c, 10, 69, 110
16, 11640, Note_on_c, 10, 65, 110
16, 11640, Note_on_c, 10, 64, 110
16, 11640, Note_on_c, 10, 57, 110
16, 11700, Note_on_c, 10, 57, 0
16, 11700, Note_on_c, 10, 69, 0
16, 11700, Note_on_c, 10, 65, 0
16, 11700, Note_on_c, 10, 64, 0
16, 11760, Note_on_c, 10, 69, 110
16, 11760, Note_on_c, 10, 65, 110
16, 11760, Note_on_c, 10, 64, 110
16, 11760, Note_on_c, 10, 57, 110
16, 11820, Note_on_c, 10, 57, 0
16, 11820, Note_on_c, 10, 69, 0
16, 11820, Note_on_c, 10, 65, 0
16, 11820, Note_on_c, 10, 64, 0
16, 11880, Note_on_c, 10, 69, 110
16, 11880, Note_on_c, 10, 65, 110
16, 11880, Note_on_c, 10, 64, 110
16, 11880, Note_on_c, 10, 57, 110
16, 11940, Note_on_c, 10, 57, 0
16, 11940, Note_on_c, 10, 69, 0
16, 11940, Note_on_c, 10, 65, 0
16, 11940, Note_on_c, 10, 64, 0
16, 12000, Note_on_c, 10, 69, 110
16, 12000, Note_on_c, 10, 65, 110
16, 12000, Note_on_c, 10, 64, 110
16, 12000, Note_on_c, 10, 57, 110
16, 12120, Note_on_c, 10, 57, 0
16, 12120, Note_on_c, 10, 69, 0
16, 12120, Note_on_c, 10, 65, 0
16, 12120, Note_on_c, 10, 64, 0
16, 19200, Note_on_c, 10, 69, 110
16, 19200, Note_on_c, 10, 65, 110
16, 19200, Note_on_c, 10, 64, 110
16, 19200, Note_on_c, 10, 57, 110
16, 19260, Note_on_c, 10, 57, 0
16, 19260, Note_on_c, 10, 69, 0
16, 19260, Note_on_c, 10, 65, 0
16, 19260, Note_on_c, 10, 64, 0
16, 19320, Note_on_c, 10, 69, 110
16, 19320, Note_on_c, 10, 65, 110
16, 19320, Note_on_c, 10, 64, 110
16, 19320, Note_on_c, 10, 57, 110
16, 19380, Note_on_c, 10, 57, 0
16, 19380, Note_on_c, 10, 69, 0
16, 19380, Note_on_c, 10, 65, 0
16, 19380, Note_on_c, 10, 64, 0
16, 19440, Note_on_c, 10, 69, 110
16, 19440, Note_on_c, 10, 65, 110
16, 19440, Note_on_c, 10, 64, 110
16, 19440, Note_on_c, 10, 57, 110
16, 19500, Note_on_c, 10, 57, 0
16, 19500, Note_on_c, 10, 69, 0
16, 19500, Note_on_c, 10, 65, 0
16, 19500, Note_on_c, 10, 64, 0
16, 19560, Note_on_c, 10, 69, 110
16, 19560, Note_on_c, 10, 65, 110
16, 19560, Note_on_c, 10, 64, 110
16, 19560, Note_on_c, 10, 57, 110
16, 19620, Note_on_c, 10, 57, 0
16, 19620, Note_on_c, 10, 69, 0
16, 19620, Note_on_c, 10, 65, 0
16, 19620, Note_on_c, 10, 64, 0
16, 19680, Note_on_c, 10, 69, 110
16, 19680, Note_on_c, 10, 65, 110
16, 19680, Note_on_c, 10, 64, 110
16, 19680, Note_on_c, 10, 57, 110
16, 19800, Note_on_c, 10, 57, 0
16, 19800, Note_on_c, 10, 69, 0
16, 19800, Note_on_c, 10, 65, 0
16, 19800, Note_on_c, 10, 64, 0
16, 20400, Note_on_c, 10, 69, 110
16, 20400, Note_on_c, 10, 65, 110
16, 20400, Note_on_c, 10, 64, 110
16, 20400, Note_on_c, 10, 57, 110
16, 20460, Note_on_c, 10, 57, 0
16, 20460, Note_on_c, 10, 69, 0
16, 20460, Note_on_c, 10, 65, 0
16, 20460, Note_on_c, 10, 64, 0
16, 20520, Note_on_c, 10, 69, 110
16, 20520, Note_on_c, 10, 65, 110
16, 20520, Note_on_c, 10, 64, 110
16, 20520, Note_on_c, 10, 57, 110
16, 20580, Note_on_c, 10, 57, 0
16, 20580, Note_on_c, 10, 69, 0
16, 20580, Note_on_c, 10, 65, 0
16, 20580, Note_on_c, 10, 64, 0
16, 20640, Note_on_c, 10, 69, 110
16, 20640, Note_on_c, 10, 65, 110
16, 20640, Note_on_c, 10, 64, 110
16, 20640, Note_on_c, 10, 57, 110
16, 20700, Note_on_c, 10, 57, 0
16, 20700, Note_on_c, 10, 69, 0
16, 20700, Note_on_c, 10, 65, 0
16, 20700, Note_on_c, 10, 64, 0
16, 20760, Note_on_c, 10, 69, 110
16, 20760, Note_on_c, 10, 65, 110
16, 20760, Note_on_c, 10, 64, 110
16, 20760, Note_on_c, 10, 57, 110
16, 20820, Note_on_c, 10, 57, 0
16, 20820, Note_on_c, 10, 69, 0
16, 20820, Note_on_c, 10, 65, 0
16, 20820, Note_on_c, 10, 64, 0
16, 20880, Note_on_c, 10, 69, 110
16, 20880, Note_on_c, 10, 65, 110
16, 20880, Note_on_c, 10, 64, 110
16, 20880, Note_on_c, 10, 57, 110
16, 21000, Note_on_c, 10, 57, 0
16, 21000, Note_on_c, 10, 69, 0
16, 21000, Note_on_c, 10, 65, 0
16, 21000, Note_on_c, 10, 64, 0
16, 21360, Note_on_c, 10, 69, 110
16, 21360, Note_on_c, 10, 65, 110
16, 21360, Note_on_c, 10, 64, 110
16, 21360, Note_on_c, 10, 57, 110
16, 21420, Note_on_c, 10, 57, 0
16, 21420, Note_on_c, 10, 69, 0
16, 21420, Note_on_c, 10, 65, 0
16, 21420, Note_on_c, 10, 64, 0
16, 21480, Note_on_c, 10, 69, 110
16, 21480, Note_on_c, 10, 65, 110
16, 21480, Note_on_c, 10, 64, 110
16, 21480, Note_on_c, 10, 57, 110
16, 21540, Note_on_c, 10, 57, 0
16, 21540, Note_on_c, 10, 69, 0
16, 21540, Note_on_c, 10, 65, 0
16, 21540, Note_on_c, 10, 64, 0
16, 21600, Note_on_c, 10, 69, 110
16, 21600, Note_on_c, 10, 65, 110
16, 21600, Note_on_c, 10, 64, 110
16, 21600, Note_on_c, 10, 57, 110
16, 21660, Note_on_c, 10, 57, 0
16, 21660, Note_on_c, 10, 69, 0
16, 21660, Note_on_c, 10, 65, 0
16, 21660, Note_on_c, 10, 64, 0
16, 21720, Note_on_c, 10, 69, 110
16, 21720, Note_on_c, 10, 65, 110
16, 21720, Note_on_c, 10, 64, 110
16, 21720, Note_on_c, 10, 57, 110
16, 21780, Note_on_c, 10, 57, 0
16, 21780, Note_on_c, 10, 69, 0
16, 21780, Note_on_c, 10, 65, 0
16, 21780, Note_on_c, 10, 64, 0
16, 21840, Note_on_c, 10, 69, 110
16, 21840, Note_on_c, 10, 65, 110
16, 21840, Note_on_c, 10, 64, 110
16, 21840, Note_on_c, 10, 57, 110
16, 21960, Note_on_c, 10, 57, 0
16, 21960, Note_on_c, 10, 69, 0
16, 21960, Note_on_c, 10, 65, 0
16, 21960, Note_on_c, 10, 64, 0
16, 22080, Note_on_c, 10, 69, 110
16, 22080, Note_on_c, 10, 65, 110
16, 22080, Note_on_c, 10, 64, 110
16, 22080, Note_on_c, 10, 57, 110
16, 22140, Note_on_c, 10, 57, 0
16, 22140, Note_on_c, 10, 69, 0
16, 22140, Note_on_c, 10, 65, 0
16, 22140, Note_on_c, 10, 64, 0
16, 22200, Note_on_c, 10, 69, 110
16, 22200, Note_on_c, 10, 65, 110
16, 22200, Note_on_c, 10, 64, 110
16, 22200, Note_on_c, 10, 57, 110
16, 22260, Note_on_c, 10, 57, 0
16, 22260, Note_on_c, 10, 69, 0
16, 22260, Note_on_c, 10, 65, 0
16, 22260, Note_on_c, 10, 64, 0
16, 22320, Note_on_c, 10, 69, 110
16, 22320, Note_on_c, 10, 65, 110
16, 22320, Note_on_c, 10, 64, 110
16, 22320, Note_on_c, 10, 57, 110
16, 22380, Note_on_c, 10, 57, 0
16, 22380, Note_on_c, 10, 69, 0
16, 22380, Note_on_c, 10, 65, 0
16, 22380, Note_on_c, 10, 64, 0
16, 22440, Note_on_c, 10, 69, 110
16, 22440, Note_on_c, 10, 65, 110
16, 22440, Note_on_c, 10, 64, 110
16, 22440, Note_on_c, 10, 57, 110
16, 22500, Note_on_c, 10, 57, 0
16, 22500, Note_on_c, 10, 69, 0
16, 22500, Note_on_c, 10, 65, 0
16, 22500, Note_on_c, 10, 64, 0
16, 22560, Note_on_c, 10, 69, 110
16, 22560, Note_on_c, 10, 65, 110
16, 22560, Note_on_c, 10, 64, 110
16, 22560, Note_on_c, 10, 57, 110
16, 22680, Note_on_c, 10, 57, 0
16, 22680, Note_on_c, 10, 69, 0
16, 22680, Note_on_c, 10, 65, 0
16, 22680, Note_on_c, 10, 64, 0
16, 30720, Note_on_c, 10, 65, 110
16, 30720, Note_on_c, 10, 62, 110
16, 30720, Note_on_c, 10, 57, 110
16, 30780, Note_on_c, 10, 57, 0
16, 30780, Note_on_c, 10, 62, 0
16, 30780, Note_on_c, 10, 65, 0
16, 30840, Note_on_c, 10, 65, 110
16, 30840, Note_on_c, 10, 62, 110
16, 30840, Note_on_c, 10, 57, 110
16, 30900, Note_on_c, 10, 57, 0
16, 30900, Note_on_c, 10, 62, 0
16, 30900, Note_on_c, 10, 65, 0
16, 30960, Note_on_c, 10, 65, 110
16, 30960, Note_on_c, 10, 62, 110
16, 30960, Note_on_c, 10, 57, 110
16, 31020, Note_on_c, 10, 57, 0
16, 31020, Note_on_c, 10, 62, 0
16, 31020, Note_on_c, 10, 65, 0
16, 31440, Note_on_c, 10, 65, 110
16, 31440, Note_on_c, 10, 62, 110
16, 31440, Note_on_c, 10, 57, 110
16, 31500, Note_on_c, 10, 57, 0
16, 31500, Note_on_c, 10, 62, 0
16, 31500, Note_on_c, 10, 65, 0
16, 31560, Note_on_c, 10, 65, 110
16, 31560, Note_on_c, 10, 62, 110
16, 31560, Note_on_c, 10, 57, 110
16, 31620, Note_on_c, 10, 57, 0
16, 31620, Note_on_c, 10, 62, 0
16, 31620, Note_on_c, 10, 65, 0
16, 31680, Note_on_c, 10, 65, 110
16, 31680, Note_on_c, 10, 62, 110
16, 31680, Note_on_c, 10, 57, 110
16, 31740, Note_on_c, 10, 57, 0
16, 31740, Note_on_c, 10, 62, 0
16, 31740, Note_on_c, 10, 65, 0
16, 32880, Note_on_c, 10, 65, 110
16, 32880, Note_on_c, 10, 62, 110
16, 32880, Note_on_c, 10, 57, 110
16, 32940, Note_on_c, 10, 57, 0
16, 32940, Note_on_c, 10, 62, 0
16, 32940, Note_on_c, 10, 65, 0
16, 33000, Note_on_c, 10, 65, 110
16, 33000, Note_on_c, 10, 62, 110
16, 33000, Note_on_c, 10, 57, 110
16, 33060, Note_on_c, 10, 57, 0
16, 33060, Note_on_c, 10, 62, 0
16, 33060, Note_on_c, 10, 65, 0
16, 33120, Note_on_c, 10, 65, 110
16, 33120, Note_on_c, 10, 62, 110
16, 33120, Note_on_c, 10, 57, 110
16, 33180, Note_on_c, 10, 57, 0
16, 33180, Note_on_c, 10, 62, 0
16, 33180, Note_on_c, 10, 65, 0
16, 33240, Note_on_c, 10, 65, 110
16, 33240, Note_on_c, 10, 62, 110
16, 33240, Note_on_c, 10, 57, 110
16, 33300, Note_on_c, 10, 57, 0
16, 33300, Note_on_c, 10, 62, 0
16, 33300, Note_on_c, 10, 65, 0
16, 33360, Note_on_c, 10, 65, 110
16, 33360, Note_on_c, 10, 62, 110
16, 33360, Note_on_c, 10, 57, 110
16, 33420, Note_on_c, 10, 57, 0
16, 33420, Note_on_c, 10, 62, 0
16, 33420, Note_on_c, 10, 65, 0
16, 33600, Note_on_c, 10, 65, 110
16, 33600, Note_on_c, 10, 62, 110
16, 33600, Note_on_c, 10, 57, 110
16, 33660, Note_on_c, 10, 57, 0
16, 33660, Note_on_c, 10, 62, 0
16, 33660, Note_on_c, 10, 65, 0
16, 33720, Note_on_c, 10, 65, 110
16, 33720, Note_on_c, 10, 62, 110
16, 33720, Note_on_c, 10, 57, 110
16, 33780, Note_on_c, 10, 57, 0
16, 33780, Note_on_c, 10, 62, 0
16, 33780, Note_on_c, 10, 65, 0
16, 33840, Note_on_c, 10, 65, 110
16, 33840, Note_on_c, 10, 62, 110
16, 33840, Note_on_c, 10, 57, 110
16, 33900, Note_on_c, 10, 57, 0
16, 33900, Note_on_c, 10, 62, 0
16, 33900, Note_on_c, 10, 65, 0
16, 33960, Note_on_c, 10, 65, 110
16, 33960, Note_on_c, 10, 62, 110
16, 33960, Note_on_c, 10, 57, 110
16, 34020, Note_on_c, 10, 57, 0
16, 34020, Note_on_c, 10, 62, 0
16, 34020, Note_on_c, 10, 65, 0
16, 34080, Note_on_c, 10, 65, 110
16, 34080, Note_on_c, 10, 62, 110
16, 34080, Note_on_c, 10, 57, 110
16, 34140, Note_on_c, 10, 57, 0
16, 34140, Note_on_c, 10, 62, 0
16, 34140, Note_on_c, 10, 65, 0
16, 46080, Note_on_c, 10, 67, 110
16, 46080, Note_on_c, 10, 63, 110
16, 46080, Note_on_c, 10, 62, 110
16, 46140, Note_on_c, 10, 62, 0
16, 46140, Note_on_c, 10, 63, 0
16, 46140, Note_on_c, 10, 67, 0
16, 46200, Note_on_c, 10, 67, 110
16, 46200, Note_on_c, 10, 63, 110
16, 46200, Note_on_c, 10, 62, 110
16, 46260, Note_on_c, 10, 62, 0
16, 46260, Note_on_c, 10, 63, 0
16, 46260, Note_on_c, 10, 67, 0
16, 46320, Note_on_c, 10, 67, 110
16, 46320, Note_on_c, 10, 63, 110
16, 46320, Note_on_c, 10, 62, 110
16, 46380, Note_on_c, 10, 62, 0
16, 46380, Note_on_c, 10, 63, 0
16, 46380, Note_on_c, 10, 67, 0
16, 46800, Note_on_c, 10, 67, 110
16, 46800, Note_on_c, 10, 63, 110
16, 46800, Note_on_c, 10, 62, 110
16, 46860, Note_on_c, 10, 62, 0
16, 46860, Note_on_c, 10, 63, 0
16, 46860, Note_on_c, 10, 67, 0
16, 46920, Note_on_c, 10, 67, 110
16, 46920, Note_on_c, 10, 63, 110
16, 46920, Note_on_c, 10, 62, 110
16, 46980, Note_on_c, 10, 62, 0
16, 46980, Note_on_c, 10, 63, 0
16, 46980, Note_on_c, 10, 67, 0
16, 47040, Note_on_c, 10, 67, 110
16, 47040, Note_on_c, 10, 63, 110
16, 47040, Note_on_c, 10, 62, 110
16, 47100, Note_on_c, 10, 62, 0
16, 47100, Note_on_c, 10, 63, 0
16, 47100, Note_on_c, 10, 67, 0
16, 48240, Note_on_c, 10, 67, 110
16, 48240, Note_on_c, 10, 63, 110
16, 48240, Note_on_c, 10, 62, 110
16, 48300, Note_on_c, 10, 62, 0
16, 48300, Note_on_c, 10, 63, 0
16, 48300, Note_on_c, 10, 67, 0
16, 48360, Note_on_c, 10, 67, 110
16, 48360, Note_on_c, 10, 63, 110
16, 48360, Note_on_c, 10, 62, 110
16, 48420, Note_on_c, 10, 62, 0
16, 48420, Note_on_c, 10, 63, 0
16, 48420, Note_on_c, 10, 67, 0
16, 48480, Note_on_c, 10, 67, 110
16, 48480, Note_on_c, 10, 63, 110
16, 48480, Note_on_c, 10, 62, 110
16, 48540, Note_on_c, 10, 62, 0
16, 48540, Note_on_c, 10, 63, 0
16, 48540, Note_on_c, 10, 67, 0
16, 48600, Note_on_c, 10, 67, 110
16, 48600, Note_on_c, 10, 63, 110
16, 48600, Note_on_c, 10, 62, 110
16, 48660, Note_on_c, 10, 62, 0
16, 48660, Note_on_c, 10, 63, 0
16, 48660, Note_on_c, 10, 67, 0
16, 48720, Note_on_c, 10, 67, 110
16, 48720, Note_on_c, 10, 63, 110
16, 48720, Note_on_c, 10, 62, 110
16, 48780, Note_on_c, 10, 62, 0
16, 48780, Note_on_c, 10, 63, 0
16, 48780, Note_on_c, 10, 67, 0
16, 48960, Note_on_c, 10, 67, 110
16, 48960, Note_on_c, 10, 63, 110
16, 48960, Note_on_c, 10, 62, 110
16, 49020, Note_on_c, 10, 62, 0
16, 49020, Note_on_c, 10, 63, 0
16, 49020, Note_on_c, 10, 67, 0
16, 49080, Note_on_c, 10, 67, 110
16, 49080, Note_on_c, 10, 63, 110
16, 49080, Note_on_c, 10, 62, 110
16, 49140, Note_on_c, 10, 62, 0
16, 49140, Note_on_c, 10, 63, 0
16, 49140, Note_on_c, 10, 67, 0
16, 49200, Note_on_c, 10, 67, 110
16, 49200, Note_on_c, 10, 63, 110
16, 49200, Note_on_c, 10, 62, 110
16, 49260, Note_on_c, 10, 62, 0
16, 49260, Note_on_c, 10, 63, 0
16, 49260, Note_on_c, 10, 67, 0
16, 49320, Note_on_c, 10, 67, 110
16, 49320, Note_on_c, 10, 63, 110
16, 49320, Note_on_c, 10, 62, 110
16, 49380, Note_on_c, 10, 62, 0
16, 49380, Note_on_c, 10, 63, 0
16, 49380, Note_on_c, 10, 67, 0
16, 49440, Note_on_c, 10, 67, 110
16, 49440, Note_on_c, 10, 63, 110
16, 49440, Note_on_c, 10, 62, 110
16, 49500, Note_on_c, 10, 62, 0
16, 49500, Note_on_c, 10, 63, 0
16, 49500, Note_on_c, 10, 67, 0
16, 84000, Note_on_c, 10, 62, 100
16, 84120, Note_on_c, 10, 62, 0
16, 84120, Note_on_c, 10, 64, 100
16, 84240, Note_on_c, 10, 64, 0
16, 84240, Note_on_c, 10, 65, 100
16, 84360, Note_on_c, 10, 65, 0
16, 84360, Note_on_c, 10, 67, 100
16, 84480, Note_on_c, 10, 67, 0
16, 84480, Note_on_c, 10, 69, 127
16, 86880, Note_on_c, 10, 69, 0
16, 86880, Note_on_c, 10, 65, 127
16, 87120, Note_on_c, 10, 65, 0
16, 87120, Note_on_c, 10, 67, 127
16, 87360, Note_on_c, 10, 67, 0
16, 87360, Note_on_c, 10, 69, 127
16, 87840, Note_on_c, 10, 69, 0
16, 87840, Note_on_c, 10, 72, 127
16, 88320, Note_on_c, 10, 72, 0
16, 88320, Note_on_c, 10, 71, 127
16, 88800, Note_on_c, 10, 71, 0
16, 88800, Note_on_c, 10, 69, 127
16, 89040, Note_on_c, 10, 69, 0
16, 89040, Note_on_c, 10, 67, 127
16, 92160, Note_on_c, 10, 67, 0
16, 92160, Note_on_c, 10, 72, 127
16, 94560, Note_on_c, 10, 72, 0
16, 94560, Note_on_c, 10, 68, 127
16, 94800, Note_on_c, 10, 68, 0
16, 94800, Note_on_c, 10, 70, 127
16, 95040, Note_on_c, 10, 70, 0
16, 95040, Note_on_c, 10, 72, 127
16, 95520, Note_on_c, 10, 72, 0
16, 95520, Note_on_c, 10, 75, 127
16, 96000, Note_on_c, 10, 75, 0
16, 96000, Note_on_c, 10, 74, 127
16, 96480, Note_on_c, 10, 74, 0
16, 96480, Note_on_c, 10, 72, 127
16, 96720, Note_on_c, 10, 72, 0
16, 96720, Note_on_c, 10, 70, 127
16, 98880, Note_on_c, 10, 70, 0
16, 98880, Note_on_c, 10, 70, 127
16, 99840, Note_on_c, 10, 70, 0
16, 99840, Note_on_c, 10, 72, 127
16, 103680, Note_on_c, 10, 72, 0
16, 103680, End_track
17, 0, Start_track
17, 0, MIDI_port, 0
17, 0, Title_t, "MELO"
17, 0, Control_c, 11, 0, 0
17, 0, Program_c, 11, 50
17, 0, Control_c, 11, 7, 80
17, 0, Control_c, 11, 10, 64
17, 23040, Note_on_c, 11, 62, 120
17, 24480, Note_on_c, 11, 62, 0
17, 24480, Note_on_c, 11, 64, 120
17, 24960, Note_on_c, 11, 64, 0
17, 24960, Note_on_c, 11, 65, 120
17, 26880, Note_on_c, 11, 65, 0
17, 27840, Note_on_c, 11, 62, 120
17, 28320, Note_on_c, 11, 62, 0
17, 28320, Note_on_c, 11, 64, 120
17, 28800, Note_on_c, 11, 64, 0
17, 28800, Note_on_c, 11, 65, 120
17, 29760, Note_on_c, 11, 65, 0
17, 29760, Note_on_c, 11, 67, 120
17, 30720, Note_on_c, 11, 67, 0
17, 30720, Note_on_c, 11, 69, 120
17, 34560, Note_on_c, 11, 69, 0
17, 38400, Note_on_c, 11, 65, 120
17, 39840, Note_on_c, 11, 65, 0
17, 39840, Note_on_c, 11, 67, 120
17, 40320, Note_on_c, 11, 67, 0
17, 40320, Note_on_c, 11, 68, 120
17, 42240, Note_on_c, 11, 68, 0
17, 43200, Note_on_c, 11, 65, 120
17, 43680, Note_on_c, 11, 65, 0
17, 43680, Note_on_c, 11, 67, 120
17, 44160, Note_on_c, 11, 67, 0
17, 44160, Note_on_c, 11, 68, 120
17, 45120, Note_on_c, 11, 68, 0
17, 45120, Note_on_c, 11, 70, 120
17, 46080, Note_on_c, 11, 70, 0
17, 46080, Note_on_c, 11, 72, 120
17, 49920, Note_on_c, 11, 72, 0
17, 53760, Note_on_c, 11, 72, 120
17, 55200, Note_on_c, 11, 72, 0
17, 55200, Note_on_c, 11, 71, 120
17, 55680, Note_on_c, 11, 71, 0
17, 55680, Note_on_c, 11, 69, 120
17, 57600, Note_on_c, 11, 69, 0
17, 58080, Note_on_c, 11, 72, 120
17, 58560, Note_on_c, 11, 72, 0
17, 58560, Note_on_c, 11, 71, 120
17, 59040, Note_on_c, 11, 71, 0
17, 59040, Note_on_c, 11, 69, 120
17, 59520, Note_on_c, 11, 69, 0
17, 59520, Note_on_c, 11, 60, 120
17, 60480, Note_on_c, 11, 60, 0
17, 60480, Note_on_c, 11, 62, 120
17, 61440, Note_on_c, 11, 62, 0
17, 61440, Note_on_c, 11, 64, 120
17, 65280, Note_on_c, 11, 64, 0
17, 69120, Note_on_c, 11, 70, 120
17, 70560, Note_on_c, 11, 70, 0
17, 70560, Note_on_c, 11, 69, 120
17, 71040, Note_on_c, 11, 69, 0
17, 71040, Note_on_c, 11, 67, 120
17, 72960, Note_on_c, 11, 67, 0
17, 73440, Note_on_c, 11, 70, 120
17, 73920, Note_on_c, 11, 70, 0
17, 73920, Note_on_c, 11, 69, 120
17, 74400, Note_on_c, 11, 69, 0
17, 74400, Note_on_c, 11, 67, 120
17, 74880, Note_on_c, 11, 67, 0
17, 74880, Note_on_c, 11, 58, 120
17, 75840, Note_on_c, 11, 58, 0
17, 75840, Note_on_c, 11, 60, 120
17, 76800, Note_on_c, 11, 60, 0
17, 76800, Note_on_c, 11, 62, 120
17, 80640, Note_on_c, 11, 62, 0
17, 80640, End_track
18, 0, Start_track
18, 0, MIDI_port, 0
18, 0, Title_t, "SYNTH1,HORN1"
18, 0, Control_c, 12, 0, 0
18, 0, Program_c, 12, 60
18, 0, Control_c, 12, 7, 100
18, 0, Control_c, 12, 10, 24
18, 53760, Note_on_c, 12, 64, 100
18, 55200, Note_on_c, 12, 64, 0
18, 55200, Note_on_c, 12, 64, 100
18, 55680, Note_on_c, 12, 64, 0
18, 55680, Note_on_c, 12, 64, 100
18, 59520, Note_on_c, 12, 64, 0
18, 61440, Note_on_c, 12, 64, 100
18, 62880, Note_on_c, 12, 64, 0
18, 62880, Note_on_c, 12, 64, 100
18, 63360, Note_on_c, 12, 64, 0
18, 63360, Note_on_c, 12, 64, 100
18, 67200, Note_on_c, 12, 64, 0
18, 69120, Note_on_c, 12, 62, 100
18, 70560, Note_on_c, 12, 62, 0
18, 70560, Note_on_c, 12, 62, 100
18, 71040, Note_on_c, 12, 62, 0
18, 71040, Note_on_c, 12, 62, 100
18, 74880, Note_on_c, 12, 62, 0
18, 76800, Note_on_c, 12, 62, 100
18, 78240, Note_on_c, 12, 62, 0
18, 78240, Note_on_c, 12, 62, 100
18, 78720, Note_on_c, 12, 62, 0
18, 78720, Note_on_c, 12, 62, 100
18, 82560, Note_on_c, 12, 62, 0
18, 82560, End_track
19, 0, Start_track
19, 0, MIDI_port, 0
19, 0, Title_t, "SYNTH2,HORN2"
19, 0, Control_c, 12, 0, 0
19, 0, Program_c, 12, 60
19, 0, Control_c, 12, 7, 100
19, 0, Control_c, 12, 10, 24
19, 53760, Note_on_c, 12, 57, 100
19, 55200, Note_on_c, 12, 57, 0
19, 55200, Note_on_c, 12, 59, 100
19, 55680, Note_on_c, 12, 59, 0
19, 55680, Note_on_c, 12, 60, 100
19, 59520, Note_on_c, 12, 60, 0
19, 61440, Note_on_c, 12, 59, 100
19, 62880, Note_on_c, 12, 59, 0
19, 62880, Note_on_c, 12, 57, 100
19, 63360, Note_on_c, 12, 57, 0
19, 63360, Note_on_c, 12, 55, 100
19, 67200, Note_on_c, 12, 55, 0
19, 69120, Note_on_c, 12, 55, 100
19, 70560, Note_on_c, 12, 55, 0
19, 70560, Note_on_c, 12, 57, 100
19, 71040, Note_on_c, 12, 57, 0
19, 71040, Note_on_c, 12, 58, 100
19, 74880, Note_on_c, 12, 58, 0
19, 76800, Note_on_c, 12, 57, 100
19, 78240, Note_on_c, 12, 57, 0
19, 78240, Note_on_c, 12, 55, 100
19, 78720, Note_on_c, 12, 55, 0
19, 78720, Note_on_c, 12, 53, 100
19, 82560, Note_on_c, 12, 53, 0
19, 82560, End_track
20, 0, Start_track
20, 0, MIDI_port, 0
20, 0, Title_t, "MELO"
20, 0, Control_c, 13, 0, 0
20, 0, Program_c, 13, 85
20, 0, Control_c, 13, 7, 90
20, 0, Control_c, 13, 10, 64
20, 23040, Note_on_c, 13, 62, 100
20, 24480, Note_on_c, 13, 62, 0
20, 24480, Note_on_c, 13, 64, 100
20, 24960, Note_on_c, 13, 64, 0
20, 24960, Note_on_c, 13, 65, 100
20, 26880, Note_on_c, 13, 65, 0
20, 27840, Note_on_c, 13, 62, 100
20, 28320, Note_on_c, 13, 62, 0
20, 28320, Note_on_c, 13, 64, 100
20, 28800, Note_on_c, 13, 64, 0
20, 28800, Note_on_c, 13, 65, 100
20, 29760, Note_on_c, 13, 65, 0
20, 29760, Note_on_c, 13, 67, 100
20, 30720, Note_on_c, 13, 67, 0
20, 30720, Note_on_c, 13, 69, 100
20, 34560, Note_on_c, 13, 69, 0
20, 38400, Note_on_c, 13, 65, 100
20, 39840, Note_on_c, 13, 65, 0
20, 39840, Note_on_c, 13, 67, 100
20, 40320, Note_on_c, 13, 67, 0
20, 40320, Note_on_c, 13, 68, 100
20, 42240, Note_on_c, 13, 68, 0
20, 43200, Note_on_c, 13, 65, 100
20, 43680, Note_on_c, 13, 65, 0
20, 43680, Note_on_c, 13, 67, 100
20, 44160, Note_on_c, 13, 67, 0
20, 44160, Note_on_c, 13, 68, 100
20, 45120, Note_on_c, 13, 68, 0
20, 45120, Note_on_c, 13, 70, 100
20, 46080, Note_on_c, 13, 70, 0
20, 46080, Note_on_c, 13, 72, 100
20, 49920, Note_on_c, 13, 72, 0
20, 53760, Note_on_c, 13, 72, 100
20, 55200, Note_on_c, 13, 72, 0
20, 55200, Note_on_c, 13, 71, 100
20, 55680, Note_on_c, 13, 71, 0
20, 55680, Note_on_c, 13, 69, 100
20, 57600, Note_on_c, 13, 69, 0
20, 58080, Note_on_c, 13, 72, 100
20, 58560, Note_on_c, 13, 72, 0
20, 58560, Note_on_c, 13, 71, 100
20, 59040, Note_on_c, 13, 71, 0
20, 59040, Note_on_c, 13, 69, 100
20, 59520, Note_on_c, 13, 69, 0
20, 59520, Note_on_c, 13, 60, 100
20, 60480, Note_on_c, 13, 60, 0
20, 60480, Note_on_c, 13, 62, 100
20, 61440, Note_on_c, 13, 62, 0
20, 61440, Note_on_c, 13, 64, 100
20, 65280, Note_on_c, 13, 64, 0
20, 69120, Note_on_c, 13, 70, 100
20, 70560, Note_on_c, 13, 70, 0
20, 70560, Note_on_c, 13, 69, 100
20, 71040, Note_on_c, 13, 69, 0
20, 71040, Note_on_c, 13, 67, 100
20, 72960, Note_on_c, 13, 67, 0
20, 73440, Note_on_c, 13, 70, 100
20, 73920, Note_on_c, 13, 70, 0
20, 73920, Note_on_c, 13, 69, 100
20, 74400, Note_on_c, 13, 69, 0
20, 74400, Note_on_c, 13, 67, 100
20, 74880, Note_on_c, 13, 67, 0
20, 74880, Note_on_c, 13, 58, 100
20, 75840, Note_on_c, 13, 58, 0
20, 75840, Note_on_c, 13, 60, 100
20, 76800, Note_on_c, 13, 60, 0
20, 76800, Note_on_c, 13, 62, 100
20, 80640, Note_on_c, 13, 62, 0
20, 80640, End_track
21, 0, Start_track
21, 0, MIDI_port, 0
21, 0, Title_t, "ST1"
21, 0, Control_c, 14, 0, 0
21, 0, Program_c, 14, 49
21, 0, Control_c, 14, 7, 100
21, 0, Control_c, 14, 10, 20
21, 7680, Note_on_c, 14, 68, 120
21, 11520, Note_on_c, 14, 68, 0
21, 15360, Note_on_c, 14, 68, 120
21, 17280, Note_on_c, 14, 68, 0
21, 17280, Note_on_c, 14, 74, 120
21, 19200, Note_on_c, 14, 74, 0
21, 84480, Note_on_c, 14, 69, 120
21, 86400, Note_on_c, 14, 69, 0
21, 86400, Note_on_c, 14, 72, 120
21, 88320, Note_on_c, 14, 72, 0
21, 88320, Note_on_c, 14, 71, 120
21, 90240, Note_on_c, 14, 71, 0
21, 90240, Note_on_c, 14, 74, 120
21, 92160, Note_on_c, 14, 74, 0
21, 92160, Note_on_c, 14, 72, 120
21, 94080, Note_on_c, 14, 72, 0
21, 94080, Note_on_c, 14, 75, 120
21, 96000, Note_on_c, 14, 75, 0
21, 96000, Note_on_c, 14, 74, 120
21, 97920, Note_on_c, 14, 74, 0
21, 97920, Note_on_c, 14, 77, 120
21, 99840, Note_on_c, 14, 77, 0
21, 99840, End_track
22, 0, Start_track
22, 0, MIDI_port, 0
22, 0, Title_t, "ST2"
22, 0, Control_c, 14, 0, 0
22, 0, Program_c, 14, 49
22, 0, Control_c, 14, 7, 100
22, 0, Control_c, 14, 10, 50
22, 7680, Note_on_c, 14, 64, 120
22, 11520, Note_on_c, 14, 64, 0
22, 15360, Note_on_c, 14, 64, 120
22, 19200, Note_on_c, 14, 64, 0
22, 84480, Note_on_c, 14, 65, 120
22, 88320, Note_on_c, 14, 65, 0
22, 88320, Note_on_c, 14, 67, 120
22, 92160, Note_on_c, 14, 67, 0
22, 92160, Note_on_c, 14, 68, 120
22, 96000, Note_on_c, 14, 68, 0
22, 96000, Note_on_c, 14, 70, 120
22, 99840, Note_on_c, 14, 70, 0
22, 99840, End_track
23, 0, Start_track
23, 0, MIDI_port, 0
23, 0, Title_t, "ST3"
23, 0, Control_c, 15, 0, 0
23, 0, Program_c, 15, 49
23, 0, Control_c, 15, 7, 100
23, 0, Control_c, 15, 10, 80
23, 7680, Note_on_c, 15, 62, 120
23, 11520, Note_on_c, 15, 62, 0
23, 15360, Note_on_c, 15, 62, 120
23, 19200, Note_on_c, 15, 62, 0
23, 84480, Note_on_c, 15, 60, 120
23, 86400, Note_on_c, 15, 60, 0
23, 86400, Note_on_c, 15, 64, 120
23, 88320, Note_on_c, 15, 64, 0
23, 88320, Note_on_c, 15, 62, 120
23, 90240, Note_on_c, 15, 62, 0
23, 90240, Note_on_c, 15, 65, 120
23, 92160, Note_on_c, 15, 65, 0
23, 92160, Note_on_c, 15, 63, 120
23, 94080, Note_on_c, 15, 63, 0
23, 94080, Note_on_c, 15, 67, 120
23, 96000, Note_on_c, 15, 67, 0
23, 96000, Note_on_c, 15, 65, 120
23, 97920, Note_on_c, 15, 65, 0
23, 97920, Note_on_c, 15, 69, 120
23, 99840, Note_on_c, 15, 69, 0
23, 99840, End_track
24, 0, Start_track
24, 0, MIDI_port, 0
24, 0, Title_t, "ST4"
24, 0, Control_c, 15, 0, 0
24, 0, Program_c, 15, 49
24, 0, Control_c, 15, 7, 100
24, 0, Control_c, 15, 10, 110
24, 7680, Note_on_c, 15, 58, 120
24, 11520, Note_on_c, 15, 58, 0
24, 15360, Note_on_c, 15, 58, 120
24, 19200, Note_on_c, 15, 58, 0
24, 19200, End_track
0, 0, End_of_file