0, 0, Header, 1, 14, 384
1, 0, Start_track
1, 0, Tempo, 454540
1, 0, Time_signature, 4, 2, 24, 8
1, 55680, Tempo, 659340
1, 57595, Tempo, 666660
1, 57815, Tempo, 674150
1, 57875, Tempo, 681810
1, 57934, Tempo, 689650
1, 57987, Tempo, 697670
1, 58059, Tempo, 705880
1, 58108, Tempo, 714280
1, 58162, Tempo, 722890
1, 58228, Tempo, 731700
1, 58279, Tempo, 740740
1, 58344, Tempo, 750000
1, 58393, Tempo, 759490
1, 58444, Tempo, 769230
1, 58495, Tempo, 779220
1, 58545, Tempo, 789470
1, 58605, Tempo, 800000
1, 58664, Tempo, 810810
1, 58708, Tempo, 821910
1, 58761, Tempo, 833330
1, 58802, Tempo, 845070
1, 58849, Tempo, 857140
1, 58894, Tempo, 869560
1, 58939, Tempo, 882350
1, 58983, Tempo, 895520
1, 59027, Tempo, 909090
1, 59070, Tempo, 923070
1, 59122, Tempo, 937500
1, 59161, Tempo, 952380
1, 59202, Tempo, 967740
1, 59243, Tempo, 983600
1, 59282, Tempo, 1000000
1, 59321, Tempo, 1016940
1, 59360, Tempo, 1034480
1, 59398, Tempo, 1052630
1, 59434, Tempo, 1071420
1, 59480, Tempo, 1090900
1, 59519, Tempo, 1111110
1, 59554, Tempo, 1132070
1, 59589, Tempo, 1153840
1, 61440, End_track
2, 0, Start_track
2, 0, Title_t, "Set-Up"
2, 1, System_exclusive, 5, 5, 126, 127, 9, 1
2, 413, Program_c, 1, 32
2, 417, Control_c, 1, 11, 127
2, 417, Control_c, 1, 10, 64
2, 417, Control_c, 1, 7, 90
2, 421, Control_c, 1, 93, 39
2, 421, Control_c, 1, 91, 0
2, 433, Program_c, 2, 0
2, 437, Control_c, 2, 11, 127
2, 437, Control_c, 2, 10, 56
2, 437, Control_c, 2, 7, 127
2, 441, Control_c, 2, 93, 0
2, 441, Control_c, 2, 91, 80
2, 453, Program_c, 3, 0
2, 457, Control_c, 3, 11, 127
2, 457, Control_c, 3, 10, 70
2, 457, Control_c, 3, 7, 127
2, 461, Control_c, 3, 93, 0
2, 461, Control_c, 3, 91, 80
2, 473, Program_c, 4, 66
2, 477, Control_c, 4, 11, 127
2, 477, Control_c, 4, 10, 24
2, 477, Control_c, 4, 7, 90
2, 481, Control_c, 4, 93, 0
2, 481, Control_c, 4, 91, 96
2, 493, Program_c, 5, 65
2, 497, Control_c, 5, 11, 127
2, 497, Control_c, 5, 10, 35
2, 497, Control_c, 5, 7, 95
2, 501, Control_c, 5, 93, 0
2, 501, Control_c, 5, 91, 93
2, 513, Program_c, 6, 26
2, 517, Control_c, 6, 11, 127
2, 517, Control_c, 6, 10, 124
2, 517, Control_c, 6, 7, 90
2, 521, Control_c, 6, 93, 63
2, 521, Control_c, 6, 91, 50
2, 533, Program_c, 7, 56
2, 537, Control_c, 7, 11, 127
2, 537, Control_c, 7, 10, 94
2, 537, Control_c, 7, 7, 120
2, 541, Control_c, 7, 93, 0
2, 541, Control_c, 7, 91, 70
2, 553, Program_c, 8, 57
2, 557, Control_c, 8, 11, 61
2, 557, Control_c, 8, 10, 84
2, 557, Control_c, 8, 7, 100
2, 561, Control_c, 8, 93, 0
2, 561, Control_c, 8, 91, 60
2, 577, Control_c, 9, 11, 127
2, 577, Control_c, 9, 7, 92
2, 581, Control_c, 9, 93, 0
2, 581, Control_c, 9, 91, 100
2, 593, Program_c, 10, 58
2, 597, Control_c, 10, 11, 61
2, 597, Control_c, 10, 10, 44
2, 597, Control_c, 10, 7, 100
2, 601, Control_c, 10, 93, 0
2, 601, Control_c, 10, 91, 40
2, 613, Program_c, 11, 27
2, 617, Control_c, 11, 11, 127
2, 617, Control_c, 11, 10, 10
2, 617, Control_c, 11, 7, 90
2, 621, Control_c, 11, 93, 64
2, 621, Control_c, 11, 91, 40
2, 653, Program_c, 13, 19
2, 657, Control_c, 13, 11, 85
2, 657, Control_c, 13, 10, 10
2, 657, Control_c, 13, 7, 110
2, 661, Control_c, 13, 93, 0
2, 661, Control_c, 13, 91, 127
2, 769, Control_c, 6, 101, 0
2, 773, Control_c, 6, 100, 0
2, 777, Control_c, 6, 6, 12
2, 781, Control_c, 6, 101, 127
2, 785, Control_c, 6, 100, 127
2, 1536, End_track
3, 0, Start_track
3, 0, Title_t, "Drums"
3, 3084, Note_on_c, 9, 55, 67
3, 3096, Note_off_c, 9, 55, 67
3, 3456, Note_on_c, 9, 53, 65
3, 3468, Note_off_c, 9, 53, 65
3, 3712, Note_on_c, 9, 51, 60
3, 3724, Note_off_c, 9, 51, 60
3, 3840, Note_on_c, 9, 55, 61
3, 3852, Note_off_c, 9, 55, 61
3, 4224, Note_on_c, 9, 53, 69
3, 4236, Note_off_c, 9, 53, 69
3, 4480, Note_on_c, 9, 51, 52
3, 4492, Note_off_c, 9, 51, 52
3, 4612, Note_on_c, 9, 55, 61
3, 4624, Note_off_c, 9, 55, 61
3, 4992, Note_on_c, 9, 53, 65
3, 5004, Note_off_c, 9, 53, 65
3, 5248, Note_on_c, 9, 51, 56
3, 5260, Note_off_c, 9, 51, 56
3, 5376, Note_on_c, 9, 55, 63
3, 5388, Note_off_c, 9, 55, 63
3, 5760, Note_on_c, 9, 53, 69
3, 5772, Note_off_c, 9, 53, 69
3, 6016, Note_on_c, 9, 51, 64
3, 6028, Note_off_c, 9, 51, 64
3, 6148, Note_on_c, 9, 55, 63
3, 6160, Note_off_c, 9, 55, 63
3, 6528, Note_on_c, 9, 53, 65
3, 6540, Note_off_c, 9, 53, 65
3, 6784, Note_on_c, 9, 51, 64
3, 6796, Note_off_c, 9, 51, 64
3, 6912, Note_on_c, 9, 55, 64
3, 6924, Note_off_c, 9, 55, 64
3, 7296, Note_on_c, 9, 53, 69
3, 7308, Note_off_c, 9, 53, 69
3, 7552, Note_on_c, 9, 51, 64
3, 7564, Note_off_c, 9, 51, 64
3, 7680, Note_on_c, 9, 55, 62
3, 7692, Note_off_c, 9, 55, 62
3, 8064, Note_on_c, 9, 53, 65
3, 8076, Note_off_c, 9, 53, 65
3, 8320, Note_on_c, 9, 51, 67
3, 8332, Note_off_c, 9, 51, 67
3, 8448, Note_on_c, 9, 55, 64
3, 8460, Note_off_c, 9, 55, 64
3, 8832, Note_on_c, 9, 53, 69
3, 8844, Note_off_c, 9, 53, 69
3, 9084, Note_on_c, 9, 51, 64
3, 9096, Note_off_c, 9, 51, 64
3, 9216, Note_on_c, 9, 55, 62
3, 9228, Note_off_c, 9, 55, 62
3, 9600, Note_on_c, 9, 53, 65
3, 9612, Note_off_c, 9, 53, 65
3, 9856, Note_on_c, 9, 51, 58
3, 9868, Note_off_c, 9, 51, 58
3, 9980, Note_on_c, 9, 55, 67
3, 9992, Note_off_c, 9, 55, 67
3, 10368, Note_on_c, 9, 53, 69
3, 10380, Note_off_c, 9, 53, 69
3, 10620, Note_on_c, 9, 51, 82
3, 10632, Note_off_c, 9, 51, 82
3, 10752, Note_on_c, 9, 55, 67
3, 10764, Note_off_c, 9, 55, 67
3, 11136, Note_on_c, 9, 53, 65
3, 11148, Note_off_c, 9, 53, 65
3, 11392, Note_on_c, 9, 51, 67
3, 11404, Note_off_c, 9, 51, 67
3, 11524, Note_on_c, 9, 55, 63
3, 11536, Note_off_c, 9, 55, 63
3, 11904, Note_on_c, 9, 53, 69
3, 11916, Note_off_c, 9, 53, 69
3, 12160, Note_on_c, 9, 51, 67
3, 12172, Note_off_c, 9, 51, 67
3, 12288, Note_on_c, 9, 55, 64
3, 12300, Note_off_c, 9, 55, 64
3, 12672, Note_on_c, 9, 53, 65
3, 12684, Note_off_c, 9, 53, 65
3, 12928, Note_on_c, 9, 51, 71
3, 12940, Note_off_c, 9, 51, 71
3, 13060, Note_on_c, 9, 55, 67
3, 13072, Note_off_c, 9, 55, 67
3, 13440, Note_on_c, 9, 53, 69
3, 13452, Note_off_c, 9, 53, 69
3, 13696, Note_on_c, 9, 51, 64
3, 13708, Note_off_c, 9, 51, 64
3, 13824, Note_on_c, 9, 55, 61
3, 13836, Note_off_c, 9, 55, 61
3, 14208, Note_on_c, 9, 53, 65
3, 14220, Note_off_c, 9, 53, 65
3, 14464, Note_on_c, 9, 51, 53
3, 14476, Note_off_c, 9, 51, 53
3, 14592, Note_on_c, 9, 55, 71
3, 14604, Note_off_c, 9, 55, 71
3, 14976, Note_on_c, 9, 53, 69
3, 14988, Note_off_c, 9, 53, 69
3, 15228, Note_on_c, 9, 51, 63
3, 15240, Note_off_c, 9, 51, 63
3, 15364, Note_on_c, 9, 55, 63
3, 15376, Note_off_c, 9, 55, 63
3, 15492, Note_on_c, 9, 57, 20
3, 15504, Note_off_c, 9, 57, 20
3, 15532, Note_on_c, 9, 54, 48
3, 15544, Note_off_c, 9, 54, 48
3, 15544, Note_on_c, 9, 56, 1
3, 15556, Note_off_c, 9, 56, 1
3, 15564, Note_on_c, 9, 50, 34
3, 15576, Note_off_c, 9, 50, 34
3, 15576, Note_on_c, 9, 54, 17
3, 15588, Note_off_c, 9, 54, 17
3, 15592, Note_on_c, 9, 52, 1
3, 15604, Note_off_c, 9, 52, 1
3, 15604, Note_on_c, 9, 49, 91
3, 15616, Note_off_c, 9, 49, 91
3, 15744, Note_on_c, 9, 53, 65
3, 15756, Note_off_c, 9, 53, 65
3, 15996, Note_on_c, 9, 45, 91
3, 16000, Note_on_c, 9, 51, 67
3, 16008, Note_off_c, 9, 45, 91
3, 16012, Note_off_c, 9, 51, 67
3, 16120, Note_on_c, 9, 57, 91
3, 16124, Note_on_c, 9, 55, 69
3, 16132, Note_off_c, 9, 57, 91
3, 16136, Note_off_c, 9, 55, 69
3, 16248, Note_on_c, 9, 56, 85
3, 16260, Note_off_c, 9, 56, 85
3, 16376, Note_on_c, 9, 54, 54
3, 16388, Note_off_c, 9, 54, 54
3, 16512, Note_on_c, 9, 53, 69
3, 16516, Note_on_c, 9, 54, 85
3, 16524, Note_off_c, 9, 53, 69
3, 16528, Note_off_c, 9, 54, 85
3, 16700, Note_on_c, 9, 52, 67
3, 16712, Note_off_c, 9, 52, 67
3, 16740, Note_on_c, 9, 52, 91
3, 16752, Note_off_c, 9, 52, 91
3, 16764, Note_on_c, 9, 51, 69
3, 16772, Note_on_c, 9, 50, 85
3, 16776, Note_off_c, 9, 51, 69
3, 16784, Note_off_c, 9, 50, 85
3, 16892, Note_on_c, 9, 55, 66
3, 16896, Note_on_c, 9, 45, 110
3, 16896, Note_on_c, 9, 61, 78
3, 16904, Note_off_c, 9, 55, 66
3, 16908, Note_off_c, 9, 61, 78
3, 16908, Note_off_c, 9, 45, 110
3, 17272, Note_on_c, 9, 49, 91
3, 17280, Note_on_c, 9, 53, 65
3, 17284, Note_off_c, 9, 49, 91
3, 17292, Note_off_c, 9, 53, 65
3, 17536, Note_on_c, 9, 51, 73
3, 17536, Note_on_c, 9, 45, 71
3, 17548, Note_off_c, 9, 45, 71
3, 17548, Note_off_c, 9, 51, 73
3, 17656, Note_on_c, 9, 45, 103
3, 17668, Note_off_c, 9, 45, 103
3, 17668, Note_on_c, 9, 55, 67
3, 17680, Note_off_c, 9, 55, 67
3, 18044, Note_on_c, 9, 49, 85
3, 18048, Note_on_c, 9, 53, 69
3, 18056, Note_off_c, 9, 49, 85
3, 18060, Note_off_c, 9, 53, 69
3, 18304, Note_on_c, 9, 45, 104
3, 18304, Note_on_c, 9, 51, 69
3, 18316, Note_off_c, 9, 51, 69
3, 18316, Note_off_c, 9, 45, 104
3, 18436, Note_on_c, 9, 55, 69
3, 18448, Note_off_c, 9, 55, 69
3, 18584, Note_on_c, 9, 49, 71
3, 18596, Note_off_c, 9, 49, 71
3, 18624, Note_on_c, 9, 49, 85
3, 18636, Note_off_c, 9, 49, 85
3, 18684, Note_on_c, 9, 45, 79
3, 18688, Note_on_c, 9, 49, 107
3, 18696, Note_off_c, 9, 45, 79
3, 18700, Note_off_c, 9, 49, 107
3, 18816, Note_on_c, 9, 53, 65
3, 18820, Note_on_c, 9, 49, 117
3, 18828, Note_off_c, 9, 53, 65
3, 18832, Note_off_c, 9, 49, 117
3, 19068, Note_on_c, 9, 51, 67
3, 19072, Note_on_c, 9, 45, 73
3, 19080, Note_off_c, 9, 51, 67
3, 19084, Note_off_c, 9, 45, 73
3, 19192, Note_on_c, 9, 45, 107
3, 19196, Note_on_c, 9, 55, 63
3, 19204, Note_off_c, 9, 45, 107
3, 19208, Note_off_c, 9, 55, 63
3, 19576, Note_on_c, 9, 49, 105
3, 19584, Note_on_c, 9, 53, 69
3, 19588, Note_off_c, 9, 49, 105
3, 19596, Note_off_c, 9, 53, 69
3, 19712, Note_on_c, 9, 45, 89
3, 19724, Note_off_c, 9, 45, 89
3, 19840, Note_on_c, 9, 51, 67
3, 19840, Note_on_c, 9, 45, 101
3, 19852, Note_off_c, 9, 45, 101
3, 19852, Note_off_c, 9, 51, 67
3, 19964, Note_on_c, 9, 55, 69
3, 19976, Note_off_c, 9, 55, 69
3, 19980, Note_on_c, 9, 45, 103
3, 19992, Note_off_c, 9, 45, 103
3, 20348, Note_on_c, 9, 49, 79
3, 20352, Note_on_c, 9, 53, 65
3, 20360, Note_off_c, 9, 49, 79
3, 20364, Note_off_c, 9, 53, 65
3, 20608, Note_on_c, 9, 51, 79
3, 20612, Note_on_c, 9, 45, 86
3, 20620, Note_off_c, 9, 51, 79
3, 20624, Note_off_c, 9, 45, 86
3, 20732, Note_on_c, 9, 45, 103
3, 20740, Note_on_c, 9, 55, 64
3, 20744, Note_off_c, 9, 45, 103
3, 20752, Note_off_c, 9, 55, 64
3, 21024, Note_on_c, 9, 57, 91
3, 21036, Note_off_c, 9, 57, 91
3, 21056, Note_on_c, 9, 56, 91
3, 21068, Note_off_c, 9, 56, 91
3, 21092, Note_on_c, 9, 54, 91
3, 21104, Note_off_c, 9, 54, 91
3, 21112, Note_on_c, 9, 45, 102
3, 21120, Note_on_c, 9, 53, 69
3, 21124, Note_off_c, 9, 45, 102
3, 21132, Note_off_c, 9, 53, 69
3, 21372, Note_on_c, 9, 47, 91
3, 21376, Note_on_c, 9, 55, 100
3, 21384, Note_off_c, 9, 47, 91
3, 21388, Note_off_c, 9, 55, 100
3, 21756, Note_on_c, 9, 51, 86
3, 21768, Note_off_c, 9, 51, 86
3, 21768, Note_on_c, 9, 45, 91
3, 21780, Note_off_c, 9, 45, 91
3, 21884, Note_on_c, 9, 49, 91
3, 21888, Note_on_c, 9, 53, 65
3, 21896, Note_off_c, 9, 49, 91
3, 21900, Note_off_c, 9, 53, 65
3, 22012, Note_on_c, 9, 57, 82
3, 22024, Note_off_c, 9, 57, 82
3, 22124, Note_on_c, 9, 45, 86
3, 22136, Note_off_c, 9, 45, 86
3, 22140, Note_on_c, 9, 51, 76
3, 22152, Note_off_c, 9, 51, 76
3, 22264, Note_on_c, 9, 45, 101
3, 22272, Note_on_c, 9, 55, 67
3, 22276, Note_off_c, 9, 45, 101
3, 22284, Note_off_c, 9, 55, 67
3, 22648, Note_on_c, 9, 49, 85
3, 22656, Note_on_c, 9, 53, 69
3, 22660, Note_off_c, 9, 49, 85
3, 22668, Note_off_c, 9, 53, 69
3, 22908, Note_on_c, 9, 45, 65
3, 22908, Note_on_c, 9, 51, 73
3, 22920, Note_off_c, 9, 51, 73
3, 22920, Note_off_c, 9, 45, 65
3, 23032, Note_on_c, 9, 45, 102
3, 23036, Note_on_c, 9, 55, 69
3, 23044, Note_off_c, 9, 45, 102
3, 23048, Note_off_c, 9, 55, 69
3, 23416, Note_on_c, 9, 49, 85
3, 23424, Note_on_c, 9, 53, 65
3, 23428, Note_off_c, 9, 49, 85
3, 23436, Note_off_c, 9, 53, 65
3, 23676, Note_on_c, 9, 45, 60
3, 23680, Note_on_c, 9, 51, 76
3, 23688, Note_off_c, 9, 45, 60
3, 23692, Note_off_c, 9, 51, 76
3, 23800, Note_on_c, 9, 45, 91
3, 23812, Note_off_c, 9, 45, 91
3, 23812, Note_on_c, 9, 55, 73
3, 23824, Note_off_c, 9, 55, 73
3, 24044, Note_on_c, 9, 57, 91
3, 24056, Note_off_c, 9, 57, 91
3, 24096, Note_on_c, 9, 56, 91
3, 24108, Note_off_c, 9, 56, 91
3, 24144, Note_on_c, 9, 54, 91
3, 24156, Note_off_c, 9, 54, 91
3, 24184, Note_on_c, 9, 45, 91
3, 24192, Note_on_c, 9, 53, 69
3, 24196, Note_off_c, 9, 45, 91
3, 24204, Note_off_c, 9, 53, 69
3, 24444, Note_on_c, 9, 47, 85
3, 24448, Note_on_c, 9, 58, 75
3, 24456, Note_off_c, 9, 47, 85
3, 24460, Note_off_c, 9, 58, 75
3, 24728, Note_on_c, 9, 49, 71
3, 24740, Note_off_c, 9, 49, 71
3, 24768, Note_on_c, 9, 49, 86
3, 24780, Note_off_c, 9, 49, 86
3, 24828, Note_on_c, 9, 51, 67
3, 24832, Note_on_c, 9, 49, 96
3, 24832, Note_on_c, 9, 45, 91
3, 24840, Note_off_c, 9, 51, 67
3, 24844, Note_off_c, 9, 45, 91
3, 24844, Note_off_c, 9, 49, 96
3, 24960, Note_on_c, 9, 49, 117
3, 24960, Note_on_c, 9, 53, 65
3, 24972, Note_off_c, 9, 53, 65
3, 24972, Note_off_c, 9, 49, 117
3, 25084, Note_on_c, 9, 45, 73
3, 25096, Note_off_c, 9, 45, 73
3, 25212, Note_on_c, 9, 51, 63
3, 25212, Note_on_c, 9, 45, 85
3, 25224, Note_off_c, 9, 45, 85
3, 25224, Note_off_c, 9, 51, 63
3, 25344, Note_on_c, 9, 55, 69
3, 25344, Note_on_c, 9, 45, 73
3, 25356, Note_off_c, 9, 45, 73
3, 25356, Note_off_c, 9, 55, 69
3, 25724, Note_on_c, 9, 49, 85
3, 25728, Note_on_c, 9, 53, 69
3, 25736, Note_off_c, 9, 49, 85
3, 25740, Note_off_c, 9, 53, 69
3, 25980, Note_on_c, 9, 51, 76
3, 25992, Note_off_c, 9, 51, 76
3, 25992, Note_on_c, 9, 45, 60
3, 26004, Note_off_c, 9, 45, 60
3, 26112, Note_on_c, 9, 55, 69
3, 26116, Note_on_c, 9, 45, 85
3, 26124, Note_off_c, 9, 55, 69
3, 26128, Note_off_c, 9, 45, 85
3, 26492, Note_on_c, 9, 49, 85
3, 26496, Note_on_c, 9, 53, 65
3, 26504, Note_off_c, 9, 49, 85
3, 26508, Note_off_c, 9, 53, 65
3, 26628, Note_on_c, 9, 45, 73
3, 26640, Note_off_c, 9, 45, 73
3, 26752, Note_on_c, 9, 51, 76
3, 26756, Note_on_c, 9, 45, 73
3, 26764, Note_off_c, 9, 51, 76
3, 26768, Note_off_c, 9, 45, 73
3, 26884, Note_on_c, 9, 45, 85
3, 26884, Note_on_c, 9, 55, 76
3, 26896, Note_off_c, 9, 55, 76
3, 26896, Note_off_c, 9, 45, 85
3, 27168, Note_on_c, 9, 57, 73
3, 27180, Note_off_c, 9, 57, 73
3, 27216, Note_on_c, 9, 54, 73
3, 27228, Note_off_c, 9, 54, 73
3, 27256, Note_on_c, 9, 49, 91
3, 27264, Note_on_c, 9, 53, 69
3, 27268, Note_off_c, 9, 49, 91
3, 27276, Note_off_c, 9, 53, 69
3, 27524, Note_on_c, 9, 45, 91
3, 27524, Note_on_c, 9, 58, 76
3, 27536, Note_off_c, 9, 58, 76
3, 27536, Note_off_c, 9, 45, 91
3, 27900, Note_on_c, 9, 45, 50
3, 27900, Note_on_c, 9, 53, 73
3, 27912, Note_off_c, 9, 53, 73
3, 27912, Note_off_c, 9, 45, 50
3, 28028, Note_on_c, 9, 45, 87
3, 28032, Note_on_c, 9, 53, 65
3, 28040, Note_off_c, 9, 45, 87
3, 28044, Note_off_c, 9, 53, 65
3, 28156, Note_on_c, 9, 47, 42
3, 28168, Note_off_c, 9, 47, 42
3, 28284, Note_on_c, 9, 47, 67
3, 28296, Note_off_c, 9, 47, 67
3, 28412, Note_on_c, 9, 54, 93
3, 28424, Note_off_c, 9, 54, 93
3, 28544, Note_on_c, 9, 49, 47
3, 28556, Note_off_c, 9, 49, 47
3, 28668, Note_on_c, 9, 49, 58
3, 28680, Note_off_c, 9, 49, 58
3, 28796, Note_on_c, 9, 52, 82
3, 28800, Note_on_c, 9, 53, 69
3, 28808, Note_off_c, 9, 52, 82
3, 28812, Note_off_c, 9, 53, 69
3, 28928, Note_on_c, 9, 49, 47
3, 28940, Note_off_c, 9, 49, 47
3, 29048, Note_on_c, 9, 49, 82
3, 29060, Note_off_c, 9, 49, 82
3, 29120, Note_on_c, 9, 49, 69
3, 29132, Note_off_c, 9, 49, 69
3, 29184, Note_on_c, 9, 45, 64
3, 29184, Note_on_c, 9, 66, 86
3, 29188, Note_on_c, 9, 55, 63
3, 29196, Note_off_c, 9, 66, 86
3, 29196, Note_off_c, 9, 45, 64
3, 29200, Note_off_c, 9, 55, 63
3, 29564, Note_on_c, 9, 49, 61
3, 29568, Note_on_c, 9, 53, 65
3, 29568, Note_on_c, 9, 60, 76
3, 29576, Note_off_c, 9, 49, 61
3, 29580, Note_off_c, 9, 60, 76
3, 29580, Note_off_c, 9, 53, 65
3, 29824, Note_on_c, 9, 60, 58
3, 29836, Note_off_c, 9, 60, 58
3, 29952, Note_on_c, 9, 60, 105
3, 29964, Note_off_c, 9, 60, 105
3, 30208, Note_on_c, 9, 49, 73
3, 30220, Note_off_c, 9, 49, 73
3, 30336, Note_on_c, 9, 53, 69
3, 30336, Note_on_c, 9, 60, 84
3, 30348, Note_off_c, 9, 60, 84
3, 30348, Note_off_c, 9, 53, 69
3, 30588, Note_on_c, 9, 45, 42
3, 30600, Note_off_c, 9, 45, 42
3, 30716, Note_on_c, 9, 45, 82
3, 30716, Note_on_c, 9, 60, 93
3, 30728, Note_off_c, 9, 60, 93
3, 30728, Note_off_c, 9, 45, 82
3, 30972, Note_on_c, 9, 55, 50
3, 30984, Note_off_c, 9, 55, 50
3, 31100, Note_on_c, 9, 49, 84
3, 31100, Note_on_c, 9, 60, 79
3, 31104, Note_on_c, 9, 53, 65
3, 31112, Note_off_c, 9, 60, 79
3, 31112, Note_off_c, 9, 49, 84
3, 31116, Note_off_c, 9, 53, 65
3, 31356, Note_on_c, 9, 60, 41
3, 31368, Note_off_c, 9, 60, 41
3, 31484, Note_on_c, 9, 60, 96
3, 31496, Note_off_c, 9, 60, 96
3, 31740, Note_on_c, 9, 49, 30
3, 31752, Note_off_c, 9, 49, 30
3, 31868, Note_on_c, 9, 49, 82
3, 31868, Note_on_c, 9, 58, 58
3, 31872, Note_on_c, 9, 53, 69
3, 31880, Note_off_c, 9, 58, 58
3, 31880, Note_off_c, 9, 49, 82
3, 31884, Note_off_c, 9, 53, 69
3, 32120, Note_on_c, 9, 61, 122
3, 32124, Note_on_c, 9, 49, 105
3, 32132, Note_off_c, 9, 61, 122
3, 32136, Note_off_c, 9, 49, 105
3, 32508, Note_on_c, 9, 55, 53
3, 32520, Note_off_c, 9, 55, 53
3, 32632, Note_on_c, 9, 49, 77
3, 32636, Note_on_c, 9, 60, 60
3, 32640, Note_on_c, 9, 53, 66
3, 32644, Note_off_c, 9, 49, 77
3, 32648, Note_off_c, 9, 60, 60
3, 32652, Note_off_c, 9, 53, 66
3, 32892, Note_on_c, 9, 60, 11
3, 32904, Note_off_c, 9, 60, 11
3, 33020, Note_on_c, 9, 60, 87
3, 33032, Note_off_c, 9, 60, 87
3, 33276, Note_on_c, 9, 49, 76
3, 33288, Note_off_c, 9, 49, 76
3, 33404, Note_on_c, 9, 60, 87
3, 33408, Note_on_c, 9, 53, 69
3, 33416, Note_off_c, 9, 60, 87
3, 33420, Note_off_c, 9, 53, 69
3, 33656, Note_on_c, 9, 45, 40
3, 33668, Note_off_c, 9, 45, 40
3, 33668, Note_on_c, 9, 55, 63
3, 33680, Note_off_c, 9, 55, 63
3, 33784, Note_on_c, 9, 45, 61
3, 33788, Note_on_c, 9, 60, 87
3, 33796, Note_off_c, 9, 45, 61
3, 33800, Note_off_c, 9, 60, 87
3, 34172, Note_on_c, 9, 49, 76
3, 34172, Note_on_c, 9, 60, 73
3, 34176, Note_on_c, 9, 53, 65
3, 34184, Note_off_c, 9, 60, 73
3, 34184, Note_off_c, 9, 49, 76
3, 34188, Note_off_c, 9, 53, 65
3, 34432, Note_on_c, 9, 60, 50
3, 34444, Note_off_c, 9, 60, 50
3, 34560, Note_on_c, 9, 60, 93
3, 34572, Note_off_c, 9, 60, 93
3, 34816, Note_on_c, 9, 49, 67
3, 34828, Note_off_c, 9, 49, 67
3, 34944, Note_on_c, 9, 49, 87
3, 34944, Note_on_c, 9, 53, 69
3, 34944, Note_on_c, 9, 64, 69
3, 34956, Note_off_c, 9, 64, 69
3, 34956, Note_off_c, 9, 53, 69
3, 34956, Note_off_c, 9, 49, 87
3, 35196, Note_on_c, 9, 49, 99
3, 35196, Note_on_c, 9, 58, 93
3, 35208, Note_off_c, 9, 58, 93
3, 35208, Note_off_c, 9, 49, 99
3, 35584, Note_on_c, 9, 55, 69
3, 35588, Note_on_c, 9, 49, 71
3, 35596, Note_off_c, 9, 55, 69
3, 35600, Note_off_c, 9, 49, 71
3, 35712, Note_on_c, 9, 53, 65
3, 35712, Note_on_c, 9, 60, 87
3, 35724, Note_off_c, 9, 60, 87
3, 35724, Note_off_c, 9, 53, 65
3, 35840, Note_on_c, 9, 49, 36
3, 35852, Note_off_c, 9, 49, 36
3, 35964, Note_on_c, 9, 49, 63
3, 35976, Note_off_c, 9, 49, 63
3, 36092, Note_on_c, 9, 60, 73
3, 36104, Note_off_c, 9, 60, 73
3, 36220, Note_on_c, 9, 49, 29
3, 36232, Note_off_c, 9, 49, 29
3, 36352, Note_on_c, 9, 49, 58
3, 36364, Note_off_c, 9, 49, 58
3, 36480, Note_on_c, 9, 53, 69
3, 36480, Note_on_c, 9, 60, 63
3, 36492, Note_off_c, 9, 60, 63
3, 36492, Note_off_c, 9, 53, 69
3, 36608, Note_on_c, 9, 49, 48
3, 36620, Note_off_c, 9, 49, 48
3, 36732, Note_on_c, 9, 49, 76
3, 36744, Note_off_c, 9, 49, 76
3, 36860, Note_on_c, 9, 45, 82
3, 36864, Note_on_c, 9, 60, 82
3, 36872, Note_off_c, 9, 45, 82
3, 36876, Note_off_c, 9, 60, 82
3, 37116, Note_on_c, 9, 55, 69
3, 37128, Note_off_c, 9, 55, 69
3, 37248, Note_on_c, 9, 49, 63
3, 37248, Note_on_c, 9, 50, 64
3, 37248, Note_on_c, 9, 53, 65
3, 37248, Note_on_c, 9, 60, 76
3, 37260, Note_off_c, 9, 60, 76
3, 37260, Note_off_c, 9, 53, 65
3, 37260, Note_off_c, 9, 50, 64
3, 37260, Note_off_c, 9, 49, 63
3, 37504, Note_on_c, 9, 60, 52
3, 37516, Note_off_c, 9, 60, 52
3, 37632, Note_on_c, 9, 60, 99
3, 37644, Note_off_c, 9, 60, 99
3, 37884, Note_on_c, 9, 49, 71
3, 37896, Note_off_c, 9, 49, 71
3, 38012, Note_on_c, 9, 49, 99
3, 38012, Note_on_c, 9, 58, 79
3, 38016, Note_on_c, 9, 53, 69
3, 38024, Note_off_c, 9, 58, 79
3, 38024, Note_off_c, 9, 49, 99
3, 38028, Note_off_c, 9, 53, 69
3, 38264, Note_on_c, 9, 64, 90
3, 38268, Note_on_c, 9, 45, 105
3, 38276, Note_off_c, 9, 64, 90
3, 38280, Note_off_c, 9, 45, 105
3, 38652, Note_on_c, 9, 55, 67
3, 38664, Note_off_c, 9, 55, 67
3, 38780, Note_on_c, 9, 49, 79
3, 38780, Note_on_c, 9, 60, 69
3, 38784, Note_on_c, 9, 53, 65
3, 38792, Note_off_c, 9, 60, 69
3, 38792, Note_off_c, 9, 49, 79
3, 38796, Note_off_c, 9, 53, 65
3, 39040, Note_on_c, 9, 60, 11
3, 39052, Note_off_c, 9, 60, 11
3, 39168, Note_on_c, 9, 60, 93
3, 39180, Note_off_c, 9, 60, 93
3, 39420, Note_on_c, 9, 49, 73
3, 39432, Note_off_c, 9, 49, 73
3, 39548, Note_on_c, 9, 49, 93
3, 39548, Note_on_c, 9, 60, 84
3, 39552, Note_on_c, 9, 53, 69
3, 39560, Note_off_c, 9, 60, 84
3, 39560, Note_off_c, 9, 49, 93
3, 39564, Note_off_c, 9, 53, 69
3, 39804, Note_on_c, 9, 45, 93
3, 39804, Note_on_c, 9, 66, 123
3, 39808, Note_on_c, 9, 51, 61
3, 39816, Note_off_c, 9, 66, 123
3, 39816, Note_off_c, 9, 45, 93
3, 39820, Note_off_c, 9, 51, 61
3, 40300, Note_on_c, 9, 56, 68
3, 40312, Note_off_c, 9, 56, 68
3, 40320, Note_on_c, 9, 53, 95
3, 40320, Note_on_c, 9, 57, 68
3, 40332, Note_off_c, 9, 57, 68
3, 40332, Note_off_c, 9, 53, 95
3, 40448, Note_on_c, 9, 57, 75
3, 40460, Note_off_c, 9, 57, 75
3, 40572, Note_on_c, 9, 51, 91
3, 40576, Note_on_c, 9, 57, 101
3, 40584, Note_off_c, 9, 51, 91
3, 40588, Note_off_c, 9, 57, 101
3, 40696, Note_on_c, 9, 55, 88
3, 40700, Note_on_c, 9, 56, 86
3, 40708, Note_off_c, 9, 55, 88
3, 40712, Note_off_c, 9, 56, 86
3, 40828, Note_on_c, 9, 56, 71
3, 40840, Note_off_c, 9, 56, 71
3, 40956, Note_on_c, 9, 56, 82
3, 40968, Note_off_c, 9, 56, 82
3, 41088, Note_on_c, 9, 53, 99
3, 41088, Note_on_c, 9, 54, 103
3, 41100, Note_off_c, 9, 54, 103
3, 41100, Note_off_c, 9, 53, 99
3, 41272, Note_on_c, 9, 52, 83
3, 41284, Note_off_c, 9, 52, 83
3, 41312, Note_on_c, 9, 52, 122
3, 41324, Note_off_c, 9, 52, 122
3, 41340, Note_on_c, 9, 51, 83
3, 41348, Note_on_c, 9, 50, 106
3, 41352, Note_off_c, 9, 51, 83
3, 41360, Note_off_c, 9, 50, 106
3, 41468, Note_on_c, 9, 55, 97
3, 41472, Note_on_c, 9, 45, 126
3, 41472, Note_on_c, 9, 50, 20
3, 41472, Note_on_c, 9, 66, 110
3, 41480, Note_off_c, 9, 55, 97
3, 41484, Note_off_c, 9, 66, 110
3, 41484, Note_off_c, 9, 50, 20
3, 41484, Note_off_c, 9, 45, 126
3, 41832, Note_on_c, 9, 49, 91
3, 41844, Note_off_c, 9, 49, 91
3, 41856, Note_on_c, 9, 49, 117
3, 41856, Note_on_c, 9, 53, 95
3, 41856, Note_on_c, 9, 60, 112
3, 41868, Note_off_c, 9, 60, 112
3, 41868, Note_off_c, 9, 53, 95
3, 41868, Note_off_c, 9, 49, 117
3, 42108, Note_on_c, 9, 45, 105
3, 42112, Note_on_c, 9, 51, 91
3, 42120, Note_off_c, 9, 45, 105
3, 42124, Note_off_c, 9, 51, 91
3, 42236, Note_on_c, 9, 45, 121
3, 42236, Note_on_c, 9, 58, 117
3, 42240, Note_on_c, 9, 55, 93
3, 42248, Note_off_c, 9, 58, 117
3, 42248, Note_off_c, 9, 45, 121
3, 42252, Note_off_c, 9, 55, 93
3, 42600, Note_on_c, 9, 49, 85
3, 42612, Note_off_c, 9, 49, 85
3, 42620, Note_on_c, 9, 49, 85
3, 42624, Note_on_c, 9, 53, 99
3, 42632, Note_off_c, 9, 49, 85
3, 42636, Note_off_c, 9, 53, 99
3, 42872, Note_on_c, 9, 45, 127
3, 42872, Note_on_c, 9, 61, 117
3, 42876, Note_on_c, 9, 51, 92
3, 42884, Note_off_c, 9, 61, 117
3, 42884, Note_off_c, 9, 45, 127
3, 42888, Note_off_c, 9, 51, 92
3, 43008, Note_on_c, 9, 55, 99
3, 43020, Note_off_c, 9, 55, 99
3, 43160, Note_on_c, 9, 49, 90
3, 43164, Note_off_c, 9, 49, 90
3, 43164, Note_on_c, 9, 49, 72
3, 43172, Note_off_c, 9, 49, 72
3, 43200, Note_on_c, 9, 49, 91
3, 43212, Note_off_c, 9, 49, 91
3, 43260, Note_on_c, 9, 45, 85
3, 43260, Note_on_c, 9, 49, 110
3, 43272, Note_off_c, 9, 49, 110
3, 43272, Note_off_c, 9, 45, 85
3, 43388, Note_on_c, 9, 49, 120
3, 43392, Note_on_c, 9, 53, 95
3, 43392, Note_on_c, 9, 60, 88
3, 43400, Note_off_c, 9, 49, 120
3, 43404, Note_off_c, 9, 60, 88
3, 43404, Note_off_c, 9, 53, 95
3, 43644, Note_on_c, 9, 51, 97
3, 43648, Note_on_c, 9, 60, 58
3, 43648, Note_on_c, 9, 45, 116
3, 43656, Note_off_c, 9, 51, 97
3, 43660, Note_off_c, 9, 45, 116
3, 43660, Note_off_c, 9, 60, 58
3, 43768, Note_on_c, 9, 45, 121
3, 43772, Note_on_c, 9, 55, 101
3, 43776, Note_on_c, 9, 60, 106
3, 43780, Note_off_c, 9, 45, 121
3, 43784, Note_off_c, 9, 55, 101
3, 43788, Note_off_c, 9, 60, 106
3, 44152, Note_on_c, 9, 49, 127
3, 44160, Note_on_c, 9, 53, 100
3, 44160, Note_on_c, 9, 60, 126
3, 44164, Note_off_c, 9, 49, 127
3, 44172, Note_off_c, 9, 60, 126
3, 44172, Note_off_c, 9, 53, 100
3, 44288, Note_on_c, 9, 45, 127
3, 44300, Note_off_c, 9, 45, 127
3, 44412, Note_on_c, 9, 51, 92
3, 44412, Note_on_c, 9, 60, 43
3, 44416, Note_on_c, 9, 45, 123
3, 44424, Note_off_c, 9, 60, 43
3, 44424, Note_off_c, 9, 51, 92
3, 44428, Note_off_c, 9, 45, 123
3, 44540, Note_on_c, 9, 55, 99
3, 44540, Note_on_c, 9, 60, 106
3, 44552, Note_off_c, 9, 60, 106
3, 44552, Note_off_c, 9, 55, 99
3, 44556, Note_on_c, 9, 45, 127
3, 44568, Note_off_c, 9, 45, 127
3, 44924, Note_on_c, 9, 49, 121
3, 44928, Note_on_c, 9, 53, 95
3, 44928, Note_on_c, 9, 60, 117
3, 44936, Note_off_c, 9, 49, 121
3, 44940, Note_off_c, 9, 60, 117
3, 44940, Note_off_c, 9, 53, 95
3, 45180, Note_on_c, 9, 45, 123
3, 45184, Note_on_c, 9, 51, 97
3, 45192, Note_off_c, 9, 45, 123
3, 45196, Note_off_c, 9, 51, 97
3, 45308, Note_on_c, 9, 45, 109
3, 45312, Note_on_c, 9, 58, 112
3, 45316, Note_on_c, 9, 55, 94
3, 45320, Note_off_c, 9, 45, 109
3, 45324, Note_off_c, 9, 58, 112
3, 45328, Note_off_c, 9, 55, 94
3, 45600, Note_on_c, 9, 57, 127
3, 45612, Note_off_c, 9, 57, 127
3, 45632, Note_on_c, 9, 56, 123
3, 45644, Note_off_c, 9, 56, 123
3, 45668, Note_on_c, 9, 54, 119
3, 45680, Note_off_c, 9, 54, 119
3, 45688, Note_on_c, 9, 49, 111
3, 45700, Note_off_c, 9, 49, 111
3, 45948, Note_on_c, 9, 49, 127
3, 45948, Note_on_c, 9, 51, 103
3, 45948, Note_on_c, 9, 61, 127
3, 45948, Note_on_c, 9, 47, 91
3, 45960, Note_off_c, 9, 47, 91
3, 45960, Note_off_c, 9, 61, 127
3, 45960, Note_off_c, 9, 51, 103
3, 45960, Note_off_c, 9, 49, 127
3, 46080, Note_on_c, 9, 55, 97
3, 46092, Note_off_c, 9, 55, 97
3, 46344, Note_on_c, 9, 45, 127
3, 46356, Note_off_c, 9, 45, 127
3, 46464, Note_on_c, 9, 53, 95
3, 46468, Note_on_c, 9, 60, 92
3, 46476, Note_off_c, 9, 53, 95
3, 46480, Note_off_c, 9, 60, 92
3, 46592, Note_on_c, 9, 49, 72
3, 46604, Note_off_c, 9, 49, 72
3, 46720, Note_on_c, 9, 49, 77
3, 46720, Note_on_c, 9, 51, 93
3, 46732, Note_off_c, 9, 51, 93
3, 46732, Note_off_c, 9, 49, 77
3, 46840, Note_on_c, 9, 45, 120
3, 46844, Note_on_c, 9, 55, 93
3, 46848, Note_on_c, 9, 60, 99
3, 46852, Note_off_c, 9, 45, 120
3, 46856, Note_off_c, 9, 55, 93
3, 46860, Note_off_c, 9, 60, 99
3, 46976, Note_on_c, 9, 49, 115
3, 46988, Note_off_c, 9, 49, 115
3, 47100, Note_on_c, 9, 60, 112
3, 47112, Note_off_c, 9, 60, 112
3, 47228, Note_on_c, 9, 49, 94
3, 47232, Note_on_c, 9, 53, 99
3, 47240, Note_off_c, 9, 49, 94
3, 47244, Note_off_c, 9, 53, 99
3, 47360, Note_on_c, 9, 45, 127
3, 47372, Note_off_c, 9, 45, 127
3, 47484, Note_on_c, 9, 49, 90
3, 47484, Note_on_c, 9, 51, 94
3, 47496, Note_off_c, 9, 51, 94
3, 47496, Note_off_c, 9, 49, 90
3, 47612, Note_on_c, 9, 45, 126
3, 47612, Note_on_c, 9, 60, 117
3, 47616, Note_on_c, 9, 55, 93
3, 47624, Note_off_c, 9, 60, 117
3, 47624, Note_off_c, 9, 45, 126
3, 47628, Note_off_c, 9, 55, 93
3, 47740, Note_on_c, 9, 49, 72
3, 47752, Note_off_c, 9, 49, 72
3, 47868, Note_on_c, 9, 49, 86
3, 47880, Note_off_c, 9, 49, 86
3, 47996, Note_on_c, 9, 49, 103
3, 47996, Note_on_c, 9, 60, 123
3, 48000, Note_on_c, 9, 53, 95
3, 48008, Note_off_c, 9, 60, 123
3, 48008, Note_off_c, 9, 49, 103
3, 48012, Note_off_c, 9, 53, 95
3, 48252, Note_on_c, 9, 51, 91
3, 48264, Note_off_c, 9, 51, 91
3, 48380, Note_on_c, 9, 45, 126
3, 48380, Note_on_c, 9, 58, 126
3, 48384, Note_on_c, 9, 55, 99
3, 48392, Note_off_c, 9, 58, 126
3, 48392, Note_off_c, 9, 45, 126
3, 48396, Note_off_c, 9, 55, 99
3, 48760, Note_on_c, 9, 45, 123
3, 48768, Note_on_c, 9, 53, 99
3, 48772, Note_off_c, 9, 45, 123
3, 48780, Note_off_c, 9, 53, 99
3, 49016, Note_on_c, 9, 49, 121
3, 49020, Note_on_c, 9, 45, 126
3, 49024, Note_on_c, 9, 61, 127
3, 49028, Note_off_c, 9, 49, 121
3, 49032, Note_off_c, 9, 45, 126
3, 49036, Note_off_c, 9, 61, 127
3, 49160, Note_on_c, 9, 55, 61
3, 49172, Note_off_c, 9, 55, 61
3, 49300, Note_on_c, 9, 49, 93
3, 49312, Note_off_c, 9, 49, 93
3, 49344, Note_on_c, 9, 49, 93
3, 49356, Note_off_c, 9, 49, 93
3, 49404, Note_on_c, 9, 49, 100
3, 49408, Note_on_c, 9, 45, 91
3, 49416, Note_off_c, 9, 49, 100
3, 49420, Note_off_c, 9, 45, 91
3, 49536, Note_on_c, 9, 49, 110
3, 49536, Note_on_c, 9, 53, 65
3, 49536, Note_on_c, 9, 60, 82
3, 49548, Note_off_c, 9, 60, 82
3, 49548, Note_off_c, 9, 53, 65
3, 49548, Note_off_c, 9, 49, 110
3, 49792, Note_on_c, 9, 49, 42
3, 49792, Note_on_c, 9, 51, 76
3, 49804, Note_off_c, 9, 51, 76
3, 49804, Note_off_c, 9, 49, 42
3, 49920, Note_on_c, 9, 55, 63
3, 49920, Note_on_c, 9, 60, 73
3, 49932, Note_off_c, 9, 60, 73
3, 49932, Note_off_c, 9, 55, 63
3, 50172, Note_on_c, 9, 49, 53
3, 50184, Note_off_c, 9, 49, 53
3, 50304, Note_on_c, 9, 53, 69
3, 50304, Note_on_c, 9, 60, 67
3, 50316, Note_off_c, 9, 60, 67
3, 50316, Note_off_c, 9, 53, 69
3, 50556, Note_on_c, 9, 45, 32
3, 50560, Note_on_c, 9, 51, 64
3, 50568, Note_off_c, 9, 45, 32
3, 50572, Note_off_c, 9, 51, 64
3, 50684, Note_on_c, 9, 45, 82
3, 50684, Note_on_c, 9, 55, 71
3, 50684, Note_on_c, 9, 60, 93
3, 50696, Note_off_c, 9, 60, 93
3, 50696, Note_off_c, 9, 55, 71
3, 50696, Note_off_c, 9, 45, 82
3, 51068, Note_on_c, 9, 49, 61
3, 51068, Note_on_c, 9, 58, 55
3, 51072, Note_on_c, 9, 53, 65
3, 51080, Note_off_c, 9, 58, 55
3, 51080, Note_off_c, 9, 49, 61
3, 51084, Note_off_c, 9, 53, 65
3, 51324, Note_on_c, 9, 45, 33
3, 51324, Note_on_c, 9, 51, 61
3, 51336, Note_off_c, 9, 51, 61
3, 51336, Note_off_c, 9, 45, 33
3, 51452, Note_on_c, 9, 45, 84
3, 51452, Note_on_c, 9, 55, 53
3, 51452, Note_on_c, 9, 64, 76
3, 51464, Note_off_c, 9, 64, 76
3, 51464, Note_off_c, 9, 55, 53
3, 51464, Note_off_c, 9, 45, 84
3, 51840, Note_on_c, 9, 53, 69
3, 51852, Note_off_c, 9, 53, 69
3, 52092, Note_on_c, 9, 49, 76
3, 52092, Note_on_c, 9, 61, 58
3, 52096, Note_on_c, 9, 51, 31
3, 52104, Note_off_c, 9, 61, 58
3, 52104, Note_off_c, 9, 49, 76
3, 52108, Note_off_c, 9, 51, 31
3, 52228, Note_on_c, 9, 55, 41
3, 52240, Note_off_c, 9, 55, 41
3, 52608, Note_on_c, 9, 53, 65
3, 52608, Note_on_c, 9, 60, 20
3, 52620, Note_off_c, 9, 60, 20
3, 52620, Note_off_c, 9, 53, 65
3, 52736, Note_on_c, 9, 60, 22
3, 52748, Note_off_c, 9, 60, 22
3, 52864, Note_on_c, 9, 51, 40
3, 52864, Note_on_c, 9, 60, 24
3, 52876, Note_off_c, 9, 60, 24
3, 52876, Note_off_c, 9, 51, 40
3, 52992, Note_on_c, 9, 60, 42
3, 52996, Note_on_c, 9, 55, 41
3, 53004, Note_off_c, 9, 60, 42
3, 53008, Note_off_c, 9, 55, 41
3, 53248, Note_on_c, 9, 60, 27
3, 53260, Note_off_c, 9, 60, 27
3, 53376, Note_on_c, 9, 53, 69
3, 53376, Note_on_c, 9, 60, 27
3, 53388, Note_off_c, 9, 60, 27
3, 53388, Note_off_c, 9, 53, 69
3, 53628, Note_on_c, 9, 51, 28
3, 53628, Note_on_c, 9, 60, 24
3, 53640, Note_off_c, 9, 60, 24
3, 53640, Note_off_c, 9, 51, 28
3, 53756, Note_on_c, 9, 55, 42
3, 53756, Note_on_c, 9, 60, 52
3, 53768, Note_off_c, 9, 60, 52
3, 53768, Note_off_c, 9, 55, 42
3, 54140, Note_on_c, 9, 60, 50
3, 54144, Note_on_c, 9, 53, 65
3, 54152, Note_off_c, 9, 60, 50
3, 54156, Note_off_c, 9, 53, 65
3, 54396, Note_on_c, 9, 51, 29
3, 54408, Note_off_c, 9, 51, 29
3, 54524, Note_on_c, 9, 55, 41
3, 54528, Note_on_c, 9, 60, 53
3, 54536, Note_off_c, 9, 55, 41
3, 54540, Note_off_c, 9, 60, 53
3, 54656, Note_on_c, 9, 60, 34
3, 54668, Note_off_c, 9, 60, 34
3, 54784, Note_on_c, 9, 60, 38
3, 54796, Note_off_c, 9, 60, 38
3, 54912, Note_on_c, 9, 53, 69
3, 54912, Note_on_c, 9, 60, 79
3, 54924, Note_off_c, 9, 60, 79
3, 54924, Note_off_c, 9, 53, 69
3, 55168, Note_on_c, 9, 51, 41
3, 55168, Note_on_c, 9, 60, 87
3, 55180, Note_off_c, 9, 60, 87
3, 55180, Note_off_c, 9, 51, 41
3, 55300, Note_on_c, 9, 55, 50
3, 55312, Note_off_c, 9, 55, 50
3, 55680, Note_on_c, 9, 53, 65
3, 55692, Note_off_c, 9, 53, 65
3, 55700, Note_on_c, 9, 57, 67
3, 55712, Note_off_c, 9, 57, 67
3, 55872, Note_on_c, 9, 57, 93
3, 55884, Note_off_c, 9, 57, 93
3, 56064, Note_on_c, 9, 56, 108
3, 56076, Note_off_c, 9, 56, 108
3, 56252, Note_on_c, 9, 56, 93
3, 56264, Note_off_c, 9, 56, 93
3, 56452, Note_on_c, 9, 54, 102
3, 56464, Note_off_c, 9, 54, 102
3, 56540, Note_on_c, 9, 54, 102
3, 56552, Note_off_c, 9, 54, 102
3, 56640, Note_on_c, 9, 52, 99
3, 56652, Note_off_c, 9, 52, 99
3, 56728, Note_on_c, 9, 50, 102
3, 56740, Note_off_c, 9, 50, 102
3, 56828, Note_on_c, 9, 50, 99
3, 56840, Note_off_c, 9, 50, 99
3, 57200, Note_on_c, 9, 50, 105
3, 57212, Note_off_c, 9, 50, 105
3, 57580, Note_on_c, 9, 45, 99
3, 57584, Note_on_c, 9, 58, 108
3, 57592, Note_off_c, 9, 45, 99
3, 57596, Note_off_c, 9, 58, 108
3, 57896, Note_on_c, 9, 49, 64
3, 57908, Note_off_c, 9, 49, 64
3, 57920, Note_on_c, 9, 49, 69
3, 57932, Note_off_c, 9, 49, 69
3, 57952, Note_on_c, 9, 49, 64
3, 57964, Note_off_c, 9, 49, 64
3, 57976, Note_on_c, 9, 49, 71
3, 57988, Note_off_c, 9, 49, 71
3, 58036, Note_on_c, 9, 49, 108
3, 58048, Note_off_c, 9, 49, 108
3, 58108, Note_on_c, 9, 49, 82
3, 58120, Note_off_c, 9, 49, 82
3, 58172, Note_on_c, 9, 49, 61
3, 58184, Note_off_c, 9, 49, 61
3, 58220, Note_on_c, 9, 49, 76
3, 58232, Note_off_c, 9, 49, 76
3, 58272, Note_on_c, 9, 49, 87
3, 58284, Note_off_c, 9, 49, 87
3, 58312, Note_on_c, 9, 49, 82
3, 58324, Note_off_c, 9, 49, 82
3, 58360, Note_on_c, 9, 49, 114
3, 58368, Note_on_c, 9, 45, 105
3, 58368, Note_on_c, 9, 61, 102
3, 58368, Note_on_c, 9, 64, 102
3, 58372, Note_off_c, 9, 49, 114
3, 58380, Note_off_c, 9, 64, 102
3, 58380, Note_off_c, 9, 61, 102
3, 58380, Note_off_c, 9, 45, 105
3, 58392, Note_on_c, 9, 49, 74
3, 58404, Note_off_c, 9, 49, 74
3, 58432, Note_on_c, 9, 49, 73
3, 58444, Note_off_c, 9, 49, 73
3, 58464, Note_on_c, 9, 49, 79
3, 58476, Note_off_c, 9, 49, 79
3, 58508, Note_on_c, 9, 49, 73
3, 58520, Note_off_c, 9, 49, 73
3, 58544, Note_on_c, 9, 49, 64
3, 58556, Note_off_c, 9, 49, 64
3, 58576, Note_on_c, 9, 49, 76
3, 58588, Note_off_c, 9, 49, 76
3, 58604, Note_on_c, 9, 49, 67
3, 58616, Note_off_c, 9, 49, 67
3, 58636, Note_on_c, 9, 49, 127
3, 58648, Note_off_c, 9, 49, 127
3, 58672, Note_on_c, 9, 49, 71
3, 58684, Note_off_c, 9, 49, 71
3, 58716, Note_on_c, 9, 49, 80
3, 58728, Note_off_c, 9, 49, 80
3, 58764, Note_on_c, 9, 49, 125
3, 58776, Note_off_c, 9, 49, 125
3, 58824, Note_on_c, 9, 49, 99
3, 58836, Note_off_c, 9, 49, 99
3, 58872, Note_on_c, 9, 49, 99
3, 58884, Note_off_c, 9, 49, 99
3, 58928, Note_on_c, 9, 52, 87
3, 58940, Note_off_c, 9, 52, 87
3, 58968, Note_on_c, 9, 52, 87
3, 58980, Note_off_c, 9, 52, 87
3, 58996, Note_on_c, 9, 52, 79
3, 59008, Note_off_c, 9, 52, 79
3, 59028, Note_on_c, 9, 52, 76
3, 59040, Note_off_c, 9, 52, 76
3, 59060, Note_on_c, 9, 52, 79
3, 59072, Note_off_c, 9, 52, 79
3, 59100, Note_on_c, 9, 52, 99
3, 59112, Note_off_c, 9, 52, 99
3, 59152, Note_on_c, 9, 50, 102
3, 59164, Note_off_c, 9, 50, 102
3, 59196, Note_on_c, 9, 50, 96
3, 59208, Note_off_c, 9, 50, 96
3, 59248, Note_on_c, 9, 50, 82
3, 59260, Note_off_c, 9, 50, 82
3, 59300, Note_on_c, 9, 50, 102
3, 59312, Note_off_c, 9, 50, 102
3, 59356, Note_on_c, 9, 50, 102
3, 59368, Note_off_c, 9, 50, 102
3, 59428, Note_on_c, 9, 50, 93
3, 59440, Note_off_c, 9, 50, 93
3, 59644, Note_on_c, 9, 45, 117
3, 59648, Note_on_c, 9, 58, 117
3, 59656, Note_off_c, 9, 45, 117
3, 59660, Note_off_c, 9, 58, 117
3, 59684, Note_on_c, 9, 45, 119
3, 59684, Note_on_c, 9, 58, 119
3, 59696, Note_off_c, 9, 58, 119
3, 59696, Note_off_c, 9, 45, 119
3, 61440, End_track
4, 0, Start_track
4, 0, Title_t, "Bass"
4, 3324, Pitch_bend_c, 1, 2816
4, 3328, Note_on_c, 1, 45, 104
4, 3380, Pitch_bend_c, 1, 4544
4, 3408, Pitch_bend_c, 1, 6336
4, 3436, Pitch_bend_c, 1, 7680
4, 3452, Pitch_bend_c, 1, 8192
4, 3672, Note_off_c, 1, 45, 104
4, 3712, Note_on_c, 1, 33, 87
4, 3836, Note_off_c, 1, 33, 87
4, 3840, Note_on_c, 1, 48, 104
4, 4044, Control_c, 1, 1, 127
4, 4060, Note_off_c, 1, 48, 104
4, 4084, Control_c, 1, 1, 0
4, 4096, Note_on_c, 1, 48, 84
4, 4196, Note_off_c, 1, 48, 84
4, 4224, Note_on_c, 1, 45, 114
4, 4476, Note_off_c, 1, 45, 114
4, 4480, Note_on_c, 1, 40, 93
4, 4588, Note_off_c, 1, 40, 93
4, 4600, Pitch_bend_c, 1, 4096
4, 4608, Note_on_c, 1, 43, 101
4, 4628, Pitch_bend_c, 1, 4928
4, 4652, Pitch_bend_c, 1, 6144
4, 4676, Pitch_bend_c, 1, 7616
4, 4692, Pitch_bend_c, 1, 8192
4, 4944, Note_off_c, 1, 43, 101
4, 4992, Note_on_c, 1, 45, 101
4, 5100, Pitch_bend_c, 1, 7488
4, 5116, Note_off_c, 1, 45, 101
4, 5120, Pitch_bend_c, 1, 6848
4, 5140, Pitch_bend_c, 1, 6272
4, 5164, Pitch_bend_c, 1, 5696
4, 5184, Pitch_bend_c, 1, 4928
4, 5204, Pitch_bend_c, 1, 4352
4, 5224, Pitch_bend_c, 1, 3712
4, 5244, Pitch_bend_c, 1, 3136
4, 5264, Pitch_bend_c, 1, 2624
4, 5284, Pitch_bend_c, 1, 2112
4, 5304, Pitch_bend_c, 1, 1792
4, 5344, Note_on_c, 1, 38, 84
4, 5364, Pitch_bend_c, 1, 3008
4, 5388, Pitch_bend_c, 1, 4672
4, 5408, Pitch_bend_c, 1, 6400
4, 5428, Pitch_bend_c, 1, 8192
4, 5540, Control_c, 1, 1, 19
4, 5580, Control_c, 1, 1, 40
4, 5620, Control_c, 1, 1, 59
4, 5664, Control_c, 1, 1, 76
4, 5704, Control_c, 1, 1, 83
4, 5744, Control_c, 1, 1, 78
4, 5784, Control_c, 1, 1, 70
4, 5824, Control_c, 1, 1, 54
4, 5868, Control_c, 1, 1, 0
4, 6004, Note_off_c, 1, 38, 84
4, 6012, Note_on_c, 1, 33, 103
4, 6196, Note_off_c, 1, 33, 103
4, 6368, Pitch_bend_c, 1, 2816
4, 6400, Note_on_c, 1, 45, 104
4, 6452, Pitch_bend_c, 1, 4544
4, 6480, Pitch_bend_c, 1, 6336
4, 6508, Pitch_bend_c, 1, 7680
4, 6524, Pitch_bend_c, 1, 8192
4, 6744, Note_off_c, 1, 45, 104
4, 6784, Note_on_c, 1, 33, 87
4, 6908, Note_off_c, 1, 33, 87
4, 6912, Note_on_c, 1, 48, 104
4, 7116, Control_c, 1, 1, 127
4, 7156, Control_c, 1, 1, 0
4, 7232, Note_off_c, 1, 48, 104
4, 7296, Note_on_c, 1, 50, 114
4, 7548, Note_off_c, 1, 50, 114
4, 7672, Pitch_bend_c, 1, 4544
4, 7680, Note_on_c, 1, 50, 114
4, 7700, Pitch_bend_c, 1, 4928
4, 7724, Pitch_bend_c, 1, 6144
4, 7748, Pitch_bend_c, 1, 7616
4, 7764, Pitch_bend_c, 1, 8192
4, 7932, Note_off_c, 1, 50, 114
4, 7936, Note_on_c, 1, 48, 93
4, 8044, Note_off_c, 1, 48, 93
4, 8064, Note_on_c, 1, 45, 101
4, 8188, Note_off_c, 1, 45, 101
4, 8232, Pitch_bend_c, 1, 7232
4, 8252, Pitch_bend_c, 1, 6336
4, 8276, Pitch_bend_c, 1, 5440
4, 8296, Pitch_bend_c, 1, 4800
4, 8316, Pitch_bend_c, 1, 4352
4, 8336, Pitch_bend_c, 1, 3904
4, 8356, Pitch_bend_c, 1, 3520
4, 8376, Pitch_bend_c, 1, 3008
4, 8396, Pitch_bend_c, 1, 2496
4, 8416, Pitch_bend_c, 1, 1856
4, 8436, Pitch_bend_c, 1, 1472
4, 8460, Note_on_c, 1, 38, 103
4, 8480, Pitch_bend_c, 1, 3392
4, 8500, Pitch_bend_c, 1, 6016
4, 8520, Pitch_bend_c, 1, 8192
4, 8568, Control_c, 1, 1, 3
4, 8608, Control_c, 1, 1, 52
4, 8652, Control_c, 1, 1, 86
4, 8692, Control_c, 1, 1, 97
4, 8772, Control_c, 1, 1, 94
4, 8812, Control_c, 1, 1, 89
4, 8852, Control_c, 1, 1, 78
4, 8892, Control_c, 1, 1, 57
4, 8936, Control_c, 1, 1, 0
4, 9076, Note_off_c, 1, 38, 103
4, 9080, Note_on_c, 1, 33, 109
4, 9264, Note_off_c, 1, 33, 109
4, 9440, Pitch_bend_c, 1, 2816
4, 9472, Note_on_c, 1, 45, 104
4, 9524, Pitch_bend_c, 1, 4544
4, 9552, Pitch_bend_c, 1, 6336
4, 9580, Pitch_bend_c, 1, 7680
4, 9596, Pitch_bend_c, 1, 8192
4, 9648, Note_off_c, 1, 45, 104
4, 9728, Note_on_c, 1, 40, 64
4, 9848, Note_off_c, 1, 40, 64
4, 9856, Note_on_c, 1, 33, 87
4, 9980, Note_off_c, 1, 33, 87
4, 9984, Note_on_c, 1, 52, 104
4, 10188, Control_c, 1, 1, 127
4, 10228, Control_c, 1, 1, 0
4, 10304, Note_off_c, 1, 52, 104
4, 10368, Note_on_c, 1, 55, 114
4, 10620, Note_off_c, 1, 55, 114
4, 10744, Pitch_bend_c, 1, 6464
4, 10752, Note_on_c, 1, 50, 114
4, 10772, Pitch_bend_c, 1, 7360
4, 10796, Pitch_bend_c, 1, 8192
4, 10840, Pitch_bend_c, 1, 12352
4, 10932, Pitch_bend_c, 1, 8192
4, 11004, Note_off_c, 1, 50, 114
4, 11008, Note_on_c, 1, 48, 93
4, 11116, Note_off_c, 1, 48, 93
4, 11136, Note_on_c, 1, 45, 101
4, 11320, Pitch_bend_c, 1, 6976
4, 11340, Pitch_bend_c, 1, 5440
4, 11360, Pitch_bend_c, 1, 3904
4, 11380, Pitch_bend_c, 1, 2752
4, 11400, Pitch_bend_c, 1, 2048
4, 11420, Pitch_bend_c, 1, 1664
4, 11440, Note_off_c, 1, 45, 101
4, 11444, Pitch_bend_c, 1, 1344
4, 11464, Pitch_bend_c, 1, 896
4, 11484, Pitch_bend_c, 1, 448
4, 11504, Pitch_bend_c, 1, 256
4, 11520, Control_c, 1, 1, 29
4, 11524, Note_on_c, 1, 38, 96
4, 11524, Pitch_bend_c, 1, 576
4, 11544, Pitch_bend_c, 1, 2112
4, 11564, Pitch_bend_c, 1, 4096
4, 11584, Pitch_bend_c, 1, 5952
4, 11608, Pitch_bend_c, 1, 8192
4, 11640, Control_c, 1, 1, 54
4, 11680, Control_c, 1, 1, 76
4, 11720, Control_c, 1, 1, 52
4, 11764, Control_c, 1, 1, 0
4, 12156, Note_off_c, 1, 38, 96
4, 12160, Note_on_c, 1, 33, 115
4, 12276, Note_off_c, 1, 33, 115
4, 12512, Pitch_bend_c, 1, 2816
4, 12544, Note_on_c, 1, 45, 104
4, 12596, Pitch_bend_c, 1, 4544
4, 12624, Pitch_bend_c, 1, 6336
4, 12652, Pitch_bend_c, 1, 7680
4, 12668, Pitch_bend_c, 1, 8192
4, 12792, Note_off_c, 1, 45, 104
4, 12800, Note_on_c, 1, 40, 101
4, 12860, Note_off_c, 1, 40, 101
4, 12864, Note_on_c, 1, 36, 101
4, 12924, Note_off_c, 1, 36, 101
4, 12928, Note_on_c, 1, 33, 87
4, 13052, Note_off_c, 1, 33, 87
4, 13056, Note_on_c, 1, 36, 104
4, 13260, Control_c, 1, 1, 127
4, 13276, Note_off_c, 1, 36, 104
4, 13300, Control_c, 1, 1, 0
4, 13312, Note_on_c, 1, 36, 84
4, 13412, Note_off_c, 1, 36, 84
4, 13440, Note_on_c, 1, 33, 114
4, 13692, Note_off_c, 1, 33, 114
4, 13696, Note_on_c, 1, 28, 93
4, 13804, Note_off_c, 1, 28, 93
4, 13816, Pitch_bend_c, 1, 4096
4, 13824, Note_on_c, 1, 31, 101
4, 13844, Pitch_bend_c, 1, 4928
4, 13868, Pitch_bend_c, 1, 6144
4, 13892, Pitch_bend_c, 1, 7616
4, 13908, Pitch_bend_c, 1, 8192
4, 14160, Note_off_c, 1, 31, 101
4, 14208, Note_on_c, 1, 33, 101
4, 14332, Note_off_c, 1, 33, 101
4, 14412, Pitch_bend_c, 1, 7232
4, 14432, Pitch_bend_c, 1, 6144
4, 14452, Pitch_bend_c, 1, 5184
4, 14472, Pitch_bend_c, 1, 4096
4, 14492, Pitch_bend_c, 1, 3136
4, 14512, Pitch_bend_c, 1, 2240
4, 14532, Pitch_bend_c, 1, 1344
4, 14552, Pitch_bend_c, 1, 576
4, 14572, Pitch_bend_c, 1, 128
4, 14588, Note_on_c, 1, 38, 112
4, 14616, Pitch_bend_c, 1, 576
4, 14636, Pitch_bend_c, 1, 1856
4, 14656, Pitch_bend_c, 1, 3584
4, 14676, Pitch_bend_c, 1, 7488
4, 14696, Pitch_bend_c, 1, 8192
4, 14704, Control_c, 1, 1, 16
4, 14744, Control_c, 1, 1, 62
4, 14784, Control_c, 1, 1, 83
4, 14844, Control_c, 1, 1, 67
4, 14888, Control_c, 1, 1, 27
4, 14928, Control_c, 1, 1, 0
4, 14948, Note_off_c, 1, 38, 112
4, 14968, Note_on_c, 1, 36, 94
4, 15220, Note_off_c, 1, 36, 94
4, 15228, Note_on_c, 1, 33, 104
4, 15336, Note_off_c, 1, 33, 104
4, 15584, Pitch_bend_c, 1, 2816
4, 15616, Note_on_c, 1, 45, 104
4, 15668, Pitch_bend_c, 1, 4544
4, 15696, Pitch_bend_c, 1, 6336
4, 15716, Note_off_c, 1, 45, 104
4, 15724, Pitch_bend_c, 1, 7680
4, 15740, Pitch_bend_c, 1, 8192
4, 16000, Note_on_c, 1, 33, 87
4, 16124, Note_off_c, 1, 33, 87
4, 16128, Note_on_c, 1, 48, 104
4, 16332, Control_c, 1, 1, 127
4, 16348, Note_off_c, 1, 48, 104
4, 16372, Control_c, 1, 1, 0
4, 16384, Note_on_c, 1, 48, 84
4, 16484, Note_off_c, 1, 48, 84
4, 16512, Note_on_c, 1, 45, 114
4, 16764, Note_off_c, 1, 45, 114
4, 16768, Note_on_c, 1, 40, 93
4, 16876, Note_off_c, 1, 40, 93
4, 16888, Pitch_bend_c, 1, 4096
4, 16896, Note_on_c, 1, 43, 101
4, 16916, Pitch_bend_c, 1, 4928
4, 16940, Pitch_bend_c, 1, 6144
4, 16964, Pitch_bend_c, 1, 7616
4, 16980, Pitch_bend_c, 1, 8192
4, 17232, Note_off_c, 1, 43, 101
4, 17280, Note_on_c, 1, 45, 101
4, 17404, Note_off_c, 1, 45, 101
4, 17496, Pitch_bend_c, 1, 6720
4, 17516, Pitch_bend_c, 1, 4736
4, 17536, Pitch_bend_c, 1, 2688
4, 17556, Pitch_bend_c, 1, 960
4, 17576, Pitch_bend_c, 1, 512
4, 17616, Pitch_bend_c, 1, 1472
4, 17636, Pitch_bend_c, 1, 2880
4, 17648, Note_on_c, 1, 38, 96
4, 17660, Pitch_bend_c, 1, 4544
4, 17680, Pitch_bend_c, 1, 6592
4, 17700, Pitch_bend_c, 1, 8192
4, 17728, Control_c, 1, 1, 21
4, 17768, Control_c, 1, 1, 60
4, 17812, Control_c, 1, 1, 67
4, 17872, Control_c, 1, 1, 63
4, 17912, Control_c, 1, 1, 66
4, 18032, Control_c, 1, 1, 65
4, 18072, Control_c, 1, 1, 0
4, 18268, Note_off_c, 1, 38, 96
4, 18292, Note_on_c, 1, 33, 109
4, 18400, Note_off_c, 1, 33, 109
4, 18656, Pitch_bend_c, 1, 2816
4, 18688, Note_on_c, 1, 45, 104
4, 18740, Pitch_bend_c, 1, 4544
4, 18768, Pitch_bend_c, 1, 6336
4, 18796, Pitch_bend_c, 1, 7680
4, 18812, Pitch_bend_c, 1, 8192
4, 19032, Note_off_c, 1, 45, 104
4, 19072, Note_on_c, 1, 33, 87
4, 19196, Note_off_c, 1, 33, 87
4, 19200, Note_on_c, 1, 48, 104
4, 19404, Control_c, 1, 1, 127
4, 19444, Control_c, 1, 1, 0
4, 19520, Note_off_c, 1, 48, 104
4, 19584, Note_on_c, 1, 50, 114
4, 19836, Note_off_c, 1, 50, 114
4, 19960, Pitch_bend_c, 1, 4544
4, 19968, Note_on_c, 1, 50, 114
4, 19988, Pitch_bend_c, 1, 4928
4, 20012, Pitch_bend_c, 1, 6144
4, 20036, Pitch_bend_c, 1, 7616
4, 20052, Pitch_bend_c, 1, 8192
4, 20220, Note_off_c, 1, 50, 114
4, 20224, Note_on_c, 1, 48, 93
4, 20332, Note_off_c, 1, 48, 93
4, 20352, Note_on_c, 1, 45, 101
4, 20476, Note_off_c, 1, 45, 101
4, 20644, Pitch_bend_c, 1, 6336
4, 20664, Pitch_bend_c, 1, 3520
4, 20684, Pitch_bend_c, 1, 384
4, 20704, Pitch_bend_c, 1, 0
4, 20728, Note_on_c, 1, 38, 103
4, 20764, Pitch_bend_c, 1, 1024
4, 20784, Pitch_bend_c, 1, 5504
4, 20804, Pitch_bend_c, 1, 8192
4, 21096, Note_off_c, 1, 38, 103
4, 21120, Note_on_c, 1, 36, 97
4, 21312, Note_off_c, 1, 36, 97
4, 21372, Note_on_c, 1, 33, 115
4, 21492, Note_off_c, 1, 33, 115
4, 21728, Pitch_bend_c, 1, 2816
4, 21760, Note_on_c, 1, 45, 104
4, 21812, Pitch_bend_c, 1, 4544
4, 21840, Pitch_bend_c, 1, 6336
4, 21868, Pitch_bend_c, 1, 7680
4, 21884, Pitch_bend_c, 1, 8192
4, 21936, Note_off_c, 1, 45, 104
4, 22016, Note_on_c, 1, 40, 64
4, 22136, Note_off_c, 1, 40, 64
4, 22144, Note_on_c, 1, 33, 87
4, 22268, Note_off_c, 1, 33, 87
4, 22272, Note_on_c, 1, 52, 104
4, 22476, Control_c, 1, 1, 127
4, 22516, Control_c, 1, 1, 0
4, 22592, Note_off_c, 1, 52, 104
4, 22656, Note_on_c, 1, 55, 114
4, 22908, Note_off_c, 1, 55, 114
4, 23032, Pitch_bend_c, 1, 6464
4, 23040, Note_on_c, 1, 50, 114
4, 23060, Pitch_bend_c, 1, 7360
4, 23084, Pitch_bend_c, 1, 8192
4, 23128, Pitch_bend_c, 1, 12352
4, 23220, Pitch_bend_c, 1, 8192
4, 23292, Note_off_c, 1, 50, 114
4, 23296, Note_on_c, 1, 48, 93
4, 23404, Note_off_c, 1, 48, 93
4, 23424, Note_on_c, 1, 45, 101
4, 23728, Note_off_c, 1, 45, 101
4, 23804, Note_on_c, 1, 38, 103
4, 23864, Pitch_bend_c, 1, 9472
4, 23892, Pitch_bend_c, 1, 12032
4, 23912, Pitch_bend_c, 1, 14656
4, 23936, Pitch_bend_c, 1, 16256
4, 23964, Pitch_bend_c, 1, 9216
4, 24008, Pitch_bend_c, 1, 8192
4, 24060, Note_off_c, 1, 38, 103
4, 24064, Note_on_c, 1, 36, 62
4, 24184, Note_off_c, 1, 36, 62
4, 24188, Note_on_c, 1, 33, 109
4, 24448, Note_off_c, 1, 33, 109
4, 24448, Note_on_c, 1, 33, 109
4, 24596, Note_off_c, 1, 33, 109
4, 24800, Pitch_bend_c, 1, 2816
4, 24832, Note_on_c, 1, 45, 104
4, 24884, Pitch_bend_c, 1, 4544
4, 24912, Pitch_bend_c, 1, 6336
4, 24940, Pitch_bend_c, 1, 7680
4, 24956, Pitch_bend_c, 1, 8192
4, 25080, Note_off_c, 1, 45, 104
4, 25088, Note_on_c, 1, 40, 101
4, 25148, Note_off_c, 1, 40, 101
4, 25152, Note_on_c, 1, 36, 101
4, 25212, Note_off_c, 1, 36, 101
4, 25216, Note_on_c, 1, 33, 87
4, 25340, Note_off_c, 1, 33, 87
4, 25344, Note_on_c, 1, 36, 104
4, 25548, Control_c, 1, 1, 127
4, 25564, Note_off_c, 1, 36, 104
4, 25588, Control_c, 1, 1, 0
4, 25600, Note_on_c, 1, 36, 84
4, 25700, Note_off_c, 1, 36, 84
4, 25728, Note_on_c, 1, 33, 114
4, 25980, Note_off_c, 1, 33, 114
4, 25984, Note_on_c, 1, 28, 93
4, 26092, Note_off_c, 1, 28, 93
4, 26104, Pitch_bend_c, 1, 4096
4, 26112, Note_on_c, 1, 31, 101
4, 26132, Pitch_bend_c, 1, 4928
4, 26156, Pitch_bend_c, 1, 6144
4, 26180, Pitch_bend_c, 1, 7616
4, 26196, Pitch_bend_c, 1, 8192
4, 26448, Note_off_c, 1, 31, 101
4, 26496, Note_on_c, 1, 33, 101
4, 26620, Note_off_c, 1, 33, 101
4, 26660, Pitch_bend_c, 1, 6720
4, 26680, Pitch_bend_c, 1, 5440
4, 26700, Pitch_bend_c, 1, 4288
4, 26720, Pitch_bend_c, 1, 3008
4, 26740, Pitch_bend_c, 1, 1984
4, 26760, Pitch_bend_c, 1, 1216
4, 26780, Pitch_bend_c, 1, 832
4, 26860, Pitch_bend_c, 1, 1344
4, 26880, Note_on_c, 1, 38, 115
4, 26884, Pitch_bend_c, 1, 1792
4, 26904, Pitch_bend_c, 1, 2816
4, 26924, Pitch_bend_c, 1, 4224
4, 26944, Pitch_bend_c, 1, 5824
4, 26964, Pitch_bend_c, 1, 7296
4, 26984, Pitch_bend_c, 1, 8192
4, 26996, Control_c, 1, 1, 28
4, 27036, Control_c, 1, 1, 63
4, 27076, Control_c, 1, 1, 66
4, 27140, Control_c, 1, 1, 59
4, 27228, Control_c, 1, 1, 0
4, 27248, Note_off_c, 1, 38, 115
4, 27264, Note_on_c, 1, 36, 109
4, 27516, Note_off_c, 1, 36, 109
4, 27540, Note_on_c, 1, 33, 115
4, 27708, Pitch_bend_c, 1, 7296
4, 27724, Note_off_c, 1, 33, 115
4, 27724, Pitch_bend_c, 1, 4928
4, 27752, Pitch_bend_c, 1, 2176
4, 27800, Pitch_bend_c, 1, 1920
4, 27816, Pitch_bend_c, 1, 1728
4, 27860, Pitch_bend_c, 1, 2688
4, 27876, Pitch_bend_c, 1, 3904
4, 27892, Pitch_bend_c, 1, 4416
4, 27900, Note_on_c, 1, 45, 120
4, 27920, Pitch_bend_c, 1, 4672
4, 27936, Pitch_bend_c, 1, 5504
4, 27952, Pitch_bend_c, 1, 6720
4, 27968, Pitch_bend_c, 1, 7168
4, 27984, Pitch_bend_c, 1, 7552
4, 28000, Pitch_bend_c, 1, 8192
4, 28028, Note_off_c, 1, 45, 120
4, 28028, Note_on_c, 1, 43, 102
4, 28404, Note_off_c, 1, 43, 102
4, 28404, Note_on_c, 1, 42, 99
4, 28788, Note_off_c, 1, 42, 99
4, 28788, Note_on_c, 1, 40, 111
4, 29052, Pitch_bend_c, 1, 7232
4, 29068, Pitch_bend_c, 1, 6656
4, 29084, Pitch_bend_c, 1, 6208
4, 29100, Pitch_bend_c, 1, 5632
4, 29116, Pitch_bend_c, 1, 4992
4, 29144, Pitch_bend_c, 1, 3136
4, 29160, Pitch_bend_c, 1, 1984
4, 29176, Note_off_c, 1, 40, 111
4, 29176, Pitch_bend_c, 1, 960
4, 29180, Note_on_c, 1, 38, 100
4, 29192, Pitch_bend_c, 1, 704
4, 29208, Pitch_bend_c, 1, 1088
4, 29236, Pitch_bend_c, 1, 3136
4, 29252, Pitch_bend_c, 1, 4032
4, 29268, Pitch_bend_c, 1, 4736
4, 29284, Pitch_bend_c, 1, 5376
4, 29300, Pitch_bend_c, 1, 6080
4, 29328, Pitch_bend_c, 1, 7040
4, 29344, Pitch_bend_c, 1, 7616
4, 29360, Pitch_bend_c, 1, 8192
4, 29568, Note_off_c, 1, 38, 100
4, 29568, Note_on_c, 1, 33, 100
4, 29932, Note_off_c, 1, 33, 100
4, 29948, Note_on_c, 1, 36, 102
4, 30336, Note_off_c, 1, 36, 102
4, 30340, Note_on_c, 1, 31, 98
4, 30676, Note_off_c, 1, 31, 98
4, 30712, Note_on_c, 1, 35, 102
4, 31076, Note_off_c, 1, 35, 102
4, 31096, Pitch_bend_c, 1, 2048
4, 31100, Note_on_c, 1, 42, 109
4, 31116, Pitch_bend_c, 1, 2368
4, 31132, Pitch_bend_c, 1, 2688
4, 31148, Pitch_bend_c, 1, 3328
4, 31164, Pitch_bend_c, 1, 3776
4, 31192, Pitch_bend_c, 1, 3968
4, 31208, Pitch_bend_c, 1, 4352
4, 31224, Pitch_bend_c, 1, 4928
4, 31240, Pitch_bend_c, 1, 5568
4, 31268, Pitch_bend_c, 1, 6592
4, 31284, Pitch_bend_c, 1, 7168
4, 31300, Pitch_bend_c, 1, 7552
4, 31316, Pitch_bend_c, 1, 7808
4, 31332, Pitch_bend_c, 1, 8192
4, 31480, Note_off_c, 1, 42, 109
4, 31480, Note_on_c, 1, 40, 107
4, 31868, Note_off_c, 1, 40, 107
4, 31868, Note_on_c, 1, 35, 112
4, 32120, Note_off_c, 1, 35, 112
4, 32120, Note_on_c, 1, 33, 122
4, 32488, Note_off_c, 1, 33, 122
4, 32504, Note_on_c, 1, 45, 121
4, 32504, Pitch_bend_c, 1, 4160
4, 32532, Pitch_bend_c, 1, 6208
4, 32548, Pitch_bend_c, 1, 7168
4, 32564, Pitch_bend_c, 1, 8192
4, 32628, Note_off_c, 1, 45, 121
4, 32628, Note_on_c, 1, 40, 102
4, 33004, Note_off_c, 1, 40, 102
4, 33008, Note_on_c, 1, 36, 99
4, 33388, Note_off_c, 1, 36, 99
4, 33392, Note_on_c, 1, 35, 111
4, 33596, Pitch_bend_c, 1, 7488
4, 33612, Pitch_bend_c, 1, 6912
4, 33640, Pitch_bend_c, 1, 6080
4, 33656, Pitch_bend_c, 1, 5696
4, 33672, Pitch_bend_c, 1, 5184
4, 33688, Pitch_bend_c, 1, 4544
4, 33704, Pitch_bend_c, 1, 3712
4, 33732, Pitch_bend_c, 1, 2176
4, 33748, Pitch_bend_c, 1, 1792
4, 33780, Pitch_bend_c, 1, 2752
4, 33784, Note_off_c, 1, 35, 111
4, 33784, Note_on_c, 1, 33, 97
4, 33796, Pitch_bend_c, 1, 3840
4, 33824, Pitch_bend_c, 1, 4992
4, 33840, Pitch_bend_c, 1, 5504
4, 33856, Pitch_bend_c, 1, 6016
4, 33872, Pitch_bend_c, 1, 6464
4, 33900, Pitch_bend_c, 1, 7424
4, 33916, Pitch_bend_c, 1, 8192
4, 34172, Note_off_c, 1, 33, 97
4, 34172, Note_on_c, 1, 45, 110
4, 34500, Note_off_c, 1, 45, 110
4, 34556, Note_on_c, 1, 40, 99
4, 34884, Note_off_c, 1, 40, 99
4, 34964, Note_on_c, 1, 33, 103
4, 35152, Pitch_bend_c, 1, 7744
4, 35168, Pitch_bend_c, 1, 7424
4, 35184, Pitch_bend_c, 1, 6976
4, 35200, Pitch_bend_c, 1, 6528
4, 35228, Pitch_bend_c, 1, 5376
4, 35244, Pitch_bend_c, 1, 4480
4, 35260, Pitch_bend_c, 1, 3520
4, 35276, Pitch_bend_c, 1, 2560
4, 35304, Pitch_bend_c, 1, 1600
4, 35320, Note_off_c, 1, 33, 103
4, 35320, Pitch_bend_c, 1, 1088
4, 35336, Pitch_bend_c, 1, 640
4, 35340, Note_on_c, 1, 38, 109
4, 35380, Pitch_bend_c, 1, 2816
4, 35396, Pitch_bend_c, 1, 4480
4, 35412, Pitch_bend_c, 1, 5504
4, 35428, Pitch_bend_c, 1, 5760
4, 35444, Pitch_bend_c, 1, 5952
4, 35472, Pitch_bend_c, 1, 6976
4, 35488, Pitch_bend_c, 1, 7616
4, 35504, Pitch_bend_c, 1, 8192
4, 35708, Note_off_c, 1, 38, 109
4, 35708, Note_on_c, 1, 33, 125
4, 36084, Note_off_c, 1, 33, 125
4, 36088, Note_on_c, 1, 37, 118
4, 36452, Note_off_c, 1, 37, 118
4, 36476, Note_on_c, 1, 37, 112
4, 36724, Pitch_bend_c, 1, 6720
4, 36740, Pitch_bend_c, 1, 6144
4, 36756, Pitch_bend_c, 1, 5568
4, 36772, Pitch_bend_c, 1, 5184
4, 36788, Pitch_bend_c, 1, 4736
4, 36816, Pitch_bend_c, 1, 3904
4, 36824, Note_off_c, 1, 37, 112
4, 36856, Pitch_bend_c, 1, 8192
4, 36864, Note_on_c, 1, 36, 112
4, 37236, Note_off_c, 1, 36, 112
4, 37240, Note_on_c, 1, 31, 125
4, 37608, Note_off_c, 1, 31, 125
4, 37628, Note_on_c, 1, 28, 118
4, 38004, Note_off_c, 1, 28, 118
4, 38008, Note_on_c, 1, 31, 127
4, 38232, Note_off_c, 1, 31, 127
4, 38268, Note_on_c, 1, 29, 127
4, 38780, Note_off_c, 1, 29, 127
4, 38780, Note_on_c, 1, 31, 125
4, 39016, Note_off_c, 1, 31, 125
4, 39160, Note_on_c, 1, 33, 118
4, 39388, Note_off_c, 1, 33, 118
4, 39544, Note_on_c, 1, 36, 126
4, 39672, Note_off_c, 1, 36, 126
4, 39680, Note_on_c, 1, 31, 99
4, 39740, Note_off_c, 1, 31, 99
4, 39748, Note_on_c, 1, 30, 99
4, 39804, Note_off_c, 1, 30, 99
4, 39808, Note_on_c, 1, 28, 127
4, 40064, Note_off_c, 1, 28, 127
4, 40160, Pitch_bend_c, 1, 2816
4, 40192, Note_on_c, 1, 40, 104
4, 40244, Pitch_bend_c, 1, 4544
4, 40272, Pitch_bend_c, 1, 6336
4, 40300, Pitch_bend_c, 1, 7680
4, 40316, Pitch_bend_c, 1, 8192
4, 40536, Note_off_c, 1, 40, 104
4, 40576, Note_on_c, 1, 45, 87
4, 40700, Note_off_c, 1, 45, 87
4, 40704, Note_on_c, 1, 48, 104
4, 40908, Control_c, 1, 1, 127
4, 40924, Note_off_c, 1, 48, 104
4, 40948, Control_c, 1, 1, 0
4, 40960, Note_on_c, 1, 48, 84
4, 41060, Note_off_c, 1, 48, 84
4, 41088, Note_on_c, 1, 45, 114
4, 41340, Note_off_c, 1, 45, 114
4, 41344, Note_on_c, 1, 40, 93
4, 41452, Note_off_c, 1, 40, 93
4, 41464, Pitch_bend_c, 1, 4096
4, 41472, Note_on_c, 1, 43, 101
4, 41492, Pitch_bend_c, 1, 4928
4, 41516, Pitch_bend_c, 1, 6144
4, 41540, Pitch_bend_c, 1, 7616
4, 41556, Pitch_bend_c, 1, 8192
4, 41808, Note_off_c, 1, 43, 101
4, 41856, Note_on_c, 1, 45, 101
4, 41980, Note_off_c, 1, 45, 101
4, 42212, Pitch_bend_c, 1, 1600
4, 42248, Note_on_c, 1, 38, 111
4, 42256, Pitch_bend_c, 1, 2048
4, 42276, Pitch_bend_c, 1, 3712
4, 42296, Pitch_bend_c, 1, 6208
4, 42316, Pitch_bend_c, 1, 8192
4, 42544, Control_c, 1, 1, 40
4, 42584, Control_c, 1, 1, 73
4, 42624, Control_c, 1, 1, 83
4, 42684, Control_c, 1, 1, 59
4, 42728, Control_c, 1, 1, 0
4, 42856, Note_off_c, 1, 38, 111
4, 42872, Note_on_c, 1, 33, 103
4, 42980, Note_off_c, 1, 33, 103
4, 43232, Pitch_bend_c, 1, 2816
4, 43264, Note_on_c, 1, 45, 104
4, 43316, Pitch_bend_c, 1, 4544
4, 43344, Pitch_bend_c, 1, 6336
4, 43372, Pitch_bend_c, 1, 7680
4, 43388, Pitch_bend_c, 1, 8192
4, 43608, Note_off_c, 1, 45, 104
4, 43648, Note_on_c, 1, 33, 87
4, 43772, Note_off_c, 1, 33, 87
4, 43776, Note_on_c, 1, 48, 104
4, 43980, Control_c, 1, 1, 127
4, 44020, Control_c, 1, 1, 0
4, 44096, Note_off_c, 1, 48, 104
4, 44160, Note_on_c, 1, 50, 114
4, 44412, Note_off_c, 1, 50, 114
4, 44536, Pitch_bend_c, 1, 4544
4, 44544, Note_on_c, 1, 50, 114
4, 44564, Pitch_bend_c, 1, 4928
4, 44588, Pitch_bend_c, 1, 6144
4, 44612, Pitch_bend_c, 1, 7616
4, 44628, Pitch_bend_c, 1, 8192
4, 44796, Note_off_c, 1, 50, 114
4, 44800, Note_on_c, 1, 48, 93
4, 44908, Note_off_c, 1, 48, 93
4, 44928, Note_on_c, 1, 45, 101
4, 45052, Note_off_c, 1, 45, 101
4, 45140, Pitch_bend_c, 1, 7040
4, 45160, Pitch_bend_c, 1, 5760
4, 45180, Pitch_bend_c, 1, 4416
4, 45200, Pitch_bend_c, 1, 2880
4, 45220, Pitch_bend_c, 1, 1792
4, 45240, Pitch_bend_c, 1, 1280
4, 45316, Note_on_c, 1, 38, 103
4, 45324, Pitch_bend_c, 1, 2240
4, 45344, Pitch_bend_c, 1, 4928
4, 45364, Pitch_bend_c, 1, 8192
4, 45528, Control_c, 1, 1, 27
4, 45568, Control_c, 1, 1, 92
4, 45608, Control_c, 1, 1, 116
4, 45652, Control_c, 1, 1, 90
4, 45668, Note_off_c, 1, 38, 103
4, 45692, Control_c, 1, 1, 0
4, 45712, Note_on_c, 1, 36, 115
4, 45948, Note_off_c, 1, 36, 115
4, 45952, Note_on_c, 1, 33, 121
4, 46080, Note_off_c, 1, 33, 121
4, 46304, Pitch_bend_c, 1, 2816
4, 46336, Note_on_c, 1, 45, 104
4, 46388, Pitch_bend_c, 1, 4544
4, 46416, Pitch_bend_c, 1, 6336
4, 46444, Pitch_bend_c, 1, 7680
4, 46460, Pitch_bend_c, 1, 8192
4, 46512, Note_off_c, 1, 45, 104
4, 46592, Note_on_c, 1, 40, 64
4, 46712, Note_off_c, 1, 40, 64
4, 46720, Note_on_c, 1, 33, 87
4, 46844, Note_off_c, 1, 33, 87
4, 46848, Note_on_c, 1, 52, 104
4, 47052, Control_c, 1, 1, 127
4, 47092, Control_c, 1, 1, 0
4, 47168, Note_off_c, 1, 52, 104
4, 47232, Note_on_c, 1, 55, 114
4, 47484, Note_off_c, 1, 55, 114
4, 47608, Pitch_bend_c, 1, 6464
4, 47616, Note_on_c, 1, 50, 114
4, 47636, Pitch_bend_c, 1, 7360
4, 47660, Pitch_bend_c, 1, 8192
4, 47704, Pitch_bend_c, 1, 12352
4, 47796, Pitch_bend_c, 1, 8192
4, 47868, Note_off_c, 1, 50, 114
4, 47872, Note_on_c, 1, 48, 93
4, 47980, Note_off_c, 1, 48, 93
4, 48000, Note_on_c, 1, 45, 101
4, 48304, Note_off_c, 1, 45, 101
4, 48380, Note_on_c, 1, 38, 96
4, 48468, Pitch_bend_c, 1, 11008
4, 48488, Pitch_bend_c, 1, 13824
4, 48508, Pitch_bend_c, 1, 15680
4, 48528, Pitch_bend_c, 1, 16192
4, 48548, Pitch_bend_c, 1, 15680
4, 48568, Pitch_bend_c, 1, 6272
4, 48588, Pitch_bend_c, 1, 8512
4, 48612, Pitch_bend_c, 1, 8192
4, 48672, Note_off_c, 1, 38, 96
4, 48676, Note_on_c, 1, 36, 70
4, 48808, Note_off_c, 1, 36, 70
4, 48808, Note_on_c, 1, 33, 96
4, 49000, Note_off_c, 1, 33, 96
4, 49028, Note_on_c, 1, 33, 72
4, 49224, Note_off_c, 1, 33, 72
4, 49376, Pitch_bend_c, 1, 2816
4, 49408, Note_on_c, 1, 45, 104
4, 49460, Pitch_bend_c, 1, 4544
4, 49488, Pitch_bend_c, 1, 6336
4, 49516, Pitch_bend_c, 1, 7680
4, 49532, Pitch_bend_c, 1, 8192
4, 49656, Note_off_c, 1, 45, 104
4, 49664, Note_on_c, 1, 40, 101
4, 49724, Note_off_c, 1, 40, 101
4, 49728, Note_on_c, 1, 36, 101
4, 49788, Note_off_c, 1, 36, 101
4, 49792, Note_on_c, 1, 33, 87
4, 49916, Note_off_c, 1, 33, 87
4, 49920, Note_on_c, 1, 36, 104
4, 50124, Control_c, 1, 1, 127
4, 50140, Note_off_c, 1, 36, 104
4, 50164, Control_c, 1, 1, 0
4, 50176, Note_on_c, 1, 36, 84
4, 50276, Note_off_c, 1, 36, 84
4, 50304, Note_on_c, 1, 33, 114
4, 50556, Note_off_c, 1, 33, 114
4, 50560, Note_on_c, 1, 28, 93
4, 50668, Note_off_c, 1, 28, 93
4, 50680, Pitch_bend_c, 1, 4096
4, 50688, Note_on_c, 1, 31, 101
4, 50708, Pitch_bend_c, 1, 4928
4, 50732, Pitch_bend_c, 1, 6144
4, 50756, Pitch_bend_c, 1, 7616
4, 50772, Pitch_bend_c, 1, 8192
4, 51024, Note_off_c, 1, 31, 101
4, 51072, Note_on_c, 1, 33, 101
4, 51196, Note_off_c, 1, 33, 101
4, 51376, Pitch_bend_c, 1, 7040
4, 51396, Pitch_bend_c, 1, 4672
4, 51416, Pitch_bend_c, 1, 1664
4, 51440, Pitch_bend_c, 1, 0
4, 51456, Note_on_c, 1, 38, 103
4, 51500, Pitch_bend_c, 1, 2304
4, 51520, Pitch_bend_c, 1, 6400
4, 51540, Pitch_bend_c, 1, 8192
4, 51732, Control_c, 1, 1, 37
4, 51772, Control_c, 1, 1, 92
4, 51812, Control_c, 1, 1, 0
4, 51820, Note_off_c, 1, 38, 103
4, 51832, Note_on_c, 1, 36, 109
4, 52060, Note_off_c, 1, 36, 109
4, 52092, Note_on_c, 1, 33, 115
4, 52192, Note_off_c, 1, 33, 115
4, 52448, Pitch_bend_c, 1, 2816
4, 52480, Note_on_c, 1, 45, 84
4, 52532, Pitch_bend_c, 1, 4544
4, 52560, Pitch_bend_c, 1, 6336
4, 52588, Pitch_bend_c, 1, 7680
4, 52604, Pitch_bend_c, 1, 8192
4, 52824, Note_off_c, 1, 45, 84
4, 52864, Note_on_c, 1, 33, 60
4, 52988, Note_off_c, 1, 33, 60
4, 52992, Note_on_c, 1, 48, 76
4, 53196, Control_c, 1, 1, 127
4, 53212, Note_off_c, 1, 48, 76
4, 53236, Control_c, 1, 1, 0
4, 53248, Note_on_c, 1, 48, 61
4, 53348, Note_off_c, 1, 48, 61
4, 53376, Note_on_c, 1, 45, 74
4, 53628, Note_off_c, 1, 45, 74
4, 53632, Note_on_c, 1, 40, 63
4, 53740, Note_off_c, 1, 40, 63
4, 53752, Pitch_bend_c, 1, 4096
4, 53760, Note_on_c, 1, 43, 74
4, 53780, Pitch_bend_c, 1, 4928
4, 53804, Pitch_bend_c, 1, 6144
4, 53828, Pitch_bend_c, 1, 7616
4, 53844, Pitch_bend_c, 1, 8192
4, 54096, Note_off_c, 1, 43, 74
4, 54144, Note_on_c, 1, 45, 71
4, 54268, Note_off_c, 1, 45, 71
4, 54520, Note_on_c, 1, 38, 105
4, 54624, Pitch_bend_c, 1, 10624
4, 54644, Pitch_bend_c, 1, 14272
4, 54664, Pitch_bend_c, 1, 16320
4, 54724, Pitch_bend_c, 1, 5184
4, 54744, Pitch_bend_c, 1, 9088
4, 54764, Pitch_bend_c, 1, 8192
4, 54784, Note_off_c, 1, 38, 105
4, 54788, Note_on_c, 1, 36, 80
4, 54908, Note_off_c, 1, 36, 80
4, 54912, Note_on_c, 1, 33, 81
4, 55164, Note_off_c, 1, 33, 81
4, 55164, Note_on_c, 1, 33, 102
4, 55344, Note_off_c, 1, 33, 102
4, 55652, Pitch_bend_c, 1, 3392
4, 55676, Note_on_c, 1, 33, 69
4, 55680, Pitch_bend_c, 1, 3776
4, 55696, Pitch_bend_c, 1, 4608
4, 55724, Pitch_bend_c, 1, 6848
4, 55740, Pitch_bend_c, 1, 8192
4, 55800, Note_off_c, 1, 33, 69
4, 55868, Note_on_c, 1, 33, 90
4, 56056, Note_off_c, 1, 33, 90
4, 56056, Note_on_c, 1, 36, 103
4, 56156, Note_off_c, 1, 36, 103
4, 56248, Note_on_c, 1, 36, 96
4, 56416, Note_off_c, 1, 36, 96
4, 56436, Note_on_c, 1, 33, 96
4, 56564, Note_off_c, 1, 33, 96
4, 56636, Note_on_c, 1, 28, 96
4, 56776, Note_off_c, 1, 28, 96
4, 56828, Pitch_bend_c, 1, 3392
4, 56832, Note_on_c, 1, 31, 115
4, 56864, Pitch_bend_c, 1, 3968
4, 56892, Pitch_bend_c, 1, 4928
4, 56924, Pitch_bend_c, 1, 5312
4, 56952, Pitch_bend_c, 1, 6976
4, 56968, Pitch_bend_c, 1, 7552
4, 56984, Pitch_bend_c, 1, 7872
4, 57000, Pitch_bend_c, 1, 8192
4, 57208, Note_off_c, 1, 31, 115
4, 57208, Note_on_c, 1, 33, 115
4, 57352, Note_off_c, 1, 33, 115
4, 57588, Pitch_bend_c, 1, 2432
4, 57592, Note_on_c, 1, 38, 109
4, 57616, Pitch_bend_c, 1, 3968
4, 57632, Pitch_bend_c, 1, 4416
4, 57648, Pitch_bend_c, 1, 4736
4, 57664, Pitch_bend_c, 1, 5120
4, 57692, Pitch_bend_c, 1, 6336
4, 57708, Pitch_bend_c, 1, 6976
4, 57724, Pitch_bend_c, 1, 7680
4, 57740, Pitch_bend_c, 1, 8192
4, 57884, Control_c, 1, 1, 24
4, 57944, Control_c, 1, 1, 78
4, 57976, Control_c, 1, 1, 86
4, 58036, Control_c, 1, 1, 76
4, 58080, Control_c, 1, 1, 43
4, 58112, Control_c, 1, 1, 0
4, 58360, Note_off_c, 1, 38, 109
4, 58364, Note_on_c, 1, 33, 109
4, 58980, Control_c, 1, 1, 32
4, 59024, Control_c, 1, 1, 62
4, 59056, Control_c, 1, 1, 67
4, 59116, Control_c, 1, 1, 32
4, 59148, Control_c, 1, 1, 0
4, 59848, Note_off_c, 1, 33, 109
4, 61440, End_track
5, 0, Start_track
5, 0, Title_t, "Pf Chord"
5, 5256, Note_on_c, 2, 48, 78
5, 5316, Note_off_c, 2, 48, 78
5, 5316, Note_on_c, 2, 49, 107
5, 5368, Note_off_c, 2, 49, 107
5, 5368, Note_on_c, 2, 50, 102
5, 5960, Note_off_c, 2, 50, 102
5, 6004, Note_on_c, 2, 45, 69
5, 6128, Note_off_c, 2, 45, 69
5, 8320, Note_on_c, 2, 48, 88
5, 8372, Note_off_c, 2, 48, 88
5, 8380, Note_on_c, 2, 49, 82
5, 8420, Note_off_c, 2, 49, 82
5, 8436, Note_on_c, 2, 50, 88
5, 8988, Note_off_c, 2, 50, 88
5, 9072, Note_on_c, 2, 45, 71
5, 9204, Note_off_c, 2, 45, 71
5, 11408, Note_on_c, 2, 48, 78
5, 11448, Note_off_c, 2, 48, 78
5, 11456, Note_on_c, 2, 49, 104
5, 11492, Note_off_c, 2, 49, 104
5, 11512, Note_on_c, 2, 50, 90
5, 12100, Note_off_c, 2, 50, 90
5, 12148, Note_on_c, 2, 45, 75
5, 12240, Note_off_c, 2, 45, 75
5, 14480, Note_on_c, 2, 48, 51
5, 14520, Note_off_c, 2, 48, 51
5, 14532, Note_on_c, 2, 49, 93
5, 14584, Note_off_c, 2, 49, 93
5, 14596, Note_on_c, 2, 50, 79
5, 15124, Note_off_c, 2, 50, 79
5, 15240, Note_on_c, 2, 45, 90
5, 15364, Note_off_c, 2, 45, 90
5, 17544, Note_on_c, 2, 48, 85
5, 17588, Note_off_c, 2, 48, 85
5, 17604, Note_on_c, 2, 49, 103
5, 17656, Note_off_c, 2, 49, 103
5, 17656, Note_on_c, 2, 50, 88
5, 18240, Note_off_c, 2, 50, 88
5, 18292, Note_on_c, 2, 45, 70
5, 18408, Note_off_c, 2, 45, 70
5, 20632, Note_on_c, 2, 48, 80
5, 20680, Note_off_c, 2, 48, 80
5, 20688, Note_on_c, 2, 49, 102
5, 20744, Note_off_c, 2, 49, 102
5, 20744, Note_on_c, 2, 50, 84
5, 21284, Note_off_c, 2, 50, 84
5, 21364, Note_on_c, 2, 45, 74
5, 21536, Note_off_c, 2, 45, 74
5, 23672, Note_on_c, 2, 48, 83
5, 23720, Note_off_c, 2, 48, 83
5, 23748, Note_on_c, 2, 49, 103
5, 23804, Note_on_c, 2, 50, 96
5, 23812, Note_off_c, 2, 49, 103
5, 24388, Note_off_c, 2, 50, 96
5, 24432, Note_on_c, 2, 45, 78
5, 24548, Note_off_c, 2, 45, 78
5, 26776, Note_on_c, 2, 48, 81
5, 26804, Note_off_c, 2, 48, 81
5, 26828, Note_on_c, 2, 49, 85
5, 26884, Note_off_c, 2, 49, 85
5, 26888, Note_on_c, 2, 50, 79
5, 27460, Note_off_c, 2, 50, 79
5, 27508, Note_on_c, 2, 45, 64
5, 27600, Note_off_c, 2, 45, 64
5, 29184, Note_on_c, 2, 54, 64
5, 29188, Note_on_c, 2, 60, 55
5, 29904, Note_off_c, 2, 54, 64
5, 29948, Note_off_c, 2, 60, 55
5, 29956, Note_on_c, 2, 58, 68
5, 29960, Note_on_c, 2, 64, 51
5, 30532, Note_off_c, 2, 64, 51
5, 30572, Note_off_c, 2, 58, 68
5, 30720, Note_on_c, 2, 57, 55
5, 30720, Note_on_c, 2, 63, 66
5, 31148, Note_off_c, 2, 57, 55
5, 31168, Note_off_c, 2, 63, 66
5, 31488, Note_on_c, 2, 56, 54
5, 31496, Note_on_c, 2, 62, 62
5, 31916, Note_off_c, 2, 62, 62
5, 32032, Note_off_c, 2, 56, 54
5, 32504, Note_on_c, 2, 57, 78
5, 32556, Note_off_c, 2, 57, 78
5, 32640, Note_on_c, 2, 52, 81
5, 32792, Note_off_c, 2, 52, 81
5, 33016, Note_on_c, 2, 48, 90
5, 33220, Note_off_c, 2, 48, 90
5, 33404, Note_on_c, 2, 47, 81
5, 33592, Note_off_c, 2, 47, 81
5, 33792, Note_on_c, 2, 45, 62
5, 34008, Note_off_c, 2, 45, 62
5, 34168, Note_on_c, 2, 57, 73
5, 34364, Note_off_c, 2, 57, 73
5, 34556, Note_on_c, 2, 62, 97
5, 34844, Note_off_c, 2, 62, 97
5, 34944, Note_on_c, 2, 61, 82
5, 35116, Note_off_c, 2, 61, 82
5, 35332, Note_on_c, 2, 54, 75
5, 35336, Note_on_c, 2, 60, 75
5, 35836, Note_off_c, 2, 60, 75
5, 35900, Note_off_c, 2, 54, 75
5, 36096, Note_on_c, 2, 63, 89
5, 36100, Note_on_c, 2, 59, 86
5, 36660, Note_off_c, 2, 59, 86
5, 36688, Note_off_c, 2, 63, 89
5, 36860, Note_on_c, 2, 64, 66
5, 36864, Note_on_c, 2, 58, 63
5, 37692, Note_off_c, 2, 64, 66
5, 37912, Note_off_c, 2, 58, 63
5, 38644, Note_on_c, 2, 60, 89
5, 38652, Note_on_c, 2, 53, 80
5, 39608, Note_off_c, 2, 53, 80
5, 39668, Note_off_c, 2, 60, 89
5, 39796, Note_on_c, 2, 62, 96
5, 39804, Note_on_c, 2, 52, 88
5, 40020, Note_off_c, 2, 62, 96
5, 40140, Note_off_c, 2, 52, 88
5, 42096, Note_on_c, 2, 48, 80
5, 42160, Note_off_c, 2, 48, 80
5, 42176, Note_on_c, 2, 49, 96
5, 42232, Note_on_c, 2, 50, 86
5, 42256, Note_off_c, 2, 49, 96
5, 42696, Note_off_c, 2, 50, 86
5, 42880, Note_on_c, 2, 45, 63
5, 43044, Note_off_c, 2, 45, 63
5, 45200, Note_on_c, 2, 48, 57
5, 45252, Note_on_c, 2, 49, 88
5, 45260, Note_off_c, 2, 48, 57
5, 45312, Note_on_c, 2, 50, 78
5, 45332, Note_off_c, 2, 49, 88
5, 45716, Note_off_c, 2, 50, 78
5, 45952, Note_on_c, 2, 45, 64
5, 46188, Note_off_c, 2, 45, 64
5, 48272, Note_on_c, 2, 48, 87
5, 48316, Note_off_c, 2, 48, 87
5, 48328, Note_on_c, 2, 49, 101
5, 48372, Note_off_c, 2, 49, 101
5, 48384, Note_on_c, 2, 50, 81
5, 48784, Note_off_c, 2, 50, 81
5, 49020, Note_on_c, 2, 45, 63
5, 49164, Note_off_c, 2, 45, 63
5, 51336, Note_on_c, 2, 48, 85
5, 51384, Note_off_c, 2, 48, 85
5, 51388, Note_on_c, 2, 49, 88
5, 51440, Note_on_c, 2, 50, 84
5, 51444, Note_off_c, 2, 49, 88
5, 51964, Note_off_c, 2, 50, 84
5, 52088, Note_on_c, 2, 45, 62
5, 52296, Note_off_c, 2, 45, 62
5, 54424, Note_on_c, 2, 48, 55
5, 54460, Note_off_c, 2, 48, 55
5, 54472, Note_on_c, 2, 49, 92
5, 54532, Note_on_c, 2, 50, 68
5, 54548, Note_off_c, 2, 49, 92
5, 54960, Note_off_c, 2, 50, 68
5, 55168, Note_on_c, 2, 45, 67
5, 55356, Note_off_c, 2, 45, 67
5, 55676, Note_on_c, 2, 57, 96
5, 55784, Note_off_c, 2, 57, 96
5, 55880, Note_on_c, 2, 57, 94
5, 56056, Note_on_c, 2, 60, 104
5, 56060, Note_off_c, 2, 57, 94
5, 56176, Note_off_c, 2, 60, 104
5, 56248, Note_on_c, 2, 60, 69
5, 56360, Note_off_c, 2, 60, 69
5, 56456, Note_on_c, 2, 57, 92
5, 56548, Note_off_c, 2, 57, 92
5, 56644, Note_on_c, 2, 52, 89
5, 56760, Note_off_c, 2, 52, 89
5, 56840, Note_on_c, 2, 55, 98
5, 57220, Note_on_c, 2, 57, 98
5, 57264, Note_off_c, 2, 55, 98
5, 57380, Note_off_c, 2, 57, 98
5, 57600, Note_on_c, 2, 50, 103
5, 57600, Note_on_c, 2, 57, 100
5, 57600, Note_on_c, 2, 62, 106
5, 58048, Note_off_c, 2, 62, 106
5, 58068, Note_off_c, 2, 50, 103
5, 58072, Note_off_c, 2, 57, 100
5, 58364, Note_on_c, 2, 57, 88
5, 58368, Note_on_c, 2, 45, 79
5, 58368, Note_on_c, 2, 52, 93
5, 59912, Note_off_c, 2, 52, 93
5, 59916, Note_off_c, 2, 57, 88
5, 59952, Note_off_c, 2, 45, 79
5, 61440, End_track
6, 0, Start_track
6, 0, Title_t, "Pf Rhand"
6, 3328, Note_on_c, 3, 69, 72
6, 3440, Note_off_c, 3, 69, 72
6, 3720, Note_on_c, 3, 69, 74
6, 3840, Note_on_c, 3, 72, 79
6, 3908, Note_off_c, 3, 69, 74
6, 4032, Note_off_c, 3, 72, 79
6, 4104, Note_on_c, 3, 72, 90
6, 4196, Note_off_c, 3, 72, 90
6, 4216, Note_on_c, 3, 69, 84
6, 4404, Note_off_c, 3, 69, 84
6, 4480, Note_on_c, 3, 64, 80
6, 4600, Note_on_c, 3, 67, 85
6, 4664, Note_off_c, 3, 64, 80
6, 4988, Note_on_c, 3, 69, 89
6, 5024, Note_off_c, 3, 67, 85
6, 5240, Note_off_c, 3, 69, 89
6, 5368, Note_on_c, 3, 62, 91
6, 5376, Note_on_c, 3, 66, 99
6, 5376, Note_on_c, 3, 69, 104
6, 5872, Note_off_c, 3, 62, 91
6, 5908, Note_off_c, 3, 69, 104
6, 5932, Note_off_c, 3, 66, 99
6, 6008, Note_on_c, 3, 64, 92
6, 6008, Note_on_c, 3, 69, 93
6, 6012, Note_on_c, 3, 60, 85
6, 6120, Note_off_c, 3, 60, 85
6, 6132, Note_off_c, 3, 64, 92
6, 6180, Note_off_c, 3, 69, 93
6, 6400, Note_on_c, 3, 69, 91
6, 6648, Note_off_c, 3, 69, 91
6, 6780, Note_on_c, 3, 69, 87
6, 6908, Note_on_c, 3, 72, 94
6, 6992, Note_off_c, 3, 69, 87
6, 7292, Note_on_c, 3, 74, 93
6, 7316, Note_off_c, 3, 72, 94
6, 7480, Note_off_c, 3, 74, 93
6, 7676, Note_on_c, 3, 74, 105
6, 7936, Note_on_c, 3, 72, 90
6, 8000, Note_off_c, 3, 74, 105
6, 8044, Note_off_c, 3, 72, 90
6, 8060, Note_on_c, 3, 69, 87
6, 8252, Note_off_c, 3, 69, 87
6, 8440, Note_on_c, 3, 69, 88
6, 8444, Note_on_c, 3, 62, 88
6, 8444, Note_on_c, 3, 66, 88
6, 8908, Note_off_c, 3, 66, 88
6, 8908, Note_off_c, 3, 62, 88
6, 8948, Note_off_c, 3, 69, 88
6, 9076, Note_on_c, 3, 69, 92
6, 9080, Note_on_c, 3, 60, 73
6, 9080, Note_on_c, 3, 64, 83
6, 9200, Note_off_c, 3, 60, 73
6, 9220, Note_off_c, 3, 64, 83
6, 9260, Note_off_c, 3, 69, 92
6, 9464, Note_on_c, 3, 69, 91
6, 9676, Note_off_c, 3, 69, 91
6, 9856, Note_on_c, 3, 69, 80
6, 9972, Note_off_c, 3, 69, 80
6, 9980, Note_on_c, 3, 76, 100
6, 10368, Note_on_c, 3, 79, 97
6, 10384, Note_off_c, 3, 76, 100
6, 10748, Note_on_c, 3, 74, 99
6, 10752, Note_off_c, 3, 79, 97
6, 10840, Note_off_c, 3, 74, 99
6, 10840, Note_on_c, 3, 75, 95
6, 10936, Note_on_c, 3, 74, 99
6, 10940, Note_off_c, 3, 75, 95
6, 11020, Note_off_c, 3, 74, 99
6, 11032, Note_on_c, 3, 72, 99
6, 11120, Note_off_c, 3, 72, 99
6, 11128, Note_on_c, 3, 69, 93
6, 11296, Note_off_c, 3, 69, 93
6, 11512, Note_on_c, 3, 62, 99
6, 11512, Note_on_c, 3, 66, 96
6, 11512, Note_on_c, 3, 69, 100
6, 11936, Note_off_c, 3, 69, 100
6, 12000, Note_off_c, 3, 62, 99
6, 12024, Note_off_c, 3, 66, 96
6, 12152, Note_on_c, 3, 60, 64
6, 12152, Note_on_c, 3, 69, 79
6, 12156, Note_on_c, 3, 64, 68
6, 12292, Note_off_c, 3, 60, 64
6, 12304, Note_off_c, 3, 64, 68
6, 12328, Note_off_c, 3, 69, 79
6, 12560, Note_on_c, 3, 69, 94
6, 12780, Note_off_c, 3, 69, 94
6, 12936, Note_on_c, 3, 69, 92
6, 13076, Note_on_c, 3, 72, 96
6, 13128, Note_off_c, 3, 69, 92
6, 13296, Note_off_c, 3, 72, 96
6, 13312, Note_on_c, 3, 72, 89
6, 13400, Note_off_c, 3, 72, 89
6, 13440, Note_on_c, 3, 69, 85
6, 13696, Note_on_c, 3, 64, 80
6, 13740, Note_off_c, 3, 69, 85
6, 13808, Note_off_c, 3, 64, 80
6, 13816, Note_on_c, 3, 67, 85
6, 14004, Note_off_c, 3, 67, 85
6, 14216, Note_on_c, 3, 69, 86
6, 14568, Note_off_c, 3, 69, 86
6, 14592, Note_on_c, 3, 69, 88
6, 14596, Note_on_c, 3, 62, 88
6, 14596, Note_on_c, 3, 66, 87
6, 15020, Note_off_c, 3, 62, 88
6, 15044, Note_off_c, 3, 69, 88
6, 15120, Note_off_c, 3, 66, 87
6, 15224, Note_on_c, 3, 69, 90
6, 15228, Note_on_c, 3, 60, 70
6, 15228, Note_on_c, 3, 64, 80
6, 15344, Note_off_c, 3, 60, 70
6, 15348, Note_off_c, 3, 64, 80
6, 15392, Note_off_c, 3, 69, 90
6, 15624, Note_on_c, 3, 69, 92
6, 15856, Note_off_c, 3, 69, 92
6, 16016, Note_on_c, 3, 69, 88
6, 16104, Note_off_c, 3, 69, 88
6, 16124, Note_on_c, 3, 72, 97
6, 16236, Note_off_c, 3, 72, 97
6, 16392, Note_on_c, 3, 72, 99
6, 16504, Note_on_c, 3, 69, 94
6, 16576, Note_off_c, 3, 72, 99
6, 16688, Note_off_c, 3, 69, 94
6, 16776, Note_on_c, 3, 64, 93
6, 16888, Note_on_c, 3, 67, 96
6, 16980, Note_off_c, 3, 64, 93
6, 17272, Note_on_c, 3, 69, 94
6, 17300, Note_off_c, 3, 67, 96
6, 17552, Note_off_c, 3, 69, 94
6, 17656, Note_on_c, 3, 62, 97
6, 17656, Note_on_c, 3, 69, 96
6, 17660, Note_on_c, 3, 66, 87
6, 18120, Note_off_c, 3, 69, 96
6, 18120, Note_off_c, 3, 62, 97
6, 18216, Note_off_c, 3, 66, 87
6, 18296, Note_on_c, 3, 69, 87
6, 18300, Note_on_c, 3, 60, 70
6, 18300, Note_on_c, 3, 64, 72
6, 18404, Note_off_c, 3, 60, 70
6, 18416, Note_off_c, 3, 64, 72
6, 18448, Note_off_c, 3, 69, 87
6, 18680, Note_on_c, 3, 69, 91
6, 18852, Note_off_c, 3, 69, 91
6, 19056, Note_on_c, 3, 69, 75
6, 19140, Note_off_c, 3, 69, 75
6, 19196, Note_on_c, 3, 72, 90
6, 19548, Note_off_c, 3, 72, 90
6, 19584, Note_on_c, 3, 74, 92
6, 19868, Note_off_c, 3, 74, 92
6, 19964, Note_on_c, 3, 74, 94
6, 20240, Note_on_c, 3, 72, 87
6, 20300, Note_off_c, 3, 72, 87
6, 20344, Note_on_c, 3, 69, 84
6, 20376, Note_off_c, 3, 74, 94
6, 20580, Note_off_c, 3, 69, 84
6, 20740, Note_on_c, 3, 62, 83
6, 20740, Note_on_c, 3, 69, 86
6, 20744, Note_on_c, 3, 66, 79
6, 21176, Note_off_c, 3, 69, 86
6, 21180, Note_off_c, 3, 62, 83
6, 21228, Note_off_c, 3, 66, 79
6, 21364, Note_on_c, 3, 69, 84
6, 21368, Note_on_c, 3, 64, 78
6, 21372, Note_on_c, 3, 60, 40
6, 21536, Note_off_c, 3, 60, 40
6, 21548, Note_off_c, 3, 69, 84
6, 21560, Note_off_c, 3, 64, 78
6, 21768, Note_on_c, 3, 69, 85
6, 21964, Note_off_c, 3, 69, 85
6, 22144, Note_on_c, 3, 69, 83
6, 22264, Note_on_c, 3, 76, 101
6, 22276, Note_off_c, 3, 69, 83
6, 22652, Note_on_c, 3, 79, 104
6, 22672, Note_off_c, 3, 76, 101
6, 23036, Note_on_c, 3, 74, 88
6, 23044, Note_off_c, 3, 79, 104
6, 23124, Note_off_c, 3, 74, 88
6, 23136, Note_on_c, 3, 75, 81
6, 23228, Note_on_c, 3, 74, 93
6, 23244, Note_off_c, 3, 75, 81
6, 23308, Note_off_c, 3, 74, 93
6, 23320, Note_on_c, 3, 72, 93
6, 23408, Note_off_c, 3, 72, 93
6, 23420, Note_on_c, 3, 69, 72
6, 23628, Note_off_c, 3, 69, 72
6, 23804, Note_on_c, 3, 62, 80
6, 23808, Note_on_c, 3, 66, 64
6, 23812, Note_on_c, 3, 69, 63
6, 24220, Note_off_c, 3, 69, 63
6, 24232, Note_off_c, 3, 62, 80
6, 24248, Note_off_c, 3, 66, 64
6, 24436, Note_on_c, 3, 60, 82
6, 24436, Note_on_c, 3, 69, 80
6, 24444, Note_on_c, 3, 64, 86
6, 24564, Note_off_c, 3, 60, 82
6, 24584, Note_off_c, 3, 64, 86
6, 24584, Note_off_c, 3, 69, 80
6, 24816, Note_on_c, 3, 69, 89
6, 25024, Note_off_c, 3, 69, 89
6, 25208, Note_on_c, 3, 69, 92
6, 25300, Note_off_c, 3, 69, 92
6, 25340, Note_on_c, 3, 72, 86
6, 25500, Note_off_c, 3, 72, 86
6, 25604, Note_on_c, 3, 72, 92
6, 25692, Note_off_c, 3, 72, 92
6, 25720, Note_on_c, 3, 69, 89
6, 25912, Note_off_c, 3, 69, 89
6, 25976, Note_on_c, 3, 64, 88
6, 26104, Note_on_c, 3, 67, 85
6, 26152, Note_off_c, 3, 64, 88
6, 26332, Note_off_c, 3, 67, 85
6, 26496, Note_on_c, 3, 69, 92
6, 26852, Note_off_c, 3, 69, 92
6, 26872, Note_on_c, 3, 62, 81
6, 26872, Note_on_c, 3, 66, 80
6, 26872, Note_on_c, 3, 69, 87
6, 27340, Note_off_c, 3, 62, 81
6, 27444, Note_off_c, 3, 69, 87
6, 27460, Note_off_c, 3, 66, 80
6, 27508, Note_on_c, 3, 69, 86
6, 27516, Note_on_c, 3, 60, 74
6, 27516, Note_on_c, 3, 64, 80
6, 27548, Note_off_c, 3, 69, 86
6, 27628, Note_off_c, 3, 60, 74
6, 27636, Note_off_c, 3, 64, 80
6, 28412, Note_on_c, 3, 69, 86
6, 28748, Note_off_c, 3, 69, 86
6, 28800, Note_on_c, 3, 69, 81
6, 29088, Note_off_c, 3, 69, 81
6, 29180, Note_on_c, 3, 76, 92
6, 29184, Note_on_c, 3, 69, 67
6, 29380, Control_c, 3, 64, 127
6, 29928, Note_off_c, 3, 69, 67
6, 29952, Note_on_c, 3, 75, 97
6, 29984, Note_off_c, 3, 76, 92
6, 29988, Control_c, 3, 64, 0
6, 30104, Control_c, 3, 64, 127
6, 30208, Note_on_c, 3, 69, 79
6, 30256, Note_off_c, 3, 75, 97
6, 30288, Note_off_c, 3, 69, 79
6, 30336, Note_on_c, 3, 74, 74
6, 30368, Control_c, 3, 64, 0
6, 30440, Control_c, 3, 64, 127
6, 30592, Note_on_c, 3, 69, 74
6, 30672, Note_off_c, 3, 74, 74
6, 30716, Note_on_c, 3, 72, 88
6, 30720, Note_off_c, 3, 69, 74
6, 30756, Control_c, 3, 64, 0
6, 30868, Control_c, 3, 64, 127
6, 31112, Note_on_c, 3, 69, 82
6, 31132, Note_off_c, 3, 72, 88
6, 31424, Note_off_c, 3, 69, 82
6, 31492, Note_on_c, 3, 67, 91
6, 31532, Control_c, 3, 64, 0
6, 31636, Control_c, 3, 64, 127
6, 31748, Note_on_c, 3, 64, 84
6, 31776, Note_off_c, 3, 67, 91
6, 31824, Note_off_c, 3, 64, 84
6, 31872, Note_on_c, 3, 67, 90
6, 31956, Note_off_c, 3, 67, 90
6, 32100, Control_c, 3, 64, 0
6, 32116, Note_on_c, 3, 60, 83
6, 32120, Note_on_c, 3, 64, 81
6, 32120, Note_on_c, 3, 69, 90
6, 32124, Note_on_c, 3, 66, 84
6, 32200, Control_c, 3, 64, 127
6, 32608, Control_c, 3, 64, 0
6, 32684, Control_c, 3, 64, 127
6, 32988, Control_c, 3, 64, 0
6, 33060, Control_c, 3, 64, 127
6, 33408, Control_c, 3, 64, 0
6, 33488, Control_c, 3, 64, 127
6, 33800, Note_off_c, 3, 60, 83
6, 33820, Control_c, 3, 64, 0
6, 33840, Note_off_c, 3, 64, 81
6, 33920, Control_c, 3, 64, 127
6, 33928, Note_off_c, 3, 66, 84
6, 34096, Note_off_c, 3, 69, 90
6, 34188, Control_c, 3, 64, 0
6, 34244, Control_c, 3, 64, 127
6, 34556, Note_on_c, 3, 67, 99
6, 34556, Note_on_c, 3, 69, 98
6, 34592, Control_c, 3, 64, 0
6, 34668, Control_c, 3, 64, 127
6, 34836, Note_off_c, 3, 67, 99
6, 34840, Note_off_c, 3, 69, 98
6, 34940, Note_on_c, 3, 69, 94
6, 34944, Note_on_c, 3, 67, 93
6, 34976, Control_c, 3, 64, 0
6, 35056, Control_c, 3, 64, 127
6, 35128, Note_off_c, 3, 67, 93
6, 35140, Note_off_c, 3, 69, 94
6, 35332, Note_on_c, 3, 69, 89
6, 35332, Note_on_c, 3, 76, 100
6, 35388, Control_c, 3, 64, 0
6, 35516, Control_c, 3, 64, 127
6, 35860, Note_off_c, 3, 76, 100
6, 35884, Note_off_c, 3, 69, 89
6, 36096, Note_on_c, 3, 75, 105
6, 36136, Control_c, 3, 64, 0
6, 36228, Control_c, 3, 64, 127
6, 36352, Note_on_c, 3, 69, 86
6, 36384, Note_off_c, 3, 75, 105
6, 36436, Note_off_c, 3, 69, 86
6, 36476, Note_on_c, 3, 74, 98
6, 36736, Note_on_c, 3, 69, 83
6, 36860, Note_off_c, 3, 74, 98
6, 36860, Note_on_c, 3, 72, 95
6, 36884, Control_c, 3, 64, 0
6, 36948, Note_off_c, 3, 69, 83
6, 37000, Control_c, 3, 64, 127
6, 37496, Note_on_c, 3, 69, 87
6, 37560, Note_off_c, 3, 72, 95
6, 37568, Note_off_c, 3, 69, 87
6, 37632, Note_on_c, 3, 72, 96
6, 37648, Control_c, 3, 64, 0
6, 37736, Control_c, 3, 64, 127
6, 37872, Note_on_c, 3, 69, 80
6, 37928, Note_off_c, 3, 72, 96
6, 37976, Note_off_c, 3, 69, 80
6, 38012, Note_on_c, 3, 72, 97
6, 38112, Note_off_c, 3, 72, 97
6, 38236, Control_c, 3, 64, 0
6, 38260, Note_on_c, 3, 72, 98
6, 38264, Note_on_c, 3, 69, 87
6, 38268, Note_on_c, 3, 76, 102
6, 38344, Control_c, 3, 64, 127
6, 38584, Control_c, 3, 64, 0
6, 38696, Control_c, 3, 64, 127
6, 38864, Note_off_c, 3, 76, 102
6, 38876, Note_off_c, 3, 72, 98
6, 39004, Note_off_c, 3, 69, 87
6, 39036, Note_on_c, 3, 76, 106
6, 39164, Note_on_c, 3, 79, 110
6, 39204, Control_c, 3, 64, 0
6, 39220, Note_off_c, 3, 76, 106
6, 39272, Control_c, 3, 64, 127
6, 39380, Note_off_c, 3, 79, 110
6, 39420, Note_on_c, 3, 76, 99
6, 39548, Note_off_c, 3, 76, 99
6, 39548, Note_on_c, 3, 74, 106
6, 39732, Control_c, 3, 64, 0
6, 39740, Note_off_c, 3, 74, 106
6, 39800, Note_on_c, 3, 68, 97
6, 39808, Note_on_c, 3, 76, 109
6, 39880, Control_c, 3, 64, 127
6, 40088, Note_off_c, 3, 68, 97
6, 40124, Note_off_c, 3, 76, 109
6, 40184, Control_c, 3, 64, 0
6, 40196, Note_on_c, 3, 69, 93
6, 40412, Note_off_c, 3, 69, 93
6, 40516, Control_c, 3, 64, 127
6, 40576, Note_on_c, 3, 69, 93
6, 40696, Note_off_c, 3, 69, 93
6, 40696, Note_on_c, 3, 72, 93
6, 40704, Control_c, 3, 64, 0
6, 40752, Control_c, 3, 64, 127
6, 40796, Note_off_c, 3, 72, 93
6, 40892, Control_c, 3, 64, 0
6, 40964, Note_on_c, 3, 72, 93
6, 41004, Control_c, 3, 64, 127
6, 41092, Note_on_c, 3, 69, 80
6, 41208, Note_off_c, 3, 72, 93
6, 41276, Note_off_c, 3, 69, 80
6, 41344, Note_on_c, 3, 64, 70
6, 41436, Control_c, 3, 64, 0
6, 41480, Note_on_c, 3, 67, 88
6, 41532, Control_c, 3, 64, 127
6, 41588, Note_off_c, 3, 64, 70
6, 41848, Note_on_c, 3, 69, 79
6, 41848, Control_c, 3, 64, 0
6, 41880, Note_off_c, 3, 67, 88
6, 41920, Control_c, 3, 64, 127
6, 42088, Note_off_c, 3, 69, 79
6, 42232, Note_on_c, 3, 69, 90
6, 42236, Note_on_c, 3, 62, 83
6, 42236, Note_on_c, 3, 66, 82
6, 42240, Control_c, 3, 64, 0
6, 42456, Control_c, 3, 64, 127
6, 42644, Note_off_c, 3, 62, 83
6, 42656, Note_off_c, 3, 69, 90
6, 42664, Note_off_c, 3, 66, 82
6, 42844, Control_c, 3, 64, 0
6, 42872, Note_on_c, 3, 69, 84
6, 42876, Note_on_c, 3, 60, 68
6, 42876, Note_on_c, 3, 64, 78
6, 43020, Note_off_c, 3, 60, 68
6, 43024, Note_off_c, 3, 64, 78
6, 43032, Note_off_c, 3, 69, 84
6, 43244, Control_c, 3, 64, 127
6, 43264, Note_on_c, 3, 69, 90
6, 43528, Note_off_c, 3, 69, 90
6, 43644, Note_on_c, 3, 69, 85
6, 43768, Note_on_c, 3, 72, 88
6, 43784, Control_c, 3, 64, 0
6, 43844, Note_off_c, 3, 69, 85
6, 43884, Control_c, 3, 64, 127
6, 44156, Note_on_c, 3, 74, 91
6, 44180, Control_c, 3, 64, 0
6, 44184, Note_off_c, 3, 72, 88
6, 44256, Control_c, 3, 64, 127
6, 44452, Note_off_c, 3, 74, 91
6, 44536, Note_on_c, 3, 74, 98
6, 44540, Control_c, 3, 64, 0
6, 44628, Control_c, 3, 64, 127
6, 44808, Note_on_c, 3, 72, 81
6, 44832, Note_off_c, 3, 74, 98
6, 44920, Note_off_c, 3, 72, 81
6, 44928, Note_on_c, 3, 69, 85
6, 45068, Note_off_c, 3, 69, 85
6, 45308, Note_on_c, 3, 69, 92
6, 45312, Note_on_c, 3, 62, 78
6, 45312, Note_on_c, 3, 66, 72
6, 45328, Control_c, 3, 64, 0
6, 45576, Control_c, 3, 64, 127
6, 45704, Note_off_c, 3, 62, 78
6, 45720, Note_off_c, 3, 66, 72
6, 45720, Note_off_c, 3, 69, 92
6, 45896, Control_c, 3, 64, 0
6, 45940, Note_on_c, 3, 60, 84
6, 45940, Note_on_c, 3, 69, 87
6, 45944, Note_on_c, 3, 64, 81
6, 46016, Control_c, 3, 64, 127
6, 46116, Note_off_c, 3, 60, 84
6, 46144, Note_off_c, 3, 64, 81
6, 46176, Note_off_c, 3, 69, 87
6, 46332, Note_on_c, 3, 69, 86
6, 46400, Control_c, 3, 64, 0
6, 46476, Note_off_c, 3, 69, 86
6, 46516, Control_c, 3, 64, 127
6, 46716, Note_on_c, 3, 69, 77
6, 46840, Note_on_c, 3, 76, 86
6, 46880, Control_c, 3, 64, 0
6, 46884, Note_off_c, 3, 69, 77
6, 46964, Control_c, 3, 64, 127
6, 47220, Note_off_c, 3, 76, 86
6, 47224, Note_on_c, 3, 79, 104
6, 47592, Note_off_c, 3, 79, 104
6, 47608, Note_on_c, 3, 74, 105
6, 47612, Control_c, 3, 64, 0
6, 47708, Note_off_c, 3, 74, 105
6, 47712, Note_on_c, 3, 75, 91
6, 47716, Control_c, 3, 64, 127
6, 47808, Note_on_c, 3, 74, 100
6, 47820, Note_off_c, 3, 75, 91
6, 47896, Note_off_c, 3, 74, 100
6, 47904, Note_on_c, 3, 72, 93
6, 47992, Note_off_c, 3, 72, 93
6, 48012, Note_on_c, 3, 69, 92
6, 48224, Note_off_c, 3, 69, 92
6, 48384, Note_on_c, 3, 69, 91
6, 48388, Note_on_c, 3, 62, 81
6, 48388, Note_on_c, 3, 66, 77
6, 48412, Control_c, 3, 64, 0
6, 48596, Control_c, 3, 64, 127
6, 48800, Note_off_c, 3, 66, 77
6, 48800, Note_off_c, 3, 62, 81
6, 48808, Note_off_c, 3, 69, 91
6, 48956, Control_c, 3, 64, 0
6, 49020, Note_on_c, 3, 69, 79
6, 49024, Note_on_c, 3, 60, 76
6, 49024, Note_on_c, 3, 64, 81
6, 49088, Control_c, 3, 64, 127
6, 49168, Note_off_c, 3, 60, 76
6, 49180, Note_off_c, 3, 69, 79
6, 49188, Note_off_c, 3, 64, 81
6, 49344, Control_c, 3, 64, 0
6, 49412, Note_on_c, 3, 69, 86
6, 49432, Control_c, 3, 64, 127
6, 49672, Note_off_c, 3, 69, 86
6, 49800, Note_on_c, 3, 69, 89
6, 49912, Control_c, 3, 64, 0
6, 49916, Note_on_c, 3, 72, 97
6, 49984, Control_c, 3, 64, 127
6, 50012, Note_off_c, 3, 69, 89
6, 50100, Note_off_c, 3, 72, 97
6, 50176, Note_on_c, 3, 72, 86
6, 50276, Control_c, 3, 64, 0
6, 50284, Note_off_c, 3, 72, 86
6, 50296, Note_on_c, 3, 69, 86
6, 50404, Control_c, 3, 64, 127
6, 50472, Note_off_c, 3, 69, 86
6, 50564, Note_on_c, 3, 64, 84
6, 50644, Control_c, 3, 64, 0
6, 50688, Note_on_c, 3, 67, 84
6, 50740, Note_off_c, 3, 64, 84
6, 50800, Control_c, 3, 64, 127
6, 51064, Note_on_c, 3, 69, 94
6, 51104, Note_off_c, 3, 67, 84
6, 51260, Note_off_c, 3, 69, 94
6, 51456, Note_on_c, 3, 62, 80
6, 51456, Note_on_c, 3, 69, 86
6, 51460, Note_on_c, 3, 66, 78
6, 51480, Control_c, 3, 64, 0
6, 51708, Control_c, 3, 64, 127
6, 51896, Note_off_c, 3, 62, 80
6, 51912, Note_off_c, 3, 69, 86
6, 51916, Note_off_c, 3, 66, 78
6, 52044, Control_c, 3, 64, 0
6, 52096, Note_on_c, 3, 60, 69
6, 52096, Note_on_c, 3, 69, 80
6, 52100, Note_on_c, 3, 64, 77
6, 52148, Control_c, 3, 64, 127
6, 52260, Note_off_c, 3, 60, 69
6, 52264, Note_off_c, 3, 64, 77
6, 52404, Note_off_c, 3, 69, 80
6, 52444, Control_c, 3, 64, 0
6, 52488, Note_on_c, 3, 69, 70
6, 52560, Control_c, 3, 64, 127
6, 52740, Note_off_c, 3, 69, 70
6, 52872, Note_on_c, 3, 69, 61
6, 52984, Note_on_c, 3, 72, 69
6, 52984, Control_c, 3, 64, 0
6, 53048, Note_off_c, 3, 69, 61
6, 53088, Control_c, 3, 64, 127
6, 53188, Note_off_c, 3, 72, 69
6, 53252, Note_on_c, 3, 72, 81
6, 53328, Note_off_c, 3, 72, 81
6, 53344, Control_c, 3, 64, 0
6, 53368, Note_on_c, 3, 69, 64
6, 53440, Control_c, 3, 64, 127
6, 53548, Note_off_c, 3, 69, 64
6, 53624, Note_on_c, 3, 64, 70
6, 53732, Control_c, 3, 64, 0
6, 53752, Note_on_c, 3, 67, 78
6, 53812, Note_off_c, 3, 64, 70
6, 53864, Control_c, 3, 64, 127
6, 54132, Control_c, 3, 64, 0
6, 54140, Note_on_c, 3, 69, 64
6, 54184, Note_off_c, 3, 67, 78
6, 54232, Control_c, 3, 64, 127
6, 54340, Note_off_c, 3, 69, 64
6, 54520, Note_on_c, 3, 69, 89
6, 54524, Note_on_c, 3, 62, 75
6, 54524, Note_on_c, 3, 66, 71
6, 54540, Control_c, 3, 64, 0
6, 54740, Control_c, 3, 64, 127
6, 54920, Note_off_c, 3, 62, 75
6, 54948, Note_off_c, 3, 66, 71
6, 55032, Note_off_c, 3, 69, 89
6, 55120, Control_c, 3, 64, 0
6, 55168, Note_on_c, 3, 69, 84
6, 55172, Note_on_c, 3, 60, 70
6, 55172, Note_on_c, 3, 64, 74
6, 55244, Control_c, 3, 64, 127
6, 55368, Note_off_c, 3, 60, 70
6, 55372, Note_off_c, 3, 64, 74
6, 55452, Note_off_c, 3, 69, 84
6, 55552, Control_c, 3, 64, 0
6, 55676, Note_on_c, 3, 69, 104
6, 55708, Control_c, 3, 64, 127
6, 55800, Note_off_c, 3, 69, 104
6, 55864, Note_on_c, 3, 69, 110
6, 56024, Control_c, 3, 64, 0
6, 56036, Note_off_c, 3, 69, 110
6, 56064, Note_on_c, 3, 72, 113
6, 56128, Control_c, 3, 64, 127
6, 56200, Note_off_c, 3, 72, 113
6, 56248, Control_c, 3, 64, 0
6, 56256, Note_on_c, 3, 72, 112
6, 56324, Control_c, 3, 64, 127
6, 56392, Note_off_c, 3, 72, 112
6, 56412, Control_c, 3, 64, 0
6, 56456, Note_on_c, 3, 69, 108
6, 56520, Control_c, 3, 64, 127
6, 56612, Note_off_c, 3, 69, 108
6, 56644, Note_on_c, 3, 64, 98
6, 56764, Control_c, 3, 64, 0
6, 56776, Note_off_c, 3, 64, 98
6, 56836, Note_on_c, 3, 67, 110
6, 56928, Control_c, 3, 64, 127
6, 57160, Note_off_c, 3, 67, 110
6, 57216, Note_on_c, 3, 69, 112
6, 57244, Control_c, 3, 64, 0
6, 57328, Control_c, 3, 64, 127
6, 57364, Note_off_c, 3, 69, 112
6, 57600, Note_on_c, 3, 69, 110
6, 57600, Note_on_c, 3, 74, 119
6, 57600, Note_on_c, 3, 78, 120
6, 57612, Control_c, 3, 64, 0
6, 57760, Control_c, 3, 64, 127
6, 58080, Note_off_c, 3, 78, 120
6, 58100, Note_off_c, 3, 74, 119
6, 58112, Note_off_c, 3, 69, 110
6, 58364, Note_on_c, 3, 74, 109
6, 58364, Note_on_c, 3, 76, 110
6, 58368, Note_on_c, 3, 69, 105
6, 58388, Control_c, 3, 64, 0
6, 58544, Control_c, 3, 64, 127
6, 58640, Note_off_c, 3, 74, 109
6, 58752, Note_on_c, 3, 73, 98
6, 58792, Control_c, 3, 64, 0
6, 58892, Control_c, 3, 64, 127
6, 58936, Note_off_c, 3, 73, 98
6, 58944, Note_on_c, 3, 71, 93
6, 59132, Control_c, 3, 64, 0
6, 59136, Note_on_c, 3, 73, 84
6, 59172, Note_off_c, 3, 71, 93
6, 59280, Control_c, 3, 64, 127
6, 59900, Note_off_c, 3, 73, 84
6, 59900, Control_c, 3, 64, 0
6, 59908, Note_off_c, 3, 76, 110
6, 59916, Note_off_c, 3, 69, 105
6, 61440, End_track
7, 0, Start_track
7, 0, Title_t, "Sax1"
7, 15644, Pitch_bend_c, 4, 8192
7, 15648, Note_on_c, 4, 57, 112
7, 15732, Note_off_c, 4, 57, 112
7, 17644, Pitch_bend_c, 4, 2944
7, 17664, Note_on_c, 4, 62, 103
7, 17664, Pitch_bend_c, 4, 4672
7, 17684, Pitch_bend_c, 4, 6464
7, 17704, Pitch_bend_c, 4, 8192
7, 17920, Control_c, 4, 1, 16
7, 17960, Control_c, 4, 1, 76
7, 18000, Control_c, 4, 1, 108
7, 18044, Control_c, 4, 1, 127
7, 18104, Control_c, 4, 1, 122
7, 18144, Control_c, 4, 1, 75
7, 18184, Control_c, 4, 1, 0
7, 18304, Note_off_c, 4, 62, 103
7, 18336, Note_on_c, 4, 60, 112
7, 18500, Note_off_c, 4, 60, 112
7, 20588, Pitch_bend_c, 4, 6528
7, 20608, Pitch_bend_c, 4, 4928
7, 20632, Pitch_bend_c, 4, 3392
7, 20652, Pitch_bend_c, 4, 2112
7, 20672, Pitch_bend_c, 4, 1664
7, 20732, Pitch_bend_c, 4, 3008
7, 20736, Note_on_c, 4, 62, 106
7, 20752, Pitch_bend_c, 4, 5120
7, 20772, Pitch_bend_c, 4, 7680
7, 20792, Pitch_bend_c, 4, 8192
7, 20964, Control_c, 4, 1, 13
7, 21008, Control_c, 4, 1, 84
7, 21048, Control_c, 4, 1, 127
7, 21112, Control_c, 4, 1, 0
7, 21120, Note_off_c, 4, 62, 106
7, 21120, Note_on_c, 4, 60, 99
7, 21356, Note_off_c, 4, 60, 99
7, 21408, Note_on_c, 4, 57, 106
7, 21580, Note_off_c, 4, 57, 106
7, 23808, Note_on_c, 4, 62, 101
7, 23876, Pitch_bend_c, 4, 8768
7, 23892, Pitch_bend_c, 4, 10304
7, 23908, Pitch_bend_c, 4, 12160
7, 23924, Pitch_bend_c, 4, 13824
7, 23940, Pitch_bend_c, 4, 14848
7, 23972, Pitch_bend_c, 4, 13184
7, 23988, Pitch_bend_c, 4, 10624
7, 24004, Pitch_bend_c, 4, 8640
7, 24020, Pitch_bend_c, 4, 8192
7, 24084, Note_off_c, 4, 62, 101
7, 24096, Note_on_c, 4, 60, 93
7, 24192, Note_off_c, 4, 60, 93
7, 24192, Note_on_c, 4, 57, 102
7, 24416, Note_off_c, 4, 57, 102
7, 24480, Note_on_c, 4, 57, 106
7, 24608, Note_off_c, 4, 57, 106
7, 26724, Pitch_bend_c, 4, 6336
7, 26740, Pitch_bend_c, 4, 3968
7, 26756, Pitch_bend_c, 4, 1600
7, 26772, Pitch_bend_c, 4, 256
7, 26788, Pitch_bend_c, 4, 64
7, 26868, Pitch_bend_c, 4, 832
7, 26880, Note_on_c, 4, 62, 107
7, 26884, Pitch_bend_c, 4, 3392
7, 26900, Pitch_bend_c, 4, 6912
7, 26916, Pitch_bend_c, 4, 8192
7, 27096, Control_c, 4, 1, 3
7, 27140, Control_c, 4, 1, 79
7, 27180, Control_c, 4, 1, 126
7, 27216, Control_c, 4, 1, 0
7, 27256, Note_off_c, 4, 62, 107
7, 27264, Note_on_c, 4, 60, 96
7, 27456, Note_on_c, 4, 57, 104
7, 27508, Note_off_c, 4, 60, 96
7, 27552, Note_off_c, 4, 57, 104
7, 32440, Pitch_bend_c, 4, 7808
7, 32464, Pitch_bend_c, 4, 7040
7, 32484, Pitch_bend_c, 4, 6336
7, 32508, Pitch_bend_c, 4, 5632
7, 32532, Pitch_bend_c, 4, 5248
7, 32532, Note_on_c, 4, 71, 111
7, 32552, Pitch_bend_c, 4, 5824
7, 32576, Pitch_bend_c, 4, 8192
7, 32728, Pitch_bend_c, 4, 9024
7, 32752, Pitch_bend_c, 4, 9408
7, 32776, Pitch_bend_c, 4, 9728
7, 32812, Pitch_bend_c, 4, 9984
7, 32856, Pitch_bend_c, 4, 8192
7, 32900, Pitch_bend_c, 4, 4800
7, 32924, Pitch_bend_c, 4, 8192
7, 32956, Note_off_c, 4, 71, 111
7, 32956, Note_on_c, 4, 69, 97
7, 33044, Note_off_c, 4, 69, 97
7, 33048, Note_on_c, 4, 64, 88
7, 33176, Note_off_c, 4, 64, 88
7, 33224, Note_on_c, 4, 60, 112
7, 33340, Note_off_c, 4, 60, 112
7, 33344, Note_on_c, 4, 59, 80
7, 33380, Note_off_c, 4, 59, 80
7, 33388, Note_on_c, 4, 60, 93
7, 33432, Note_off_c, 4, 60, 93
7, 33432, Note_on_c, 4, 59, 109
7, 33468, Note_off_c, 4, 59, 109
7, 33472, Note_on_c, 4, 57, 112
7, 33516, Note_off_c, 4, 57, 112
7, 33520, Note_on_c, 4, 52, 103
7, 33604, Note_off_c, 4, 52, 103
7, 33604, Note_on_c, 4, 55, 112
7, 33692, Note_off_c, 4, 55, 112
7, 33696, Note_on_c, 4, 54, 94
7, 34032, Control_c, 4, 1, 48
7, 34072, Control_c, 4, 1, 127
7, 34212, Control_c, 4, 1, 121
7, 34252, Control_c, 4, 1, 111
7, 34292, Control_c, 4, 1, 84
7, 34332, Control_c, 4, 1, 0
7, 34524, Note_off_c, 4, 54, 94
7, 41944, Pitch_bend_c, 4, 7808
7, 41964, Pitch_bend_c, 4, 6528
7, 41984, Pitch_bend_c, 4, 5248
7, 42004, Pitch_bend_c, 4, 3648
7, 42024, Pitch_bend_c, 4, 2048
7, 42044, Pitch_bend_c, 4, 1152
7, 42148, Pitch_bend_c, 4, 896
7, 42240, Note_on_c, 4, 62, 127
7, 42248, Pitch_bend_c, 4, 1920
7, 42268, Pitch_bend_c, 4, 3904
7, 42288, Pitch_bend_c, 4, 6016
7, 42308, Pitch_bend_c, 4, 7872
7, 42328, Pitch_bend_c, 4, 8192
7, 42516, Control_c, 4, 1, 27
7, 42576, Control_c, 4, 1, 94
7, 42636, Control_c, 4, 1, 64
7, 42696, Control_c, 4, 1, 0
7, 42860, Note_off_c, 4, 62, 127
7, 42912, Note_on_c, 4, 60, 121
7, 43024, Note_off_c, 4, 60, 121
7, 45304, Pitch_bend_c, 4, 2240
7, 45312, Note_on_c, 4, 62, 124
7, 45320, Pitch_bend_c, 4, 2240
7, 45340, Pitch_bend_c, 4, 3776
7, 45364, Pitch_bend_c, 4, 5504
7, 45384, Pitch_bend_c, 4, 7680
7, 45404, Pitch_bend_c, 4, 8192
7, 45556, Control_c, 4, 1, 33
7, 45616, Control_c, 4, 1, 0
7, 45692, Note_off_c, 4, 62, 124
7, 45696, Note_on_c, 4, 60, 113
7, 45944, Note_off_c, 4, 60, 113
7, 45984, Note_on_c, 4, 57, 113
7, 46092, Pitch_bend_c, 4, 5888
7, 46112, Pitch_bend_c, 4, 3712
7, 46128, Pitch_bend_c, 4, 1216
7, 46148, Pitch_bend_c, 4, 0
7, 46172, Note_off_c, 4, 57, 113
7, 46188, Pitch_bend_c, 4, 3904
7, 46208, Pitch_bend_c, 4, 6592
7, 46224, Pitch_bend_c, 4, 8192
7, 48336, Pitch_bend_c, 4, 256
7, 48384, Note_on_c, 4, 62, 127
7, 48396, Pitch_bend_c, 4, 1664
7, 48420, Pitch_bend_c, 4, 5312
7, 48440, Pitch_bend_c, 4, 8192
7, 48504, Pitch_bend_c, 4, 12288
7, 48584, Pitch_bend_c, 4, 8192
7, 48680, Pitch_bend_c, 4, 0
7, 48752, Note_off_c, 4, 62, 127
7, 48764, Pitch_bend_c, 4, 8192
7, 48768, Note_on_c, 4, 57, 111
7, 48992, Note_off_c, 4, 57, 111
7, 49056, Note_on_c, 4, 57, 107
7, 49220, Note_off_c, 4, 57, 107
7, 51264, Pitch_bend_c, 4, 6976
7, 51284, Pitch_bend_c, 4, 5248
7, 51304, Pitch_bend_c, 4, 3520
7, 51324, Pitch_bend_c, 4, 2112
7, 51344, Pitch_bend_c, 4, 1088
7, 51364, Pitch_bend_c, 4, 704
7, 51384, Pitch_bend_c, 4, 576
7, 51444, Pitch_bend_c, 4, 1280
7, 51456, Note_on_c, 4, 62, 110
7, 51464, Pitch_bend_c, 4, 3712
7, 51488, Pitch_bend_c, 4, 7424
7, 51508, Pitch_bend_c, 4, 8192
7, 51688, Control_c, 4, 1, 43
7, 51728, Control_c, 4, 1, 97
7, 51768, Control_c, 4, 1, 127
7, 51828, Control_c, 4, 1, 0
7, 51836, Note_off_c, 4, 62, 110
7, 51840, Note_on_c, 4, 60, 102
7, 52076, Note_off_c, 4, 60, 102
7, 52128, Note_on_c, 4, 57, 93
7, 52244, Note_off_c, 4, 57, 93
7, 54480, Pitch_bend_c, 4, 256
7, 54528, Note_on_c, 4, 62, 75
7, 54540, Pitch_bend_c, 4, 1664
7, 54564, Pitch_bend_c, 4, 5312
7, 54584, Pitch_bend_c, 4, 8192
7, 54648, Pitch_bend_c, 4, 12288
7, 54728, Pitch_bend_c, 4, 8192
7, 54824, Pitch_bend_c, 4, 0
7, 54896, Note_off_c, 4, 62, 75
7, 54908, Pitch_bend_c, 4, 8192
7, 54912, Note_on_c, 4, 57, 73
7, 55136, Note_off_c, 4, 57, 73
7, 55200, Note_on_c, 4, 57, 66
7, 55364, Note_off_c, 4, 57, 66
7, 55528, Pitch_bend_c, 4, 0
7, 55676, Pitch_bend_c, 4, 2560
7, 55680, Note_on_c, 4, 45, 111
7, 55692, Pitch_bend_c, 4, 4608
7, 55708, Pitch_bend_c, 4, 7680
7, 55724, Pitch_bend_c, 4, 8192
7, 55836, Note_off_c, 4, 45, 111
7, 55872, Note_on_c, 4, 45, 102
7, 55964, Note_off_c, 4, 45, 102
7, 56064, Note_on_c, 4, 48, 115
7, 56156, Note_off_c, 4, 48, 115
7, 56256, Note_on_c, 4, 48, 99
7, 56336, Note_off_c, 4, 48, 99
7, 56448, Note_on_c, 4, 45, 108
7, 56640, Note_on_c, 4, 40, 99
7, 56644, Note_off_c, 4, 45, 108
7, 56728, Note_off_c, 4, 40, 99
7, 56824, Pitch_bend_c, 4, 1792
7, 56832, Note_on_c, 4, 43, 114
7, 56864, Pitch_bend_c, 4, 3328
7, 56880, Pitch_bend_c, 4, 4608
7, 56896, Pitch_bend_c, 4, 5632
7, 56912, Pitch_bend_c, 4, 6272
7, 56928, Pitch_bend_c, 4, 6912
7, 56956, Pitch_bend_c, 4, 8192
7, 57196, Note_off_c, 4, 43, 114
7, 57216, Note_on_c, 4, 45, 118
7, 57368, Note_off_c, 4, 45, 118
7, 58368, End_track
8, 0, Start_track
8, 0, Title_t, "Sax2"
8, 15612, Pitch_bend_c, 5, 8192
8, 15616, Note_on_c, 5, 57, 112
8, 15716, Note_off_c, 5, 57, 112
8, 17652, Pitch_bend_c, 5, 704
8, 17660, Note_on_c, 5, 57, 97
8, 17672, Pitch_bend_c, 5, 3840
8, 17696, Pitch_bend_c, 5, 8192
8, 18284, Note_off_c, 5, 57, 97
8, 18308, Note_on_c, 5, 57, 118
8, 18468, Note_off_c, 5, 57, 118
8, 20552, Pitch_bend_c, 5, 7616
8, 20572, Pitch_bend_c, 5, 6272
8, 20592, Pitch_bend_c, 5, 4928
8, 20612, Pitch_bend_c, 5, 3648
8, 20632, Pitch_bend_c, 5, 2304
8, 20652, Pitch_bend_c, 5, 1024
8, 20732, Note_on_c, 5, 57, 112
8, 20736, Pitch_bend_c, 5, 2816
8, 20756, Pitch_bend_c, 5, 5376
8, 20776, Pitch_bend_c, 5, 8192
8, 21112, Note_off_c, 5, 57, 112
8, 21116, Note_on_c, 5, 55, 118
8, 21348, Note_off_c, 5, 55, 118
8, 21376, Note_on_c, 5, 52, 109
8, 21536, Note_off_c, 5, 52, 109
8, 23800, Note_on_c, 5, 57, 106
8, 24056, Note_off_c, 5, 57, 106
8, 24064, Note_on_c, 5, 55, 101
8, 24160, Note_off_c, 5, 55, 101
8, 24188, Note_on_c, 5, 52, 110
8, 24360, Note_off_c, 5, 52, 110
8, 24444, Note_on_c, 5, 52, 107
8, 24572, Note_off_c, 5, 52, 107
8, 26752, Pitch_bend_c, 5, 7872
8, 26772, Pitch_bend_c, 5, 6464
8, 26792, Pitch_bend_c, 5, 4352
8, 26816, Pitch_bend_c, 5, 1728
8, 26836, Pitch_bend_c, 5, 0
8, 26880, Note_on_c, 5, 57, 106
8, 26896, Pitch_bend_c, 5, 3904
8, 26916, Pitch_bend_c, 5, 8448
8, 26936, Pitch_bend_c, 5, 8192
8, 27244, Note_off_c, 5, 57, 106
8, 27248, Note_on_c, 5, 55, 100
8, 27496, Note_off_c, 5, 55, 100
8, 27500, Note_on_c, 5, 52, 103
8, 27620, Note_off_c, 5, 52, 103
8, 42232, Pitch_bend_c, 5, 2816
8, 42232, Note_on_c, 5, 57, 100
8, 42248, Pitch_bend_c, 5, 3200
8, 42272, Pitch_bend_c, 5, 3520
8, 42292, Pitch_bend_c, 5, 4672
8, 42312, Pitch_bend_c, 5, 6400
8, 42332, Pitch_bend_c, 5, 8192
8, 42848, Note_off_c, 5, 57, 100
8, 42888, Note_on_c, 5, 57, 107
8, 43064, Note_off_c, 5, 57, 107
8, 45304, Pitch_bend_c, 5, 2816
8, 45324, Note_on_c, 5, 57, 97
8, 45344, Pitch_bend_c, 5, 3520
8, 45364, Pitch_bend_c, 5, 4672
8, 45384, Pitch_bend_c, 5, 6400
8, 45404, Pitch_bend_c, 5, 8192
8, 45692, Note_off_c, 5, 57, 97
8, 45696, Note_on_c, 5, 55, 89
8, 45936, Note_off_c, 5, 55, 89
8, 45960, Note_on_c, 5, 52, 101
8, 46092, Pitch_bend_c, 5, 5888
8, 46112, Pitch_bend_c, 5, 3712
8, 46128, Pitch_bend_c, 5, 1216
8, 46136, Note_off_c, 5, 52, 101
8, 46148, Pitch_bend_c, 5, 0
8, 46188, Pitch_bend_c, 5, 3904
8, 46208, Pitch_bend_c, 5, 6592
8, 46224, Pitch_bend_c, 5, 8192
8, 48376, Pitch_bend_c, 5, 1280
8, 48380, Note_on_c, 5, 57, 100
8, 48400, Pitch_bend_c, 5, 3840
8, 48420, Pitch_bend_c, 5, 7040
8, 48440, Pitch_bend_c, 5, 8192
8, 48732, Note_off_c, 5, 57, 100
8, 48768, Note_on_c, 5, 52, 89
8, 48988, Note_off_c, 5, 52, 89
8, 49020, Note_on_c, 5, 52, 97
8, 49176, Note_off_c, 5, 52, 97
8, 51316, Pitch_bend_c, 5, 6592
8, 51336, Pitch_bend_c, 5, 4736
8, 51360, Pitch_bend_c, 5, 2944
8, 51380, Pitch_bend_c, 5, 1536
8, 51400, Pitch_bend_c, 5, 768
8, 51420, Pitch_bend_c, 5, 640
8, 51440, Pitch_bend_c, 5, 1280
8, 51452, Note_on_c, 5, 57, 99
8, 51460, Pitch_bend_c, 5, 2944
8, 51480, Pitch_bend_c, 5, 5376
8, 51500, Pitch_bend_c, 5, 8192
8, 51824, Note_off_c, 5, 57, 99
8, 51836, Note_on_c, 5, 55, 88
8, 52068, Note_off_c, 5, 55, 88
8, 52096, Note_on_c, 5, 52, 97
8, 52212, Note_off_c, 5, 52, 97
8, 54520, Pitch_bend_c, 5, 1280
8, 54524, Note_on_c, 5, 57, 81
8, 54544, Pitch_bend_c, 5, 3840
8, 54564, Pitch_bend_c, 5, 7040
8, 54584, Pitch_bend_c, 5, 8192
8, 54876, Note_off_c, 5, 57, 81
8, 54912, Note_on_c, 5, 52, 77
8, 55132, Note_off_c, 5, 52, 77
8, 55164, Note_on_c, 5, 52, 72
8, 55320, Note_off_c, 5, 52, 72
8, 55428, Pitch_bend_c, 5, 7424
8, 55444, Pitch_bend_c, 5, 6592
8, 55460, Pitch_bend_c, 5, 6016
8, 55488, Pitch_bend_c, 5, 4800
8, 55504, Pitch_bend_c, 5, 4352
8, 55520, Pitch_bend_c, 5, 3712
8, 55536, Pitch_bend_c, 5, 3136
8, 55552, Pitch_bend_c, 5, 2496
8, 55580, Pitch_bend_c, 5, 1088
8, 55596, Pitch_bend_c, 5, 640
8, 55612, Pitch_bend_c, 5, 512
8, 55640, Note_on_c, 5, 57, 120
8, 55644, Pitch_bend_c, 5, 1600
8, 55672, Pitch_bend_c, 5, 6912
8, 55688, Pitch_bend_c, 5, 8192
8, 55792, Note_off_c, 5, 57, 120
8, 55856, Note_on_c, 5, 57, 115
8, 55948, Note_off_c, 5, 57, 115
8, 56044, Note_on_c, 5, 60, 126
8, 56132, Note_off_c, 5, 60, 126
8, 56236, Note_on_c, 5, 60, 119
8, 56356, Note_off_c, 5, 60, 119
8, 56436, Note_on_c, 5, 57, 127
8, 56620, Note_off_c, 5, 57, 127
8, 56628, Note_on_c, 5, 52, 121
8, 56704, Note_off_c, 5, 52, 121
8, 56820, Note_on_c, 5, 55, 126
8, 56840, Pitch_bend_c, 5, 1920
8, 56856, Pitch_bend_c, 5, 3008
8, 56872, Pitch_bend_c, 5, 4608
8, 56888, Pitch_bend_c, 5, 6848
8, 56904, Pitch_bend_c, 5, 8192
8, 57040, Control_c, 5, 1, 102
8, 57072, Control_c, 5, 1, 121
8, 57132, Control_c, 5, 1, 122
8, 57176, Note_off_c, 5, 55, 126
8, 57192, Control_c, 5, 1, 0
8, 57196, Note_on_c, 5, 57, 121
8, 57372, Note_off_c, 5, 57, 121
8, 58368, End_track
9, 0, Start_track
9, 0, Title_t, "Jazz Guit"
9, 17648, Pitch_bend_c, 6, 8192
9, 17652, Note_on_c, 6, 60, 80
9, 17712, Pitch_bend_c, 6, 9498
9, 17888, Pitch_bend_c, 6, 9669
9, 17956, Pitch_bend_c, 6, 9461
9, 17976, Pitch_bend_c, 6, 9760
9, 18004, Pitch_bend_c, 6, 10048
9, 18024, Pitch_bend_c, 6, 9744
9, 18040, Pitch_bend_c, 6, 9536
9, 18080, Pitch_bend_c, 6, 9893
9, 18100, Pitch_bend_c, 6, 10480
9, 18124, Pitch_bend_c, 6, 10218
9, 18144, Pitch_bend_c, 6, 9445
9, 18160, Pitch_bend_c, 6, 9536
9, 18296, Note_off_c, 6, 60, 80
9, 18304, Pitch_bend_c, 6, 8192
9, 18308, Note_on_c, 6, 60, 75
9, 18444, Pitch_bend_c, 6, 8346
9, 18504, Pitch_bend_c, 6, 7728
9, 18536, Pitch_bend_c, 6, 7008
9, 18556, Pitch_bend_c, 6, 6230
9, 18588, Pitch_bend_c, 6, 5424
9, 18612, Note_off_c, 6, 60, 75
9, 20724, Note_on_c, 6, 59, 77
9, 20728, Pitch_bend_c, 6, 8070
9, 20748, Pitch_bend_c, 6, 8746
9, 20772, Pitch_bend_c, 6, 9349
9, 20820, Pitch_bend_c, 6, 10256
9, 20840, Pitch_bend_c, 6, 10218
9, 20908, Pitch_bend_c, 6, 10650
9, 20952, Pitch_bend_c, 6, 10256
9, 20980, Pitch_bend_c, 6, 10144
9, 21008, Pitch_bend_c, 6, 10650
9, 21028, Pitch_bend_c, 6, 10960
9, 21064, Pitch_bend_c, 6, 10181
9, 21108, Note_off_c, 6, 59, 77
9, 21124, Note_on_c, 6, 60, 78
9, 21132, Pitch_bend_c, 6, 8192
9, 21368, Note_off_c, 6, 60, 78
9, 21380, Note_on_c, 6, 57, 79
9, 21544, Pitch_bend_c, 6, 7643
9, 21568, Pitch_bend_c, 6, 6998
9, 21608, Pitch_bend_c, 6, 5531
9, 21636, Pitch_bend_c, 6, 4843
9, 21668, Pitch_bend_c, 6, 3376
9, 21696, Note_off_c, 6, 57, 79
9, 23824, Note_on_c, 6, 63, 76
9, 23824, Pitch_bend_c, 6, 7883
9, 23840, Pitch_bend_c, 6, 7488
9, 23944, Pitch_bend_c, 6, 7563
9, 23964, Pitch_bend_c, 6, 8410
9, 23980, Pitch_bend_c, 6, 8960
9, 24000, Pitch_bend_c, 6, 8896
9, 24024, Pitch_bend_c, 6, 7600
9, 24100, Pitch_bend_c, 6, 7734
9, 24132, Pitch_bend_c, 6, 6198
9, 24160, Note_off_c, 6, 63, 76
9, 24168, Pitch_bend_c, 6, 6283
9, 24196, Note_on_c, 6, 57, 67
9, 24208, Pitch_bend_c, 6, 8192
9, 24320, Note_off_c, 6, 57, 67
9, 24452, Note_on_c, 6, 57, 77
9, 24452, Pitch_bend_c, 6, 8490
9, 24468, Pitch_bend_c, 6, 8346
9, 24636, Pitch_bend_c, 6, 7734
9, 24660, Pitch_bend_c, 6, 6950
9, 24684, Pitch_bend_c, 6, 6262
9, 24720, Pitch_bend_c, 6, 5616
9, 24744, Pitch_bend_c, 6, 4800
9, 24792, Note_off_c, 6, 57, 77
9, 26884, Note_on_c, 6, 59, 114
9, 26884, Pitch_bend_c, 6, 8102
9, 26904, Pitch_bend_c, 6, 9130
9, 26920, Pitch_bend_c, 6, 9488
9, 26960, Pitch_bend_c, 6, 10277
9, 27096, Pitch_bend_c, 6, 10218
9, 27112, Pitch_bend_c, 6, 10352
9, 27132, Pitch_bend_c, 6, 11082
9, 27164, Pitch_bend_c, 6, 10480
9, 27192, Pitch_bend_c, 6, 10314
9, 27256, Note_off_c, 6, 59, 114
9, 27276, Pitch_bend_c, 6, 8192
9, 27280, Note_on_c, 6, 60, 117
9, 27460, Pitch_bend_c, 6, 8150
9, 27504, Note_off_c, 6, 60, 117
9, 27516, Pitch_bend_c, 6, 8192
9, 27516, Note_on_c, 6, 57, 117
9, 27652, Pitch_bend_c, 6, 8346
9, 27712, Pitch_bend_c, 6, 6912
9, 27748, Pitch_bend_c, 6, 6262
9, 27764, Pitch_bend_c, 6, 6342
9, 27792, Pitch_bend_c, 6, 5574
9, 27824, Pitch_bend_c, 6, 4886
9, 27868, Pitch_bend_c, 6, 4134
9, 27884, Note_off_c, 6, 57, 117
9, 27892, Pitch_bend_c, 6, 3451
9, 27908, Pitch_bend_c, 6, 8192
9, 27908, Note_on_c, 6, 59, 99
9, 27968, Pitch_bend_c, 6, 8864
9, 27984, Pitch_bend_c, 6, 8160
9, 28008, Pitch_bend_c, 6, 8192
9, 28028, Note_on_c, 6, 57, 78
9, 28052, Note_off_c, 6, 59, 99
9, 28124, Note_off_c, 6, 57, 78
9, 28168, Note_on_c, 6, 59, 69
9, 28244, Note_off_c, 6, 59, 69
9, 28288, Note_on_c, 6, 60, 78
9, 28348, Note_off_c, 6, 60, 78
9, 28424, Note_on_c, 6, 62, 71
9, 28472, Pitch_bend_c, 6, 8171
9, 28532, Note_off_c, 6, 62, 71
9, 28540, Pitch_bend_c, 6, 8192
9, 28540, Note_on_c, 6, 64, 86
9, 28644, Note_off_c, 6, 64, 86
9, 28672, Note_on_c, 6, 66, 64
9, 28756, Note_off_c, 6, 66, 64
9, 28756, Note_on_c, 6, 67, 56
9, 28764, Note_off_c, 6, 67, 56
9, 28792, Note_on_c, 6, 67, 92
9, 28792, Pitch_bend_c, 6, 8166
9, 28904, Note_off_c, 6, 67, 92
9, 28924, Note_on_c, 6, 69, 68
9, 28924, Pitch_bend_c, 6, 8234
9, 29004, Pitch_bend_c, 6, 9493
9, 29016, Note_off_c, 6, 69, 68
9, 29036, Note_on_c, 6, 71, 83
9, 29036, Pitch_bend_c, 6, 8160
9, 29144, Pitch_bend_c, 6, 8192
9, 29188, Pitch_bend_c, 6, 8426
9, 29204, Pitch_bend_c, 6, 8618
9, 29228, Pitch_bend_c, 6, 8778
9, 29284, Pitch_bend_c, 6, 8698
9, 29304, Pitch_bend_c, 6, 8554
9, 29324, Pitch_bend_c, 6, 8410
9, 29388, Pitch_bend_c, 6, 8650
9, 29416, Pitch_bend_c, 6, 8848
9, 29464, Pitch_bend_c, 6, 8650
9, 29500, Pitch_bend_c, 6, 8570
9, 29520, Pitch_bend_c, 6, 8682
9, 29536, Pitch_bend_c, 6, 8730
9, 29556, Note_on_c, 6, 54, 66
9, 29568, Pitch_bend_c, 6, 8192
9, 29568, Note_on_c, 6, 60, 62
9, 29580, Note_on_c, 6, 64, 63
9, 29592, Note_off_c, 6, 71, 83
9, 29664, Note_off_c, 6, 54, 66
9, 29668, Note_off_c, 6, 60, 62
9, 29672, Note_off_c, 6, 64, 63
9, 29960, Note_on_c, 6, 52, 62
9, 29960, Note_on_c, 6, 58, 62
9, 29960, Note_on_c, 6, 63, 62
9, 29964, Note_on_c, 6, 48, 64
9, 30124, Note_off_c, 6, 63, 62
9, 30124, Note_off_c, 6, 58, 62
9, 30124, Note_off_c, 6, 52, 62
9, 30132, Note_off_c, 6, 48, 64
9, 30328, Note_on_c, 6, 62, 65
9, 30340, Note_on_c, 6, 52, 68
9, 30340, Note_on_c, 6, 58, 68
9, 30440, Note_off_c, 6, 58, 68
9, 30440, Note_off_c, 6, 52, 68
9, 30448, Note_off_c, 6, 62, 65
9, 30700, Note_on_c, 6, 60, 63
9, 30708, Note_on_c, 6, 51, 66
9, 30708, Note_on_c, 6, 57, 66
9, 31060, Note_off_c, 6, 60, 63
9, 31064, Note_off_c, 6, 51, 66
9, 31068, Note_off_c, 6, 57, 66
9, 31088, Note_on_c, 6, 51, 69
9, 31088, Note_on_c, 6, 60, 59
9, 31092, Note_on_c, 6, 57, 63
9, 31176, Note_off_c, 6, 51, 69
9, 31184, Note_off_c, 6, 57, 63
9, 31184, Note_off_c, 6, 60, 59
9, 31488, Note_on_c, 6, 50, 76
9, 31488, Note_on_c, 6, 56, 76
9, 31488, Note_on_c, 6, 60, 70
9, 31832, Note_off_c, 6, 60, 70
9, 31832, Note_off_c, 6, 56, 76
9, 31832, Note_off_c, 6, 50, 76
9, 31864, Note_on_c, 6, 56, 73
9, 31872, Note_on_c, 6, 50, 62
9, 31872, Note_on_c, 6, 60, 66
9, 31964, Note_off_c, 6, 56, 73
9, 31968, Note_off_c, 6, 60, 66
9, 31968, Note_off_c, 6, 50, 62
9, 32116, Note_on_c, 6, 57, 70
9, 32128, Note_on_c, 6, 60, 76
9, 32136, Note_on_c, 6, 64, 73
9, 32148, Note_on_c, 6, 66, 71
9, 32584, Note_off_c, 6, 64, 73
9, 32584, Note_off_c, 6, 57, 70
9, 32592, Note_off_c, 6, 60, 76
9, 32608, Note_off_c, 6, 66, 71
9, 32628, Note_on_c, 6, 57, 70
9, 32632, Note_on_c, 6, 60, 70
9, 32640, Note_on_c, 6, 64, 69
9, 32644, Note_on_c, 6, 66, 62
9, 32684, Note_off_c, 6, 57, 70
9, 32688, Note_off_c, 6, 60, 70
9, 32696, Note_off_c, 6, 64, 69
9, 32720, Note_off_c, 6, 66, 62
9, 33016, Note_on_c, 6, 57, 67
9, 33016, Note_on_c, 6, 60, 67
9, 33028, Note_on_c, 6, 64, 67
9, 33032, Note_on_c, 6, 66, 69
9, 33364, Note_off_c, 6, 60, 67
9, 33364, Note_off_c, 6, 57, 67
9, 33376, Note_off_c, 6, 64, 67
9, 33396, Note_on_c, 6, 57, 70
9, 33400, Note_off_c, 6, 66, 69
9, 33400, Note_on_c, 6, 60, 70
9, 33408, Note_on_c, 6, 64, 69
9, 33412, Note_on_c, 6, 66, 62
9, 33452, Note_off_c, 6, 57, 70
9, 33456, Note_off_c, 6, 60, 70
9, 33464, Note_off_c, 6, 64, 69
9, 33484, Note_off_c, 6, 66, 62
9, 33784, Note_on_c, 6, 57, 67
9, 33784, Note_on_c, 6, 60, 67
9, 33796, Note_on_c, 6, 64, 67
9, 33800, Note_on_c, 6, 66, 69
9, 34132, Note_off_c, 6, 60, 67
9, 34132, Note_off_c, 6, 57, 67
9, 34144, Note_off_c, 6, 64, 67
9, 34164, Note_on_c, 6, 57, 70
9, 34168, Note_off_c, 6, 66, 69
9, 34168, Note_on_c, 6, 60, 70
9, 34176, Note_on_c, 6, 64, 69
9, 34180, Note_on_c, 6, 66, 62
9, 34220, Note_off_c, 6, 57, 70
9, 34224, Note_off_c, 6, 60, 70
9, 34232, Note_off_c, 6, 64, 69
9, 34252, Note_off_c, 6, 66, 62
9, 34552, Note_on_c, 6, 57, 67
9, 34552, Note_on_c, 6, 62, 67
9, 34560, Pitch_bend_c, 6, 8176
9, 34564, Note_on_c, 6, 64, 67
9, 34568, Note_on_c, 6, 67, 69
9, 34580, Pitch_bend_c, 6, 8192
9, 34900, Note_off_c, 6, 62, 67
9, 34900, Note_off_c, 6, 57, 67
9, 34912, Note_off_c, 6, 64, 67
9, 34932, Note_on_c, 6, 57, 70
9, 34936, Note_off_c, 6, 67, 69
9, 34936, Note_on_c, 6, 61, 70
9, 34944, Note_on_c, 6, 64, 69
9, 34948, Note_on_c, 6, 67, 62
9, 34948, Pitch_bend_c, 6, 7958
9, 34964, Pitch_bend_c, 6, 8192
9, 34988, Note_off_c, 6, 57, 70
9, 34992, Note_off_c, 6, 61, 70
9, 35000, Note_off_c, 6, 64, 69
9, 35020, Note_off_c, 6, 67, 62
9, 35192, Note_on_c, 6, 54, 79
9, 35196, Note_on_c, 6, 57, 70
9, 35196, Note_on_c, 6, 60, 76
9, 35200, Note_on_c, 6, 64, 78
9, 35540, Note_off_c, 6, 54, 79
9, 35544, Note_off_c, 6, 60, 76
9, 35544, Note_off_c, 6, 57, 70
9, 35568, Note_off_c, 6, 64, 78
9, 35700, Note_on_c, 6, 54, 70
9, 35704, Note_on_c, 6, 57, 70
9, 35712, Note_on_c, 6, 60, 69
9, 35716, Note_on_c, 6, 64, 62
9, 35756, Note_off_c, 6, 54, 70
9, 35760, Note_off_c, 6, 57, 70
9, 35768, Note_off_c, 6, 60, 69
9, 35788, Note_off_c, 6, 64, 62
9, 36088, Note_on_c, 6, 53, 67
9, 36088, Note_on_c, 6, 56, 67
9, 36100, Note_on_c, 6, 59, 67
9, 36104, Note_on_c, 6, 63, 69
9, 36436, Note_off_c, 6, 56, 67
9, 36436, Note_off_c, 6, 53, 67
9, 36448, Note_off_c, 6, 59, 67
9, 36468, Note_on_c, 6, 53, 70
9, 36472, Note_off_c, 6, 63, 69
9, 36472, Note_on_c, 6, 56, 70
9, 36480, Note_on_c, 6, 59, 69
9, 36484, Note_on_c, 6, 62, 62
9, 36492, Pitch_bend_c, 6, 8192
9, 36524, Note_off_c, 6, 53, 70
9, 36528, Note_off_c, 6, 56, 70
9, 36536, Note_off_c, 6, 59, 69
9, 36556, Note_off_c, 6, 62, 62
9, 36856, Note_on_c, 6, 52, 67
9, 36856, Note_on_c, 6, 55, 67
9, 36868, Note_on_c, 6, 60, 67
9, 36872, Note_on_c, 6, 64, 69
9, 37204, Note_off_c, 6, 55, 67
9, 37204, Note_off_c, 6, 52, 67
9, 37216, Note_off_c, 6, 60, 67
9, 37236, Note_on_c, 6, 52, 70
9, 37240, Note_off_c, 6, 64, 69
9, 37240, Note_on_c, 6, 55, 70
9, 37248, Note_on_c, 6, 60, 69
9, 37252, Note_on_c, 6, 64, 62
9, 37292, Note_off_c, 6, 52, 70
9, 37296, Note_off_c, 6, 55, 70
9, 37304, Note_off_c, 6, 60, 69
9, 37324, Note_off_c, 6, 64, 62
9, 37624, Note_on_c, 6, 52, 67
9, 37624, Note_on_c, 6, 55, 67
9, 37636, Note_on_c, 6, 60, 67
9, 37640, Note_on_c, 6, 64, 69
9, 37972, Note_off_c, 6, 55, 67
9, 37972, Note_off_c, 6, 52, 67
9, 37984, Note_off_c, 6, 60, 67
9, 38004, Note_on_c, 6, 52, 70
9, 38008, Note_off_c, 6, 64, 69
9, 38008, Note_on_c, 6, 55, 70
9, 38016, Note_on_c, 6, 60, 69
9, 38020, Note_on_c, 6, 64, 62
9, 38060, Note_off_c, 6, 52, 70
9, 38064, Note_off_c, 6, 55, 70
9, 38072, Note_off_c, 6, 60, 69
9, 38092, Note_off_c, 6, 64, 62
9, 38256, Note_on_c, 6, 53, 72
9, 38260, Note_on_c, 6, 57, 78
9, 38268, Note_on_c, 6, 60, 70
9, 38272, Note_on_c, 6, 64, 79
9, 38704, Note_off_c, 6, 53, 72
9, 38724, Note_off_c, 6, 60, 70
9, 38728, Note_off_c, 6, 64, 79
9, 38728, Note_off_c, 6, 57, 78
9, 38772, Note_on_c, 6, 53, 70
9, 38776, Note_on_c, 6, 57, 70
9, 38784, Note_on_c, 6, 60, 69
9, 38788, Note_on_c, 6, 64, 62
9, 38828, Note_off_c, 6, 53, 70
9, 38832, Note_off_c, 6, 57, 70
9, 38840, Note_off_c, 6, 60, 69
9, 38860, Note_off_c, 6, 64, 62
9, 39160, Note_on_c, 6, 53, 67
9, 39160, Note_on_c, 6, 57, 67
9, 39172, Note_on_c, 6, 60, 67
9, 39176, Note_on_c, 6, 64, 69
9, 39508, Note_off_c, 6, 57, 67
9, 39508, Note_off_c, 6, 53, 67
9, 39520, Note_off_c, 6, 60, 67
9, 39540, Note_on_c, 6, 53, 70
9, 39544, Note_off_c, 6, 64, 69
9, 39544, Note_on_c, 6, 57, 70
9, 39552, Note_on_c, 6, 60, 69
9, 39556, Note_on_c, 6, 64, 62
9, 39596, Note_off_c, 6, 53, 70
9, 39600, Note_off_c, 6, 57, 70
9, 39608, Note_off_c, 6, 60, 69
9, 39628, Note_off_c, 6, 64, 62
9, 39792, Note_on_c, 6, 56, 72
9, 39792, Note_on_c, 6, 67, 108
9, 39796, Pitch_bend_c, 6, 8102
9, 39808, Note_on_c, 6, 59, 78
9, 39816, Pitch_bend_c, 6, 8192
9, 39816, Note_on_c, 6, 62, 95
9, 40024, Pitch_bend_c, 6, 7040
9, 40044, Pitch_bend_c, 6, 6016
9, 40052, Note_off_c, 6, 67, 108
9, 40064, Pitch_bend_c, 6, 4928
9, 40084, Pitch_bend_c, 6, 4032
9, 40092, Note_off_c, 6, 56, 72
9, 40100, Note_off_c, 6, 62, 95
9, 40104, Pitch_bend_c, 6, 3008
9, 40108, Note_off_c, 6, 59, 78
9, 40128, Pitch_bend_c, 6, 1856
9, 40160, Pitch_bend_c, 6, 576
9, 40184, Pitch_bend_c, 6, 8192
9, 40212, Pitch_bend_c, 6, 8880
9, 40216, Note_on_c, 6, 54, 126
9, 40240, Pitch_bend_c, 6, 9461
9, 40256, Pitch_bend_c, 6, 9877
9, 40272, Pitch_bend_c, 6, 10277
9, 40412, Control_c, 6, 1, 73
9, 40440, Control_c, 6, 1, 114
9, 40472, Control_c, 6, 1, 127
9, 40520, Control_c, 6, 1, 62
9, 40548, Control_c, 6, 1, 0
9, 40552, Note_off_c, 6, 54, 126
9, 40568, Pitch_bend_c, 6, 8192
9, 40572, Note_on_c, 6, 57, 103
9, 40688, Note_off_c, 6, 57, 103
9, 40712, Note_on_c, 6, 60, 124
9, 40892, Pitch_bend_c, 6, 8336
9, 40904, Pitch_bend_c, 6, 8538
9, 40952, Note_off_c, 6, 60, 124
9, 40960, Pitch_bend_c, 6, 8192
9, 40964, Note_on_c, 6, 60, 98
9, 41080, Note_off_c, 6, 60, 98
9, 41100, Note_on_c, 6, 57, 127
9, 41332, Note_off_c, 6, 57, 127
9, 41352, Note_on_c, 6, 52, 97
9, 41472, Note_off_c, 6, 52, 97
9, 41480, Note_on_c, 6, 55, 127
9, 41652, Control_c, 6, 1, 43
9, 41684, Control_c, 6, 1, 97
9, 41716, Control_c, 6, 1, 127
9, 41800, Note_off_c, 6, 55, 127
9, 41808, Control_c, 6, 1, 76
9, 41836, Control_c, 6, 1, 0
9, 41840, Note_on_c, 6, 57, 125
9, 42008, Pitch_bend_c, 6, 8325
9, 42044, Pitch_bend_c, 6, 7595
9, 42076, Pitch_bend_c, 6, 6864
9, 42100, Pitch_bend_c, 6, 6171
9, 42120, Pitch_bend_c, 6, 5446
9, 42152, Pitch_bend_c, 6, 4768
9, 42180, Pitch_bend_c, 6, 4064
9, 42216, Pitch_bend_c, 6, 3382
9, 42256, Note_off_c, 6, 57, 125
9, 43244, Pitch_bend_c, 6, 8597
9, 43252, Note_on_c, 6, 54, 127
9, 43276, Pitch_bend_c, 6, 9338
9, 43316, Pitch_bend_c, 6, 9850
9, 43344, Pitch_bend_c, 6, 10277
9, 43452, Control_c, 6, 1, 83
9, 43484, Control_c, 6, 1, 116
9, 43516, Control_c, 6, 1, 114
9, 43548, Control_c, 6, 1, 70
9, 43580, Control_c, 6, 1, 0
9, 43632, Note_off_c, 6, 54, 127
9, 43644, Pitch_bend_c, 6, 8192
9, 43644, Note_on_c, 6, 57, 104
9, 43772, Note_off_c, 6, 57, 104
9, 43792, Note_on_c, 6, 60, 125
9, 44152, Note_off_c, 6, 60, 125
9, 44172, Note_on_c, 6, 62, 116
9, 44360, Note_off_c, 6, 62, 116
9, 44540, Pitch_bend_c, 6, 8458
9, 44544, Note_on_c, 6, 60, 126
9, 44556, Pitch_bend_c, 6, 8714
9, 44592, Pitch_bend_c, 6, 9082
9, 44624, Pitch_bend_c, 6, 9269
9, 44656, Pitch_bend_c, 6, 9504
9, 44776, Note_off_c, 6, 60, 126
9, 44800, Pitch_bend_c, 6, 8192
9, 44804, Note_on_c, 6, 60, 102
9, 44932, Note_off_c, 6, 60, 102
9, 44936, Note_on_c, 6, 57, 119
9, 45144, Control_c, 6, 1, 41
9, 45176, Control_c, 6, 1, 94
9, 45208, Control_c, 6, 1, 102
9, 45240, Control_c, 6, 1, 0
9, 45252, Pitch_bend_c, 6, 7606
9, 45272, Pitch_bend_c, 6, 6928
9, 45296, Pitch_bend_c, 6, 6208
9, 45320, Pitch_bend_c, 6, 5446
9, 45352, Pitch_bend_c, 6, 4806
9, 45368, Pitch_bend_c, 6, 4123
9, 45388, Note_off_c, 6, 57, 119
9, 45392, Pitch_bend_c, 6, 4043
9, 46340, Pitch_bend_c, 6, 8757
9, 46344, Note_on_c, 6, 54, 127
9, 46360, Pitch_bend_c, 6, 9040
9, 46376, Pitch_bend_c, 6, 9520
9, 46396, Pitch_bend_c, 6, 9936
9, 46412, Pitch_bend_c, 6, 10330
9, 46560, Control_c, 6, 1, 73
9, 46592, Control_c, 6, 1, 127
9, 46652, Control_c, 6, 1, 67
9, 46684, Control_c, 6, 1, 0
9, 46688, Note_off_c, 6, 54, 127
9, 46708, Pitch_bend_c, 6, 8192
9, 46712, Note_on_c, 6, 57, 91
9, 46808, Note_off_c, 6, 57, 91
9, 46844, Pitch_bend_c, 6, 8586
9, 46848, Note_on_c, 6, 62, 124
9, 46872, Pitch_bend_c, 6, 9066
9, 46888, Pitch_bend_c, 6, 9440
9, 46920, Pitch_bend_c, 6, 9472
9, 47196, Note_off_c, 6, 62, 124
9, 47216, Pitch_bend_c, 6, 8192
9, 47216, Note_on_c, 6, 67, 126
9, 47352, Note_off_c, 6, 67, 126
9, 47596, Note_on_c, 6, 62, 127
9, 47736, Pitch_bend_c, 6, 8917
9, 47804, Pitch_bend_c, 6, 9018
9, 47828, Pitch_bend_c, 6, 8362
9, 47884, Pitch_bend_c, 6, 6784
9, 47960, Note_off_c, 6, 62, 127
9, 47960, Pitch_bend_c, 6, 8192
9, 47964, Note_on_c, 6, 57, 127
9, 48180, Control_c, 6, 1, 16
9, 48212, Control_c, 6, 1, 73
9, 48340, Control_c, 6, 1, 110
9, 48468, Control_c, 6, 1, 119
9, 48528, Control_c, 6, 1, 71
9, 48560, Control_c, 6, 1, 0
9, 48672, Pitch_bend_c, 6, 7424
9, 48688, Pitch_bend_c, 6, 7040
9, 48716, Pitch_bend_c, 6, 6656
9, 48740, Pitch_bend_c, 6, 6144
9, 48780, Pitch_bend_c, 6, 5632
9, 48792, Pitch_bend_c, 6, 5120
9, 48836, Pitch_bend_c, 6, 4736
9, 48844, Note_off_c, 6, 57, 127
9, 49408, Pitch_bend_c, 6, 8704
9, 49412, Note_on_c, 6, 54, 90
9, 49424, Pitch_bend_c, 6, 9018
9, 49444, Pitch_bend_c, 6, 9552
9, 49464, Pitch_bend_c, 6, 9994
9, 49480, Pitch_bend_c, 6, 10277
9, 49632, Control_c, 6, 1, 44
9, 49664, Control_c, 6, 1, 127
9, 49724, Control_c, 6, 1, 90
9, 49744, Note_off_c, 6, 54, 90
9, 49756, Control_c, 6, 1, 0
9, 49772, Pitch_bend_c, 6, 8192
9, 49776, Note_on_c, 6, 57, 84
9, 49904, Note_off_c, 6, 57, 84
9, 49916, Note_on_c, 6, 60, 93
9, 50076, Control_c, 6, 1, 46
9, 50116, Control_c, 6, 1, 112
9, 50148, Control_c, 6, 1, 0
9, 50160, Note_off_c, 6, 60, 93
9, 50180, Note_on_c, 6, 60, 78
9, 50316, Note_off_c, 6, 60, 78
9, 50316, Note_on_c, 6, 57, 106
9, 50564, Note_off_c, 6, 57, 106
9, 50576, Note_on_c, 6, 52, 80
9, 50712, Note_off_c, 6, 52, 80
9, 50712, Note_on_c, 6, 55, 94
9, 50900, Control_c, 6, 1, 17
9, 50932, Control_c, 6, 1, 127
9, 51008, Control_c, 6, 1, 71
9, 51040, Control_c, 6, 1, 0
9, 51092, Note_off_c, 6, 55, 94
9, 51104, Note_on_c, 6, 57, 95
9, 51308, Pitch_bend_c, 6, 8352
9, 51328, Pitch_bend_c, 6, 8160
9, 51344, Pitch_bend_c, 6, 8229
9, 51372, Pitch_bend_c, 6, 8352
9, 51388, Pitch_bend_c, 6, 8592
9, 51408, Pitch_bend_c, 6, 8565
9, 51424, Pitch_bend_c, 6, 8352
9, 51440, Pitch_bend_c, 6, 8202
9, 51480, Pitch_bend_c, 6, 8394
9, 51496, Pitch_bend_c, 6, 8682
9, 51536, Pitch_bend_c, 6, 8341
9, 51560, Pitch_bend_c, 6, 8171
9, 51584, Pitch_bend_c, 6, 8202
9, 51612, Pitch_bend_c, 6, 8410
9, 51672, Pitch_bend_c, 6, 7568
9, 51688, Pitch_bend_c, 6, 6902
9, 51704, Pitch_bend_c, 6, 6219
9, 51728, Pitch_bend_c, 6, 5494
9, 51744, Pitch_bend_c, 6, 4806
9, 51768, Pitch_bend_c, 6, 4064
9, 51780, Pitch_bend_c, 6, 3419
9, 51840, Note_off_c, 6, 57, 95
9, 52460, Pitch_bend_c, 6, 8827
9, 52464, Note_on_c, 6, 54, 70
9, 52484, Pitch_bend_c, 6, 9109
9, 52508, Pitch_bend_c, 6, 9653
9, 52524, Pitch_bend_c, 6, 10106
9, 52548, Pitch_bend_c, 6, 10261
9, 52712, Control_c, 6, 1, 24
9, 52740, Control_c, 6, 1, 127
9, 52804, Control_c, 6, 1, 124
9, 52836, Control_c, 6, 1, 0
9, 52844, Note_off_c, 6, 54, 70
9, 52856, Pitch_bend_c, 6, 8192
9, 52860, Note_on_c, 6, 57, 67
9, 52976, Note_off_c, 6, 57, 67
9, 52988, Note_on_c, 6, 60, 73
9, 53152, Control_c, 6, 1, 67
9, 53180, Control_c, 6, 1, 127
9, 53184, Note_off_c, 6, 60, 73
9, 53224, Control_c, 6, 1, 0
9, 53244, Note_on_c, 6, 60, 51
9, 53352, Note_off_c, 6, 60, 51
9, 53368, Note_on_c, 6, 57, 60
9, 53584, Note_off_c, 6, 57, 60
9, 53628, Note_on_c, 6, 52, 49
9, 53716, Note_off_c, 6, 52, 49
9, 53752, Note_on_c, 6, 55, 61
9, 53936, Pitch_bend_c, 6, 8469
9, 53956, Pitch_bend_c, 6, 8736
9, 53972, Pitch_bend_c, 6, 8634
9, 53988, Pitch_bend_c, 6, 8378
9, 54116, Pitch_bend_c, 6, 8192
9, 54136, Note_off_c, 6, 55, 61
9, 54140, Note_on_c, 6, 57, 73
9, 54328, Pitch_bend_c, 6, 8341
9, 54360, Pitch_bend_c, 6, 7632
9, 54388, Pitch_bend_c, 6, 6939
9, 54420, Pitch_bend_c, 6, 6240
9, 54448, Pitch_bend_c, 6, 5536
9, 54480, Pitch_bend_c, 6, 4784
9, 54516, Pitch_bend_c, 6, 3792
9, 54536, Pitch_bend_c, 6, 3510
9, 54572, Note_off_c, 6, 57, 73
9, 55296, End_track
10, 0, Start_track
10, 0, Title_t, "Trumpets"
10, 5372, Note_on_c, 7, 62, 98
10, 5992, Note_off_c, 7, 62, 98
10, 8444, Note_on_c, 7, 62, 99
10, 9076, Note_off_c, 7, 62, 99
10, 11516, Note_on_c, 7, 62, 96
10, 12124, Note_off_c, 7, 62, 96
10, 14588, Note_on_c, 7, 62, 94
10, 14952, Note_off_c, 7, 62, 94
10, 15616, Note_on_c, 7, 57, 117
10, 15616, Note_on_c, 7, 69, 117
10, 15740, Note_off_c, 7, 69, 117
10, 15740, Note_off_c, 7, 57, 117
10, 32312, Pitch_bend_c, 7, 6656
10, 32332, Pitch_bend_c, 7, 6400
10, 32352, Pitch_bend_c, 7, 6144
10, 32372, Pitch_bend_c, 7, 5952
10, 32472, Pitch_bend_c, 7, 5824
10, 32512, Pitch_bend_c, 7, 5632
10, 32532, Pitch_bend_c, 7, 5440
10, 32552, Pitch_bend_c, 7, 5184
10, 32572, Pitch_bend_c, 7, 4672
10, 32596, Pitch_bend_c, 7, 4352
10, 32636, Pitch_bend_c, 7, 4160
10, 32656, Pitch_bend_c, 7, 3840
10, 32676, Pitch_bend_c, 7, 3456
10, 32696, Pitch_bend_c, 7, 3264
10, 32816, Pitch_bend_c, 7, 3136
10, 32836, Pitch_bend_c, 7, 3008
10, 32896, Pitch_bend_c, 7, 2880
10, 32916, Pitch_bend_c, 7, 2624
10, 32936, Pitch_bend_c, 7, 2496
10, 32976, Pitch_bend_c, 7, 2304
10, 33020, Pitch_bend_c, 7, 2176
10, 33376, Pitch_bend_c, 7, 2048
10, 33576, Pitch_bend_c, 7, 1920
10, 33816, Pitch_bend_c, 7, 1792
10, 33956, Pitch_bend_c, 7, 1664
10, 34044, Note_on_c, 7, 64, 100
10, 34076, Pitch_bend_c, 7, 2176
10, 34096, Pitch_bend_c, 7, 2880
10, 34116, Pitch_bend_c, 7, 3840
10, 34136, Pitch_bend_c, 7, 4928
10, 34156, Pitch_bend_c, 7, 6272
10, 34160, Note_off_c, 7, 64, 100
10, 34168, Note_on_c, 7, 69, 126
10, 34180, Pitch_bend_c, 7, 7680
10, 34200, Pitch_bend_c, 7, 8192
10, 34264, Note_off_c, 7, 69, 126
10, 34424, Note_on_c, 7, 71, 114
10, 34532, Note_off_c, 7, 71, 114
10, 34548, Pitch_bend_c, 7, 3456
10, 34564, Pitch_bend_c, 7, 3328
10, 34568, Note_on_c, 7, 74, 125
10, 34612, Pitch_bend_c, 7, 3968
10, 34628, Pitch_bend_c, 7, 4992
10, 34644, Pitch_bend_c, 7, 6912
10, 34660, Pitch_bend_c, 7, 8192
10, 34768, Note_off_c, 7, 74, 125
10, 34792, Note_on_c, 7, 72, 123
10, 34896, Note_off_c, 7, 72, 123
10, 34936, Note_on_c, 7, 71, 125
10, 35020, Note_off_c, 7, 71, 125
10, 35184, Note_on_c, 7, 76, 123
10, 35304, Note_off_c, 7, 76, 123
10, 35580, Note_on_c, 7, 76, 125
10, 35584, Note_on_c, 7, 66, 106
10, 35584, Note_on_c, 7, 72, 113
10, 35648, Note_off_c, 7, 72, 113
10, 35652, Note_off_c, 7, 66, 106
10, 35668, Note_off_c, 7, 76, 125
10, 36096, Note_on_c, 7, 65, 107
10, 36096, Note_on_c, 7, 71, 104
10, 36096, Note_on_c, 7, 75, 111
10, 36464, Note_off_c, 7, 75, 111
10, 36464, Note_off_c, 7, 71, 104
10, 36480, Note_on_c, 7, 74, 101
10, 36848, Note_off_c, 7, 74, 101
10, 36848, Note_off_c, 7, 65, 107
10, 36864, Note_on_c, 7, 72, 92
10, 37088, Note_off_c, 7, 72, 92
10, 37120, Note_on_c, 7, 64, 104
10, 37120, Note_on_c, 7, 69, 107
10, 37120, Note_on_c, 7, 74, 106
10, 37172, Note_off_c, 7, 69, 107
10, 37176, Note_off_c, 7, 64, 104
10, 37204, Note_off_c, 7, 74, 106
10, 37600, Note_on_c, 7, 64, 106
10, 37600, Note_on_c, 7, 72, 104
10, 37604, Note_on_c, 7, 69, 100
10, 38192, Note_off_c, 7, 72, 104
10, 38192, Note_off_c, 7, 64, 106
10, 38196, Note_off_c, 7, 69, 100
10, 38256, Note_on_c, 7, 69, 109
10, 38256, Note_on_c, 7, 76, 100
10, 38260, Note_on_c, 7, 72, 101
10, 38592, Note_off_c, 7, 76, 100
10, 38592, Note_off_c, 7, 69, 109
10, 38596, Note_off_c, 7, 72, 101
10, 38656, Note_on_c, 7, 79, 108
10, 38660, Note_on_c, 7, 72, 104
10, 38664, Note_on_c, 7, 76, 106
10, 38740, Note_off_c, 7, 76, 106
10, 38740, Note_off_c, 7, 72, 104
10, 38748, Note_off_c, 7, 79, 108
10, 39152, Pitch_bend_c, 7, 320
10, 39164, Note_on_c, 7, 69, 102
10, 39168, Pitch_bend_c, 7, 768
10, 39168, Note_on_c, 7, 72, 121
10, 39168, Note_on_c, 7, 79, 104
10, 39184, Pitch_bend_c, 7, 2112
10, 39204, Pitch_bend_c, 7, 3712
10, 39224, Pitch_bend_c, 7, 4736
10, 39244, Pitch_bend_c, 7, 5760
10, 39260, Pitch_bend_c, 7, 6784
10, 39280, Pitch_bend_c, 7, 7936
10, 39296, Pitch_bend_c, 7, 8192
10, 39372, Note_off_c, 7, 69, 102
10, 39384, Note_off_c, 7, 72, 121
10, 39400, Note_off_c, 7, 79, 104
10, 39424, Note_on_c, 7, 76, 108
10, 39524, Note_on_c, 7, 74, 118
10, 39548, Note_off_c, 7, 76, 108
10, 39732, Note_off_c, 7, 74, 118
10, 39800, Note_on_c, 7, 74, 104
10, 39800, Note_on_c, 7, 76, 119
10, 39800, Note_on_c, 7, 79, 95
10, 40000, Pitch_bend_c, 7, 7872
10, 40016, Pitch_bend_c, 7, 7232
10, 40036, Pitch_bend_c, 7, 6656
10, 40052, Pitch_bend_c, 7, 6336
10, 40072, Pitch_bend_c, 7, 6016
10, 40088, Pitch_bend_c, 7, 5696
10, 40108, Pitch_bend_c, 7, 5120
10, 40124, Note_off_c, 7, 76, 119
10, 40124, Note_off_c, 7, 74, 104
10, 40124, Pitch_bend_c, 7, 4288
10, 40136, Note_off_c, 7, 79, 95
10, 40144, Pitch_bend_c, 7, 3456
10, 40160, Pitch_bend_c, 7, 2368
10, 40180, Pitch_bend_c, 7, 1024
10, 40200, Pitch_bend_c, 7, 768
10, 40232, Pitch_bend_c, 7, 1728
10, 40252, Pitch_bend_c, 7, 3392
10, 40272, Pitch_bend_c, 7, 5184
10, 40288, Pitch_bend_c, 7, 6592
10, 40308, Pitch_bend_c, 7, 7744
10, 40324, Pitch_bend_c, 7, 8192
10, 42144, Pitch_bend_c, 7, 256
10, 42224, Pitch_bend_c, 7, 2944
10, 42232, Note_on_c, 7, 86, 117
10, 42252, Pitch_bend_c, 7, 7552
10, 42268, Pitch_bend_c, 7, 8192
10, 42332, Pitch_bend_c, 7, 8384
10, 42372, Pitch_bend_c, 7, 12544
10, 42400, Pitch_bend_c, 7, 13824
10, 42440, Pitch_bend_c, 7, 8512
10, 42456, Pitch_bend_c, 7, 8192
10, 42508, Pitch_bend_c, 7, 8512
10, 42548, Pitch_bend_c, 7, 16192
10, 42576, Pitch_bend_c, 7, 13184
10, 42604, Pitch_bend_c, 7, 8192
10, 42656, Pitch_bend_c, 7, 13504
10, 42672, Pitch_bend_c, 7, 16320
10, 42712, Pitch_bend_c, 7, 14528
10, 42736, Pitch_bend_c, 7, 8256
10, 42764, Pitch_bend_c, 7, 9472
10, 42780, Pitch_bend_c, 7, 12992
10, 42804, Pitch_bend_c, 7, 16320
10, 42832, Pitch_bend_c, 7, 5632
10, 42860, Pitch_bend_c, 7, 8192
10, 42868, Note_off_c, 7, 86, 117
10, 42872, Note_on_c, 7, 81, 91
10, 42872, Note_on_c, 7, 84, 105
10, 42972, Note_off_c, 7, 81, 91
10, 42980, Note_off_c, 7, 84, 105
10, 45216, Pitch_bend_c, 7, 256
10, 45264, Note_on_c, 7, 86, 123
10, 45296, Pitch_bend_c, 7, 2944
10, 45324, Pitch_bend_c, 7, 7552
10, 45340, Pitch_bend_c, 7, 8192
10, 45404, Pitch_bend_c, 7, 8384
10, 45444, Pitch_bend_c, 7, 12544
10, 45472, Pitch_bend_c, 7, 13824
10, 45512, Pitch_bend_c, 7, 8512
10, 45528, Pitch_bend_c, 7, 8192
10, 45580, Pitch_bend_c, 7, 8512
10, 45620, Pitch_bend_c, 7, 16192
10, 45648, Pitch_bend_c, 7, 13184
10, 45676, Pitch_bend_c, 7, 8192
10, 45684, Note_off_c, 7, 86, 123
10, 45688, Note_on_c, 7, 79, 79
10, 45692, Note_on_c, 7, 84, 109
10, 45860, Note_off_c, 7, 79, 79
10, 45868, Note_off_c, 7, 84, 109
10, 45932, Pitch_bend_c, 7, 8192
10, 45948, Note_on_c, 7, 76, 86
10, 45952, Note_on_c, 7, 81, 101
10, 46080, Note_off_c, 7, 76, 86
10, 46084, Note_off_c, 7, 81, 101
10, 48384, Note_on_c, 7, 86, 115
10, 48468, Pitch_bend_c, 7, 9984
10, 48484, Pitch_bend_c, 7, 12288
10, 48500, Pitch_bend_c, 7, 12480
10, 48516, Pitch_bend_c, 7, 13376
10, 48532, Pitch_bend_c, 7, 11776
10, 48560, Pitch_bend_c, 7, 9792
10, 48588, Pitch_bend_c, 7, 8192
10, 48664, Note_off_c, 7, 86, 115
10, 48668, Note_on_c, 7, 84, 106
10, 48776, Note_off_c, 7, 84, 106
10, 48776, Note_on_c, 7, 76, 94
10, 48776, Note_on_c, 7, 81, 111
10, 49024, Note_off_c, 7, 81, 111
10, 49024, Note_off_c, 7, 76, 94
10, 49028, Note_on_c, 7, 76, 88
10, 49028, Note_on_c, 7, 81, 103
10, 49160, Note_off_c, 7, 81, 103
10, 49160, Note_off_c, 7, 76, 88
10, 49280, End_track
11, 0, Start_track
11, 0, Title_t, "Trombone"
11, 5368, Pitch_bend_c, 8, 896
11, 5372, Note_on_c, 8, 62, 127
11, 5384, Pitch_bend_c, 8, 1920
11, 5400, Control_c, 8, 11, 65
11, 5404, Pitch_bend_c, 8, 3904
11, 5424, Pitch_bend_c, 8, 6016
11, 5432, Control_c, 8, 11, 67
11, 5444, Pitch_bend_c, 8, 7872
11, 5464, Control_c, 8, 11, 69
11, 5464, Pitch_bend_c, 8, 8192
11, 5500, Control_c, 8, 11, 73
11, 5532, Control_c, 8, 11, 75
11, 5596, Control_c, 8, 11, 78
11, 5604, Control_c, 8, 1, 25
11, 5632, Control_c, 8, 11, 82
11, 5644, Control_c, 8, 1, 62
11, 5680, Control_c, 8, 11, 86
11, 5688, Control_c, 8, 1, 82
11, 5716, Control_c, 8, 11, 88
11, 5728, Control_c, 8, 1, 92
11, 5748, Control_c, 8, 11, 90
11, 5784, Control_c, 8, 11, 93
11, 5788, Control_c, 8, 1, 84
11, 5828, Control_c, 8, 1, 64
11, 5868, Control_c, 8, 1, 32
11, 5884, Control_c, 8, 11, 97
11, 5912, Control_c, 8, 1, 0
11, 5932, Control_c, 8, 11, 100
11, 5964, Control_c, 8, 11, 102
11, 5992, Note_off_c, 8, 62, 127
11, 6012, Note_on_c, 8, 60, 127
11, 6124, Note_off_c, 8, 60, 127
11, 6588, Control_c, 8, 11, 101
11, 6640, Control_c, 8, 11, 100
11, 6688, Control_c, 8, 11, 98
11, 6736, Control_c, 8, 11, 96
11, 6768, Control_c, 8, 11, 94
11, 6820, Control_c, 8, 11, 89
11, 6864, Control_c, 8, 11, 87
11, 6956, Control_c, 8, 11, 83
11, 7016, Control_c, 8, 11, 80
11, 7072, Control_c, 8, 11, 78
11, 7152, Control_c, 8, 11, 76
11, 7228, Control_c, 8, 11, 74
11, 7300, Control_c, 8, 11, 71
11, 7700, Control_c, 8, 11, 69
11, 7772, Control_c, 8, 11, 67
11, 7848, Control_c, 8, 11, 65
11, 7900, Control_c, 8, 11, 62
11, 7960, Control_c, 8, 11, 60
11, 8056, Control_c, 8, 11, 59
11, 8088, Control_c, 8, 11, 57
11, 8136, Control_c, 8, 11, 55
11, 8368, Control_c, 8, 11, 57
11, 8432, Control_c, 8, 11, 59
11, 8440, Pitch_bend_c, 8, 2240
11, 8444, Note_on_c, 8, 62, 127
11, 8456, Pitch_bend_c, 8, 2240
11, 8468, Control_c, 8, 11, 61
11, 8476, Pitch_bend_c, 8, 3776
11, 8500, Pitch_bend_c, 8, 5504
11, 8520, Pitch_bend_c, 8, 7680
11, 8520, Control_c, 8, 11, 66
11, 8540, Pitch_bend_c, 8, 8192
11, 8552, Control_c, 8, 11, 68
11, 8584, Control_c, 8, 11, 70
11, 8620, Control_c, 8, 11, 73
11, 8656, Control_c, 8, 11, 74
11, 8688, Control_c, 8, 11, 76
11, 8748, Control_c, 8, 11, 80
11, 8780, Control_c, 8, 11, 83
11, 8792, Control_c, 8, 1, 21
11, 8828, Control_c, 8, 11, 86
11, 8832, Control_c, 8, 1, 67
11, 8872, Control_c, 8, 1, 97
11, 8888, Control_c, 8, 11, 91
11, 8916, Control_c, 8, 1, 113
11, 8940, Control_c, 8, 11, 94
11, 8956, Control_c, 8, 1, 108
11, 8992, Control_c, 8, 11, 96
11, 8996, Control_c, 8, 1, 70
11, 9060, Control_c, 8, 11, 97
11, 9076, Note_off_c, 8, 62, 127
11, 9084, Note_on_c, 8, 60, 127
11, 9092, Control_c, 8, 11, 98
11, 9228, Pitch_bend_c, 8, 5888
11, 9248, Pitch_bend_c, 8, 3712
11, 9264, Pitch_bend_c, 8, 1216
11, 9272, Note_off_c, 8, 60, 127
11, 9284, Pitch_bend_c, 8, 0
11, 9324, Pitch_bend_c, 8, 3904
11, 9344, Pitch_bend_c, 8, 6592
11, 9360, Pitch_bend_c, 8, 8192
11, 9868, Control_c, 8, 11, 97
11, 9900, Control_c, 8, 11, 93
11, 9948, Control_c, 8, 11, 88
11, 10004, Control_c, 8, 11, 85
11, 10048, Control_c, 8, 11, 83
11, 10096, Control_c, 8, 11, 80
11, 10164, Control_c, 8, 11, 78
11, 10212, Control_c, 8, 11, 76
11, 10292, Control_c, 8, 11, 74
11, 10364, Control_c, 8, 11, 71
11, 10400, Control_c, 8, 11, 70
11, 10468, Control_c, 8, 11, 69
11, 11092, Control_c, 8, 11, 68
11, 11324, Control_c, 8, 11, 67
11, 11424, Control_c, 8, 11, 68
11, 11456, Control_c, 8, 11, 70
11, 11472, Pitch_bend_c, 8, 256
11, 11516, Note_on_c, 8, 62, 121
11, 11532, Pitch_bend_c, 8, 1664
11, 11556, Pitch_bend_c, 8, 5312
11, 11576, Pitch_bend_c, 8, 8192
11, 11604, Control_c, 8, 11, 73
11, 11684, Control_c, 8, 11, 75
11, 11744, Control_c, 8, 11, 77
11, 11776, Control_c, 8, 11, 79
11, 11812, Control_c, 8, 11, 82
11, 11880, Control_c, 8, 11, 84
11, 11908, Control_c, 8, 1, 44
11, 11912, Control_c, 8, 11, 86
11, 11948, Control_c, 8, 1, 78
11, 11972, Control_c, 8, 11, 88
11, 11988, Control_c, 8, 1, 74
11, 12020, Control_c, 8, 11, 92
11, 12028, Control_c, 8, 1, 79
11, 12072, Control_c, 8, 1, 87
11, 12072, Control_c, 8, 11, 94
11, 12120, Control_c, 8, 11, 100
11, 12124, Note_off_c, 8, 62, 121
11, 12132, Control_c, 8, 1, 78
11, 12152, Note_on_c, 8, 60, 127
11, 12172, Control_c, 8, 1, 0
11, 12316, Note_off_c, 8, 60, 127
11, 14400, Pitch_bend_c, 8, 6976
11, 14420, Pitch_bend_c, 8, 5248
11, 14440, Pitch_bend_c, 8, 3520
11, 14460, Pitch_bend_c, 8, 2112
11, 14480, Pitch_bend_c, 8, 1088
11, 14500, Pitch_bend_c, 8, 704
11, 14520, Pitch_bend_c, 8, 576
11, 14568, Control_c, 8, 11, 88
11, 14580, Pitch_bend_c, 8, 1280
11, 14588, Note_on_c, 8, 62, 127
11, 14600, Pitch_bend_c, 8, 3712
11, 14604, Control_c, 8, 11, 93
11, 14624, Pitch_bend_c, 8, 7424
11, 14644, Pitch_bend_c, 8, 8192
11, 14780, Control_c, 8, 11, 94
11, 14796, Control_c, 8, 1, 22
11, 14828, Control_c, 8, 11, 97
11, 14836, Control_c, 8, 1, 98
11, 14876, Control_c, 8, 11, 98
11, 14916, Control_c, 8, 1, 90
11, 14956, Control_c, 8, 1, 0
11, 14968, Note_off_c, 8, 62, 127
11, 14968, Note_on_c, 8, 60, 121
11, 15204, Note_off_c, 8, 60, 121
11, 15228, Note_on_c, 8, 57, 127
11, 15344, Note_off_c, 8, 57, 127
11, 15468, Control_c, 8, 11, 100
11, 15616, Note_on_c, 8, 69, 117
11, 15740, Note_off_c, 8, 69, 117
11, 15868, Control_c, 8, 11, 100
11, 17100, Control_c, 8, 11, 97
11, 17152, Control_c, 8, 11, 88
11, 17184, Control_c, 8, 11, 82
11, 17228, Control_c, 8, 11, 75
11, 17296, Control_c, 8, 11, 68
11, 17432, Control_c, 8, 11, 66
11, 17468, Control_c, 8, 11, 64
11, 17592, Control_c, 8, 11, 65
11, 17640, Control_c, 8, 11, 68
11, 17644, Pitch_bend_c, 8, 2944
11, 17656, Note_on_c, 8, 62, 118
11, 17664, Pitch_bend_c, 8, 4672
11, 17684, Pitch_bend_c, 8, 6464
11, 17704, Pitch_bend_c, 8, 8192
11, 17708, Control_c, 8, 11, 74
11, 17740, Control_c, 8, 11, 76
11, 17788, Control_c, 8, 11, 77
11, 17820, Control_c, 8, 11, 79
11, 17852, Control_c, 8, 11, 82
11, 17892, Control_c, 8, 11, 85
11, 17924, Control_c, 8, 11, 87
11, 17972, Control_c, 8, 11, 89
11, 18024, Control_c, 8, 11, 94
11, 18056, Control_c, 8, 11, 96
11, 18088, Control_c, 8, 11, 98
11, 18188, Control_c, 8, 11, 100
11, 18300, Note_off_c, 8, 62, 118
11, 18300, Note_on_c, 8, 60, 127
11, 18468, Note_off_c, 8, 60, 127
11, 18688, Control_c, 8, 11, 98
11, 18760, Control_c, 8, 11, 97
11, 18892, Control_c, 8, 11, 95
11, 18940, Control_c, 8, 11, 93
11, 19024, Control_c, 8, 11, 88
11, 19060, Control_c, 8, 11, 86
11, 19108, Control_c, 8, 11, 83
11, 19156, Control_c, 8, 11, 79
11, 19208, Control_c, 8, 11, 77
11, 19260, Control_c, 8, 11, 75
11, 19352, Control_c, 8, 11, 73
11, 19420, Control_c, 8, 11, 70
11, 19688, Control_c, 8, 11, 68
11, 20588, Pitch_bend_c, 8, 6528
11, 20608, Pitch_bend_c, 8, 4928
11, 20632, Pitch_bend_c, 8, 3392
11, 20652, Pitch_bend_c, 8, 2112
11, 20672, Pitch_bend_c, 8, 1664
11, 20728, Note_on_c, 8, 62, 121
11, 20732, Pitch_bend_c, 8, 3008
11, 20752, Pitch_bend_c, 8, 5120
11, 20772, Pitch_bend_c, 8, 7680
11, 20776, Control_c, 8, 11, 69
11, 20792, Pitch_bend_c, 8, 8192
11, 20828, Control_c, 8, 11, 74
11, 20860, Control_c, 8, 11, 78
11, 20892, Control_c, 8, 11, 83
11, 20924, Control_c, 8, 11, 85
11, 20956, Control_c, 8, 11, 87
11, 21012, Control_c, 8, 11, 92
11, 21044, Control_c, 8, 11, 94
11, 21092, Control_c, 8, 11, 97
11, 21116, Note_off_c, 8, 62, 121
11, 21116, Note_on_c, 8, 60, 114
11, 21172, Control_c, 8, 11, 98
11, 21356, Note_off_c, 8, 60, 114
11, 21368, Control_c, 8, 11, 100
11, 21372, Note_on_c, 8, 57, 121
11, 21400, Control_c, 8, 11, 101
11, 21544, Note_off_c, 8, 57, 121
11, 21700, Control_c, 8, 11, 100
11, 21832, Control_c, 8, 11, 98
11, 21912, Control_c, 8, 11, 94
11, 21960, Control_c, 8, 11, 92
11, 21992, Control_c, 8, 11, 89
11, 22024, Control_c, 8, 11, 87
11, 22072, Control_c, 8, 11, 84
11, 22104, Control_c, 8, 11, 82
11, 22140, Control_c, 8, 11, 79
11, 22180, Control_c, 8, 11, 78
11, 22212, Control_c, 8, 11, 77
11, 22300, Control_c, 8, 11, 75
11, 22412, Control_c, 8, 11, 73
11, 22552, Control_c, 8, 11, 70
11, 22612, Control_c, 8, 11, 69
11, 23784, Control_c, 8, 11, 71
11, 23788, Note_on_c, 8, 62, 116
11, 23828, Control_c, 8, 11, 76
11, 23860, Control_c, 8, 11, 80
11, 23876, Pitch_bend_c, 8, 8768
11, 23892, Pitch_bend_c, 8, 10304
11, 23908, Pitch_bend_c, 8, 12160
11, 23916, Control_c, 8, 11, 89
11, 23924, Pitch_bend_c, 8, 13824
11, 23940, Pitch_bend_c, 8, 14848
11, 23956, Control_c, 8, 11, 94
11, 23972, Pitch_bend_c, 8, 13184
11, 23988, Pitch_bend_c, 8, 10624
11, 24004, Pitch_bend_c, 8, 8640
11, 24008, Control_c, 8, 11, 96
11, 24020, Pitch_bend_c, 8, 8192
11, 24064, Note_off_c, 8, 62, 116
11, 24068, Note_on_c, 8, 60, 108
11, 24068, Control_c, 8, 11, 98
11, 24164, Note_off_c, 8, 60, 108
11, 24184, Note_on_c, 8, 57, 117
11, 24408, Note_off_c, 8, 57, 117
11, 24444, Note_on_c, 8, 57, 121
11, 24472, Control_c, 8, 11, 100
11, 24556, Control_c, 8, 11, 101
11, 24576, Note_off_c, 8, 57, 121
11, 24784, Control_c, 8, 11, 100
11, 24844, Control_c, 8, 11, 97
11, 24896, Control_c, 8, 11, 96
11, 24944, Control_c, 8, 11, 94
11, 24996, Control_c, 8, 11, 92
11, 25028, Control_c, 8, 11, 88
11, 25076, Control_c, 8, 11, 86
11, 25124, Control_c, 8, 11, 83
11, 25156, Control_c, 8, 11, 80
11, 25204, Control_c, 8, 11, 77
11, 25252, Control_c, 8, 11, 75
11, 25304, Control_c, 8, 11, 73
11, 25356, Control_c, 8, 11, 71
11, 25392, Control_c, 8, 11, 70
11, 25588, Control_c, 8, 11, 69
11, 25636, Control_c, 8, 11, 68
11, 26724, Pitch_bend_c, 8, 6336
11, 26740, Pitch_bend_c, 8, 3968
11, 26756, Pitch_bend_c, 8, 1600
11, 26772, Pitch_bend_c, 8, 256
11, 26788, Pitch_bend_c, 8, 64
11, 26852, Control_c, 8, 11, 69
11, 26856, Note_on_c, 8, 62, 122
11, 26868, Pitch_bend_c, 8, 832
11, 26884, Pitch_bend_c, 8, 3392
11, 26900, Pitch_bend_c, 8, 6912
11, 26916, Pitch_bend_c, 8, 8192
11, 26916, Control_c, 8, 11, 78
11, 26956, Control_c, 8, 11, 84
11, 26992, Control_c, 8, 11, 89
11, 27044, Control_c, 8, 11, 92
11, 27120, Control_c, 8, 11, 95
11, 27156, Control_c, 8, 11, 96
11, 27196, Control_c, 8, 11, 97
11, 27232, Note_off_c, 8, 62, 122
11, 27236, Note_on_c, 8, 60, 111
11, 27372, Control_c, 8, 11, 98
11, 27476, Control_c, 8, 11, 100
11, 27480, Note_off_c, 8, 60, 111
11, 27480, Note_on_c, 8, 57, 119
11, 27580, Note_off_c, 8, 57, 119
11, 27808, Control_c, 8, 11, 100
11, 28416, Note_on_c, 8, 57, 127
11, 28520, Note_off_c, 8, 57, 127
11, 28800, Note_on_c, 8, 57, 122
11, 28912, Note_off_c, 8, 57, 122
11, 29164, Pitch_bend_c, 8, 3648
11, 29172, Note_on_c, 8, 54, 105
11, 29184, Note_on_c, 8, 60, 101
11, 29188, Pitch_bend_c, 8, 3840
11, 29196, Note_on_c, 8, 64, 103
11, 29220, Pitch_bend_c, 8, 3968
11, 29236, Pitch_bend_c, 8, 4096
11, 29252, Pitch_bend_c, 8, 4224
11, 29268, Pitch_bend_c, 8, 4352
11, 29284, Pitch_bend_c, 8, 4672
11, 29300, Pitch_bend_c, 8, 4928
11, 29316, Pitch_bend_c, 8, 5248
11, 29336, Pitch_bend_c, 8, 5504
11, 29352, Pitch_bend_c, 8, 5760
11, 29368, Pitch_bend_c, 8, 6144
11, 29384, Pitch_bend_c, 8, 6464
11, 29400, Pitch_bend_c, 8, 6656
11, 29416, Pitch_bend_c, 8, 6976
11, 29432, Pitch_bend_c, 8, 7488
11, 29452, Pitch_bend_c, 8, 7872
11, 29468, Pitch_bend_c, 8, 8192
11, 29896, Note_off_c, 8, 54, 105
11, 29908, Note_off_c, 8, 60, 101
11, 29924, Note_off_c, 8, 64, 103
11, 29940, Note_on_c, 8, 52, 101
11, 29948, Note_on_c, 8, 58, 99
11, 29952, Note_on_c, 8, 63, 100
11, 30308, Note_off_c, 8, 52, 101
11, 30312, Note_off_c, 8, 58, 99
11, 30320, Note_off_c, 8, 63, 100
11, 30328, Note_on_c, 8, 62, 105
11, 30340, Note_on_c, 8, 52, 104
11, 30340, Note_on_c, 8, 58, 100
11, 30680, Note_off_c, 8, 62, 105
11, 30696, Note_off_c, 8, 58, 100
11, 30696, Note_off_c, 8, 52, 104
11, 30700, Note_on_c, 8, 60, 106
11, 30708, Note_on_c, 8, 51, 101
11, 30708, Note_on_c, 8, 57, 105
11, 30712, Pitch_bend_c, 8, 2688
11, 30768, Pitch_bend_c, 8, 3200
11, 30792, Pitch_bend_c, 8, 4096
11, 30832, Pitch_bend_c, 8, 5120
11, 30860, Pitch_bend_c, 8, 6592
11, 30884, Pitch_bend_c, 8, 7808
11, 30900, Pitch_bend_c, 8, 8192
11, 31024, Control_c, 8, 1, 9
11, 31056, Control_c, 8, 1, 24
11, 31092, Control_c, 8, 1, 34
11, 31124, Control_c, 8, 1, 49
11, 31156, Control_c, 8, 1, 55
11, 31188, Control_c, 8, 1, 67
11, 31224, Control_c, 8, 1, 56
11, 31256, Control_c, 8, 1, 45
11, 31288, Control_c, 8, 1, 28
11, 31320, Control_c, 8, 1, 0
11, 31468, Note_off_c, 8, 60, 106
11, 31484, Note_off_c, 8, 57, 105
11, 31484, Note_off_c, 8, 51, 101
11, 31488, Note_on_c, 8, 50, 100
11, 31488, Note_on_c, 8, 56, 103
11, 31488, Note_on_c, 8, 60, 110
11, 32108, Pitch_bend_c, 8, 640
11, 32112, Note_off_c, 8, 60, 110
11, 32128, Note_off_c, 8, 56, 103
11, 32128, Note_off_c, 8, 50, 100
11, 32128, Note_on_c, 8, 60, 109
11, 32136, Note_on_c, 8, 64, 102
11, 32148, Note_on_c, 8, 66, 107
11, 32184, Pitch_bend_c, 8, 1216
11, 32224, Pitch_bend_c, 8, 2048
11, 32248, Pitch_bend_c, 8, 2880
11, 32288, Pitch_bend_c, 8, 3776
11, 32316, Pitch_bend_c, 8, 4608
11, 32340, Pitch_bend_c, 8, 4864
11, 32368, Pitch_bend_c, 8, 5312
11, 32392, Pitch_bend_c, 8, 5760
11, 32420, Pitch_bend_c, 8, 6144
11, 32444, Pitch_bend_c, 8, 6912
11, 32460, Pitch_bend_c, 8, 7232
11, 32484, Pitch_bend_c, 8, 7872
11, 32500, Pitch_bend_c, 8, 8192
11, 32736, Control_c, 8, 1, 5
11, 32768, Control_c, 8, 1, 25
11, 32800, Control_c, 8, 1, 40
11, 32832, Control_c, 8, 1, 54
11, 32868, Control_c, 8, 1, 62
11, 32900, Control_c, 8, 1, 67
11, 32928, Control_c, 8, 11, 99
11, 32932, Control_c, 8, 1, 70
11, 33024, Control_c, 8, 11, 95
11, 33120, Control_c, 8, 11, 91
11, 33144, Control_c, 8, 1, 62
11, 33216, Control_c, 8, 11, 87
11, 33312, Control_c, 8, 11, 83
11, 33368, Control_c, 8, 1, 51
11, 33408, Control_c, 8, 11, 79
11, 33504, Control_c, 8, 11, 75
11, 33592, Control_c, 8, 1, 30
11, 33600, Control_c, 8, 11, 71
11, 33696, Control_c, 8, 11, 64
11, 33720, Control_c, 8, 1, 0
11, 33736, Note_off_c, 8, 64, 102
11, 33744, Note_off_c, 8, 60, 109
11, 33760, Note_off_c, 8, 66, 107
11, 33792, Control_c, 8, 11, 101
11, 41944, Pitch_bend_c, 8, 7808
11, 41964, Pitch_bend_c, 8, 6528
11, 41984, Pitch_bend_c, 8, 5248
11, 42004, Pitch_bend_c, 8, 3648
11, 42024, Pitch_bend_c, 8, 2048
11, 42044, Pitch_bend_c, 8, 1152
11, 42148, Pitch_bend_c, 8, 896
11, 42236, Note_on_c, 8, 62, 127
11, 42248, Pitch_bend_c, 8, 1920
11, 42268, Pitch_bend_c, 8, 3904
11, 42288, Pitch_bend_c, 8, 6016
11, 42308, Pitch_bend_c, 8, 7872
11, 42328, Pitch_bend_c, 8, 8192
11, 42856, Note_off_c, 8, 62, 127
11, 42876, Note_on_c, 8, 60, 127
11, 42988, Note_off_c, 8, 60, 127
11, 45304, Pitch_bend_c, 8, 2240
11, 45308, Note_on_c, 8, 62, 127
11, 45320, Pitch_bend_c, 8, 2240
11, 45340, Pitch_bend_c, 8, 3776
11, 45364, Pitch_bend_c, 8, 5504
11, 45384, Pitch_bend_c, 8, 7680
11, 45404, Pitch_bend_c, 8, 8192
11, 45692, Note_off_c, 8, 62, 127
11, 45696, Note_on_c, 8, 60, 122
11, 45944, Note_off_c, 8, 60, 122
11, 45948, Note_on_c, 8, 57, 127
11, 46092, Pitch_bend_c, 8, 5888
11, 46112, Pitch_bend_c, 8, 3712
11, 46128, Pitch_bend_c, 8, 1216
11, 46136, Note_off_c, 8, 57, 127
11, 46148, Pitch_bend_c, 8, 0
11, 46188, Pitch_bend_c, 8, 3904
11, 46208, Pitch_bend_c, 8, 6592
11, 46224, Pitch_bend_c, 8, 8192
11, 48336, Pitch_bend_c, 8, 256
11, 48380, Note_on_c, 8, 62, 121
11, 48396, Pitch_bend_c, 8, 1664
11, 48420, Pitch_bend_c, 8, 5312
11, 48440, Pitch_bend_c, 8, 8192
11, 48504, Pitch_bend_c, 8, 12288
11, 48584, Pitch_bend_c, 8, 8192
11, 48680, Pitch_bend_c, 8, 0
11, 48748, Note_off_c, 8, 62, 121
11, 48764, Pitch_bend_c, 8, 8192
11, 48768, Note_on_c, 8, 57, 120
11, 48992, Note_off_c, 8, 57, 120
11, 49016, Note_on_c, 8, 57, 109
11, 49180, Note_off_c, 8, 57, 109
11, 51264, Pitch_bend_c, 8, 6976
11, 51284, Pitch_bend_c, 8, 5248
11, 51304, Pitch_bend_c, 8, 3520
11, 51324, Pitch_bend_c, 8, 2112
11, 51344, Pitch_bend_c, 8, 1088
11, 51364, Pitch_bend_c, 8, 704
11, 51384, Pitch_bend_c, 8, 576
11, 51444, Pitch_bend_c, 8, 1280
11, 51452, Note_on_c, 8, 62, 123
11, 51464, Pitch_bend_c, 8, 3712
11, 51488, Pitch_bend_c, 8, 7424
11, 51508, Pitch_bend_c, 8, 8192
11, 51832, Note_off_c, 8, 62, 123
11, 51832, Note_on_c, 8, 60, 121
11, 52068, Note_off_c, 8, 60, 121
11, 52092, Note_on_c, 8, 57, 127
11, 52208, Note_off_c, 8, 57, 127
11, 54480, Pitch_bend_c, 8, 256
11, 54524, Note_on_c, 8, 62, 90
11, 54540, Pitch_bend_c, 8, 1664
11, 54564, Pitch_bend_c, 8, 5312
11, 54584, Pitch_bend_c, 8, 8192
11, 54648, Pitch_bend_c, 8, 12288
11, 54728, Pitch_bend_c, 8, 8192
11, 54824, Pitch_bend_c, 8, 0
11, 54892, Note_off_c, 8, 62, 90
11, 54908, Pitch_bend_c, 8, 8192
11, 54912, Note_on_c, 8, 57, 88
11, 55136, Note_off_c, 8, 57, 88
11, 55160, Note_on_c, 8, 57, 81
11, 55324, Note_off_c, 8, 57, 81
11, 57536, Pitch_bend_c, 8, 1664
11, 57596, Pitch_bend_c, 8, 3008
11, 57616, Pitch_bend_c, 8, 5120
11, 57636, Pitch_bend_c, 8, 7680
11, 58368, End_track
12, 0, Start_track
12, 0, Title_t, "Tuba"
12, 5364, Pitch_bend_c, 10, 1472
12, 5368, Note_on_c, 10, 57, 111
12, 5384, Pitch_bend_c, 10, 3200
12, 5400, Control_c, 10, 11, 65
12, 5404, Pitch_bend_c, 10, 5440
12, 5424, Pitch_bend_c, 10, 7040
12, 5432, Control_c, 10, 11, 67
12, 5444, Pitch_bend_c, 10, 8192
12, 5464, Control_c, 10, 11, 69
12, 5500, Control_c, 10, 11, 73
12, 5532, Control_c, 10, 11, 75
12, 5596, Control_c, 10, 11, 78
12, 5632, Control_c, 10, 11, 82
12, 5680, Control_c, 10, 11, 86
12, 5716, Control_c, 10, 11, 88
12, 5748, Control_c, 10, 11, 91
12, 5784, Control_c, 10, 11, 93
12, 5884, Control_c, 10, 11, 97
12, 5888, Note_off_c, 10, 57, 111
12, 5932, Control_c, 10, 11, 100
12, 5964, Control_c, 10, 11, 102
12, 6012, Note_on_c, 10, 57, 123
12, 6120, Note_off_c, 10, 57, 123
12, 6588, Control_c, 10, 11, 101
12, 6640, Control_c, 10, 11, 100
12, 6688, Control_c, 10, 11, 98
12, 6736, Control_c, 10, 11, 96
12, 6768, Control_c, 10, 11, 94
12, 6820, Control_c, 10, 11, 89
12, 6864, Control_c, 10, 11, 87
12, 6956, Control_c, 10, 11, 83
12, 7016, Control_c, 10, 11, 80
12, 7072, Control_c, 10, 11, 78
12, 7152, Control_c, 10, 11, 76
12, 7228, Control_c, 10, 11, 74
12, 7300, Control_c, 10, 11, 71
12, 7700, Control_c, 10, 11, 69
12, 7772, Control_c, 10, 11, 67
12, 7848, Control_c, 10, 11, 65
12, 7900, Control_c, 10, 11, 62
12, 7960, Control_c, 10, 11, 60
12, 8056, Control_c, 10, 11, 59
12, 8088, Control_c, 10, 11, 57
12, 8136, Control_c, 10, 11, 55
12, 8368, Control_c, 10, 11, 57
12, 8432, Control_c, 10, 11, 59
12, 8440, Pitch_bend_c, 10, 2816
12, 8460, Note_on_c, 10, 57, 123
12, 8468, Control_c, 10, 11, 61
12, 8480, Pitch_bend_c, 10, 3520
12, 8500, Pitch_bend_c, 10, 4672
12, 8520, Pitch_bend_c, 10, 6400
12, 8520, Control_c, 10, 11, 66
12, 8540, Pitch_bend_c, 10, 8192
12, 8552, Control_c, 10, 11, 68
12, 8584, Control_c, 10, 11, 70
12, 8620, Control_c, 10, 11, 73
12, 8656, Control_c, 10, 11, 74
12, 8688, Control_c, 10, 11, 76
12, 8748, Control_c, 10, 11, 80
12, 8780, Control_c, 10, 11, 83
12, 8828, Control_c, 10, 11, 86
12, 8888, Control_c, 10, 11, 91
12, 8940, Control_c, 10, 11, 94
12, 8992, Control_c, 10, 11, 96
12, 9016, Note_off_c, 10, 57, 123
12, 9060, Control_c, 10, 11, 97
12, 9092, Control_c, 10, 11, 98
12, 9096, Note_on_c, 10, 57, 123
12, 9228, Pitch_bend_c, 10, 5888
12, 9248, Pitch_bend_c, 10, 3712
12, 9264, Pitch_bend_c, 10, 1216
12, 9272, Note_off_c, 10, 57, 123
12, 9284, Pitch_bend_c, 10, 0
12, 9324, Pitch_bend_c, 10, 3904
12, 9344, Pitch_bend_c, 10, 6592
12, 9360, Pitch_bend_c, 10, 8192
12, 9868, Control_c, 10, 11, 97
12, 9900, Control_c, 10, 11, 93
12, 9948, Control_c, 10, 11, 88
12, 10004, Control_c, 10, 11, 85
12, 10048, Control_c, 10, 11, 83
12, 10096, Control_c, 10, 11, 80
12, 10164, Control_c, 10, 11, 78
12, 10212, Control_c, 10, 11, 76
12, 10292, Control_c, 10, 11, 74
12, 10364, Control_c, 10, 11, 71
12, 10400, Control_c, 10, 11, 70
12, 10468, Control_c, 10, 11, 69
12, 11092, Control_c, 10, 11, 68
12, 11324, Control_c, 10, 11, 67
12, 11424, Control_c, 10, 11, 68
12, 11456, Control_c, 10, 11, 70
12, 11512, Pitch_bend_c, 10, 1280
12, 11516, Note_on_c, 10, 57, 117
12, 11536, Pitch_bend_c, 10, 3840
12, 11556, Pitch_bend_c, 10, 7040
12, 11576, Pitch_bend_c, 10, 8192
12, 11604, Control_c, 10, 11, 73
12, 11684, Control_c, 10, 11, 75
12, 11744, Control_c, 10, 11, 77
12, 11776, Control_c, 10, 11, 79
12, 11812, Control_c, 10, 11, 82
12, 11880, Control_c, 10, 11, 84
12, 11912, Control_c, 10, 11, 86
12, 11972, Control_c, 10, 11, 88
12, 12020, Control_c, 10, 11, 92
12, 12072, Control_c, 10, 11, 94
12, 12116, Note_off_c, 10, 57, 117
12, 12120, Control_c, 10, 11, 96
12, 12156, Note_on_c, 10, 57, 127
12, 12196, Control_c, 10, 11, 97
12, 12288, Control_c, 10, 11, 98
12, 12312, Note_off_c, 10, 57, 127
12, 12656, Control_c, 10, 11, 100
12, 13320, Control_c, 10, 11, 98
12, 13520, Control_c, 10, 11, 96
12, 13560, Control_c, 10, 11, 92
12, 13620, Control_c, 10, 11, 86
12, 13664, Control_c, 10, 11, 84
12, 13732, Control_c, 10, 11, 78
12, 13804, Control_c, 10, 11, 75
12, 13840, Control_c, 10, 11, 71
12, 13912, Control_c, 10, 11, 69
12, 14008, Control_c, 10, 11, 67
12, 14072, Control_c, 10, 11, 66
12, 14424, Control_c, 10, 11, 68
12, 14452, Pitch_bend_c, 10, 6592
12, 14456, Control_c, 10, 11, 70
12, 14472, Pitch_bend_c, 10, 4736
12, 14492, Control_c, 10, 11, 75
12, 14496, Pitch_bend_c, 10, 2944
12, 14516, Pitch_bend_c, 10, 1536
12, 14532, Control_c, 10, 11, 80
12, 14536, Pitch_bend_c, 10, 768
12, 14556, Pitch_bend_c, 10, 640
12, 14568, Control_c, 10, 11, 88
12, 14576, Pitch_bend_c, 10, 1280
12, 14588, Note_on_c, 10, 57, 123
12, 14596, Pitch_bend_c, 10, 2944
12, 14604, Control_c, 10, 11, 93
12, 14616, Pitch_bend_c, 10, 5376
12, 14636, Pitch_bend_c, 10, 8192
12, 14780, Control_c, 10, 11, 94
12, 14828, Control_c, 10, 11, 97
12, 14876, Control_c, 10, 11, 98
12, 14960, Note_off_c, 10, 57, 123
12, 14972, Note_on_c, 10, 55, 127
12, 15204, Note_off_c, 10, 55, 127
12, 15232, Note_on_c, 10, 52, 127
12, 15348, Note_off_c, 10, 52, 127
12, 15468, Control_c, 10, 11, 100
12, 15868, Control_c, 10, 11, 100
12, 17100, Control_c, 10, 11, 97
12, 17152, Control_c, 10, 11, 88
12, 17184, Control_c, 10, 11, 82
12, 17228, Control_c, 10, 11, 75
12, 17296, Control_c, 10, 11, 68
12, 17432, Control_c, 10, 11, 66
12, 17468, Control_c, 10, 11, 64
12, 17592, Control_c, 10, 11, 65
12, 17640, Control_c, 10, 11, 68
12, 17652, Pitch_bend_c, 10, 704
12, 17660, Note_on_c, 10, 57, 108
12, 17672, Pitch_bend_c, 10, 3840
12, 17696, Pitch_bend_c, 10, 8192
12, 17708, Control_c, 10, 11, 74
12, 17740, Control_c, 10, 11, 76
12, 17788, Control_c, 10, 11, 77
12, 17820, Control_c, 10, 11, 79
12, 17852, Control_c, 10, 11, 82
12, 17892, Control_c, 10, 11, 85
12, 17924, Control_c, 10, 11, 87
12, 17972, Control_c, 10, 11, 89
12, 18024, Control_c, 10, 11, 94
12, 18056, Control_c, 10, 11, 96
12, 18088, Control_c, 10, 11, 98
12, 18188, Control_c, 10, 11, 100
12, 18284, Note_off_c, 10, 57, 108
12, 18308, Note_on_c, 10, 57, 127
12, 18468, Note_off_c, 10, 57, 127
12, 18688, Control_c, 10, 11, 98
12, 18760, Control_c, 10, 11, 97
12, 18892, Control_c, 10, 11, 95
12, 18940, Control_c, 10, 11, 93
12, 19024, Control_c, 10, 11, 88
12, 19060, Control_c, 10, 11, 86
12, 19108, Control_c, 10, 11, 83
12, 19156, Control_c, 10, 11, 79
12, 19208, Control_c, 10, 11, 77
12, 19260, Control_c, 10, 11, 75
12, 19352, Control_c, 10, 11, 73
12, 19420, Control_c, 10, 11, 70
12, 19688, Control_c, 10, 11, 68
12, 20552, Pitch_bend_c, 10, 7616
12, 20572, Pitch_bend_c, 10, 6272
12, 20592, Pitch_bend_c, 10, 4928
12, 20612, Pitch_bend_c, 10, 3648
12, 20632, Pitch_bend_c, 10, 2304
12, 20652, Pitch_bend_c, 10, 1024
12, 20732, Note_on_c, 10, 57, 123
12, 20736, Pitch_bend_c, 10, 2816
12, 20756, Pitch_bend_c, 10, 5376
12, 20776, Pitch_bend_c, 10, 8192
12, 20776, Control_c, 10, 11, 69
12, 20828, Control_c, 10, 11, 74
12, 20860, Control_c, 10, 11, 78
12, 20892, Control_c, 10, 11, 83
12, 20924, Control_c, 10, 11, 85
12, 20956, Control_c, 10, 11, 87
12, 21012, Control_c, 10, 11, 92
12, 21044, Control_c, 10, 11, 94
12, 21092, Control_c, 10, 11, 97
12, 21112, Note_off_c, 10, 57, 123
12, 21116, Note_on_c, 10, 55, 127
12, 21172, Control_c, 10, 11, 98
12, 21348, Note_off_c, 10, 55, 127
12, 21368, Control_c, 10, 11, 100
12, 21376, Note_on_c, 10, 52, 120
12, 21400, Control_c, 10, 11, 101
12, 21536, Note_off_c, 10, 52, 120
12, 21700, Control_c, 10, 11, 100
12, 21832, Control_c, 10, 11, 98
12, 21912, Control_c, 10, 11, 94
12, 21960, Control_c, 10, 11, 92
12, 21992, Control_c, 10, 11, 89
12, 22024, Control_c, 10, 11, 87
12, 22072, Control_c, 10, 11, 84
12, 22104, Control_c, 10, 11, 82
12, 22140, Control_c, 10, 11, 79
12, 22180, Control_c, 10, 11, 78
12, 22212, Control_c, 10, 11, 77
12, 22300, Control_c, 10, 11, 75
12, 22412, Control_c, 10, 11, 73
12, 22552, Control_c, 10, 11, 70
12, 22612, Control_c, 10, 11, 69
12, 23784, Control_c, 10, 11, 71
12, 23800, Note_on_c, 10, 57, 124
12, 23828, Control_c, 10, 11, 76
12, 23860, Control_c, 10, 11, 80
12, 23916, Control_c, 10, 11, 89
12, 23956, Control_c, 10, 11, 94
12, 24008, Control_c, 10, 11, 96
12, 24056, Note_off_c, 10, 57, 124
12, 24064, Note_on_c, 10, 55, 112
12, 24068, Control_c, 10, 11, 98
12, 24160, Note_off_c, 10, 55, 112
12, 24188, Note_on_c, 10, 52, 127
12, 24360, Note_off_c, 10, 52, 127
12, 24444, Note_on_c, 10, 52, 118
12, 24472, Control_c, 10, 11, 100
12, 24556, Control_c, 10, 11, 101
12, 24572, Note_off_c, 10, 52, 118
12, 24784, Control_c, 10, 11, 100
12, 24844, Control_c, 10, 11, 97
12, 24896, Control_c, 10, 11, 96
12, 24944, Control_c, 10, 11, 94
12, 24996, Control_c, 10, 11, 92
12, 25028, Control_c, 10, 11, 88
12, 25076, Control_c, 10, 11, 86
12, 25124, Control_c, 10, 11, 83
12, 25156, Control_c, 10, 11, 80
12, 25204, Control_c, 10, 11, 77
12, 25252, Control_c, 10, 11, 75
12, 25304, Control_c, 10, 11, 73
12, 25356, Control_c, 10, 11, 71
12, 25392, Control_c, 10, 11, 70
12, 25588, Control_c, 10, 11, 69
12, 25636, Control_c, 10, 11, 68
12, 26752, Pitch_bend_c, 10, 7872
12, 26772, Pitch_bend_c, 10, 6464
12, 26792, Pitch_bend_c, 10, 4352
12, 26816, Pitch_bend_c, 10, 1728
12, 26836, Pitch_bend_c, 10, 0
12, 26852, Control_c, 10, 11, 69
12, 26880, Note_on_c, 10, 57, 117
12, 26896, Pitch_bend_c, 10, 3904
12, 26916, Pitch_bend_c, 10, 8448
12, 26916, Control_c, 10, 11, 78
12, 26936, Pitch_bend_c, 10, 8192
12, 26956, Control_c, 10, 11, 84
12, 26992, Control_c, 10, 11, 89
12, 27044, Control_c, 10, 11, 92
12, 27120, Control_c, 10, 11, 95
12, 27156, Control_c, 10, 11, 96
12, 27196, Control_c, 10, 11, 97
12, 27244, Note_off_c, 10, 57, 117
12, 27248, Note_on_c, 10, 55, 111
12, 27372, Control_c, 10, 11, 98
12, 27476, Control_c, 10, 11, 100
12, 27496, Note_off_c, 10, 55, 111
12, 27500, Note_on_c, 10, 52, 123
12, 27620, Note_off_c, 10, 52, 123
12, 27808, Control_c, 10, 11, 100
12, 42228, Pitch_bend_c, 10, 1472
12, 42232, Note_on_c, 10, 57, 111
12, 42248, Pitch_bend_c, 10, 3200
12, 42268, Pitch_bend_c, 10, 5440
12, 42288, Pitch_bend_c, 10, 7040
12, 42308, Pitch_bend_c, 10, 8192
12, 42752, Note_off_c, 10, 57, 111
12, 42876, Note_on_c, 10, 57, 123
12, 42984, Note_off_c, 10, 57, 123
12, 45304, Pitch_bend_c, 10, 2816
12, 45324, Note_on_c, 10, 57, 123
12, 45344, Pitch_bend_c, 10, 3520
12, 45364, Pitch_bend_c, 10, 4672
12, 45384, Pitch_bend_c, 10, 6400
12, 45404, Pitch_bend_c, 10, 8192
12, 45692, Note_off_c, 10, 57, 123
12, 45696, Note_on_c, 10, 55, 127
12, 45936, Note_off_c, 10, 55, 127
12, 45960, Note_on_c, 10, 52, 123
12, 46092, Pitch_bend_c, 10, 5888
12, 46112, Pitch_bend_c, 10, 3712
12, 46128, Pitch_bend_c, 10, 1216
12, 46136, Note_off_c, 10, 52, 123
12, 46148, Pitch_bend_c, 10, 0
12, 46188, Pitch_bend_c, 10, 3904
12, 46208, Pitch_bend_c, 10, 6592
12, 46224, Pitch_bend_c, 10, 8192
12, 48376, Pitch_bend_c, 10, 1280
12, 48380, Note_on_c, 10, 57, 123
12, 48400, Pitch_bend_c, 10, 3840
12, 48420, Pitch_bend_c, 10, 7040
12, 48440, Pitch_bend_c, 10, 8192
12, 48732, Note_off_c, 10, 57, 123
12, 48768, Note_on_c, 10, 52, 127
12, 48988, Note_off_c, 10, 52, 127
12, 49020, Note_on_c, 10, 52, 112
12, 49176, Note_off_c, 10, 52, 112
12, 51316, Pitch_bend_c, 10, 6592
12, 51336, Pitch_bend_c, 10, 4736
12, 51360, Pitch_bend_c, 10, 2944
12, 51380, Pitch_bend_c, 10, 1536
12, 51400, Pitch_bend_c, 10, 768
12, 51420, Pitch_bend_c, 10, 640
12, 51440, Pitch_bend_c, 10, 1280
12, 51452, Note_on_c, 10, 57, 123
12, 51460, Pitch_bend_c, 10, 2944
12, 51480, Pitch_bend_c, 10, 5376
12, 51500, Pitch_bend_c, 10, 8192
12, 51824, Note_off_c, 10, 57, 123
12, 51836, Note_on_c, 10, 55, 127
12, 52068, Note_off_c, 10, 55, 127
12, 52096, Note_on_c, 10, 52, 127
12, 52212, Note_off_c, 10, 52, 127
12, 54520, Pitch_bend_c, 10, 1280
12, 54524, Note_on_c, 10, 57, 92
12, 54544, Pitch_bend_c, 10, 3840
12, 54564, Pitch_bend_c, 10, 7040
12, 54584, Pitch_bend_c, 10, 8192
12, 54876, Note_off_c, 10, 57, 92
12, 54912, Note_on_c, 10, 52, 88
12, 55132, Note_off_c, 10, 52, 88
12, 55164, Note_on_c, 10, 52, 83
12, 55320, Note_off_c, 10, 52, 83
12, 57416, Pitch_bend_c, 10, 7616
12, 57436, Pitch_bend_c, 10, 6272
12, 57456, Pitch_bend_c, 10, 4928
12, 57476, Pitch_bend_c, 10, 3648
12, 57496, Pitch_bend_c, 10, 2304
12, 57516, Pitch_bend_c, 10, 1024
12, 57600, Pitch_bend_c, 10, 2816
12, 57620, Pitch_bend_c, 10, 5376
12, 61440, End_track
13, 0, Start_track
13, 0, Title_t, "Guitar2"
13, 3312, Note_on_c, 11, 67, 38
13, 3320, Note_on_c, 11, 69, 37
13, 3328, Note_on_c, 11, 72, 40
13, 3340, Note_off_c, 11, 67, 38
13, 3368, Note_off_c, 11, 69, 37
13, 3376, Note_off_c, 11, 72, 40
13, 3696, Note_on_c, 11, 67, 46
13, 3704, Note_on_c, 11, 69, 39
13, 3712, Note_on_c, 11, 72, 30
13, 3724, Note_off_c, 11, 67, 46
13, 3752, Note_off_c, 11, 69, 39
13, 3760, Note_off_c, 11, 72, 30
13, 4216, Note_on_c, 11, 67, 49
13, 4224, Note_on_c, 11, 69, 37
13, 4228, Note_on_c, 11, 72, 29
13, 4244, Note_off_c, 11, 67, 49
13, 4272, Note_off_c, 11, 69, 37
13, 4276, Note_off_c, 11, 72, 29
13, 4980, Note_on_c, 11, 67, 34
13, 4988, Note_on_c, 11, 69, 38
13, 4992, Note_on_c, 11, 72, 43
13, 5012, Note_off_c, 11, 69, 38
13, 5020, Note_off_c, 11, 67, 34
13, 5036, Note_off_c, 11, 72, 43
13, 5740, Note_on_c, 11, 66, 36
13, 5748, Note_on_c, 11, 69, 40
13, 5752, Note_on_c, 11, 74, 39
13, 5784, Note_off_c, 11, 74, 39
13, 5784, Note_off_c, 11, 69, 40
13, 5796, Note_off_c, 11, 66, 36
13, 6524, Note_on_c, 11, 67, 41
13, 6528, Note_on_c, 11, 69, 42
13, 6532, Note_on_c, 11, 72, 35
13, 6556, Note_off_c, 11, 69, 42
13, 6572, Note_off_c, 11, 67, 41
13, 6580, Note_off_c, 11, 72, 35
13, 6788, Note_on_c, 11, 72, 44
13, 6796, Note_on_c, 11, 69, 39
13, 6804, Note_on_c, 11, 67, 41
13, 6816, Note_off_c, 11, 69, 39
13, 6832, Note_off_c, 11, 67, 41
13, 6832, Note_off_c, 11, 72, 44
13, 7288, Note_on_c, 11, 67, 40
13, 7296, Note_on_c, 11, 72, 36
13, 7300, Note_on_c, 11, 69, 38
13, 7332, Note_off_c, 11, 67, 40
13, 7340, Note_off_c, 11, 72, 36
13, 7352, Note_off_c, 11, 69, 38
13, 8056, Note_on_c, 11, 67, 39
13, 8060, Note_on_c, 11, 69, 46
13, 8068, Note_on_c, 11, 72, 35
13, 8084, Note_off_c, 11, 69, 46
13, 8100, Note_off_c, 11, 67, 39
13, 8112, Note_off_c, 11, 72, 35
13, 8824, Note_on_c, 11, 66, 37
13, 8832, Note_on_c, 11, 69, 42
13, 8836, Note_on_c, 11, 74, 40
13, 8872, Note_off_c, 11, 69, 42
13, 8880, Note_off_c, 11, 74, 40
13, 8888, Note_off_c, 11, 66, 37
13, 9592, Note_on_c, 11, 67, 48
13, 9600, Note_on_c, 11, 69, 40
13, 9604, Note_on_c, 11, 72, 38
13, 9628, Note_off_c, 11, 69, 40
13, 9640, Note_off_c, 11, 67, 48
13, 9652, Note_off_c, 11, 72, 38
13, 9860, Note_on_c, 11, 72, 46
13, 9868, Note_on_c, 11, 69, 48
13, 9876, Note_on_c, 11, 67, 42
13, 9888, Note_off_c, 11, 69, 48
13, 9904, Note_off_c, 11, 67, 42
13, 9904, Note_off_c, 11, 72, 46
13, 10360, Note_on_c, 11, 67, 43
13, 10364, Note_on_c, 11, 69, 38
13, 10368, Note_on_c, 11, 72, 39
13, 10392, Note_off_c, 11, 69, 38
13, 10392, Note_off_c, 11, 67, 43
13, 10412, Note_off_c, 11, 72, 39
13, 11124, Note_on_c, 11, 67, 45
13, 11132, Note_on_c, 11, 69, 48
13, 11136, Note_on_c, 11, 72, 34
13, 11164, Note_off_c, 11, 69, 48
13, 11172, Note_off_c, 11, 72, 34
13, 11176, Note_off_c, 11, 67, 45
13, 11900, Note_on_c, 11, 66, 31
13, 11908, Note_on_c, 11, 69, 49
13, 11908, Note_on_c, 11, 74, 47
13, 11944, Note_off_c, 11, 69, 49
13, 11948, Note_off_c, 11, 74, 47
13, 11960, Note_off_c, 11, 66, 31
13, 12664, Note_on_c, 11, 67, 52
13, 12668, Note_on_c, 11, 69, 44
13, 12676, Note_on_c, 11, 72, 54
13, 12688, Note_off_c, 11, 69, 44
13, 12712, Note_off_c, 11, 67, 52
13, 12720, Note_off_c, 11, 72, 54
13, 12932, Note_on_c, 11, 72, 25
13, 12940, Note_on_c, 11, 69, 36
13, 12944, Note_on_c, 11, 67, 44
13, 12960, Note_off_c, 11, 72, 25
13, 12964, Note_off_c, 11, 69, 36
13, 12984, Note_off_c, 11, 67, 44
13, 13432, Note_on_c, 11, 67, 50
13, 13440, Note_on_c, 11, 69, 39
13, 13444, Note_on_c, 11, 72, 41
13, 13460, Note_off_c, 11, 69, 39
13, 13468, Note_off_c, 11, 67, 50
13, 13488, Note_off_c, 11, 72, 41
13, 14200, Note_on_c, 11, 67, 40
13, 14208, Note_on_c, 11, 69, 45
13, 14212, Note_on_c, 11, 72, 41
13, 14236, Note_off_c, 11, 69, 45
13, 14240, Note_off_c, 11, 67, 40
13, 14256, Note_off_c, 11, 72, 41
13, 14968, Note_on_c, 11, 66, 42
13, 14976, Note_on_c, 11, 69, 38
13, 14984, Note_on_c, 11, 74, 40
13, 15004, Note_off_c, 11, 74, 40
13, 15016, Note_off_c, 11, 69, 38
13, 15028, Note_off_c, 11, 66, 42
13, 15616, Note_on_c, 11, 72, 81
13, 15628, Note_on_c, 11, 69, 79
13, 15636, Note_on_c, 11, 67, 74
13, 15660, Note_off_c, 11, 72, 81
13, 15676, Note_off_c, 11, 67, 74
13, 15676, Note_off_c, 11, 69, 79
13, 16000, Note_on_c, 11, 72, 77
13, 16012, Note_on_c, 11, 69, 69
13, 16020, Note_on_c, 11, 67, 67
13, 16044, Note_off_c, 11, 72, 77
13, 16060, Note_off_c, 11, 67, 67
13, 16060, Note_off_c, 11, 69, 69
13, 16500, Note_on_c, 11, 67, 66
13, 16500, Note_on_c, 11, 69, 66
13, 16500, Note_on_c, 11, 72, 73
13, 16524, Note_off_c, 11, 69, 66
13, 16540, Note_off_c, 11, 72, 73
13, 16540, Note_off_c, 11, 67, 66
13, 17276, Note_on_c, 11, 67, 60
13, 17280, Note_on_c, 11, 69, 60
13, 17284, Note_on_c, 11, 72, 66
13, 17300, Note_off_c, 11, 69, 60
13, 17316, Note_off_c, 11, 67, 60
13, 17328, Note_off_c, 11, 72, 66
13, 17536, Note_on_c, 11, 72, 54
13, 17548, Note_on_c, 11, 69, 48
13, 17552, Note_on_c, 11, 67, 54
13, 17568, Note_off_c, 11, 69, 48
13, 17572, Note_off_c, 11, 72, 54
13, 17580, Note_off_c, 11, 67, 54
13, 18040, Note_on_c, 11, 66, 40
13, 18044, Note_on_c, 11, 69, 60
13, 18048, Note_on_c, 11, 74, 42
13, 18084, Note_off_c, 11, 69, 60
13, 18088, Note_off_c, 11, 74, 42
13, 18092, Note_off_c, 11, 66, 40
13, 18808, Note_on_c, 11, 67, 60
13, 18816, Note_on_c, 11, 69, 48
13, 18820, Note_on_c, 11, 72, 48
13, 18836, Note_off_c, 11, 69, 48
13, 18848, Note_off_c, 11, 67, 60
13, 18860, Note_off_c, 11, 72, 48
13, 19080, Note_on_c, 11, 72, 60
13, 19084, Note_on_c, 11, 69, 66
13, 19092, Note_on_c, 11, 67, 60
13, 19108, Note_off_c, 11, 69, 66
13, 19124, Note_off_c, 11, 67, 60
13, 19124, Note_off_c, 11, 72, 60
13, 19576, Note_on_c, 11, 67, 60
13, 19580, Note_on_c, 11, 69, 48
13, 19584, Note_on_c, 11, 72, 60
13, 19600, Note_off_c, 11, 69, 48
13, 19616, Note_off_c, 11, 67, 60
13, 19624, Note_off_c, 11, 72, 60
13, 20344, Note_on_c, 11, 67, 73
13, 20348, Note_on_c, 11, 69, 60
13, 20352, Note_on_c, 11, 72, 60
13, 20392, Note_off_c, 11, 69, 60
13, 20400, Note_off_c, 11, 67, 73
13, 20408, Note_off_c, 11, 72, 60
13, 21120, Note_on_c, 11, 66, 54
13, 21128, Note_on_c, 11, 69, 60
13, 21132, Note_on_c, 11, 74, 60
13, 21160, Note_off_c, 11, 74, 60
13, 21164, Note_off_c, 11, 69, 60
13, 21180, Note_off_c, 11, 66, 54
13, 21880, Note_on_c, 11, 67, 73
13, 21884, Note_on_c, 11, 69, 45
13, 21892, Note_on_c, 11, 72, 45
13, 21924, Note_off_c, 11, 67, 73
13, 21932, Note_off_c, 11, 72, 45
13, 21932, Note_off_c, 11, 69, 45
13, 22152, Note_on_c, 11, 72, 70
13, 22160, Note_on_c, 11, 69, 66
13, 22164, Note_on_c, 11, 67, 70
13, 22180, Note_off_c, 11, 72, 70
13, 22196, Note_off_c, 11, 69, 66
13, 22208, Note_off_c, 11, 67, 70
13, 22644, Note_on_c, 11, 67, 73
13, 22648, Note_on_c, 11, 69, 73
13, 22652, Note_on_c, 11, 72, 79
13, 22688, Note_off_c, 11, 69, 73
13, 22688, Note_off_c, 11, 67, 73
13, 22700, Note_off_c, 11, 72, 79
13, 23412, Note_on_c, 11, 67, 66
13, 23416, Note_on_c, 11, 69, 66
13, 23424, Note_on_c, 11, 72, 73
13, 23452, Note_off_c, 11, 69, 66
13, 23464, Note_off_c, 11, 67, 66
13, 23468, Note_off_c, 11, 72, 73
13, 24172, Note_on_c, 11, 66, 42
13, 24180, Note_on_c, 11, 69, 60
13, 24180, Note_on_c, 11, 74, 48
13, 24212, Note_off_c, 11, 74, 48
13, 24220, Note_off_c, 11, 69, 60
13, 24232, Note_off_c, 11, 66, 42
13, 24948, Note_on_c, 11, 67, 66
13, 24956, Note_on_c, 11, 69, 66
13, 24960, Note_on_c, 11, 72, 66
13, 24980, Note_off_c, 11, 69, 66
13, 24992, Note_off_c, 11, 67, 66
13, 25000, Note_off_c, 11, 72, 66
13, 25220, Note_on_c, 11, 72, 66
13, 25232, Note_on_c, 11, 69, 60
13, 25240, Note_on_c, 11, 67, 66
13, 25248, Note_off_c, 11, 69, 60
13, 25264, Note_off_c, 11, 72, 66
13, 25276, Note_off_c, 11, 67, 66
13, 25716, Note_on_c, 11, 67, 66
13, 25724, Note_on_c, 11, 69, 60
13, 25728, Note_on_c, 11, 72, 60
13, 25748, Note_off_c, 11, 69, 60
13, 25760, Note_off_c, 11, 67, 66
13, 25768, Note_off_c, 11, 72, 60
13, 26488, Note_on_c, 11, 67, 66
13, 26496, Note_on_c, 11, 69, 58
13, 26500, Note_on_c, 11, 72, 60
13, 26532, Note_off_c, 11, 69, 58
13, 26536, Note_off_c, 11, 67, 66
13, 26544, Note_off_c, 11, 72, 60
13, 27256, Note_on_c, 11, 66, 48
13, 27264, Note_on_c, 11, 69, 60
13, 27268, Note_on_c, 11, 74, 54
13, 27296, Note_off_c, 11, 69, 60
13, 27308, Note_off_c, 11, 74, 54
13, 27320, Note_off_c, 11, 66, 48
13, 28020, Note_on_c, 11, 67, 66
13, 28028, Note_on_c, 11, 69, 66
13, 28032, Note_on_c, 11, 72, 66
13, 28052, Note_off_c, 11, 69, 66
13, 28064, Note_off_c, 11, 67, 66
13, 28072, Note_off_c, 11, 72, 66
13, 28292, Note_on_c, 11, 72, 66
13, 28300, Note_on_c, 11, 69, 60
13, 28312, Note_on_c, 11, 67, 66
13, 28320, Note_off_c, 11, 69, 60
13, 28336, Note_off_c, 11, 72, 66
13, 28348, Note_off_c, 11, 67, 66
13, 28792, Note_on_c, 11, 67, 61
13, 28796, Note_on_c, 11, 69, 60
13, 28800, Note_on_c, 11, 72, 60
13, 28820, Note_off_c, 11, 69, 60
13, 28832, Note_off_c, 11, 67, 61
13, 28840, Note_off_c, 11, 72, 60
13, 29560, Note_on_c, 11, 66, 48
13, 29564, Note_on_c, 11, 72, 67
13, 29568, Note_on_c, 11, 76, 64
13, 29612, Note_off_c, 11, 72, 67
13, 29616, Note_off_c, 11, 76, 64
13, 29620, Note_off_c, 11, 66, 48
13, 30328, Note_on_c, 11, 64, 48
13, 30336, Note_on_c, 11, 70, 73
13, 30340, Note_on_c, 11, 74, 64
13, 30376, Note_off_c, 11, 70, 73
13, 30392, Note_off_c, 11, 74, 64
13, 30392, Note_off_c, 11, 64, 48
13, 31096, Note_on_c, 11, 63, 66
13, 31096, Note_on_c, 11, 69, 61
13, 31104, Note_on_c, 11, 72, 68
13, 31140, Note_off_c, 11, 69, 61
13, 31148, Note_off_c, 11, 63, 66
13, 31160, Note_off_c, 11, 72, 68
13, 31864, Note_on_c, 11, 62, 54
13, 31868, Note_on_c, 11, 68, 52
13, 31876, Note_on_c, 11, 72, 40
13, 31896, Note_off_c, 11, 68, 52
13, 31896, Note_off_c, 11, 62, 54
13, 31908, Note_off_c, 11, 72, 40
13, 32128, Note_on_c, 11, 72, 62
13, 32140, Note_on_c, 11, 69, 58
13, 32148, Note_on_c, 11, 66, 66
13, 32556, Note_off_c, 11, 69, 58
13, 32556, Note_off_c, 11, 72, 62
13, 32572, Note_off_c, 11, 66, 66
13, 32632, Note_on_c, 11, 66, 60
13, 32636, Note_on_c, 11, 69, 65
13, 32640, Note_on_c, 11, 72, 60
13, 32660, Note_off_c, 11, 69, 65
13, 32664, Note_off_c, 11, 66, 60
13, 32684, Note_off_c, 11, 72, 60
13, 33404, Note_on_c, 11, 66, 60
13, 33404, Note_on_c, 11, 69, 54
13, 33408, Note_on_c, 11, 72, 54
13, 33428, Note_off_c, 11, 69, 54
13, 33448, Note_off_c, 11, 66, 60
13, 33456, Note_off_c, 11, 72, 54
13, 34164, Note_on_c, 11, 66, 66
13, 34168, Note_on_c, 11, 69, 72
13, 34176, Note_on_c, 11, 72, 60
13, 34200, Note_off_c, 11, 69, 72
13, 34212, Note_off_c, 11, 66, 66
13, 34220, Note_off_c, 11, 72, 60
13, 34936, Note_on_c, 11, 64, 60
13, 34940, Note_on_c, 11, 67, 67
13, 34944, Note_on_c, 11, 73, 60
13, 34964, Note_off_c, 11, 67, 67
13, 34968, Note_off_c, 11, 64, 60
13, 34984, Note_off_c, 11, 73, 60
13, 35204, Note_on_c, 11, 76, 69
13, 35212, Note_on_c, 11, 72, 66
13, 35220, Note_on_c, 11, 66, 61
13, 35248, Note_off_c, 11, 72, 66
13, 35248, Note_off_c, 11, 76, 69
13, 35264, Note_off_c, 11, 66, 61
13, 35704, Note_on_c, 11, 66, 68
13, 35708, Note_on_c, 11, 72, 64
13, 35712, Note_on_c, 11, 76, 60
13, 35736, Note_off_c, 11, 72, 64
13, 35736, Note_off_c, 11, 66, 68
13, 35756, Note_off_c, 11, 76, 60
13, 36472, Note_on_c, 11, 68, 68
13, 36476, Note_on_c, 11, 71, 55
13, 36480, Note_on_c, 11, 74, 66
13, 36516, Note_off_c, 11, 71, 55
13, 36520, Note_off_c, 11, 68, 68
13, 36528, Note_off_c, 11, 74, 66
13, 37240, Note_on_c, 11, 64, 43
13, 37244, Note_on_c, 11, 67, 49
13, 37248, Note_on_c, 11, 72, 52
13, 37288, Note_off_c, 11, 67, 49
13, 37292, Note_off_c, 11, 64, 43
13, 37300, Note_off_c, 11, 72, 52
13, 38008, Note_on_c, 11, 64, 52
13, 38012, Note_on_c, 11, 67, 52
13, 38020, Note_on_c, 11, 72, 53
13, 38044, Note_off_c, 11, 67, 52
13, 38052, Note_off_c, 11, 64, 52
13, 38064, Note_off_c, 11, 72, 53
13, 38276, Note_on_c, 11, 76, 69
13, 38284, Note_on_c, 11, 72, 72
13, 38288, Note_on_c, 11, 65, 67
13, 38700, Note_off_c, 11, 76, 69
13, 38704, Note_off_c, 11, 72, 72
13, 38724, Note_off_c, 11, 65, 67
13, 38776, Note_on_c, 11, 65, 66
13, 38780, Note_on_c, 11, 72, 66
13, 38788, Note_on_c, 11, 76, 60
13, 38816, Note_off_c, 11, 65, 66
13, 38828, Note_off_c, 11, 72, 66
13, 38832, Note_off_c, 11, 76, 60
13, 39544, Note_on_c, 11, 65, 62
13, 39548, Note_on_c, 11, 72, 65
13, 39552, Note_on_c, 11, 76, 73
13, 39588, Note_off_c, 11, 72, 65
13, 39588, Note_off_c, 11, 65, 62
13, 39596, Note_off_c, 11, 76, 73
13, 39800, Note_on_c, 11, 74, 65
13, 39808, Note_on_c, 11, 71, 63
13, 39812, Note_on_c, 11, 68, 66
13, 40120, Note_off_c, 11, 71, 63
13, 40120, Note_off_c, 11, 74, 65
13, 40128, Note_off_c, 11, 68, 66
13, 40196, Note_on_c, 11, 72, 68
13, 40204, Note_on_c, 11, 69, 57
13, 40212, Note_on_c, 11, 67, 66
13, 40224, Note_off_c, 11, 69, 57
13, 40240, Note_off_c, 11, 67, 66
13, 40240, Note_off_c, 11, 72, 68
13, 40580, Note_on_c, 11, 72, 60
13, 40588, Note_on_c, 11, 69, 48
13, 40596, Note_on_c, 11, 67, 54
13, 40608, Note_off_c, 11, 69, 48
13, 40624, Note_off_c, 11, 67, 54
13, 40624, Note_off_c, 11, 72, 60
13, 41080, Note_on_c, 11, 67, 66
13, 41088, Note_on_c, 11, 69, 54
13, 41092, Note_on_c, 11, 72, 42
13, 41108, Note_off_c, 11, 67, 66
13, 41136, Note_off_c, 11, 69, 54
13, 41140, Note_off_c, 11, 72, 42
13, 41348, Note_on_c, 11, 72, 68
13, 41356, Note_on_c, 11, 69, 57
13, 41364, Note_on_c, 11, 67, 66
13, 41376, Note_off_c, 11, 69, 57
13, 41392, Note_off_c, 11, 67, 66
13, 41392, Note_off_c, 11, 72, 68
13, 41844, Note_on_c, 11, 67, 66
13, 41852, Note_on_c, 11, 69, 66
13, 41856, Note_on_c, 11, 72, 66
13, 41876, Note_off_c, 11, 69, 66
13, 41884, Note_off_c, 11, 67, 66
13, 41900, Note_off_c, 11, 72, 66
13, 42604, Note_on_c, 11, 66, 48
13, 42612, Note_on_c, 11, 69, 66
13, 42616, Note_on_c, 11, 74, 48
13, 42648, Note_off_c, 11, 74, 48
13, 42648, Note_off_c, 11, 69, 66
13, 42660, Note_off_c, 11, 66, 48
13, 43388, Note_on_c, 11, 67, 66
13, 43392, Note_on_c, 11, 69, 60
13, 43396, Note_on_c, 11, 72, 60
13, 43420, Note_off_c, 11, 69, 60
13, 43436, Note_off_c, 11, 67, 66
13, 43444, Note_off_c, 11, 72, 60
13, 43652, Note_on_c, 11, 72, 60
13, 43660, Note_on_c, 11, 69, 48
13, 43668, Note_on_c, 11, 67, 54
13, 43680, Note_off_c, 11, 69, 48
13, 43696, Note_off_c, 11, 67, 54
13, 43696, Note_off_c, 11, 72, 60
13, 44152, Note_on_c, 11, 67, 57
13, 44160, Note_on_c, 11, 72, 56
13, 44164, Note_on_c, 11, 69, 54
13, 44196, Note_off_c, 11, 67, 57
13, 44204, Note_off_c, 11, 72, 56
13, 44216, Note_off_c, 11, 69, 54
13, 44920, Note_on_c, 11, 67, 60
13, 44924, Note_on_c, 11, 69, 66
13, 44932, Note_on_c, 11, 72, 66
13, 44948, Note_off_c, 11, 69, 66
13, 44964, Note_off_c, 11, 67, 60
13, 44976, Note_off_c, 11, 72, 66
13, 45688, Note_on_c, 11, 66, 48
13, 45696, Note_on_c, 11, 69, 60
13, 45700, Note_on_c, 11, 74, 54
13, 45736, Note_off_c, 11, 69, 60
13, 45744, Note_off_c, 11, 74, 54
13, 45752, Note_off_c, 11, 66, 48
13, 46456, Note_on_c, 11, 67, 66
13, 46464, Note_on_c, 11, 69, 60
13, 46468, Note_on_c, 11, 72, 60
13, 46492, Note_off_c, 11, 69, 60
13, 46504, Note_off_c, 11, 67, 66
13, 46516, Note_off_c, 11, 72, 60
13, 46724, Note_on_c, 11, 72, 60
13, 46732, Note_on_c, 11, 69, 48
13, 46740, Note_on_c, 11, 67, 54
13, 46752, Note_off_c, 11, 69, 48
13, 46768, Note_off_c, 11, 67, 54
13, 46768, Note_off_c, 11, 72, 60
13, 47224, Note_on_c, 11, 67, 66
13, 47228, Note_on_c, 11, 69, 54
13, 47232, Note_on_c, 11, 72, 54
13, 47256, Note_off_c, 11, 69, 54
13, 47256, Note_off_c, 11, 67, 66
13, 47276, Note_off_c, 11, 72, 54
13, 47988, Note_on_c, 11, 67, 60
13, 47996, Note_on_c, 11, 69, 58
13, 48000, Note_on_c, 11, 72, 48
13, 48028, Note_off_c, 11, 69, 58
13, 48036, Note_off_c, 11, 72, 48
13, 48040, Note_off_c, 11, 67, 60
13, 48764, Note_on_c, 11, 66, 42
13, 48772, Note_on_c, 11, 69, 60
13, 48772, Note_on_c, 11, 74, 54
13, 48808, Note_off_c, 11, 69, 60
13, 48812, Note_off_c, 11, 74, 54
13, 48824, Note_off_c, 11, 66, 42
13, 49528, Note_on_c, 11, 67, 48
13, 49532, Note_on_c, 11, 69, 37
13, 49540, Note_on_c, 11, 72, 56
13, 49552, Note_off_c, 11, 69, 37
13, 49576, Note_off_c, 11, 67, 48
13, 49584, Note_off_c, 11, 72, 56
13, 49796, Note_on_c, 11, 72, 37
13, 49804, Note_on_c, 11, 69, 39
13, 49808, Note_on_c, 11, 67, 41
13, 49824, Note_off_c, 11, 72, 37
13, 49828, Note_off_c, 11, 69, 39
13, 49848, Note_off_c, 11, 67, 41
13, 50296, Note_on_c, 11, 67, 53
13, 50304, Note_on_c, 11, 69, 42
13, 50308, Note_on_c, 11, 72, 40
13, 50324, Note_off_c, 11, 69, 42
13, 50332, Note_off_c, 11, 67, 53
13, 50352, Note_off_c, 11, 72, 40
13, 51064, Note_on_c, 11, 67, 37
13, 51072, Note_on_c, 11, 69, 38
13, 51076, Note_on_c, 11, 72, 43
13, 51100, Note_off_c, 11, 69, 38
13, 51104, Note_off_c, 11, 67, 37
13, 51120, Note_off_c, 11, 72, 43
13, 51832, Note_on_c, 11, 66, 27
13, 51840, Note_on_c, 11, 69, 32
13, 51848, Note_on_c, 11, 74, 34
13, 51868, Note_off_c, 11, 74, 34
13, 51880, Note_off_c, 11, 69, 32
13, 51892, Note_off_c, 11, 66, 27
13, 52600, Note_on_c, 11, 67, 28
13, 52608, Note_on_c, 11, 69, 20
13, 52612, Note_on_c, 11, 72, 27
13, 52636, Note_off_c, 11, 69, 20
13, 52644, Note_off_c, 11, 67, 28
13, 52660, Note_off_c, 11, 72, 27
13, 52864, Note_on_c, 11, 72, 23
13, 52876, Note_on_c, 11, 69, 19
13, 52884, Note_on_c, 11, 67, 19
13, 52908, Note_off_c, 11, 72, 23
13, 52924, Note_off_c, 11, 67, 19
13, 52924, Note_off_c, 11, 69, 19
13, 53360, Note_on_c, 11, 67, 16
13, 53364, Note_on_c, 11, 69, 17
13, 53372, Note_on_c, 11, 72, 13
13, 53388, Note_off_c, 11, 69, 17
13, 53404, Note_off_c, 11, 67, 16
13, 53412, Note_off_c, 11, 72, 13
13, 54140, Note_on_c, 11, 67, 11
13, 54144, Note_on_c, 11, 69, 13
13, 54148, Note_on_c, 11, 72, 10
13, 54164, Note_off_c, 11, 69, 13
13, 54180, Note_off_c, 11, 67, 11
13, 54192, Note_off_c, 11, 72, 10
13, 54400, Note_on_c, 11, 72, 16
13, 54412, Note_on_c, 11, 69, 8
13, 54416, Note_on_c, 11, 67, 17
13, 54432, Note_off_c, 11, 69, 8
13, 54436, Note_off_c, 11, 72, 16
13, 54444, Note_off_c, 11, 67, 17
13, 54904, Note_on_c, 11, 67, 32
13, 54912, Note_on_c, 11, 69, 40
13, 54916, Note_on_c, 11, 74, 48
13, 55124, Note_off_c, 11, 69, 40
13, 55140, Note_off_c, 11, 67, 32
13, 55148, Note_off_c, 11, 74, 48
13, 55176, Note_on_c, 11, 72, 60
13, 55180, Note_on_c, 11, 69, 66
13, 55188, Note_on_c, 11, 67, 60
13, 55204, Note_off_c, 11, 69, 66
13, 55220, Note_off_c, 11, 67, 60
13, 55220, Note_off_c, 11, 72, 60
13, 56832, End_track
14, 0, Start_track
14, 0, Title_t, "Organ"
14, 55660, Note_on_c, 13, 45, 115
14, 55660, Note_on_c, 13, 57, 115
14, 55760, Note_off_c, 13, 57, 115
14, 55760, Note_off_c, 13, 45, 115
14, 55860, Note_on_c, 13, 45, 115
14, 55860, Note_on_c, 13, 57, 115
14, 55952, Note_off_c, 13, 57, 115
14, 55952, Note_off_c, 13, 45, 115
14, 56052, Note_on_c, 13, 48, 96
14, 56052, Note_on_c, 13, 60, 96
14, 56156, Note_off_c, 13, 60, 96
14, 56156, Note_off_c, 13, 48, 96
14, 56240, Note_on_c, 13, 48, 115
14, 56240, Note_on_c, 13, 60, 115
14, 56352, Note_off_c, 13, 60, 115
14, 56352, Note_off_c, 13, 48, 115
14, 56440, Note_on_c, 13, 45, 121
14, 56440, Note_on_c, 13, 57, 121
14, 56632, Note_off_c, 13, 57, 121
14, 56632, Note_off_c, 13, 45, 121
14, 56640, Note_on_c, 13, 40, 115
14, 56640, Note_on_c, 13, 52, 115
14, 56832, Control_c, 13, 10, 8
14, 56840, Note_on_c, 13, 43, 121
14, 56840, Note_on_c, 13, 55, 121
14, 56852, Note_off_c, 13, 52, 115
14, 56852, Note_off_c, 13, 40, 115
14, 56928, Control_c, 13, 10, 11
14, 57024, Control_c, 13, 10, 13
14, 57120, Control_c, 13, 10, 16
14, 57184, Note_on_c, 13, 45, 121
14, 57184, Note_on_c, 13, 57, 121
14, 57216, Control_c, 13, 10, 18
14, 57244, Note_off_c, 13, 55, 121
14, 57244, Note_off_c, 13, 43, 121
14, 57312, Control_c, 13, 10, 21
14, 57336, Note_off_c, 13, 57, 121
14, 57336, Note_off_c, 13, 45, 121
14, 57408, Control_c, 13, 10, 23
14, 57504, Control_c, 13, 10, 25
14, 57584, Note_on_c, 13, 26, 127
14, 57584, Note_on_c, 13, 45, 127
14, 57584, Note_on_c, 13, 50, 127
14, 57584, Note_on_c, 13, 57, 127
14, 57584, Note_on_c, 13, 62, 127
14, 57600, Control_c, 13, 10, 28
14, 57600, Control_c, 13, 11, 84
14, 57696, Control_c, 13, 10, 30
14, 57696, Control_c, 13, 11, 86
14, 57792, Control_c, 13, 10, 33
14, 57792, Control_c, 13, 11, 88
14, 57888, Control_c, 13, 10, 35
14, 57888, Control_c, 13, 11, 89
14, 57984, Control_c, 13, 10, 38
14, 57984, Control_c, 13, 11, 91
14, 58080, Control_c, 13, 10, 40
14, 58080, Control_c, 13, 11, 93
14, 58176, Control_c, 13, 10, 42
14, 58176, Control_c, 13, 11, 95
14, 58272, Control_c, 13, 10, 45
14, 58272, Control_c, 13, 11, 97
14, 58336, Note_off_c, 13, 26, 127
14, 58340, Note_off_c, 13, 62, 127
14, 58340, Note_off_c, 13, 57, 127
14, 58340, Note_off_c, 13, 50, 127
14, 58340, Note_off_c, 13, 45, 127
14, 58352, Note_on_c, 13, 33, 127
14, 58360, Note_on_c, 13, 52, 127
14, 58360, Note_on_c, 13, 64, 127
14, 58364, Note_on_c, 13, 50, 127
14, 58364, Note_on_c, 13, 62, 127
14, 58368, Control_c, 13, 10, 47
14, 58368, Control_c, 13, 11, 99
14, 58464, Control_c, 13, 10, 50
14, 58464, Control_c, 13, 11, 101
14, 58560, Control_c, 13, 10, 52
14, 58560, Control_c, 13, 11, 103
14, 58656, Control_c, 13, 10, 54
14, 58656, Control_c, 13, 11, 105
14, 58748, Note_on_c, 13, 49, 127
14, 58748, Note_on_c, 13, 61, 127
14, 58752, Control_c, 13, 10, 57
14, 58752, Control_c, 13, 11, 107
14, 58812, Note_off_c, 13, 62, 127
14, 58812, Note_off_c, 13, 50, 127
14, 58848, Control_c, 13, 10, 59
14, 58848, Control_c, 13, 11, 108
14, 58944, Control_c, 13, 10, 62
14, 58944, Control_c, 13, 11, 110
14, 58944, Note_on_c, 13, 47, 122
14, 58944, Note_on_c, 13, 59, 122
14, 58964, Note_off_c, 13, 61, 127
14, 58964, Note_off_c, 13, 49, 127
14, 59040, Control_c, 13, 10, 64
14, 59040, Control_c, 13, 11, 112
14, 59136, Control_c, 13, 10, 67
14, 59136, Control_c, 13, 11, 114
14, 59140, Note_on_c, 13, 49, 121
14, 59140, Note_on_c, 13, 61, 121
14, 59176, Note_off_c, 13, 59, 122
14, 59176, Note_off_c, 13, 47, 122
14, 59232, Control_c, 13, 10, 69
14, 59232, Control_c, 13, 11, 116
14, 59328, Control_c, 13, 10, 71
14, 59328, Control_c, 13, 11, 118
14, 59424, Control_c, 13, 10, 74
14, 59424, Control_c, 13, 11, 120
14, 59520, Control_c, 13, 10, 76
14, 59520, Control_c, 13, 11, 122
14, 59616, Control_c, 13, 10, 79
14, 59616, Control_c, 13, 11, 124
14, 59712, Control_c, 13, 10, 81
14, 59712, Control_c, 13, 11, 126
14, 59808, Control_c, 13, 10, 84
14, 59872, Note_off_c, 13, 61, 121
14, 59872, Note_off_c, 13, 49, 121
14, 59880, Note_off_c, 13, 33, 127
14, 59884, Note_off_c, 13, 64, 127
14, 59884, Note_off_c, 13, 52, 127
14, 61440, End_track
0, 0, End_of_file