0, 0, Header, 1, 3, 256
1, 0, Start_track
1, 0, Time_signature, 4, 2, 24, 8
1, 400, Note_on_c, 15, 76, 100
1, 500, Note_on_c, 15, 42, 100
1, 600, Note_on_c, 15, 46, 100
1, 700, Note_on_c, 15, 42, 100
1, 800, Note_on_c, 15, 46, 100
1, 900, Note_on_c, 15, 42, 100
1, 1000, Note_on_c, 15, 62, 100
1, 1100, Note_on_c, 15, 46, 100
1, 1200, Note_on_c, 15, 42, 100
1, 1300, Note_on_c, 15, 41, 100
1, 1400, Note_on_c, 15, 41, 100
1, 1500, Note_on_c, 15, 42, 100
1, 1600, Note_on_c, 15, 42, 100
1, 1700, Note_on_c, 15, 42, 100
1, 1800, Note_on_c, 15, 42, 100
1, 1900, Note_on_c, 15, 45, 100
1, 2000, Note_on_c, 15, 42, 100
1, 2100, Note_on_c, 15, 42, 100
1, 2200, Note_on_c, 15, 36, 100
1, 2300, Note_on_c, 15, 42, 100
1, 2400, Note_on_c, 15, 41, 100
1, 2500, Note_on_c, 15, 36, 100
1, 2600, Note_on_c, 15, 42, 100
1, 2700, Note_on_c, 15, 42, 100
1, 2800, Note_on_c, 15, 42, 100
1, 2900, Note_on_c, 15, 46, 100
1, 3000, Note_on_c, 15, 36, 100
1, 3100, Note_on_c, 15, 42, 100
1, 3200, Note_on_c, 15, 40, 100
1, 3300, Note_on_c, 15, 36, 100
1, 3400, Note_on_c, 15, 42, 100
1, 3500, Note_on_c, 15, 89, 100
1, 3600, Note_on_c, 15, 42, 100
1, 3700, Note_on_c, 15, 46, 100
1, 3800, Note_on_c, 15, 42, 100
1, 3900, Note_on_c, 15, 42, 100
1, 4000, Note_on_c, 15, 42, 100
1, 4100, Note_on_c, 15, 46, 100
1, 4200, Note_on_c, 15, 36, 100
1, 4300, Note_on_c, 15, 46, 100
1, 4400, Note_on_c, 15, 36, 100
1, 4500, Note_on_c, 15, 42, 100
1, 4600, Note_on_c, 15, 46, 100
1, 4700, Note_on_c, 15, 41, 100
1, 4800, Note_on_c, 15, 42, 100
1, 4900, Note_on_c, 15, 46, 100
1, 5000, Note_on_c, 15, 42, 100
1, 5100, Note_on_c, 15, 41, 100
1, 5200, Note_on_c, 15, 42, 100
1, 5300, Note_on_c, 15, 46, 100
1, 5400, Note_on_c, 15, 42, 100
1, 5500, Note_on_c, 15, 42, 100
1, 5600, Note_on_c, 15, 36, 100
1, 5700, Note_on_c, 15, 46, 100
1, 5800, Note_on_c, 15, 46, 100
1, 5900, Note_on_c, 15, 46, 100
1, 6000, Note_on_c, 15, 46, 100
1, 6100, Note_on_c, 15, 42, 100
1, 6200, Note_on_c, 15, 42, 100
1, 6300, Note_on_c, 15, 42, 100
1, 6400, Note_on_c, 15, 36, 100
1, 6500, Note_on_c, 15, 41, 100
1, 6600, Note_on_c, 15, 42, 100
1, 6700, Note_on_c, 15, 42, 100
1, 6800, Note_on_c, 15, 42, 100
1, 6900, Note_on_c, 15, 42, 100
1, 7000, Note_on_c, 15, 36, 100
1, 7100, Note_on_c, 15, 42, 100
1, 7200, Note_on_c, 15, 41, 100
1, 7300, Note_on_c, 15, 36, 100
1, 7400, Note_on_c, 15, 42, 100
1, 7500, Note_on_c, 15, 42, 100
1, 7600, Note_on_c, 15, 36, 100
1, 7700, Note_on_c, 15, 36, 100
1, 7800, Note_on_c, 15, 41, 100
1, 7900, Note_on_c, 15, 42, 100
1, 8000, Note_on_c, 15, 41, 100
1, 8100, Note_on_c, 15, 42, 100
1, 8200, Note_on_c, 15, 36, 100
1, 8300, Note_on_c, 15, 36, 100
1, 8400, Note_on_c, 15, 36, 100
1, 8500, Note_on_c, 15, 42, 100
1, 8600, Note_on_c, 15, 41, 100
1, 8700, Note_on_c, 15, 42, 100
1, 8800, Note_on_c, 15, 42, 100
1, 8900, Note_on_c, 15, 42, 100
1, 9000, Note_on_c, 15, 42, 100
1, 9100, Note_on_c, 15, 42, 100
1, 9200, Note_on_c, 15, 42, 100
1, 9300, Note_on_c, 15, 42, 100
1, 9400, Note_on_c, 15, 42, 100
1, 9500, Note_on_c, 15, 42, 100
1, 9600, Note_on_c, 15, 42, 100
1, 9700, Note_on_c, 15, 74, 100
1, 9800, Note_on_c, 15, 41, 100
1, 9900, Note_on_c, 15, 42, 100
1, 10000, Note_on_c, 15, 36, 100
1, 10100, Note_on_c, 15, 36, 100
1, 10200, Note_on_c, 15, 41, 100
1, 10300, Note_on_c, 15, 42, 100
1, 10400, Note_on_c, 15, 46, 100
1, 10500, Note_on_c, 15, 36, 100
1, 10600, Note_on_c, 15, 42, 100
1, 10700, Note_on_c, 15, 36, 100
1, 10800, Note_on_c, 15, 41, 100
1, 10900, Note_on_c, 15, 42, 100
1, 11000, Note_on_c, 15, 41, 100
1, 11100, Note_on_c, 15, 41, 100
1, 11200, Note_on_c, 15, 41, 100
1, 11300, Note_on_c, 15, 42, 100
1, 11400, Note_on_c, 15, 36, 100
1, 11500, Note_on_c, 15, 46, 100
1, 11600, Note_on_c, 15, 42, 100
1, 11700, Note_on_c, 15, 36, 100
1, 11800, Note_on_c, 15, 42, 100
1, 11900, Note_on_c, 15, 42, 100
1, 12000, Note_on_c, 15, 42, 100
1, 12100, Note_on_c, 15, 42, 100
1, 12200, Note_on_c, 15, 42, 100
1, 12300, Note_on_c, 15, 42, 100
1, 12400, Note_on_c, 15, 36, 100
1, 12500, Note_on_c, 15, 42, 100
1, 12600, Note_on_c, 15, 46, 100
1, 12700, Note_on_c, 15, 42, 100
1, 12800, Note_on_c, 15, 42, 100
1, 12900, Note_on_c, 15, 42, 100
1, 13000, Note_on_c, 15, 42, 100
1, 13100, Note_on_c, 15, 42, 100
1, 13200, Note_on_c, 15, 46, 100
1, 13300, Note_on_c, 15, 42, 100
1, 13400, Note_on_c, 15, 42, 100
1, 13500, Note_on_c, 15, 36, 100
1, 13600, Note_on_c, 15, 42, 100
1, 13700, Note_on_c, 15, 41, 100
1, 13800, Note_on_c, 15, 42, 100
1, 13900, Note_on_c, 15, 46, 100
1, 14000, Note_on_c, 15, 46, 100
1, 14100, Note_on_c, 15, 42, 100
1, 14200, Note_on_c, 15, 42, 100
1, 14300, Note_on_c, 15, 41, 100
1, 14400, Note_on_c, 15, 40, 100
1, 14500, Note_on_c, 15, 36, 100
1, 14600, Note_on_c, 15, 46, 100
1, 14700, Note_on_c, 15, 42, 100
1, 14800, Note_on_c, 15, 42, 100
1, 14900, Note_on_c, 15, 46, 100
1, 15000, Note_on_c, 15, 42, 100
1, 15100, Note_on_c, 15, 36, 100
1, 15200, Note_on_c, 15, 42, 100
1, 15300, Note_on_c, 15, 46, 100
1, 15400, Note_on_c, 15, 41, 100
1, 15500, Note_on_c, 15, 41, 100
1, 15600, Note_on_c, 15, 40, 100
1, 15700, Note_on_c, 15, 74, 100
1, 15800, Note_on_c, 15, 42, 100
1, 15900, Note_on_c, 15, 36, 100
1, 16000, Note_on_c, 15, 42, 100
1, 16100, Note_on_c, 15, 36, 100
1, 16200, Note_on_c, 15, 42, 100
1, 16300, Note_on_c, 15, 41, 100
1, 16400, Note_on_c, 15, 42, 100
1, 16500, Note_on_c, 15, 46, 100
1, 16600, Note_on_c, 15, 42, 100
1, 16700, Note_on_c, 15, 41, 100
1, 16800, Note_on_c, 15, 42, 100
1, 16900, Note_on_c, 15, 46, 100
1, 17000, Note_on_c, 15, 42, 100
1, 17100, Note_on_c, 15, 41, 100
1, 17200, Note_on_c, 15, 36, 100
1, 17300, Note_on_c, 15, 46, 100
1, 17400, Note_on_c, 15, 41, 100
1, 17500, Note_on_c, 15, 42, 100
1, 17600, Note_on_c, 15, 29, 100
1, 17700, Note_on_c, 15, 42, 100
1, 17800, Note_on_c, 15, 42, 100
1, 17900, Note_on_c, 15, 36, 100
1, 18000, Note_on_c, 15, 42, 100
1, 18100, Note_on_c, 15, 46, 100
1, 18200, Note_on_c, 15, 46, 100
1, 18300, Note_on_c, 15, 41, 100
1, 18400, Note_on_c, 15, 42, 100
1, 18500, Note_on_c, 15, 46, 100
1, 18600, Note_on_c, 15, 42, 100
1, 18700, Note_on_c, 15, 42, 100
1, 18800, Note_on_c, 15, 36, 100
1, 18900, Note_on_c, 15, 42, 100
1, 19000, Note_on_c, 15, 42, 100
1, 19100, Note_on_c, 15, 42, 100
1, 19200, Note_on_c, 15, 36, 100
1, 19300, Note_on_c, 15, 42, 100
1, 19400, Note_on_c, 15, 41, 100
1, 19500, Note_on_c, 15, 41, 100
1, 19600, Note_on_c, 15, 36, 100
1, 19700, Note_on_c, 15, 57, 100
1, 19800, Note_on_c, 15, 42, 100
1, 19900, Note_on_c, 15, 42, 100
1, 20000, Note_on_c, 15, 80, 100
1, 20100, Note_on_c, 15, 36, 100
1, 20200, Note_on_c, 15, 42, 100
1, 20300, Note_on_c, 15, 42, 100
1, 20400, Note_on_c, 15, 46, 100
1, 25500, End_track
0, 0, End_of_file